%
M48
M72
T01C0.01969
T02C0.04000
T03C0.11024
%
T01
X20831Y34689
X59581Y44689
X98862Y52720
X123331Y51564
X140161Y50619
X178286Y58744
X187661Y63744
X204581Y63439
X209581Y58439
X227036Y50619
X242081Y53439
X243331Y45939
X205831Y38439
X198956Y37814
X197706Y33439
X208331Y30939
X213331Y30939
X218331Y30939
X203956Y29064
X198956Y29064
X191411Y29994
X230786Y24369
X343331Y45939
X373331Y34689
X292706Y50939
X265831Y59689
X208911Y70619
T02
X205255Y79599
X195255Y79599
X215255Y79599
T03
X243626Y27091
X166854Y27091
M30
