G75*
%MOIN*%
%OFA0B0*%
%FSLAX25Y25*%
%IPPOS*%
%LPD*%
%AMOC8*
5,1,8,0,0,1.08239X$1,22.5*
%
%ADD10C,0.01200*%
%ADD11C,0.00000*%
%ADD12C,0.01000*%
D10*
X0011343Y0038901D02*
X0023705Y0042662D01*
X0036152Y0046129D01*
X0048678Y0049301D01*
X0061276Y0052176D01*
X0073938Y0054753D01*
X0086657Y0057031D01*
X0099426Y0059007D01*
X0112239Y0060681D01*
X0125087Y0062052D01*
X0137964Y0063119D01*
X0150863Y0063882D01*
X0163777Y0064339D01*
X0176697Y0064492D01*
X0176935Y0064495D01*
X0177173Y0064503D01*
X0177410Y0064518D01*
X0177647Y0064538D01*
X0177883Y0064564D01*
X0178119Y0064595D01*
X0178354Y0064632D01*
X0178588Y0064675D01*
X0178821Y0064724D01*
X0179053Y0064778D01*
X0179283Y0064838D01*
X0179512Y0064903D01*
X0179739Y0064974D01*
X0179964Y0065050D01*
X0180187Y0065132D01*
X0180409Y0065219D01*
X0180628Y0065311D01*
X0180845Y0065409D01*
X0181059Y0065511D01*
X0181271Y0065619D01*
X0181481Y0065733D01*
X0181687Y0065851D01*
X0181891Y0065974D01*
X0182091Y0066102D01*
X0182288Y0066234D01*
X0182483Y0066372D01*
X0182673Y0066514D01*
X0182861Y0066661D01*
X0183044Y0066812D01*
X0183224Y0066967D01*
X0183400Y0067127D01*
X0183572Y0067291D01*
X0183741Y0067460D01*
X0183905Y0067632D01*
X0184065Y0067808D01*
X0184220Y0067988D01*
X0184371Y0068171D01*
X0184518Y0068359D01*
X0184660Y0068549D01*
X0184798Y0068744D01*
X0184930Y0068941D01*
X0185058Y0069141D01*
X0185181Y0069345D01*
X0185299Y0069551D01*
X0185413Y0069761D01*
X0185521Y0069973D01*
X0185623Y0070187D01*
X0185721Y0070404D01*
X0185813Y0070623D01*
X0185900Y0070845D01*
X0185982Y0071068D01*
X0186058Y0071293D01*
X0186129Y0071520D01*
X0186194Y0071749D01*
X0186254Y0071979D01*
X0186308Y0072211D01*
X0186357Y0072444D01*
X0186400Y0072678D01*
X0186437Y0072913D01*
X0186468Y0073149D01*
X0186494Y0073385D01*
X0186514Y0073622D01*
X0186529Y0073859D01*
X0186537Y0074097D01*
X0186540Y0074335D01*
X0186539Y0074335D02*
X0186539Y0084177D01*
X0186541Y0084301D01*
X0186547Y0084424D01*
X0186556Y0084548D01*
X0186570Y0084670D01*
X0186587Y0084793D01*
X0186609Y0084915D01*
X0186634Y0085036D01*
X0186663Y0085156D01*
X0186695Y0085275D01*
X0186732Y0085394D01*
X0186772Y0085511D01*
X0186815Y0085626D01*
X0186863Y0085741D01*
X0186914Y0085853D01*
X0186968Y0085964D01*
X0187026Y0086074D01*
X0187087Y0086181D01*
X0187152Y0086287D01*
X0187220Y0086390D01*
X0187291Y0086491D01*
X0187365Y0086590D01*
X0187442Y0086687D01*
X0187523Y0086781D01*
X0187606Y0086872D01*
X0187692Y0086961D01*
X0187781Y0087047D01*
X0187872Y0087130D01*
X0187966Y0087211D01*
X0188063Y0087288D01*
X0188162Y0087362D01*
X0188263Y0087433D01*
X0188366Y0087501D01*
X0188472Y0087566D01*
X0188579Y0087627D01*
X0188689Y0087685D01*
X0188800Y0087739D01*
X0188912Y0087790D01*
X0189027Y0087838D01*
X0189142Y0087881D01*
X0189259Y0087921D01*
X0189378Y0087958D01*
X0189497Y0087990D01*
X0189617Y0088019D01*
X0189738Y0088044D01*
X0189860Y0088066D01*
X0189983Y0088083D01*
X0190105Y0088097D01*
X0190229Y0088106D01*
X0190352Y0088112D01*
X0190476Y0088114D01*
X0220004Y0088114D01*
X0220128Y0088112D01*
X0220251Y0088106D01*
X0220375Y0088097D01*
X0220497Y0088083D01*
X0220620Y0088066D01*
X0220742Y0088044D01*
X0220863Y0088019D01*
X0220983Y0087990D01*
X0221102Y0087958D01*
X0221221Y0087921D01*
X0221338Y0087881D01*
X0221453Y0087838D01*
X0221568Y0087790D01*
X0221680Y0087739D01*
X0221791Y0087685D01*
X0221901Y0087627D01*
X0222008Y0087566D01*
X0222114Y0087501D01*
X0222217Y0087433D01*
X0222318Y0087362D01*
X0222417Y0087288D01*
X0222514Y0087211D01*
X0222608Y0087130D01*
X0222699Y0087047D01*
X0222788Y0086961D01*
X0222874Y0086872D01*
X0222957Y0086781D01*
X0223038Y0086687D01*
X0223115Y0086590D01*
X0223189Y0086491D01*
X0223260Y0086390D01*
X0223328Y0086287D01*
X0223393Y0086181D01*
X0223454Y0086074D01*
X0223512Y0085964D01*
X0223566Y0085853D01*
X0223617Y0085741D01*
X0223665Y0085626D01*
X0223708Y0085511D01*
X0223748Y0085394D01*
X0223785Y0085275D01*
X0223817Y0085156D01*
X0223846Y0085036D01*
X0223871Y0084915D01*
X0223893Y0084793D01*
X0223910Y0084670D01*
X0223924Y0084548D01*
X0223933Y0084424D01*
X0223939Y0084301D01*
X0223941Y0084177D01*
X0223941Y0074335D01*
X0223940Y0074335D02*
X0223943Y0074097D01*
X0223951Y0073859D01*
X0223966Y0073622D01*
X0223986Y0073385D01*
X0224012Y0073149D01*
X0224043Y0072913D01*
X0224080Y0072678D01*
X0224123Y0072444D01*
X0224172Y0072211D01*
X0224226Y0071979D01*
X0224286Y0071749D01*
X0224351Y0071520D01*
X0224422Y0071293D01*
X0224498Y0071068D01*
X0224580Y0070845D01*
X0224667Y0070623D01*
X0224759Y0070404D01*
X0224857Y0070187D01*
X0224959Y0069973D01*
X0225067Y0069761D01*
X0225181Y0069551D01*
X0225299Y0069345D01*
X0225422Y0069141D01*
X0225550Y0068941D01*
X0225682Y0068744D01*
X0225820Y0068549D01*
X0225962Y0068359D01*
X0226109Y0068171D01*
X0226260Y0067988D01*
X0226415Y0067808D01*
X0226575Y0067632D01*
X0226739Y0067460D01*
X0226908Y0067291D01*
X0227080Y0067127D01*
X0227256Y0066967D01*
X0227436Y0066812D01*
X0227619Y0066661D01*
X0227807Y0066514D01*
X0227997Y0066372D01*
X0228192Y0066234D01*
X0228389Y0066102D01*
X0228589Y0065974D01*
X0228793Y0065851D01*
X0228999Y0065733D01*
X0229209Y0065619D01*
X0229421Y0065511D01*
X0229635Y0065409D01*
X0229852Y0065311D01*
X0230071Y0065219D01*
X0230293Y0065132D01*
X0230516Y0065050D01*
X0230741Y0064974D01*
X0230968Y0064903D01*
X0231197Y0064838D01*
X0231427Y0064778D01*
X0231659Y0064724D01*
X0231892Y0064675D01*
X0232126Y0064632D01*
X0232361Y0064595D01*
X0232597Y0064564D01*
X0232833Y0064538D01*
X0233070Y0064518D01*
X0233307Y0064503D01*
X0233545Y0064495D01*
X0233783Y0064492D01*
X0246703Y0064339D01*
X0259617Y0063882D01*
X0272516Y0063119D01*
X0285393Y0062052D01*
X0298241Y0060681D01*
X0311054Y0059007D01*
X0323823Y0057031D01*
X0336542Y0054753D01*
X0349204Y0052176D01*
X0361802Y0049301D01*
X0374328Y0046129D01*
X0386775Y0042662D01*
X0399137Y0038901D01*
D11*
X0238114Y0027091D02*
X0238116Y0027239D01*
X0238122Y0027387D01*
X0238132Y0027535D01*
X0238146Y0027682D01*
X0238164Y0027829D01*
X0238185Y0027975D01*
X0238211Y0028121D01*
X0238241Y0028266D01*
X0238274Y0028410D01*
X0238312Y0028553D01*
X0238353Y0028695D01*
X0238398Y0028836D01*
X0238446Y0028976D01*
X0238499Y0029115D01*
X0238555Y0029252D01*
X0238615Y0029387D01*
X0238678Y0029521D01*
X0238745Y0029653D01*
X0238816Y0029783D01*
X0238890Y0029911D01*
X0238967Y0030037D01*
X0239048Y0030161D01*
X0239132Y0030283D01*
X0239219Y0030402D01*
X0239310Y0030519D01*
X0239404Y0030634D01*
X0239500Y0030746D01*
X0239600Y0030856D01*
X0239702Y0030962D01*
X0239808Y0031066D01*
X0239916Y0031167D01*
X0240027Y0031265D01*
X0240140Y0031361D01*
X0240256Y0031453D01*
X0240374Y0031542D01*
X0240495Y0031627D01*
X0240618Y0031710D01*
X0240743Y0031789D01*
X0240870Y0031865D01*
X0240999Y0031937D01*
X0241130Y0032006D01*
X0241263Y0032071D01*
X0241398Y0032132D01*
X0241534Y0032190D01*
X0241671Y0032245D01*
X0241810Y0032295D01*
X0241951Y0032342D01*
X0242092Y0032385D01*
X0242235Y0032425D01*
X0242379Y0032460D01*
X0242523Y0032492D01*
X0242669Y0032519D01*
X0242815Y0032543D01*
X0242962Y0032563D01*
X0243109Y0032579D01*
X0243256Y0032591D01*
X0243404Y0032599D01*
X0243552Y0032603D01*
X0243700Y0032603D01*
X0243848Y0032599D01*
X0243996Y0032591D01*
X0244143Y0032579D01*
X0244290Y0032563D01*
X0244437Y0032543D01*
X0244583Y0032519D01*
X0244729Y0032492D01*
X0244873Y0032460D01*
X0245017Y0032425D01*
X0245160Y0032385D01*
X0245301Y0032342D01*
X0245442Y0032295D01*
X0245581Y0032245D01*
X0245718Y0032190D01*
X0245854Y0032132D01*
X0245989Y0032071D01*
X0246122Y0032006D01*
X0246253Y0031937D01*
X0246382Y0031865D01*
X0246509Y0031789D01*
X0246634Y0031710D01*
X0246757Y0031627D01*
X0246878Y0031542D01*
X0246996Y0031453D01*
X0247112Y0031361D01*
X0247225Y0031265D01*
X0247336Y0031167D01*
X0247444Y0031066D01*
X0247550Y0030962D01*
X0247652Y0030856D01*
X0247752Y0030746D01*
X0247848Y0030634D01*
X0247942Y0030519D01*
X0248033Y0030402D01*
X0248120Y0030283D01*
X0248204Y0030161D01*
X0248285Y0030037D01*
X0248362Y0029911D01*
X0248436Y0029783D01*
X0248507Y0029653D01*
X0248574Y0029521D01*
X0248637Y0029387D01*
X0248697Y0029252D01*
X0248753Y0029115D01*
X0248806Y0028976D01*
X0248854Y0028836D01*
X0248899Y0028695D01*
X0248940Y0028553D01*
X0248978Y0028410D01*
X0249011Y0028266D01*
X0249041Y0028121D01*
X0249067Y0027975D01*
X0249088Y0027829D01*
X0249106Y0027682D01*
X0249120Y0027535D01*
X0249130Y0027387D01*
X0249136Y0027239D01*
X0249138Y0027091D01*
X0249136Y0026943D01*
X0249130Y0026795D01*
X0249120Y0026647D01*
X0249106Y0026500D01*
X0249088Y0026353D01*
X0249067Y0026207D01*
X0249041Y0026061D01*
X0249011Y0025916D01*
X0248978Y0025772D01*
X0248940Y0025629D01*
X0248899Y0025487D01*
X0248854Y0025346D01*
X0248806Y0025206D01*
X0248753Y0025067D01*
X0248697Y0024930D01*
X0248637Y0024795D01*
X0248574Y0024661D01*
X0248507Y0024529D01*
X0248436Y0024399D01*
X0248362Y0024271D01*
X0248285Y0024145D01*
X0248204Y0024021D01*
X0248120Y0023899D01*
X0248033Y0023780D01*
X0247942Y0023663D01*
X0247848Y0023548D01*
X0247752Y0023436D01*
X0247652Y0023326D01*
X0247550Y0023220D01*
X0247444Y0023116D01*
X0247336Y0023015D01*
X0247225Y0022917D01*
X0247112Y0022821D01*
X0246996Y0022729D01*
X0246878Y0022640D01*
X0246757Y0022555D01*
X0246634Y0022472D01*
X0246509Y0022393D01*
X0246382Y0022317D01*
X0246253Y0022245D01*
X0246122Y0022176D01*
X0245989Y0022111D01*
X0245854Y0022050D01*
X0245718Y0021992D01*
X0245581Y0021937D01*
X0245442Y0021887D01*
X0245301Y0021840D01*
X0245160Y0021797D01*
X0245017Y0021757D01*
X0244873Y0021722D01*
X0244729Y0021690D01*
X0244583Y0021663D01*
X0244437Y0021639D01*
X0244290Y0021619D01*
X0244143Y0021603D01*
X0243996Y0021591D01*
X0243848Y0021583D01*
X0243700Y0021579D01*
X0243552Y0021579D01*
X0243404Y0021583D01*
X0243256Y0021591D01*
X0243109Y0021603D01*
X0242962Y0021619D01*
X0242815Y0021639D01*
X0242669Y0021663D01*
X0242523Y0021690D01*
X0242379Y0021722D01*
X0242235Y0021757D01*
X0242092Y0021797D01*
X0241951Y0021840D01*
X0241810Y0021887D01*
X0241671Y0021937D01*
X0241534Y0021992D01*
X0241398Y0022050D01*
X0241263Y0022111D01*
X0241130Y0022176D01*
X0240999Y0022245D01*
X0240870Y0022317D01*
X0240743Y0022393D01*
X0240618Y0022472D01*
X0240495Y0022555D01*
X0240374Y0022640D01*
X0240256Y0022729D01*
X0240140Y0022821D01*
X0240027Y0022917D01*
X0239916Y0023015D01*
X0239808Y0023116D01*
X0239702Y0023220D01*
X0239600Y0023326D01*
X0239500Y0023436D01*
X0239404Y0023548D01*
X0239310Y0023663D01*
X0239219Y0023780D01*
X0239132Y0023899D01*
X0239048Y0024021D01*
X0238967Y0024145D01*
X0238890Y0024271D01*
X0238816Y0024399D01*
X0238745Y0024529D01*
X0238678Y0024661D01*
X0238615Y0024795D01*
X0238555Y0024930D01*
X0238499Y0025067D01*
X0238446Y0025206D01*
X0238398Y0025346D01*
X0238353Y0025487D01*
X0238312Y0025629D01*
X0238274Y0025772D01*
X0238241Y0025916D01*
X0238211Y0026061D01*
X0238185Y0026207D01*
X0238164Y0026353D01*
X0238146Y0026500D01*
X0238132Y0026647D01*
X0238122Y0026795D01*
X0238116Y0026943D01*
X0238114Y0027091D01*
X0161342Y0027091D02*
X0161344Y0027239D01*
X0161350Y0027387D01*
X0161360Y0027535D01*
X0161374Y0027682D01*
X0161392Y0027829D01*
X0161413Y0027975D01*
X0161439Y0028121D01*
X0161469Y0028266D01*
X0161502Y0028410D01*
X0161540Y0028553D01*
X0161581Y0028695D01*
X0161626Y0028836D01*
X0161674Y0028976D01*
X0161727Y0029115D01*
X0161783Y0029252D01*
X0161843Y0029387D01*
X0161906Y0029521D01*
X0161973Y0029653D01*
X0162044Y0029783D01*
X0162118Y0029911D01*
X0162195Y0030037D01*
X0162276Y0030161D01*
X0162360Y0030283D01*
X0162447Y0030402D01*
X0162538Y0030519D01*
X0162632Y0030634D01*
X0162728Y0030746D01*
X0162828Y0030856D01*
X0162930Y0030962D01*
X0163036Y0031066D01*
X0163144Y0031167D01*
X0163255Y0031265D01*
X0163368Y0031361D01*
X0163484Y0031453D01*
X0163602Y0031542D01*
X0163723Y0031627D01*
X0163846Y0031710D01*
X0163971Y0031789D01*
X0164098Y0031865D01*
X0164227Y0031937D01*
X0164358Y0032006D01*
X0164491Y0032071D01*
X0164626Y0032132D01*
X0164762Y0032190D01*
X0164899Y0032245D01*
X0165038Y0032295D01*
X0165179Y0032342D01*
X0165320Y0032385D01*
X0165463Y0032425D01*
X0165607Y0032460D01*
X0165751Y0032492D01*
X0165897Y0032519D01*
X0166043Y0032543D01*
X0166190Y0032563D01*
X0166337Y0032579D01*
X0166484Y0032591D01*
X0166632Y0032599D01*
X0166780Y0032603D01*
X0166928Y0032603D01*
X0167076Y0032599D01*
X0167224Y0032591D01*
X0167371Y0032579D01*
X0167518Y0032563D01*
X0167665Y0032543D01*
X0167811Y0032519D01*
X0167957Y0032492D01*
X0168101Y0032460D01*
X0168245Y0032425D01*
X0168388Y0032385D01*
X0168529Y0032342D01*
X0168670Y0032295D01*
X0168809Y0032245D01*
X0168946Y0032190D01*
X0169082Y0032132D01*
X0169217Y0032071D01*
X0169350Y0032006D01*
X0169481Y0031937D01*
X0169610Y0031865D01*
X0169737Y0031789D01*
X0169862Y0031710D01*
X0169985Y0031627D01*
X0170106Y0031542D01*
X0170224Y0031453D01*
X0170340Y0031361D01*
X0170453Y0031265D01*
X0170564Y0031167D01*
X0170672Y0031066D01*
X0170778Y0030962D01*
X0170880Y0030856D01*
X0170980Y0030746D01*
X0171076Y0030634D01*
X0171170Y0030519D01*
X0171261Y0030402D01*
X0171348Y0030283D01*
X0171432Y0030161D01*
X0171513Y0030037D01*
X0171590Y0029911D01*
X0171664Y0029783D01*
X0171735Y0029653D01*
X0171802Y0029521D01*
X0171865Y0029387D01*
X0171925Y0029252D01*
X0171981Y0029115D01*
X0172034Y0028976D01*
X0172082Y0028836D01*
X0172127Y0028695D01*
X0172168Y0028553D01*
X0172206Y0028410D01*
X0172239Y0028266D01*
X0172269Y0028121D01*
X0172295Y0027975D01*
X0172316Y0027829D01*
X0172334Y0027682D01*
X0172348Y0027535D01*
X0172358Y0027387D01*
X0172364Y0027239D01*
X0172366Y0027091D01*
X0172364Y0026943D01*
X0172358Y0026795D01*
X0172348Y0026647D01*
X0172334Y0026500D01*
X0172316Y0026353D01*
X0172295Y0026207D01*
X0172269Y0026061D01*
X0172239Y0025916D01*
X0172206Y0025772D01*
X0172168Y0025629D01*
X0172127Y0025487D01*
X0172082Y0025346D01*
X0172034Y0025206D01*
X0171981Y0025067D01*
X0171925Y0024930D01*
X0171865Y0024795D01*
X0171802Y0024661D01*
X0171735Y0024529D01*
X0171664Y0024399D01*
X0171590Y0024271D01*
X0171513Y0024145D01*
X0171432Y0024021D01*
X0171348Y0023899D01*
X0171261Y0023780D01*
X0171170Y0023663D01*
X0171076Y0023548D01*
X0170980Y0023436D01*
X0170880Y0023326D01*
X0170778Y0023220D01*
X0170672Y0023116D01*
X0170564Y0023015D01*
X0170453Y0022917D01*
X0170340Y0022821D01*
X0170224Y0022729D01*
X0170106Y0022640D01*
X0169985Y0022555D01*
X0169862Y0022472D01*
X0169737Y0022393D01*
X0169610Y0022317D01*
X0169481Y0022245D01*
X0169350Y0022176D01*
X0169217Y0022111D01*
X0169082Y0022050D01*
X0168946Y0021992D01*
X0168809Y0021937D01*
X0168670Y0021887D01*
X0168529Y0021840D01*
X0168388Y0021797D01*
X0168245Y0021757D01*
X0168101Y0021722D01*
X0167957Y0021690D01*
X0167811Y0021663D01*
X0167665Y0021639D01*
X0167518Y0021619D01*
X0167371Y0021603D01*
X0167224Y0021591D01*
X0167076Y0021583D01*
X0166928Y0021579D01*
X0166780Y0021579D01*
X0166632Y0021583D01*
X0166484Y0021591D01*
X0166337Y0021603D01*
X0166190Y0021619D01*
X0166043Y0021639D01*
X0165897Y0021663D01*
X0165751Y0021690D01*
X0165607Y0021722D01*
X0165463Y0021757D01*
X0165320Y0021797D01*
X0165179Y0021840D01*
X0165038Y0021887D01*
X0164899Y0021937D01*
X0164762Y0021992D01*
X0164626Y0022050D01*
X0164491Y0022111D01*
X0164358Y0022176D01*
X0164227Y0022245D01*
X0164098Y0022317D01*
X0163971Y0022393D01*
X0163846Y0022472D01*
X0163723Y0022555D01*
X0163602Y0022640D01*
X0163484Y0022729D01*
X0163368Y0022821D01*
X0163255Y0022917D01*
X0163144Y0023015D01*
X0163036Y0023116D01*
X0162930Y0023220D01*
X0162828Y0023326D01*
X0162728Y0023436D01*
X0162632Y0023548D01*
X0162538Y0023663D01*
X0162447Y0023780D01*
X0162360Y0023899D01*
X0162276Y0024021D01*
X0162195Y0024145D01*
X0162118Y0024271D01*
X0162044Y0024399D01*
X0161973Y0024529D01*
X0161906Y0024661D01*
X0161843Y0024795D01*
X0161783Y0024930D01*
X0161727Y0025067D01*
X0161674Y0025206D01*
X0161626Y0025346D01*
X0161581Y0025487D01*
X0161540Y0025629D01*
X0161502Y0025772D01*
X0161469Y0025916D01*
X0161439Y0026061D01*
X0161413Y0026207D01*
X0161392Y0026353D01*
X0161374Y0026500D01*
X0161360Y0026647D01*
X0161350Y0026795D01*
X0161344Y0026943D01*
X0161342Y0027091D01*
D12*
X0032996Y0019217D02*
X0013311Y0019217D01*
X0013311Y0019216D02*
X0013203Y0019218D01*
X0013095Y0019224D01*
X0012988Y0019234D01*
X0012881Y0019247D01*
X0012775Y0019265D01*
X0012669Y0019287D01*
X0012564Y0019312D01*
X0012460Y0019341D01*
X0012358Y0019374D01*
X0012256Y0019411D01*
X0012156Y0019451D01*
X0012058Y0019495D01*
X0011961Y0019543D01*
X0011866Y0019594D01*
X0011773Y0019648D01*
X0011682Y0019706D01*
X0011593Y0019767D01*
X0011506Y0019832D01*
X0011422Y0019899D01*
X0011340Y0019970D01*
X0011261Y0020043D01*
X0011185Y0020119D01*
X0011112Y0020198D01*
X0011041Y0020280D01*
X0010974Y0020364D01*
X0010909Y0020451D01*
X0010848Y0020540D01*
X0010790Y0020631D01*
X0010736Y0020724D01*
X0010685Y0020819D01*
X0010637Y0020916D01*
X0010593Y0021014D01*
X0010553Y0021114D01*
X0010516Y0021216D01*
X0010483Y0021318D01*
X0010454Y0021422D01*
X0010429Y0021527D01*
X0010407Y0021633D01*
X0010389Y0021739D01*
X0010376Y0021846D01*
X0010366Y0021953D01*
X0010360Y0022061D01*
X0010358Y0022169D01*
X0010358Y0037917D01*
X0010359Y0037917D02*
X0010361Y0037979D01*
X0010367Y0038040D01*
X0010376Y0038101D01*
X0010390Y0038162D01*
X0010407Y0038221D01*
X0010428Y0038279D01*
X0010453Y0038336D01*
X0010481Y0038391D01*
X0010512Y0038444D01*
X0010547Y0038495D01*
X0010585Y0038544D01*
X0010626Y0038591D01*
X0010669Y0038634D01*
X0010716Y0038675D01*
X0010765Y0038713D01*
X0010816Y0038748D01*
X0010869Y0038779D01*
X0010924Y0038807D01*
X0010981Y0038832D01*
X0011039Y0038853D01*
X0011098Y0038870D01*
X0011159Y0038884D01*
X0011220Y0038893D01*
X0011281Y0038899D01*
X0011343Y0038901D01*
X0153075Y0031028D02*
X0157996Y0031028D01*
X0157996Y0027091D01*
X0157999Y0026877D01*
X0158006Y0026663D01*
X0158019Y0026449D01*
X0158037Y0026236D01*
X0158061Y0026023D01*
X0158089Y0025811D01*
X0158122Y0025600D01*
X0158161Y0025389D01*
X0158205Y0025180D01*
X0158253Y0024971D01*
X0158307Y0024764D01*
X0158366Y0024558D01*
X0158430Y0024354D01*
X0158498Y0024151D01*
X0158572Y0023950D01*
X0158650Y0023751D01*
X0158733Y0023553D01*
X0158821Y0023358D01*
X0158913Y0023165D01*
X0159011Y0022974D01*
X0159112Y0022786D01*
X0159219Y0022600D01*
X0159329Y0022417D01*
X0159445Y0022237D01*
X0159564Y0022059D01*
X0159688Y0021884D01*
X0159816Y0021713D01*
X0159948Y0021544D01*
X0160084Y0021379D01*
X0160224Y0021217D01*
X0160368Y0021059D01*
X0160515Y0020904D01*
X0160667Y0020752D01*
X0160822Y0020605D01*
X0160980Y0020461D01*
X0161142Y0020321D01*
X0161307Y0020185D01*
X0161476Y0020053D01*
X0161647Y0019925D01*
X0161822Y0019801D01*
X0162000Y0019682D01*
X0162180Y0019566D01*
X0162363Y0019456D01*
X0162549Y0019349D01*
X0162737Y0019248D01*
X0162928Y0019150D01*
X0163121Y0019058D01*
X0163316Y0018970D01*
X0163514Y0018887D01*
X0163713Y0018809D01*
X0163914Y0018735D01*
X0164117Y0018667D01*
X0164321Y0018603D01*
X0164527Y0018544D01*
X0164734Y0018490D01*
X0164943Y0018442D01*
X0165152Y0018398D01*
X0165363Y0018359D01*
X0165574Y0018326D01*
X0165786Y0018298D01*
X0165999Y0018274D01*
X0166212Y0018256D01*
X0166426Y0018243D01*
X0166640Y0018236D01*
X0166854Y0018233D01*
X0166854Y0018232D02*
X0243626Y0018232D01*
X0243626Y0018233D02*
X0243840Y0018236D01*
X0244054Y0018243D01*
X0244268Y0018256D01*
X0244481Y0018274D01*
X0244694Y0018298D01*
X0244906Y0018326D01*
X0245117Y0018359D01*
X0245328Y0018398D01*
X0245537Y0018442D01*
X0245746Y0018490D01*
X0245953Y0018544D01*
X0246159Y0018603D01*
X0246363Y0018667D01*
X0246566Y0018735D01*
X0246767Y0018809D01*
X0246966Y0018887D01*
X0247164Y0018970D01*
X0247359Y0019058D01*
X0247552Y0019150D01*
X0247743Y0019248D01*
X0247931Y0019349D01*
X0248117Y0019456D01*
X0248300Y0019566D01*
X0248480Y0019682D01*
X0248658Y0019801D01*
X0248833Y0019925D01*
X0249004Y0020053D01*
X0249173Y0020185D01*
X0249338Y0020321D01*
X0249500Y0020461D01*
X0249658Y0020605D01*
X0249813Y0020752D01*
X0249965Y0020904D01*
X0250112Y0021059D01*
X0250256Y0021217D01*
X0250396Y0021379D01*
X0250532Y0021544D01*
X0250664Y0021713D01*
X0250792Y0021884D01*
X0250916Y0022059D01*
X0251035Y0022237D01*
X0251151Y0022417D01*
X0251261Y0022600D01*
X0251368Y0022786D01*
X0251469Y0022974D01*
X0251567Y0023165D01*
X0251659Y0023358D01*
X0251747Y0023553D01*
X0251830Y0023751D01*
X0251908Y0023950D01*
X0251982Y0024151D01*
X0252050Y0024354D01*
X0252114Y0024558D01*
X0252173Y0024764D01*
X0252227Y0024971D01*
X0252275Y0025180D01*
X0252319Y0025389D01*
X0252358Y0025600D01*
X0252391Y0025811D01*
X0252419Y0026023D01*
X0252443Y0026236D01*
X0252461Y0026449D01*
X0252474Y0026663D01*
X0252481Y0026877D01*
X0252484Y0027091D01*
X0252484Y0031028D01*
X0257406Y0031028D01*
X0377484Y0019217D02*
X0397169Y0019217D01*
X0397169Y0019216D02*
X0397277Y0019218D01*
X0397385Y0019224D01*
X0397492Y0019234D01*
X0397599Y0019247D01*
X0397705Y0019265D01*
X0397811Y0019287D01*
X0397916Y0019312D01*
X0398020Y0019341D01*
X0398122Y0019374D01*
X0398224Y0019411D01*
X0398324Y0019451D01*
X0398422Y0019495D01*
X0398519Y0019543D01*
X0398614Y0019594D01*
X0398707Y0019648D01*
X0398798Y0019706D01*
X0398887Y0019767D01*
X0398974Y0019832D01*
X0399058Y0019899D01*
X0399140Y0019970D01*
X0399219Y0020043D01*
X0399295Y0020119D01*
X0399368Y0020198D01*
X0399439Y0020280D01*
X0399506Y0020364D01*
X0399571Y0020451D01*
X0399632Y0020540D01*
X0399690Y0020631D01*
X0399744Y0020724D01*
X0399795Y0020819D01*
X0399843Y0020916D01*
X0399887Y0021014D01*
X0399927Y0021114D01*
X0399964Y0021216D01*
X0399997Y0021318D01*
X0400026Y0021422D01*
X0400051Y0021527D01*
X0400073Y0021633D01*
X0400091Y0021739D01*
X0400104Y0021846D01*
X0400114Y0021953D01*
X0400120Y0022061D01*
X0400122Y0022169D01*
X0400122Y0037917D01*
X0400120Y0037979D01*
X0400114Y0038040D01*
X0400105Y0038101D01*
X0400091Y0038162D01*
X0400074Y0038221D01*
X0400053Y0038279D01*
X0400028Y0038336D01*
X0400000Y0038391D01*
X0399969Y0038444D01*
X0399934Y0038495D01*
X0399896Y0038544D01*
X0399855Y0038591D01*
X0399812Y0038634D01*
X0399765Y0038675D01*
X0399716Y0038713D01*
X0399665Y0038748D01*
X0399612Y0038779D01*
X0399557Y0038807D01*
X0399500Y0038832D01*
X0399442Y0038853D01*
X0399383Y0038870D01*
X0399322Y0038884D01*
X0399261Y0038893D01*
X0399200Y0038899D01*
X0399138Y0038901D01*
X0377484Y0019217D02*
X0362632Y0021978D01*
X0347717Y0024375D01*
X0332748Y0026405D01*
X0317734Y0028068D01*
X0302684Y0029362D01*
X0287606Y0030288D01*
X0272510Y0030843D01*
X0257405Y0031028D01*
X0153075Y0031028D02*
X0137970Y0030843D01*
X0122874Y0030288D01*
X0107796Y0029362D01*
X0092746Y0028068D01*
X0077732Y0026405D01*
X0062763Y0024375D01*
X0047848Y0021978D01*
X0032996Y0019217D01*
M02*
