G75*
%MOIN*%
%OFA0B0*%
%FSLAX25Y25*%
%IPPOS*%
%LPD*%
%AMOC8*
5,1,8,0,0,1.08239X$1,22.5*
%
%ADD10C,0.00600*%
%ADD11R,0.05150X0.05150*%
%ADD12C,0.05150*%
%ADD13C,0.06000*%
%ADD14C,0.05600*%
%ADD15C,0.07400*%
%ADD16C,0.03569*%
%ADD17C,0.01000*%
%ADD18C,0.01200*%
%ADD19C,0.02400*%
%ADD20C,0.01600*%
%ADD21C,0.04000*%
%ADD22C,0.04356*%
%ADD23C,0.05000*%
%ADD24C,0.05315*%
D10*
X0025422Y0058888D02*
X0025422Y0062091D01*
X0026490Y0063159D01*
X0028625Y0063159D01*
X0029692Y0062091D01*
X0029692Y0058888D01*
X0031828Y0058888D02*
X0025422Y0058888D01*
X0025422Y0065334D02*
X0025422Y0067469D01*
X0025422Y0066401D02*
X0029692Y0066401D01*
X0029692Y0065334D01*
X0031828Y0066401D02*
X0032895Y0066401D01*
X0028625Y0069631D02*
X0026490Y0069631D01*
X0025422Y0070698D01*
X0025422Y0072834D01*
X0026490Y0073901D01*
X0028625Y0073901D01*
X0029692Y0072834D01*
X0029692Y0070698D01*
X0028625Y0069631D01*
X0029692Y0076076D02*
X0025422Y0076076D01*
X0029692Y0076076D02*
X0029692Y0079279D01*
X0028625Y0080347D01*
X0025422Y0080347D01*
X0025422Y0082522D02*
X0025422Y0084657D01*
X0025422Y0083589D02*
X0029692Y0083589D01*
X0029692Y0082522D01*
X0031828Y0083589D02*
X0032895Y0083589D01*
X0031828Y0086819D02*
X0025422Y0086819D01*
X0027557Y0086819D02*
X0029692Y0090022D01*
X0027557Y0086819D02*
X0025422Y0090022D01*
X0024354Y0092190D02*
X0024354Y0096460D01*
X0025422Y0098636D02*
X0025422Y0100771D01*
X0025422Y0099703D02*
X0031828Y0099703D01*
X0031828Y0098636D01*
X0028625Y0102933D02*
X0028625Y0105068D01*
X0030760Y0104000D02*
X0031828Y0105068D01*
X0030760Y0104000D02*
X0025422Y0104000D01*
X0535071Y0083552D02*
X0535071Y0079282D01*
X0535071Y0083552D01*
X0536139Y0085727D02*
X0536139Y0087863D01*
X0536139Y0085727D01*
X0536139Y0086795D02*
X0542544Y0086795D01*
X0542544Y0085727D01*
X0542544Y0086795D01*
X0536139Y0086795D01*
X0536139Y0091092D02*
X0541476Y0091092D01*
X0542544Y0092160D01*
X0541476Y0091092D01*
X0536139Y0091092D01*
X0539341Y0090024D02*
X0539341Y0092160D01*
X0539341Y0090024D01*
X0540409Y0077113D02*
X0538274Y0073911D01*
X0536139Y0077113D01*
X0538274Y0073911D01*
X0540409Y0077113D01*
X0542544Y0073911D02*
X0536139Y0073911D01*
X0542544Y0073911D01*
X0542544Y0070681D02*
X0543612Y0070681D01*
X0542544Y0070681D01*
X0540409Y0070681D02*
X0536139Y0070681D01*
X0540409Y0070681D01*
X0540409Y0069614D01*
X0540409Y0070681D01*
X0536139Y0069614D02*
X0536139Y0071749D01*
X0536139Y0069614D01*
X0536139Y0067438D02*
X0539341Y0067438D01*
X0540409Y0066371D01*
X0540409Y0063168D01*
X0536139Y0063168D01*
X0540409Y0063168D01*
X0540409Y0066371D01*
X0539341Y0067438D01*
X0536139Y0067438D01*
X0537206Y0060993D02*
X0539341Y0060993D01*
X0540409Y0059925D01*
X0540409Y0057790D01*
X0539341Y0056723D01*
X0537206Y0056723D01*
X0536139Y0057790D01*
X0536139Y0059925D01*
X0537206Y0060993D01*
X0539341Y0060993D01*
X0540409Y0059925D01*
X0540409Y0057790D01*
X0539341Y0056723D01*
X0537206Y0056723D01*
X0536139Y0057790D01*
X0536139Y0059925D01*
X0537206Y0060993D01*
X0536139Y0054561D02*
X0536139Y0052426D01*
X0536139Y0054561D01*
X0536139Y0053493D02*
X0540409Y0053493D01*
X0540409Y0052426D01*
X0540409Y0053493D01*
X0536139Y0053493D01*
X0542544Y0053493D02*
X0543612Y0053493D01*
X0542544Y0053493D01*
X0539341Y0050250D02*
X0537206Y0050250D01*
X0536139Y0049183D01*
X0536139Y0045980D01*
X0542544Y0045980D01*
X0536139Y0045980D01*
X0536139Y0049183D01*
X0537206Y0050250D01*
X0539341Y0050250D01*
X0540409Y0049183D01*
X0540409Y0045980D01*
X0540409Y0049183D01*
X0539341Y0050250D01*
D11*
X0389095Y0028424D03*
D12*
X0399095Y0028424D03*
X0409095Y0028424D03*
D13*
X0320055Y0030708D02*
X0320055Y0024708D01*
X0310055Y0024708D02*
X0310055Y0030708D01*
X0300055Y0030708D02*
X0300055Y0024708D01*
X0290055Y0024708D02*
X0290055Y0030708D01*
X0269338Y0030675D02*
X0269338Y0024675D01*
X0259338Y0024675D02*
X0259338Y0030675D01*
X0249338Y0030675D02*
X0249338Y0024675D01*
X0209524Y0024655D02*
X0209524Y0030655D01*
X0199524Y0030655D02*
X0199524Y0024655D01*
X0189524Y0024655D02*
X0189524Y0030655D01*
X0179524Y0030655D02*
X0179524Y0024655D01*
X0169524Y0024655D02*
X0169524Y0030655D01*
X0159524Y0030655D02*
X0159524Y0024655D01*
D14*
X0111410Y0056537D03*
X0111410Y0064411D03*
X0111410Y0072285D03*
X0111410Y0080159D03*
X0111410Y0088033D03*
X0111410Y0095907D03*
X0458315Y0096078D03*
X0458315Y0088204D03*
X0458315Y0080330D03*
X0458315Y0072456D03*
X0458315Y0064582D03*
X0458315Y0056708D03*
D15*
X0362566Y0027713D03*
X0352566Y0027713D03*
X0342566Y0027713D03*
D16*
X0322499Y0047530D03*
X0303749Y0051280D03*
X0289999Y0048155D03*
X0259374Y0048780D03*
X0228749Y0046905D03*
X0198124Y0040030D03*
X0228749Y0035655D03*
X0197499Y0050030D03*
X0174999Y0050655D03*
X0174999Y0076280D03*
X0198124Y0077530D03*
X0241249Y0076280D03*
X0241249Y0082530D03*
X0266874Y0094405D03*
X0256249Y0097530D03*
X0273124Y0104405D03*
X0276249Y0107530D03*
X0279999Y0111280D03*
X0288124Y0115030D03*
X0298124Y0105655D03*
X0302499Y0100655D03*
X0306874Y0096905D03*
X0315624Y0093780D03*
X0333749Y0090030D03*
X0329999Y0086905D03*
X0318124Y0085655D03*
X0294374Y0085655D03*
X0294374Y0091280D03*
X0284374Y0091280D03*
X0284374Y0098155D03*
X0279374Y0098155D03*
X0329374Y0111280D03*
X0340624Y0105655D03*
X0351249Y0105030D03*
X0370624Y0105030D03*
X0377499Y0106280D03*
X0398124Y0098780D03*
X0401874Y0101905D03*
X0406249Y0103780D03*
X0354999Y0086905D03*
X0345624Y0075655D03*
X0345624Y0070655D03*
X0326249Y0070030D03*
X0314374Y0074405D03*
X0308749Y0072530D03*
X0339374Y0117530D03*
X0298124Y0136905D03*
X0301874Y0140655D03*
X0311874Y0144405D03*
X0264374Y0143780D03*
X0256874Y0143780D03*
D17*
X0052505Y0028973D02*
X0050075Y0030376D01*
X0048091Y0032360D01*
X0046688Y0034790D01*
X0045962Y0037500D01*
X0045870Y0038903D01*
X0045870Y0043835D01*
X0045109Y0045673D01*
X0043702Y0047079D01*
X0041865Y0047840D01*
X0014374Y0047840D01*
X0014374Y0104769D01*
X0023422Y0104769D01*
X0023422Y0103172D01*
X0024208Y0102385D01*
X0023422Y0101599D01*
X0023422Y0098356D01*
X0022354Y0097289D01*
X0022354Y0091362D01*
X0023434Y0090282D01*
X0023298Y0089601D01*
X0024130Y0088355D01*
X0023422Y0087647D01*
X0023422Y0085990D01*
X0023675Y0085738D01*
X0023422Y0085485D01*
X0023422Y0081693D01*
X0023681Y0081434D01*
X0023422Y0081175D01*
X0023422Y0079518D01*
X0024594Y0078347D01*
X0027692Y0078347D01*
X0027692Y0078076D01*
X0024594Y0078076D01*
X0023422Y0076905D01*
X0023422Y0075248D01*
X0024215Y0074455D01*
X0024158Y0074398D01*
X0023422Y0073662D01*
X0023422Y0069870D01*
X0024208Y0069084D01*
X0023422Y0068297D01*
X0023422Y0064505D01*
X0024215Y0063712D01*
X0024158Y0063655D01*
X0023422Y0062920D01*
X0023422Y0058060D01*
X0024594Y0056888D01*
X0032656Y0056888D01*
X0033827Y0058060D01*
X0033827Y0059717D01*
X0032656Y0060888D01*
X0031692Y0060888D01*
X0031692Y0062920D01*
X0030899Y0063712D01*
X0031588Y0064401D01*
X0033724Y0064401D01*
X0034895Y0065573D01*
X0034895Y0067230D01*
X0033724Y0068401D01*
X0030999Y0068401D01*
X0030760Y0068162D01*
X0030521Y0068401D01*
X0030224Y0068401D01*
X0030521Y0068698D01*
X0030935Y0069113D01*
X0031692Y0069870D01*
X0031692Y0073662D01*
X0030899Y0074455D01*
X0031692Y0075248D01*
X0031692Y0080108D01*
X0030899Y0080900D01*
X0031588Y0081589D01*
X0033724Y0081589D01*
X0034895Y0082761D01*
X0034895Y0084418D01*
X0033724Y0085589D01*
X0033426Y0085589D01*
X0033827Y0085990D01*
X0033827Y0087647D01*
X0032656Y0088819D01*
X0031294Y0088819D01*
X0031816Y0089601D01*
X0031491Y0091226D01*
X0030112Y0092145D01*
X0028488Y0091820D01*
X0027557Y0090424D01*
X0026627Y0091820D01*
X0026354Y0091875D01*
X0026354Y0096740D01*
X0027318Y0097703D01*
X0029932Y0097703D01*
X0030999Y0096636D01*
X0032656Y0096636D01*
X0033827Y0097807D01*
X0033827Y0100532D01*
X0032656Y0101703D01*
X0030224Y0101703D01*
X0030521Y0102000D01*
X0031588Y0102000D01*
X0032346Y0102757D01*
X0032760Y0103172D01*
X0033827Y0104239D01*
X0033827Y0104769D01*
X0041865Y0104769D01*
X0043702Y0105531D01*
X0045109Y0106937D01*
X0045870Y0108775D01*
X0045870Y0113706D01*
X0045962Y0115109D01*
X0046688Y0117820D01*
X0048091Y0120249D01*
X0050075Y0122233D01*
X0052505Y0123636D01*
X0055215Y0124363D01*
X0056618Y0124455D01*
X0060555Y0124455D01*
X0061958Y0124363D01*
X0064668Y0123636D01*
X0067098Y0122233D01*
X0069082Y0120249D01*
X0070485Y0117820D01*
X0071211Y0115109D01*
X0071303Y0113707D01*
X0071303Y0100901D01*
X0072064Y0099063D01*
X0073471Y0097657D01*
X0075309Y0096895D01*
X0107213Y0096895D01*
X0107110Y0096246D01*
X0107110Y0096195D01*
X0111122Y0096195D01*
X0111122Y0095620D01*
X0107110Y0095620D01*
X0107110Y0095569D01*
X0107215Y0094900D01*
X0107425Y0094257D01*
X0107732Y0093654D01*
X0108130Y0093106D01*
X0108608Y0092627D01*
X0109156Y0092230D01*
X0109436Y0092087D01*
X0108861Y0091848D01*
X0107595Y0090582D01*
X0106910Y0088928D01*
X0106910Y0087138D01*
X0107595Y0085484D01*
X0108861Y0084218D01*
X0109155Y0084096D01*
X0108861Y0083974D01*
X0107595Y0082708D01*
X0106910Y0081054D01*
X0106910Y0079264D01*
X0107595Y0077610D01*
X0108861Y0076344D01*
X0109155Y0076222D01*
X0108861Y0076100D01*
X0107595Y0074834D01*
X0106910Y0073180D01*
X0106910Y0071390D01*
X0107595Y0069736D01*
X0108861Y0068470D01*
X0109155Y0068348D01*
X0108861Y0068226D01*
X0107595Y0066960D01*
X0106910Y0065306D01*
X0106910Y0063516D01*
X0107595Y0061862D01*
X0108861Y0060596D01*
X0109155Y0060474D01*
X0108861Y0060352D01*
X0107595Y0059086D01*
X0106910Y0057432D01*
X0106910Y0055714D01*
X0075309Y0055714D01*
X0073471Y0054953D01*
X0072064Y0053547D01*
X0071303Y0051709D01*
X0071303Y0038903D01*
X0071211Y0037500D01*
X0070485Y0034790D01*
X0069082Y0032360D01*
X0067098Y0030376D01*
X0064668Y0028973D01*
X0061958Y0028247D01*
X0060555Y0028155D01*
X0056618Y0028155D01*
X0055215Y0028247D01*
X0052505Y0028973D01*
X0052505Y0028973D01*
X0052205Y0029146D02*
X0064968Y0029146D01*
X0066697Y0030145D02*
X0050476Y0030145D01*
X0049308Y0031143D02*
X0067865Y0031143D01*
X0068864Y0032142D02*
X0060384Y0032142D01*
X0060008Y0032041D02*
X0062755Y0032777D01*
X0065217Y0034199D01*
X0067228Y0036209D01*
X0068650Y0038672D01*
X0069386Y0041419D01*
X0069386Y0044262D01*
X0068650Y0047009D01*
X0067228Y0049471D01*
X0065217Y0051482D01*
X0062755Y0052904D01*
X0060008Y0053640D01*
X0057165Y0053640D01*
X0054418Y0052904D01*
X0051956Y0051482D01*
X0049945Y0049471D01*
X0048523Y0047009D01*
X0047787Y0044262D01*
X0047787Y0041419D01*
X0048523Y0038672D01*
X0049945Y0036209D01*
X0051956Y0034199D01*
X0054418Y0032777D01*
X0057165Y0032041D01*
X0060008Y0032041D01*
X0056789Y0032142D02*
X0048310Y0032142D01*
X0047641Y0033140D02*
X0053789Y0033140D01*
X0052059Y0034139D02*
X0047064Y0034139D01*
X0046595Y0035137D02*
X0051017Y0035137D01*
X0050019Y0036136D02*
X0046328Y0036136D01*
X0046060Y0037134D02*
X0049411Y0037134D01*
X0048835Y0038133D02*
X0045921Y0038133D01*
X0045870Y0039131D02*
X0048400Y0039131D01*
X0048133Y0040130D02*
X0045870Y0040130D01*
X0045870Y0041129D02*
X0047865Y0041129D01*
X0047787Y0042127D02*
X0045870Y0042127D01*
X0045870Y0043126D02*
X0047787Y0043126D01*
X0047787Y0044124D02*
X0045750Y0044124D01*
X0045337Y0045123D02*
X0048018Y0045123D01*
X0048286Y0046121D02*
X0044660Y0046121D01*
X0043605Y0047120D02*
X0048587Y0047120D01*
X0049164Y0048118D02*
X0014374Y0048118D01*
X0014374Y0049117D02*
X0049740Y0049117D01*
X0050589Y0050115D02*
X0014374Y0050115D01*
X0014374Y0051114D02*
X0051587Y0051114D01*
X0053047Y0052112D02*
X0014374Y0052112D01*
X0014374Y0053111D02*
X0055191Y0053111D01*
X0061982Y0053111D02*
X0071884Y0053111D01*
X0071470Y0052112D02*
X0064126Y0052112D01*
X0065586Y0051114D02*
X0071303Y0051114D01*
X0071303Y0050115D02*
X0066584Y0050115D01*
X0067433Y0049117D02*
X0071303Y0049117D01*
X0071303Y0048118D02*
X0068009Y0048118D01*
X0068586Y0047120D02*
X0071303Y0047120D01*
X0071303Y0046121D02*
X0068888Y0046121D01*
X0069155Y0045123D02*
X0071303Y0045123D01*
X0071303Y0044124D02*
X0069386Y0044124D01*
X0069386Y0043126D02*
X0071303Y0043126D01*
X0071303Y0042127D02*
X0069386Y0042127D01*
X0069308Y0041129D02*
X0071303Y0041129D01*
X0071303Y0040130D02*
X0069041Y0040130D01*
X0068773Y0039131D02*
X0071303Y0039131D01*
X0071253Y0038133D02*
X0068339Y0038133D01*
X0067762Y0037134D02*
X0071113Y0037134D01*
X0070846Y0036136D02*
X0067155Y0036136D01*
X0066156Y0035137D02*
X0070578Y0035137D01*
X0070109Y0034139D02*
X0065114Y0034139D01*
X0063384Y0033140D02*
X0069532Y0033140D01*
X0072627Y0054109D02*
X0014374Y0054109D01*
X0014374Y0055108D02*
X0073844Y0055108D01*
X0106910Y0056106D02*
X0014374Y0056106D01*
X0014374Y0057105D02*
X0024377Y0057105D01*
X0023422Y0058103D02*
X0014374Y0058103D01*
X0014374Y0059102D02*
X0023422Y0059102D01*
X0023422Y0060100D02*
X0014374Y0060100D01*
X0014374Y0061099D02*
X0023422Y0061099D01*
X0023422Y0062097D02*
X0014374Y0062097D01*
X0014374Y0063096D02*
X0023598Y0063096D01*
X0023833Y0064094D02*
X0014374Y0064094D01*
X0014374Y0065093D02*
X0023422Y0065093D01*
X0023422Y0066091D02*
X0014374Y0066091D01*
X0014374Y0067090D02*
X0023422Y0067090D01*
X0023422Y0068088D02*
X0014374Y0068088D01*
X0014374Y0069087D02*
X0024205Y0069087D01*
X0023422Y0070085D02*
X0014374Y0070085D01*
X0014374Y0071084D02*
X0023422Y0071084D01*
X0023422Y0072082D02*
X0014374Y0072082D01*
X0014374Y0073081D02*
X0023422Y0073081D01*
X0023839Y0074079D02*
X0014374Y0074079D01*
X0014374Y0075078D02*
X0023592Y0075078D01*
X0023422Y0076076D02*
X0014374Y0076076D01*
X0014374Y0077075D02*
X0023592Y0077075D01*
X0024591Y0078073D02*
X0014374Y0078073D01*
X0014374Y0079072D02*
X0023868Y0079072D01*
X0023422Y0080070D02*
X0014374Y0080070D01*
X0014374Y0081069D02*
X0023422Y0081069D01*
X0023422Y0082067D02*
X0014374Y0082067D01*
X0014374Y0083066D02*
X0023422Y0083066D01*
X0023422Y0084065D02*
X0014374Y0084065D01*
X0014374Y0085063D02*
X0023422Y0085063D01*
X0023422Y0086062D02*
X0014374Y0086062D01*
X0014374Y0087060D02*
X0023422Y0087060D01*
X0023833Y0088059D02*
X0014374Y0088059D01*
X0014374Y0089057D02*
X0023661Y0089057D01*
X0023389Y0090056D02*
X0014374Y0090056D01*
X0014374Y0091054D02*
X0022662Y0091054D01*
X0022354Y0092053D02*
X0014374Y0092053D01*
X0014374Y0093051D02*
X0022354Y0093051D01*
X0022354Y0094050D02*
X0014374Y0094050D01*
X0014374Y0095048D02*
X0022354Y0095048D01*
X0022354Y0096047D02*
X0014374Y0096047D01*
X0014374Y0097045D02*
X0022354Y0097045D01*
X0023109Y0098044D02*
X0014374Y0098044D01*
X0014374Y0099042D02*
X0023422Y0099042D01*
X0023422Y0100041D02*
X0014374Y0100041D01*
X0014374Y0101039D02*
X0023422Y0101039D01*
X0023861Y0102038D02*
X0014374Y0102038D01*
X0014374Y0103036D02*
X0023558Y0103036D01*
X0023422Y0104035D02*
X0014374Y0104035D01*
X0031626Y0102038D02*
X0051046Y0102038D01*
X0051956Y0101128D02*
X0054418Y0099706D01*
X0057165Y0098970D01*
X0060008Y0098970D01*
X0062755Y0099706D01*
X0065217Y0101128D01*
X0067228Y0103139D01*
X0068650Y0105601D01*
X0069386Y0108348D01*
X0069386Y0111191D01*
X0068650Y0113938D01*
X0067228Y0116400D01*
X0065217Y0118411D01*
X0062755Y0119833D01*
X0060008Y0120569D01*
X0057165Y0120569D01*
X0054418Y0119833D01*
X0051956Y0118411D01*
X0049945Y0116400D01*
X0048523Y0113938D01*
X0047787Y0111191D01*
X0047787Y0108348D01*
X0048523Y0105601D01*
X0049945Y0103139D01*
X0051956Y0101128D01*
X0052109Y0101039D02*
X0033320Y0101039D01*
X0033827Y0100041D02*
X0053839Y0100041D01*
X0056897Y0099042D02*
X0033827Y0099042D01*
X0033827Y0098044D02*
X0073084Y0098044D01*
X0072085Y0099042D02*
X0060277Y0099042D01*
X0063334Y0100041D02*
X0071659Y0100041D01*
X0071303Y0101039D02*
X0065064Y0101039D01*
X0066127Y0102038D02*
X0071303Y0102038D01*
X0071303Y0103036D02*
X0067126Y0103036D01*
X0067745Y0104035D02*
X0071303Y0104035D01*
X0071303Y0105033D02*
X0068322Y0105033D01*
X0068765Y0106032D02*
X0071303Y0106032D01*
X0071303Y0107030D02*
X0069033Y0107030D01*
X0069300Y0108029D02*
X0071303Y0108029D01*
X0071303Y0109027D02*
X0069386Y0109027D01*
X0069386Y0110026D02*
X0071303Y0110026D01*
X0071303Y0111024D02*
X0069386Y0111024D01*
X0069163Y0112023D02*
X0071303Y0112023D01*
X0071303Y0113021D02*
X0068895Y0113021D01*
X0068603Y0114020D02*
X0071283Y0114020D01*
X0071217Y0115018D02*
X0068026Y0115018D01*
X0067450Y0116017D02*
X0070968Y0116017D01*
X0070700Y0117015D02*
X0066613Y0117015D01*
X0065615Y0118014D02*
X0070373Y0118014D01*
X0069796Y0119012D02*
X0064176Y0119012D01*
X0062090Y0120011D02*
X0069220Y0120011D01*
X0068322Y0121009D02*
X0048851Y0121009D01*
X0047953Y0120011D02*
X0055083Y0120011D01*
X0052997Y0119012D02*
X0047377Y0119012D01*
X0046800Y0118014D02*
X0051559Y0118014D01*
X0050560Y0117015D02*
X0046473Y0117015D01*
X0046205Y0116017D02*
X0049724Y0116017D01*
X0049147Y0115018D02*
X0045956Y0115018D01*
X0045891Y0114020D02*
X0048571Y0114020D01*
X0048278Y0113021D02*
X0045870Y0113021D01*
X0045870Y0112023D02*
X0048010Y0112023D01*
X0047787Y0111024D02*
X0045870Y0111024D01*
X0045870Y0110026D02*
X0047787Y0110026D01*
X0047787Y0109027D02*
X0045870Y0109027D01*
X0045561Y0108029D02*
X0047873Y0108029D01*
X0048140Y0107030D02*
X0045147Y0107030D01*
X0044203Y0106032D02*
X0048408Y0106032D01*
X0048851Y0105033D02*
X0042501Y0105033D01*
X0049428Y0104035D02*
X0033623Y0104035D01*
X0032760Y0103172D02*
X0032760Y0103172D01*
X0032624Y0103036D02*
X0050047Y0103036D01*
X0033065Y0097045D02*
X0074947Y0097045D01*
X0107192Y0095048D02*
X0026354Y0095048D01*
X0026354Y0094050D02*
X0107530Y0094050D01*
X0108185Y0093051D02*
X0026354Y0093051D01*
X0026354Y0092053D02*
X0029649Y0092053D01*
X0030251Y0092053D02*
X0109354Y0092053D01*
X0108066Y0091054D02*
X0031525Y0091054D01*
X0031725Y0090056D02*
X0107377Y0090056D01*
X0106963Y0089057D02*
X0031453Y0089057D01*
X0033416Y0088059D02*
X0106910Y0088059D01*
X0106942Y0087060D02*
X0033827Y0087060D01*
X0033827Y0086062D02*
X0107356Y0086062D01*
X0108016Y0085063D02*
X0034250Y0085063D01*
X0034895Y0084065D02*
X0109079Y0084065D01*
X0107952Y0083066D02*
X0034895Y0083066D01*
X0034202Y0082067D02*
X0107329Y0082067D01*
X0106916Y0081069D02*
X0031068Y0081069D01*
X0031692Y0080070D02*
X0106910Y0080070D01*
X0106989Y0079072D02*
X0031692Y0079072D01*
X0031692Y0078073D02*
X0107403Y0078073D01*
X0108130Y0077075D02*
X0031692Y0077075D01*
X0031692Y0076076D02*
X0108837Y0076076D01*
X0107838Y0075078D02*
X0031522Y0075078D01*
X0031275Y0074079D02*
X0107282Y0074079D01*
X0106910Y0073081D02*
X0031692Y0073081D01*
X0031692Y0072082D02*
X0106910Y0072082D01*
X0107036Y0071084D02*
X0031692Y0071084D01*
X0031692Y0070085D02*
X0107450Y0070085D01*
X0108244Y0069087D02*
X0030909Y0069087D01*
X0030521Y0068698D02*
X0030521Y0068698D01*
X0034037Y0068088D02*
X0108723Y0068088D01*
X0107724Y0067090D02*
X0034895Y0067090D01*
X0034895Y0066091D02*
X0107235Y0066091D01*
X0106910Y0065093D02*
X0034415Y0065093D01*
X0031281Y0064094D02*
X0106910Y0064094D01*
X0107084Y0063096D02*
X0031516Y0063096D01*
X0031692Y0062097D02*
X0107497Y0062097D01*
X0108358Y0061099D02*
X0031692Y0061099D01*
X0033444Y0060100D02*
X0108609Y0060100D01*
X0107610Y0059102D02*
X0033827Y0059102D01*
X0033827Y0058103D02*
X0107188Y0058103D01*
X0106910Y0057105D02*
X0032872Y0057105D01*
X0117220Y0086062D02*
X0273995Y0086062D01*
X0274060Y0085996D02*
X0285837Y0085996D01*
X0274667Y0074826D01*
X0244365Y0074698D01*
X0244733Y0075587D01*
X0244733Y0076973D01*
X0244203Y0078254D01*
X0243223Y0079234D01*
X0242809Y0079405D01*
X0243223Y0079577D01*
X0244203Y0080557D01*
X0244733Y0081837D01*
X0244733Y0083223D01*
X0244203Y0084504D01*
X0243223Y0085484D01*
X0241942Y0086015D01*
X0240556Y0086015D01*
X0239275Y0085484D01*
X0238522Y0084730D01*
X0203326Y0084730D01*
X0203262Y0084786D01*
X0202426Y0084730D01*
X0201588Y0084730D01*
X0201528Y0084670D01*
X0201443Y0084665D01*
X0200892Y0084034D01*
X0200299Y0083442D01*
X0200299Y0083357D01*
X0198249Y0081015D01*
X0197431Y0081015D01*
X0196150Y0080484D01*
X0195170Y0079504D01*
X0194640Y0078223D01*
X0194640Y0076837D01*
X0194736Y0076605D01*
X0178483Y0076605D01*
X0178483Y0076973D01*
X0177953Y0078254D01*
X0176973Y0079234D01*
X0175692Y0079765D01*
X0174306Y0079765D01*
X0173025Y0079234D01*
X0172045Y0078254D01*
X0171515Y0076973D01*
X0171515Y0075587D01*
X0172010Y0074391D01*
X0129073Y0074209D01*
X0115910Y0087372D01*
X0115910Y0088928D01*
X0115225Y0090582D01*
X0113959Y0091848D01*
X0113383Y0092087D01*
X0113663Y0092230D01*
X0114211Y0092627D01*
X0114689Y0093106D01*
X0115087Y0093654D01*
X0115395Y0094257D01*
X0115604Y0094900D01*
X0115710Y0095569D01*
X0115710Y0095620D01*
X0111697Y0095620D01*
X0111697Y0096195D01*
X0115710Y0096195D01*
X0115710Y0096246D01*
X0115607Y0096895D01*
X0152101Y0096895D01*
X0153939Y0097657D01*
X0155345Y0099063D01*
X0156106Y0100901D01*
X0156106Y0108706D01*
X0212893Y0108706D01*
X0218170Y0110120D01*
X0222901Y0112852D01*
X0226764Y0116715D01*
X0229495Y0121446D01*
X0230909Y0126723D01*
X0230909Y0147527D01*
X0231594Y0144971D01*
X0233016Y0142509D01*
X0235027Y0140498D01*
X0237489Y0139076D01*
X0240236Y0138340D01*
X0243079Y0138340D01*
X0245826Y0139076D01*
X0248288Y0140498D01*
X0250299Y0142509D01*
X0251721Y0144971D01*
X0252457Y0147718D01*
X0252457Y0150561D01*
X0251721Y0153308D01*
X0250299Y0155770D01*
X0248288Y0157781D01*
X0245826Y0159203D01*
X0243270Y0159888D01*
X0323625Y0159888D01*
X0323898Y0159808D01*
X0324612Y0159888D01*
X0325329Y0159888D01*
X0325481Y0159951D01*
X0326323Y0159997D01*
X0326844Y0159937D01*
X0324103Y0159203D01*
X0321641Y0157781D01*
X0319630Y0155770D01*
X0318208Y0153308D01*
X0317472Y0150561D01*
X0317472Y0147718D01*
X0317765Y0146625D01*
X0314074Y0150317D01*
X0312785Y0151605D01*
X0261588Y0151605D01*
X0257247Y0147265D01*
X0256181Y0147265D01*
X0254900Y0146734D01*
X0253920Y0145754D01*
X0253390Y0144473D01*
X0253390Y0143087D01*
X0253920Y0141807D01*
X0253949Y0141778D01*
X0253949Y0100158D01*
X0253295Y0099504D01*
X0252765Y0098223D01*
X0252765Y0096837D01*
X0253295Y0095557D01*
X0254275Y0094577D01*
X0255556Y0094046D01*
X0256942Y0094046D01*
X0258223Y0094577D01*
X0259203Y0095557D01*
X0259733Y0096837D01*
X0259733Y0098223D01*
X0259203Y0099504D01*
X0258549Y0100158D01*
X0258549Y0140703D01*
X0258848Y0140827D01*
X0259828Y0141807D01*
X0260358Y0143087D01*
X0260358Y0144153D01*
X0261039Y0144834D01*
X0260890Y0144473D01*
X0260890Y0143087D01*
X0261420Y0141807D01*
X0262400Y0140827D01*
X0263681Y0140296D01*
X0265067Y0140296D01*
X0266348Y0140827D01*
X0267001Y0141480D01*
X0297796Y0141480D01*
X0298390Y0140887D01*
X0298390Y0139962D01*
X0298920Y0138682D01*
X0299900Y0137702D01*
X0301181Y0137171D01*
X0302567Y0137171D01*
X0303848Y0137702D01*
X0304828Y0138682D01*
X0305358Y0139962D01*
X0305358Y0141348D01*
X0304828Y0142629D01*
X0303848Y0143609D01*
X0302567Y0144140D01*
X0301642Y0144140D01*
X0299702Y0146080D01*
X0267001Y0146080D01*
X0266348Y0146734D01*
X0265210Y0147205D01*
X0310963Y0147205D01*
X0337174Y0120994D01*
X0337174Y0120258D01*
X0336420Y0119504D01*
X0335890Y0118223D01*
X0335890Y0117157D01*
X0332213Y0113480D01*
X0332101Y0113480D01*
X0331348Y0114234D01*
X0330067Y0114765D01*
X0328681Y0114765D01*
X0327400Y0114234D01*
X0326420Y0113254D01*
X0325890Y0111973D01*
X0325890Y0110587D01*
X0326420Y0109307D01*
X0327400Y0108327D01*
X0328681Y0107796D01*
X0330067Y0107796D01*
X0331348Y0108327D01*
X0332101Y0109080D01*
X0334035Y0109080D01*
X0335324Y0110369D01*
X0339001Y0114046D01*
X0340067Y0114046D01*
X0341348Y0114577D01*
X0342328Y0115557D01*
X0342858Y0116837D01*
X0342858Y0117247D01*
X0343165Y0116715D01*
X0347028Y0112852D01*
X0347028Y0112852D01*
X0351423Y0110315D01*
X0349060Y0110315D01*
X0343401Y0104655D01*
X0305985Y0104655D01*
X0302785Y0107855D01*
X0300851Y0107855D01*
X0300098Y0108609D01*
X0298817Y0109140D01*
X0297431Y0109140D01*
X0296150Y0108609D01*
X0295170Y0107629D01*
X0294908Y0106996D01*
X0292173Y0109730D01*
X0278976Y0109730D01*
X0278223Y0110484D01*
X0276942Y0111015D01*
X0275556Y0111015D01*
X0274275Y0110484D01*
X0273295Y0109504D01*
X0272765Y0108223D01*
X0272765Y0107890D01*
X0272431Y0107890D01*
X0271150Y0107359D01*
X0270170Y0106379D01*
X0269640Y0105098D01*
X0269640Y0103712D01*
X0270170Y0102432D01*
X0271150Y0101452D01*
X0272431Y0100921D01*
X0273817Y0100921D01*
X0275098Y0101452D01*
X0275851Y0102205D01*
X0280313Y0102205D01*
X0279747Y0101640D01*
X0278681Y0101640D01*
X0277400Y0101109D01*
X0276420Y0100129D01*
X0275890Y0098848D01*
X0275890Y0097462D01*
X0276420Y0096182D01*
X0277400Y0095202D01*
X0278681Y0094671D01*
X0280067Y0094671D01*
X0281348Y0095202D01*
X0281874Y0095728D01*
X0282174Y0095428D01*
X0282174Y0094008D01*
X0281420Y0093254D01*
X0280890Y0091973D01*
X0280890Y0090587D01*
X0280969Y0090396D01*
X0275883Y0090396D01*
X0269673Y0096605D01*
X0269601Y0096605D01*
X0268848Y0097359D01*
X0267567Y0097890D01*
X0266181Y0097890D01*
X0264900Y0097359D01*
X0263920Y0096379D01*
X0263390Y0095098D01*
X0263390Y0093712D01*
X0263920Y0092432D01*
X0264900Y0091452D01*
X0266181Y0090921D01*
X0267567Y0090921D01*
X0268676Y0091380D01*
X0272771Y0087285D01*
X0274060Y0085996D01*
X0272996Y0087060D02*
X0116222Y0087060D01*
X0115910Y0088059D02*
X0271998Y0088059D01*
X0270999Y0089057D02*
X0115856Y0089057D01*
X0115443Y0090056D02*
X0270001Y0090056D01*
X0269002Y0091054D02*
X0267888Y0091054D01*
X0265860Y0091054D02*
X0114753Y0091054D01*
X0113465Y0092053D02*
X0264299Y0092053D01*
X0263664Y0093051D02*
X0114635Y0093051D01*
X0115289Y0094050D02*
X0255547Y0094050D01*
X0256951Y0094050D02*
X0263390Y0094050D01*
X0263390Y0095048D02*
X0258694Y0095048D01*
X0259406Y0096047D02*
X0263783Y0096047D01*
X0264586Y0097045D02*
X0259733Y0097045D01*
X0259733Y0098044D02*
X0275890Y0098044D01*
X0275970Y0099042D02*
X0259394Y0099042D01*
X0258666Y0100041D02*
X0276384Y0100041D01*
X0277330Y0101039D02*
X0274102Y0101039D01*
X0275684Y0102038D02*
X0280145Y0102038D01*
X0283124Y0101905D02*
X0279374Y0098155D01*
X0276063Y0097045D02*
X0269162Y0097045D01*
X0270232Y0096047D02*
X0276555Y0096047D01*
X0277771Y0095048D02*
X0271231Y0095048D01*
X0272229Y0094050D02*
X0282174Y0094050D01*
X0282174Y0095048D02*
X0280977Y0095048D01*
X0281336Y0093051D02*
X0273228Y0093051D01*
X0274226Y0092053D02*
X0280923Y0092053D01*
X0280890Y0091054D02*
X0275225Y0091054D01*
X0274971Y0088196D02*
X0286928Y0088196D01*
X0293721Y0094990D01*
X0295027Y0094990D01*
X0299999Y0090017D01*
X0299999Y0073155D01*
X0304943Y0068211D01*
X0323805Y0068211D01*
X0325624Y0070030D01*
X0326249Y0070030D01*
X0321874Y0076905D02*
X0315624Y0070655D01*
X0313749Y0070655D01*
X0311874Y0072530D01*
X0308749Y0072530D01*
X0305577Y0071084D02*
X0305182Y0071084D01*
X0305265Y0071837D02*
X0305795Y0070557D01*
X0305941Y0070411D01*
X0305854Y0070411D01*
X0302199Y0074067D01*
X0302199Y0087766D01*
X0306510Y0083455D01*
X0315397Y0083455D01*
X0316150Y0082702D01*
X0317431Y0082171D01*
X0318817Y0082171D01*
X0320098Y0082702D01*
X0321078Y0083682D01*
X0321608Y0084962D01*
X0321608Y0085403D01*
X0324035Y0087830D01*
X0331022Y0087830D01*
X0331775Y0087077D01*
X0333056Y0086546D01*
X0334442Y0086546D01*
X0335723Y0087077D01*
X0336703Y0088057D01*
X0336744Y0088155D01*
X0363963Y0088155D01*
X0367541Y0084578D01*
X0366491Y0085013D01*
X0364757Y0085013D01*
X0363156Y0084349D01*
X0361930Y0083124D01*
X0361772Y0082743D01*
X0349108Y0070079D01*
X0349108Y0071348D01*
X0348578Y0072629D01*
X0348051Y0073155D01*
X0348578Y0073682D01*
X0349108Y0074962D01*
X0349108Y0076348D01*
X0348578Y0077629D01*
X0347598Y0078609D01*
X0346317Y0079140D01*
X0345251Y0079140D01*
X0342785Y0081605D01*
X0318463Y0081605D01*
X0317174Y0080317D01*
X0317174Y0080317D01*
X0314747Y0077890D01*
X0313681Y0077890D01*
X0312400Y0077359D01*
X0311420Y0076379D01*
X0310954Y0075253D01*
X0310723Y0075484D01*
X0309442Y0076015D01*
X0308056Y0076015D01*
X0306775Y0075484D01*
X0305795Y0074504D01*
X0305265Y0073223D01*
X0305265Y0071837D01*
X0305265Y0072082D02*
X0304183Y0072082D01*
X0303185Y0073081D02*
X0305265Y0073081D01*
X0305619Y0074079D02*
X0302199Y0074079D01*
X0302199Y0075078D02*
X0306369Y0075078D01*
X0302199Y0076076D02*
X0311295Y0076076D01*
X0312116Y0077075D02*
X0302199Y0077075D01*
X0302199Y0078073D02*
X0314931Y0078073D01*
X0315929Y0079072D02*
X0302199Y0079072D01*
X0302199Y0080070D02*
X0316928Y0080070D01*
X0317926Y0081069D02*
X0302199Y0081069D01*
X0302199Y0082067D02*
X0361097Y0082067D01*
X0361906Y0083066D02*
X0320462Y0083066D01*
X0321236Y0084065D02*
X0362871Y0084065D01*
X0366057Y0086062D02*
X0322266Y0086062D01*
X0321608Y0085063D02*
X0367056Y0085063D01*
X0365059Y0087060D02*
X0335683Y0087060D01*
X0336704Y0088059D02*
X0364060Y0088059D01*
X0354999Y0086905D02*
X0329999Y0086905D01*
X0331815Y0087060D02*
X0323265Y0087060D01*
X0323124Y0090030D02*
X0318749Y0085655D01*
X0318124Y0085655D01*
X0307421Y0085655D01*
X0301799Y0091277D01*
X0301284Y0091277D01*
X0295772Y0096790D01*
X0295740Y0096790D01*
X0290624Y0101905D01*
X0283124Y0101905D01*
X0291842Y0104405D02*
X0307351Y0088896D01*
X0317647Y0088896D01*
X0322131Y0093380D01*
X0402770Y0093380D01*
X0409924Y0100535D01*
X0409924Y0104467D01*
X0407527Y0106865D01*
X0404971Y0106865D01*
X0403165Y0105058D01*
X0403165Y0103196D01*
X0401874Y0101905D01*
X0406249Y0103780D02*
X0408124Y0101905D01*
X0408124Y0101280D01*
X0402024Y0095180D01*
X0321386Y0095180D01*
X0316902Y0090696D01*
X0308096Y0090696D01*
X0291262Y0107530D01*
X0276249Y0107530D01*
X0273817Y0110026D02*
X0258549Y0110026D01*
X0258549Y0111024D02*
X0325890Y0111024D01*
X0325910Y0112023D02*
X0258549Y0112023D01*
X0258549Y0113021D02*
X0326324Y0113021D01*
X0327186Y0114020D02*
X0258549Y0114020D01*
X0258549Y0115018D02*
X0333751Y0115018D01*
X0332752Y0114020D02*
X0331562Y0114020D01*
X0334749Y0116017D02*
X0258549Y0116017D01*
X0258549Y0117015D02*
X0335748Y0117015D01*
X0335890Y0118014D02*
X0258549Y0118014D01*
X0258549Y0119012D02*
X0336217Y0119012D01*
X0336927Y0120011D02*
X0258549Y0120011D01*
X0258549Y0121009D02*
X0337159Y0121009D01*
X0336160Y0122008D02*
X0258549Y0122008D01*
X0258549Y0123006D02*
X0335162Y0123006D01*
X0334163Y0124005D02*
X0258549Y0124005D01*
X0258549Y0125003D02*
X0333165Y0125003D01*
X0332166Y0126002D02*
X0258549Y0126002D01*
X0258549Y0127000D02*
X0331168Y0127000D01*
X0330169Y0127999D02*
X0258549Y0127999D01*
X0258549Y0128998D02*
X0329171Y0128998D01*
X0328172Y0129996D02*
X0258549Y0129996D01*
X0258549Y0130995D02*
X0327174Y0130995D01*
X0326175Y0131993D02*
X0258549Y0131993D01*
X0258549Y0132992D02*
X0325176Y0132992D01*
X0324178Y0133990D02*
X0258549Y0133990D01*
X0258549Y0134989D02*
X0323179Y0134989D01*
X0322181Y0135987D02*
X0258549Y0135987D01*
X0258549Y0136986D02*
X0321182Y0136986D01*
X0320184Y0137984D02*
X0304130Y0137984D01*
X0304952Y0138983D02*
X0319185Y0138983D01*
X0318187Y0139981D02*
X0305358Y0139981D01*
X0305358Y0140980D02*
X0317188Y0140980D01*
X0316190Y0141978D02*
X0305097Y0141978D01*
X0304480Y0142977D02*
X0315191Y0142977D01*
X0314193Y0143975D02*
X0302964Y0143975D01*
X0300808Y0144974D02*
X0313194Y0144974D01*
X0312196Y0145972D02*
X0299810Y0145972D01*
X0311197Y0146971D02*
X0265776Y0146971D01*
X0262499Y0149405D02*
X0256874Y0143780D01*
X0253597Y0144974D02*
X0251721Y0144974D01*
X0251989Y0145972D02*
X0254138Y0145972D01*
X0255472Y0146971D02*
X0252256Y0146971D01*
X0252457Y0147969D02*
X0257952Y0147969D01*
X0258950Y0148968D02*
X0252457Y0148968D01*
X0252457Y0149966D02*
X0259949Y0149966D01*
X0260947Y0150965D02*
X0252349Y0150965D01*
X0252081Y0151963D02*
X0317848Y0151963D01*
X0317581Y0150965D02*
X0313426Y0150965D01*
X0314424Y0149966D02*
X0317472Y0149966D01*
X0317472Y0148968D02*
X0315423Y0148968D01*
X0316421Y0147969D02*
X0317472Y0147969D01*
X0317420Y0146971D02*
X0317673Y0146971D01*
X0311874Y0149405D02*
X0262499Y0149405D01*
X0251813Y0152962D02*
X0318116Y0152962D01*
X0318585Y0153960D02*
X0251344Y0153960D01*
X0250768Y0154959D02*
X0319162Y0154959D01*
X0319817Y0155957D02*
X0250112Y0155957D01*
X0249114Y0156956D02*
X0320816Y0156956D01*
X0321941Y0157954D02*
X0247988Y0157954D01*
X0246259Y0158953D02*
X0323670Y0158953D01*
X0325494Y0159951D02*
X0326719Y0159951D01*
X0311874Y0149405D02*
X0339374Y0121905D01*
X0339374Y0117530D01*
X0333124Y0111280D01*
X0329374Y0111280D01*
X0326122Y0110026D02*
X0278681Y0110026D01*
X0279999Y0111280D02*
X0284374Y0111280D01*
X0288124Y0115030D01*
X0288749Y0115655D01*
X0296874Y0115655D01*
X0306249Y0106280D01*
X0339999Y0106280D01*
X0340624Y0105655D01*
X0343779Y0105033D02*
X0305607Y0105033D01*
X0304609Y0106032D02*
X0344777Y0106032D01*
X0345776Y0107030D02*
X0303610Y0107030D01*
X0301874Y0105655D02*
X0298124Y0105655D01*
X0294922Y0107030D02*
X0294874Y0107030D01*
X0295570Y0108029D02*
X0293875Y0108029D01*
X0292876Y0109027D02*
X0297160Y0109027D01*
X0299088Y0109027D02*
X0326700Y0109027D01*
X0328119Y0108029D02*
X0300678Y0108029D01*
X0301874Y0105655D02*
X0305074Y0102455D01*
X0344312Y0102455D01*
X0349971Y0108115D01*
X0352527Y0108115D01*
X0353810Y0106831D01*
X0368749Y0106831D01*
X0370624Y0105030D01*
X0373124Y0098780D02*
X0377499Y0103155D01*
X0377499Y0106280D01*
X0375670Y0098780D02*
X0373870Y0096980D01*
X0318824Y0096980D01*
X0315624Y0093780D01*
X0323124Y0090030D02*
X0333749Y0090030D01*
X0315786Y0083066D02*
X0302199Y0083066D01*
X0302199Y0084065D02*
X0305901Y0084065D01*
X0304902Y0085063D02*
X0302199Y0085063D01*
X0302199Y0086062D02*
X0303904Y0086062D01*
X0302905Y0087060D02*
X0302199Y0087060D01*
X0284904Y0085063D02*
X0243644Y0085063D01*
X0244385Y0084065D02*
X0283906Y0084065D01*
X0282907Y0083066D02*
X0244733Y0083066D01*
X0244733Y0082067D02*
X0281909Y0082067D01*
X0280910Y0081069D02*
X0244415Y0081069D01*
X0243717Y0080070D02*
X0279911Y0080070D01*
X0278913Y0079072D02*
X0243385Y0079072D01*
X0244278Y0078073D02*
X0277914Y0078073D01*
X0276916Y0077075D02*
X0244691Y0077075D01*
X0244733Y0076076D02*
X0275917Y0076076D01*
X0274919Y0075078D02*
X0244522Y0075078D01*
X0241249Y0076280D02*
X0203749Y0076280D01*
X0201874Y0074405D01*
X0176874Y0074405D01*
X0174999Y0076280D01*
X0171726Y0075078D02*
X0128204Y0075078D01*
X0127206Y0076076D02*
X0171515Y0076076D01*
X0171557Y0077075D02*
X0126207Y0077075D01*
X0125209Y0078073D02*
X0171970Y0078073D01*
X0172863Y0079072D02*
X0124210Y0079072D01*
X0123212Y0080070D02*
X0195737Y0080070D01*
X0194991Y0079072D02*
X0177135Y0079072D01*
X0178028Y0078073D02*
X0194640Y0078073D01*
X0194640Y0077075D02*
X0178441Y0077075D01*
X0198124Y0077530D02*
X0202499Y0082530D01*
X0241249Y0082530D01*
X0238854Y0085063D02*
X0118219Y0085063D01*
X0119217Y0084065D02*
X0200918Y0084065D01*
X0200044Y0083066D02*
X0120216Y0083066D01*
X0121215Y0082067D02*
X0199171Y0082067D01*
X0198297Y0081069D02*
X0122213Y0081069D01*
X0115627Y0095048D02*
X0253804Y0095048D01*
X0253092Y0096047D02*
X0111697Y0096047D01*
X0111122Y0096047D02*
X0026354Y0096047D01*
X0026660Y0097045D02*
X0030590Y0097045D01*
X0027977Y0091054D02*
X0027137Y0091054D01*
X0049850Y0122008D02*
X0067324Y0122008D01*
X0065759Y0123006D02*
X0051414Y0123006D01*
X0053881Y0124005D02*
X0063293Y0124005D01*
X0152462Y0097045D02*
X0252765Y0097045D01*
X0252765Y0098044D02*
X0154326Y0098044D01*
X0155324Y0099042D02*
X0253104Y0099042D01*
X0253832Y0100041D02*
X0155750Y0100041D01*
X0156106Y0101039D02*
X0253949Y0101039D01*
X0253949Y0102038D02*
X0156106Y0102038D01*
X0156106Y0103036D02*
X0253949Y0103036D01*
X0253949Y0104035D02*
X0156106Y0104035D01*
X0156106Y0105033D02*
X0253949Y0105033D01*
X0253949Y0106032D02*
X0156106Y0106032D01*
X0156106Y0107030D02*
X0253949Y0107030D01*
X0253949Y0108029D02*
X0156106Y0108029D01*
X0214090Y0109027D02*
X0253949Y0109027D01*
X0253949Y0110026D02*
X0217817Y0110026D01*
X0218170Y0110120D02*
X0218170Y0110120D01*
X0219735Y0111024D02*
X0253949Y0111024D01*
X0253949Y0112023D02*
X0221465Y0112023D01*
X0222901Y0112852D02*
X0222901Y0112852D01*
X0223070Y0113021D02*
X0253949Y0113021D01*
X0253949Y0114020D02*
X0224069Y0114020D01*
X0225067Y0115018D02*
X0253949Y0115018D01*
X0253949Y0116017D02*
X0226066Y0116017D01*
X0226764Y0116715D02*
X0226764Y0116715D01*
X0226937Y0117015D02*
X0253949Y0117015D01*
X0253949Y0118014D02*
X0227514Y0118014D01*
X0228090Y0119012D02*
X0253949Y0119012D01*
X0253949Y0120011D02*
X0228667Y0120011D01*
X0229243Y0121009D02*
X0253949Y0121009D01*
X0253949Y0122008D02*
X0229646Y0122008D01*
X0229495Y0121446D02*
X0229495Y0121446D01*
X0229914Y0123006D02*
X0253949Y0123006D01*
X0253949Y0124005D02*
X0230181Y0124005D01*
X0230449Y0125003D02*
X0253949Y0125003D01*
X0253949Y0126002D02*
X0230716Y0126002D01*
X0230909Y0127000D02*
X0253949Y0127000D01*
X0253949Y0127999D02*
X0230909Y0127999D01*
X0230909Y0128998D02*
X0253949Y0128998D01*
X0253949Y0129996D02*
X0230909Y0129996D01*
X0230909Y0130995D02*
X0253949Y0130995D01*
X0253949Y0131993D02*
X0230909Y0131993D01*
X0230909Y0132992D02*
X0253949Y0132992D01*
X0253949Y0133990D02*
X0230909Y0133990D01*
X0230909Y0134989D02*
X0253949Y0134989D01*
X0253949Y0135987D02*
X0230909Y0135987D01*
X0230909Y0136986D02*
X0253949Y0136986D01*
X0253949Y0137984D02*
X0230909Y0137984D01*
X0230909Y0138983D02*
X0237839Y0138983D01*
X0235922Y0139981D02*
X0230909Y0139981D01*
X0230909Y0140980D02*
X0234545Y0140980D01*
X0233546Y0141978D02*
X0230909Y0141978D01*
X0230909Y0142977D02*
X0232746Y0142977D01*
X0232169Y0143975D02*
X0230909Y0143975D01*
X0230909Y0144974D02*
X0231594Y0144974D01*
X0231326Y0145972D02*
X0230909Y0145972D01*
X0230909Y0146971D02*
X0231058Y0146971D01*
X0247393Y0139981D02*
X0253949Y0139981D01*
X0253949Y0138983D02*
X0245476Y0138983D01*
X0248770Y0140980D02*
X0253949Y0140980D01*
X0253849Y0141978D02*
X0249768Y0141978D01*
X0250569Y0142977D02*
X0253436Y0142977D01*
X0253390Y0143975D02*
X0251146Y0143975D01*
X0259899Y0141978D02*
X0261349Y0141978D01*
X0260936Y0142977D02*
X0260312Y0142977D01*
X0260358Y0143975D02*
X0260890Y0143975D01*
X0262247Y0140980D02*
X0259001Y0140980D01*
X0258549Y0139981D02*
X0298390Y0139981D01*
X0298297Y0140980D02*
X0266501Y0140980D01*
X0258549Y0138983D02*
X0298796Y0138983D01*
X0299618Y0137984D02*
X0258549Y0137984D01*
X0288124Y0126905D02*
X0288124Y0115030D01*
X0273098Y0109027D02*
X0258549Y0109027D01*
X0258549Y0108029D02*
X0272765Y0108029D01*
X0270821Y0107030D02*
X0258549Y0107030D01*
X0258549Y0106032D02*
X0270026Y0106032D01*
X0269640Y0105033D02*
X0258549Y0105033D01*
X0258549Y0104035D02*
X0269640Y0104035D01*
X0269920Y0103036D02*
X0258549Y0103036D01*
X0258549Y0102038D02*
X0270564Y0102038D01*
X0272146Y0101039D02*
X0258549Y0101039D01*
X0273124Y0104405D02*
X0291842Y0104405D01*
X0302499Y0100655D02*
X0346874Y0100655D01*
X0351249Y0105030D01*
X0346774Y0108029D02*
X0330629Y0108029D01*
X0332048Y0109027D02*
X0347773Y0109027D01*
X0348771Y0110026D02*
X0334981Y0110026D01*
X0335979Y0111024D02*
X0350194Y0111024D01*
X0348464Y0112023D02*
X0336978Y0112023D01*
X0337976Y0113021D02*
X0346859Y0113021D01*
X0345860Y0114020D02*
X0338975Y0114020D01*
X0341790Y0115018D02*
X0344862Y0115018D01*
X0343863Y0116017D02*
X0342518Y0116017D01*
X0343165Y0116715D02*
X0343165Y0116715D01*
X0342992Y0117015D02*
X0342858Y0117015D01*
X0373124Y0098780D02*
X0308749Y0098780D01*
X0306874Y0096905D01*
X0284374Y0098155D02*
X0284374Y0091280D01*
X0274971Y0088196D02*
X0268762Y0094405D01*
X0266874Y0094405D01*
X0314374Y0074405D02*
X0319374Y0079405D01*
X0341874Y0079405D01*
X0345624Y0075655D01*
X0348807Y0077075D02*
X0356104Y0077075D01*
X0357102Y0078073D02*
X0348133Y0078073D01*
X0346480Y0079072D02*
X0358101Y0079072D01*
X0359099Y0080070D02*
X0344320Y0080070D01*
X0343322Y0081069D02*
X0360098Y0081069D01*
X0355105Y0076076D02*
X0349108Y0076076D01*
X0349108Y0075078D02*
X0354107Y0075078D01*
X0353108Y0074079D02*
X0348743Y0074079D01*
X0348126Y0073081D02*
X0352110Y0073081D01*
X0351111Y0072082D02*
X0348804Y0072082D01*
X0349108Y0071084D02*
X0350113Y0071084D01*
X0349114Y0070085D02*
X0349108Y0070085D01*
X0345624Y0070655D02*
X0339374Y0076905D01*
X0321874Y0076905D01*
X0373353Y0061099D02*
X0455434Y0061099D01*
X0455766Y0060767D02*
X0456342Y0060528D01*
X0456061Y0060386D01*
X0455514Y0059988D01*
X0455035Y0059509D01*
X0454637Y0058962D01*
X0454330Y0058359D01*
X0454121Y0057715D01*
X0454015Y0057046D01*
X0454015Y0056995D01*
X0458028Y0056995D01*
X0458028Y0056420D01*
X0454015Y0056420D01*
X0454015Y0056369D01*
X0454119Y0055714D01*
X0421344Y0055714D01*
X0418652Y0054840D01*
X0416362Y0053176D01*
X0416362Y0053176D01*
X0414698Y0050885D01*
X0413823Y0048193D01*
X0413823Y0024218D01*
X0400113Y0024218D01*
X0401516Y0024800D01*
X0402719Y0026002D01*
X0403370Y0027573D01*
X0403370Y0029274D01*
X0402719Y0030845D01*
X0401516Y0032048D01*
X0399945Y0032698D01*
X0398244Y0032698D01*
X0396673Y0032048D01*
X0395471Y0030845D01*
X0394820Y0029274D01*
X0394820Y0027573D01*
X0395471Y0026002D01*
X0396673Y0024800D01*
X0398076Y0024218D01*
X0392443Y0024218D01*
X0393370Y0025145D01*
X0393370Y0031702D01*
X0392374Y0032698D01*
X0385816Y0032698D01*
X0384820Y0031702D01*
X0384820Y0025145D01*
X0385746Y0024218D01*
X0366708Y0024218D01*
X0367144Y0024654D01*
X0367966Y0026639D01*
X0367966Y0028787D01*
X0367144Y0030772D01*
X0365625Y0032291D01*
X0363640Y0033113D01*
X0361492Y0033113D01*
X0359507Y0032291D01*
X0357988Y0030772D01*
X0357566Y0029753D01*
X0357144Y0030772D01*
X0355625Y0032291D01*
X0355362Y0032399D01*
X0354662Y0033100D01*
X0345845Y0041917D01*
X0344485Y0042480D01*
X0278638Y0042480D01*
X0277278Y0041917D01*
X0276237Y0040876D01*
X0270600Y0035239D01*
X0270273Y0035375D01*
X0268403Y0035375D01*
X0266676Y0034659D01*
X0265354Y0033337D01*
X0264638Y0031610D01*
X0264638Y0024218D01*
X0263822Y0024218D01*
X0263838Y0024321D01*
X0263838Y0027175D01*
X0259838Y0027175D01*
X0259838Y0028175D01*
X0258838Y0028175D01*
X0258838Y0027175D01*
X0254838Y0027175D01*
X0254838Y0024321D01*
X0254854Y0024218D01*
X0254038Y0024218D01*
X0254038Y0031610D01*
X0253323Y0033337D01*
X0252238Y0034422D01*
X0252238Y0035880D01*
X0259951Y0035880D01*
X0261017Y0036322D01*
X0269950Y0045255D01*
X0287972Y0045255D01*
X0288025Y0045202D01*
X0289306Y0044671D01*
X0290692Y0044671D01*
X0291973Y0045202D01*
X0292426Y0045655D01*
X0297713Y0045655D01*
X0297880Y0045489D01*
X0298583Y0044786D01*
X0299502Y0044405D01*
X0306121Y0044405D01*
X0307040Y0044786D01*
X0311660Y0049405D01*
X0361121Y0049405D01*
X0362040Y0049786D01*
X0390084Y0077830D01*
X0454480Y0077830D01*
X0454500Y0077781D01*
X0455766Y0076515D01*
X0456061Y0076393D01*
X0455766Y0076271D01*
X0454500Y0075005D01*
X0453815Y0073351D01*
X0453815Y0071561D01*
X0454500Y0069907D01*
X0455766Y0068641D01*
X0456061Y0068519D01*
X0455766Y0068397D01*
X0454500Y0067131D01*
X0453815Y0065477D01*
X0453815Y0063687D01*
X0454500Y0062033D01*
X0455766Y0060767D01*
X0455669Y0060100D02*
X0372354Y0060100D01*
X0371356Y0059102D02*
X0454739Y0059102D01*
X0454247Y0058103D02*
X0370357Y0058103D01*
X0369359Y0057105D02*
X0454024Y0057105D01*
X0454057Y0056106D02*
X0368360Y0056106D01*
X0367362Y0055108D02*
X0419477Y0055108D01*
X0417647Y0054109D02*
X0366363Y0054109D01*
X0365365Y0053111D02*
X0416315Y0053111D01*
X0415589Y0052112D02*
X0364366Y0052112D01*
X0363368Y0051114D02*
X0414864Y0051114D01*
X0414698Y0050885D02*
X0414698Y0050885D01*
X0414447Y0050115D02*
X0362369Y0050115D01*
X0345338Y0042127D02*
X0413823Y0042127D01*
X0413823Y0041129D02*
X0346633Y0041129D01*
X0347632Y0040130D02*
X0413823Y0040130D01*
X0413823Y0039131D02*
X0348630Y0039131D01*
X0349629Y0038133D02*
X0413823Y0038133D01*
X0413823Y0037134D02*
X0350627Y0037134D01*
X0351626Y0036136D02*
X0413823Y0036136D01*
X0413823Y0035137D02*
X0352624Y0035137D01*
X0353623Y0034139D02*
X0413823Y0034139D01*
X0413823Y0033140D02*
X0354621Y0033140D01*
X0355774Y0032142D02*
X0359358Y0032142D01*
X0358360Y0031143D02*
X0356772Y0031143D01*
X0357403Y0030145D02*
X0357728Y0030145D01*
X0365774Y0032142D02*
X0385259Y0032142D01*
X0384820Y0031143D02*
X0366772Y0031143D01*
X0367403Y0030145D02*
X0384820Y0030145D01*
X0384820Y0029146D02*
X0367817Y0029146D01*
X0367966Y0028148D02*
X0384820Y0028148D01*
X0384820Y0027149D02*
X0367966Y0027149D01*
X0367764Y0026151D02*
X0384820Y0026151D01*
X0384820Y0025152D02*
X0367350Y0025152D01*
X0344568Y0032728D02*
X0343640Y0033113D01*
X0341492Y0033113D01*
X0339507Y0032291D01*
X0337988Y0030772D01*
X0337166Y0028787D01*
X0337166Y0026639D01*
X0337988Y0024654D01*
X0338424Y0024218D01*
X0324534Y0024218D01*
X0324555Y0024354D01*
X0324555Y0027208D01*
X0320555Y0027208D01*
X0320555Y0028208D01*
X0324555Y0028208D01*
X0324555Y0031062D01*
X0324445Y0031761D01*
X0324226Y0032435D01*
X0323904Y0033066D01*
X0323488Y0033639D01*
X0322987Y0034140D01*
X0322414Y0034556D01*
X0321783Y0034878D01*
X0321160Y0035080D01*
X0342216Y0035080D01*
X0344568Y0032728D01*
X0344156Y0033140D02*
X0323850Y0033140D01*
X0324321Y0032142D02*
X0339358Y0032142D01*
X0338360Y0031143D02*
X0324543Y0031143D01*
X0324555Y0030145D02*
X0337728Y0030145D01*
X0337315Y0029146D02*
X0324555Y0029146D01*
X0324555Y0027149D02*
X0337166Y0027149D01*
X0337166Y0028148D02*
X0320555Y0028148D01*
X0319555Y0028148D02*
X0314755Y0028148D01*
X0315555Y0028208D02*
X0319555Y0028208D01*
X0319555Y0027208D01*
X0315555Y0027208D01*
X0315555Y0024354D01*
X0315577Y0024218D01*
X0314755Y0024218D01*
X0314755Y0031643D01*
X0314040Y0033370D01*
X0312718Y0034692D01*
X0311781Y0035080D01*
X0318951Y0035080D01*
X0318328Y0034878D01*
X0317697Y0034556D01*
X0317124Y0034140D01*
X0316623Y0033639D01*
X0316207Y0033066D01*
X0315885Y0032435D01*
X0315666Y0031761D01*
X0315555Y0031062D01*
X0315555Y0028208D01*
X0315555Y0029146D02*
X0314755Y0029146D01*
X0314755Y0030145D02*
X0315555Y0030145D01*
X0315568Y0031143D02*
X0314755Y0031143D01*
X0314549Y0032142D02*
X0315790Y0032142D01*
X0316261Y0033140D02*
X0314135Y0033140D01*
X0313271Y0034139D02*
X0317123Y0034139D01*
X0322988Y0034139D02*
X0343158Y0034139D01*
X0337368Y0026151D02*
X0324555Y0026151D01*
X0324555Y0025152D02*
X0337782Y0025152D01*
X0315555Y0025152D02*
X0314755Y0025152D01*
X0314755Y0026151D02*
X0315555Y0026151D01*
X0315555Y0027149D02*
X0314755Y0027149D01*
X0274493Y0039131D02*
X0263826Y0039131D01*
X0262828Y0038133D02*
X0273494Y0038133D01*
X0272496Y0037134D02*
X0261829Y0037134D01*
X0260568Y0036136D02*
X0271497Y0036136D01*
X0267830Y0035137D02*
X0259929Y0035137D01*
X0259838Y0035137D02*
X0258838Y0035137D01*
X0258838Y0035152D02*
X0258284Y0035064D01*
X0257611Y0034845D01*
X0256980Y0034524D01*
X0256407Y0034107D01*
X0255906Y0033607D01*
X0255489Y0033034D01*
X0255168Y0032402D01*
X0254949Y0031729D01*
X0254838Y0031029D01*
X0254838Y0028175D01*
X0258838Y0028175D01*
X0258838Y0035152D01*
X0258747Y0035137D02*
X0252238Y0035137D01*
X0252521Y0034139D02*
X0256450Y0034139D01*
X0255567Y0033140D02*
X0253404Y0033140D01*
X0253818Y0032142D02*
X0255083Y0032142D01*
X0254856Y0031143D02*
X0254038Y0031143D01*
X0254038Y0030145D02*
X0254838Y0030145D01*
X0254838Y0029146D02*
X0254038Y0029146D01*
X0254038Y0028148D02*
X0258838Y0028148D01*
X0258838Y0029146D02*
X0259838Y0029146D01*
X0259838Y0028175D02*
X0259838Y0035152D01*
X0260392Y0035064D01*
X0261066Y0034845D01*
X0261697Y0034524D01*
X0262270Y0034107D01*
X0262771Y0033607D01*
X0263187Y0033034D01*
X0263508Y0032402D01*
X0263727Y0031729D01*
X0263838Y0031029D01*
X0263838Y0028175D01*
X0259838Y0028175D01*
X0259838Y0028148D02*
X0264638Y0028148D01*
X0264638Y0029146D02*
X0263838Y0029146D01*
X0263838Y0030145D02*
X0264638Y0030145D01*
X0264638Y0031143D02*
X0263820Y0031143D01*
X0263593Y0032142D02*
X0264859Y0032142D01*
X0265272Y0033140D02*
X0263109Y0033140D01*
X0262226Y0034139D02*
X0266155Y0034139D01*
X0259838Y0034139D02*
X0258838Y0034139D01*
X0258838Y0033140D02*
X0259838Y0033140D01*
X0259838Y0032142D02*
X0258838Y0032142D01*
X0258838Y0031143D02*
X0259838Y0031143D01*
X0259838Y0030145D02*
X0258838Y0030145D01*
X0254838Y0027149D02*
X0254038Y0027149D01*
X0254038Y0026151D02*
X0254838Y0026151D01*
X0254838Y0025152D02*
X0254038Y0025152D01*
X0263838Y0025152D02*
X0264638Y0025152D01*
X0264638Y0026151D02*
X0263838Y0026151D01*
X0263838Y0027149D02*
X0264638Y0027149D01*
X0245354Y0033337D02*
X0244638Y0031610D01*
X0244638Y0030555D01*
X0214224Y0030555D01*
X0214224Y0031590D01*
X0213508Y0033317D01*
X0212186Y0034640D01*
X0210459Y0035355D01*
X0208589Y0035355D01*
X0206861Y0034640D01*
X0206327Y0034105D01*
X0201458Y0038974D01*
X0201608Y0039337D01*
X0201608Y0040723D01*
X0201078Y0042004D01*
X0200098Y0042984D01*
X0198817Y0043515D01*
X0197431Y0043515D01*
X0196150Y0042984D01*
X0195170Y0042004D01*
X0194640Y0040723D01*
X0194640Y0039337D01*
X0195170Y0038057D01*
X0196150Y0037077D01*
X0197344Y0036582D01*
X0198826Y0035101D01*
X0198470Y0035044D01*
X0197796Y0034825D01*
X0197165Y0034504D01*
X0196592Y0034088D01*
X0196091Y0033587D01*
X0195675Y0033014D01*
X0195353Y0032383D01*
X0195135Y0031709D01*
X0195024Y0031009D01*
X0195024Y0028155D01*
X0199024Y0028155D01*
X0199024Y0027155D01*
X0195024Y0027155D01*
X0195024Y0024301D01*
X0195037Y0024218D01*
X0194224Y0024218D01*
X0194224Y0031590D01*
X0193508Y0033317D01*
X0192186Y0034640D01*
X0191724Y0034831D01*
X0191724Y0045519D01*
X0194035Y0047830D01*
X0194772Y0047830D01*
X0195525Y0047077D01*
X0196806Y0046546D01*
X0198192Y0046546D01*
X0199473Y0047077D01*
X0200453Y0048057D01*
X0200983Y0049337D01*
X0200983Y0050723D01*
X0200453Y0052004D01*
X0200120Y0052337D01*
X0231070Y0052337D01*
X0229122Y0050390D01*
X0228056Y0050390D01*
X0226775Y0049859D01*
X0225795Y0048879D01*
X0225265Y0047598D01*
X0225265Y0046212D01*
X0225795Y0044932D01*
X0226775Y0043952D01*
X0228056Y0043421D01*
X0229442Y0043421D01*
X0230723Y0043952D01*
X0231703Y0044932D01*
X0232233Y0046212D01*
X0232233Y0047278D01*
X0234660Y0049705D01*
X0266198Y0049705D01*
X0258173Y0041680D01*
X0248761Y0041680D01*
X0247695Y0041239D01*
X0246880Y0040423D01*
X0246438Y0039357D01*
X0246438Y0034422D01*
X0245354Y0033337D01*
X0245272Y0033140D02*
X0213582Y0033140D01*
X0213995Y0032142D02*
X0244859Y0032142D01*
X0244638Y0031143D02*
X0214224Y0031143D01*
X0212687Y0034139D02*
X0246155Y0034139D01*
X0246438Y0035137D02*
X0210984Y0035137D01*
X0208063Y0035137D02*
X0205294Y0035137D01*
X0206293Y0034139D02*
X0206361Y0034139D01*
X0204296Y0036136D02*
X0246438Y0036136D01*
X0246438Y0037134D02*
X0203297Y0037134D01*
X0202299Y0038133D02*
X0246438Y0038133D01*
X0246438Y0039131D02*
X0201523Y0039131D01*
X0201608Y0040130D02*
X0246758Y0040130D01*
X0247585Y0041129D02*
X0201440Y0041129D01*
X0200955Y0042127D02*
X0258620Y0042127D01*
X0259618Y0043126D02*
X0199756Y0043126D01*
X0196492Y0043126D02*
X0191724Y0043126D01*
X0191724Y0044124D02*
X0226603Y0044124D01*
X0225716Y0045123D02*
X0191724Y0045123D01*
X0192326Y0046121D02*
X0225303Y0046121D01*
X0225265Y0047120D02*
X0199516Y0047120D01*
X0200478Y0048118D02*
X0225480Y0048118D01*
X0226033Y0049117D02*
X0200892Y0049117D01*
X0200983Y0050115D02*
X0227393Y0050115D01*
X0229846Y0051114D02*
X0200822Y0051114D01*
X0200345Y0052112D02*
X0230845Y0052112D01*
X0233749Y0051905D02*
X0271874Y0051905D01*
X0272540Y0051240D01*
X0303708Y0051240D01*
X0303749Y0051280D01*
X0303594Y0051280D01*
X0309374Y0047120D02*
X0413823Y0047120D01*
X0413823Y0048118D02*
X0310372Y0048118D01*
X0311371Y0049117D02*
X0414123Y0049117D01*
X0413823Y0046121D02*
X0308375Y0046121D01*
X0307377Y0045123D02*
X0413823Y0045123D01*
X0413823Y0044124D02*
X0268819Y0044124D01*
X0267820Y0043126D02*
X0413823Y0043126D01*
X0413823Y0032142D02*
X0410772Y0032142D01*
X0410659Y0032200D02*
X0410049Y0032398D01*
X0409415Y0032498D01*
X0409382Y0032498D01*
X0409382Y0028711D01*
X0408807Y0028711D01*
X0408807Y0028136D01*
X0405020Y0028136D01*
X0405020Y0028103D01*
X0405120Y0027469D01*
X0405318Y0026859D01*
X0405610Y0026288D01*
X0405987Y0025769D01*
X0406440Y0025315D01*
X0406959Y0024938D01*
X0407531Y0024647D01*
X0408141Y0024449D01*
X0408774Y0024349D01*
X0408807Y0024349D01*
X0408807Y0028136D01*
X0409382Y0028136D01*
X0409382Y0024349D01*
X0409415Y0024349D01*
X0410049Y0024449D01*
X0410659Y0024647D01*
X0411230Y0024938D01*
X0411749Y0025315D01*
X0412203Y0025769D01*
X0412580Y0026288D01*
X0412871Y0026859D01*
X0413069Y0027469D01*
X0413170Y0028103D01*
X0413170Y0028136D01*
X0409382Y0028136D01*
X0409382Y0028711D01*
X0413170Y0028711D01*
X0413170Y0028744D01*
X0413069Y0029378D01*
X0412871Y0029988D01*
X0412580Y0030559D01*
X0412203Y0031078D01*
X0411749Y0031532D01*
X0411230Y0031909D01*
X0410659Y0032200D01*
X0409382Y0032142D02*
X0408807Y0032142D01*
X0408807Y0032498D02*
X0408774Y0032498D01*
X0408141Y0032398D01*
X0407531Y0032200D01*
X0406959Y0031909D01*
X0406440Y0031532D01*
X0405987Y0031078D01*
X0405610Y0030559D01*
X0405318Y0029988D01*
X0405120Y0029378D01*
X0405020Y0028744D01*
X0405020Y0028711D01*
X0408807Y0028711D01*
X0408807Y0032498D01*
X0408807Y0031143D02*
X0409382Y0031143D01*
X0409382Y0030145D02*
X0408807Y0030145D01*
X0408807Y0029146D02*
X0409382Y0029146D01*
X0409382Y0028148D02*
X0413823Y0028148D01*
X0413823Y0029146D02*
X0413106Y0029146D01*
X0412791Y0030145D02*
X0413823Y0030145D01*
X0413823Y0031143D02*
X0412137Y0031143D01*
X0407417Y0032142D02*
X0401288Y0032142D01*
X0402420Y0031143D02*
X0406052Y0031143D01*
X0405399Y0030145D02*
X0403009Y0030145D01*
X0403370Y0029146D02*
X0405084Y0029146D01*
X0403370Y0028148D02*
X0408807Y0028148D01*
X0408807Y0027149D02*
X0409382Y0027149D01*
X0409382Y0026151D02*
X0408807Y0026151D01*
X0408807Y0025152D02*
X0409382Y0025152D01*
X0411525Y0025152D02*
X0413823Y0025152D01*
X0413823Y0026151D02*
X0412480Y0026151D01*
X0412965Y0027149D02*
X0413823Y0027149D01*
X0406665Y0025152D02*
X0401869Y0025152D01*
X0402780Y0026151D02*
X0405709Y0026151D01*
X0405224Y0027149D02*
X0403194Y0027149D01*
X0396320Y0025152D02*
X0393370Y0025152D01*
X0393370Y0026151D02*
X0395409Y0026151D01*
X0394996Y0027149D02*
X0393370Y0027149D01*
X0393370Y0028148D02*
X0394820Y0028148D01*
X0394820Y0029146D02*
X0393370Y0029146D01*
X0393370Y0030145D02*
X0395181Y0030145D01*
X0395769Y0031143D02*
X0393370Y0031143D01*
X0392930Y0032142D02*
X0396901Y0032142D01*
X0458602Y0056420D02*
X0458602Y0056995D01*
X0462615Y0056995D01*
X0462615Y0057046D01*
X0462509Y0057715D01*
X0462300Y0058359D01*
X0461993Y0058962D01*
X0461595Y0059509D01*
X0461116Y0059988D01*
X0460569Y0060386D01*
X0460288Y0060528D01*
X0460864Y0060767D01*
X0462130Y0062033D01*
X0462815Y0063687D01*
X0462815Y0065477D01*
X0462130Y0067131D01*
X0460864Y0068397D01*
X0460569Y0068519D01*
X0460864Y0068641D01*
X0462130Y0069907D01*
X0462815Y0071561D01*
X0462815Y0073351D01*
X0462130Y0075005D01*
X0460864Y0076271D01*
X0460569Y0076393D01*
X0460864Y0076515D01*
X0462130Y0077781D01*
X0462815Y0079435D01*
X0462815Y0081225D01*
X0462130Y0082879D01*
X0460864Y0084145D01*
X0460569Y0084267D01*
X0460864Y0084389D01*
X0462130Y0085655D01*
X0462815Y0087309D01*
X0462815Y0089099D01*
X0462130Y0090753D01*
X0460864Y0092019D01*
X0460569Y0092141D01*
X0460864Y0092263D01*
X0462130Y0093529D01*
X0462815Y0095183D01*
X0462815Y0096895D01*
X0494621Y0096895D01*
X0496458Y0097657D01*
X0497865Y0099063D01*
X0498626Y0100901D01*
X0498626Y0113706D01*
X0498718Y0115109D01*
X0499444Y0117820D01*
X0500847Y0120249D01*
X0502831Y0122233D01*
X0505261Y0123636D01*
X0507971Y0124363D01*
X0509374Y0124455D01*
X0513311Y0124455D01*
X0514714Y0124363D01*
X0517424Y0123636D01*
X0519854Y0122233D01*
X0521838Y0120249D01*
X0523241Y0117820D01*
X0523967Y0115109D01*
X0524059Y0113706D01*
X0524059Y0108775D01*
X0524820Y0106937D01*
X0526227Y0105531D01*
X0528064Y0104769D01*
X0555555Y0104769D01*
X0555555Y0047840D01*
X0543512Y0047840D01*
X0543372Y0047980D01*
X0542409Y0047980D01*
X0542409Y0050011D01*
X0541616Y0050804D01*
X0542305Y0051493D01*
X0544440Y0051493D01*
X0545612Y0052665D01*
X0545612Y0054322D01*
X0544440Y0055493D01*
X0541716Y0055493D01*
X0541476Y0055254D01*
X0541237Y0055493D01*
X0540940Y0055493D01*
X0541237Y0055790D01*
X0541237Y0055790D01*
X0541652Y0056205D01*
X0542409Y0056962D01*
X0542409Y0060754D01*
X0541616Y0061547D01*
X0542409Y0062340D01*
X0542409Y0067199D01*
X0541616Y0067992D01*
X0542305Y0068681D01*
X0544440Y0068681D01*
X0545612Y0069853D01*
X0545612Y0071510D01*
X0544440Y0072681D01*
X0544143Y0072681D01*
X0544544Y0073082D01*
X0544544Y0074739D01*
X0543372Y0075911D01*
X0542011Y0075911D01*
X0542533Y0076693D01*
X0542208Y0078318D01*
X0540829Y0079237D01*
X0539204Y0078912D01*
X0538274Y0077516D01*
X0537343Y0078912D01*
X0537071Y0078966D01*
X0537071Y0083831D01*
X0538035Y0084795D01*
X0540648Y0084795D01*
X0541716Y0083727D01*
X0543372Y0083727D01*
X0544544Y0084899D01*
X0544544Y0087623D01*
X0543372Y0088795D01*
X0540940Y0088795D01*
X0541237Y0089092D01*
X0542305Y0089092D01*
X0543062Y0089849D01*
X0543476Y0090264D01*
X0544544Y0091331D01*
X0544544Y0092988D01*
X0543372Y0094160D01*
X0541716Y0094160D01*
X0540943Y0093387D01*
X0540170Y0094160D01*
X0538513Y0094160D01*
X0537445Y0093092D01*
X0535310Y0093092D01*
X0534139Y0091920D01*
X0534139Y0090264D01*
X0534925Y0089477D01*
X0534139Y0088691D01*
X0534139Y0085448D01*
X0533071Y0084381D01*
X0533071Y0078453D01*
X0534151Y0077373D01*
X0534015Y0076693D01*
X0534846Y0075447D01*
X0534139Y0074739D01*
X0534139Y0073082D01*
X0534391Y0072830D01*
X0534139Y0072577D01*
X0534139Y0068785D01*
X0534398Y0068526D01*
X0534139Y0068267D01*
X0534139Y0066610D01*
X0535310Y0065438D01*
X0538409Y0065438D01*
X0538409Y0065168D01*
X0535310Y0065168D01*
X0534139Y0063997D01*
X0534139Y0062340D01*
X0534932Y0061547D01*
X0534874Y0061489D01*
X0534139Y0060754D01*
X0534139Y0056962D01*
X0534925Y0056175D01*
X0534139Y0055389D01*
X0534139Y0051597D01*
X0534932Y0050804D01*
X0534874Y0050747D01*
X0534139Y0050011D01*
X0534139Y0047840D01*
X0528064Y0047840D01*
X0526227Y0047079D01*
X0524820Y0045673D01*
X0524059Y0043835D01*
X0524059Y0038903D01*
X0523967Y0037500D01*
X0523241Y0034790D01*
X0521838Y0032360D01*
X0519854Y0030376D01*
X0517424Y0028973D01*
X0514714Y0028247D01*
X0513311Y0028155D01*
X0509374Y0028155D01*
X0507971Y0028247D01*
X0505261Y0028973D01*
X0502831Y0030376D01*
X0500847Y0032360D01*
X0499444Y0034790D01*
X0498718Y0037500D01*
X0498626Y0038903D01*
X0498626Y0051709D01*
X0497865Y0053547D01*
X0496458Y0054953D01*
X0494621Y0055714D01*
X0462511Y0055714D01*
X0462615Y0056369D01*
X0462615Y0056420D01*
X0458602Y0056420D01*
X0462573Y0056106D02*
X0534856Y0056106D01*
X0534139Y0055108D02*
X0496085Y0055108D01*
X0497302Y0054109D02*
X0534139Y0054109D01*
X0534139Y0053111D02*
X0514738Y0053111D01*
X0515511Y0052904D02*
X0512764Y0053640D01*
X0509921Y0053640D01*
X0507174Y0052904D01*
X0504712Y0051482D01*
X0502701Y0049471D01*
X0501279Y0047009D01*
X0500543Y0044262D01*
X0500543Y0041419D01*
X0501279Y0038672D01*
X0502701Y0036209D01*
X0504712Y0034199D01*
X0507174Y0032777D01*
X0509921Y0032041D01*
X0512764Y0032041D01*
X0515511Y0032777D01*
X0517973Y0034199D01*
X0519984Y0036209D01*
X0521406Y0038672D01*
X0522142Y0041419D01*
X0522142Y0044262D01*
X0521406Y0047009D01*
X0519984Y0049471D01*
X0517973Y0051482D01*
X0515511Y0052904D01*
X0516882Y0052112D02*
X0534139Y0052112D01*
X0534622Y0051114D02*
X0518342Y0051114D01*
X0519340Y0050115D02*
X0534242Y0050115D01*
X0534139Y0049117D02*
X0520189Y0049117D01*
X0520765Y0048118D02*
X0534139Y0048118D01*
X0542409Y0048118D02*
X0555555Y0048118D01*
X0555555Y0049117D02*
X0542409Y0049117D01*
X0542305Y0050115D02*
X0555555Y0050115D01*
X0555555Y0051114D02*
X0541925Y0051114D01*
X0545059Y0052112D02*
X0555555Y0052112D01*
X0555555Y0053111D02*
X0545612Y0053111D01*
X0545612Y0054109D02*
X0555555Y0054109D01*
X0555555Y0055108D02*
X0544826Y0055108D01*
X0541553Y0056106D02*
X0555555Y0056106D01*
X0555555Y0057105D02*
X0542409Y0057105D01*
X0542409Y0058103D02*
X0555555Y0058103D01*
X0555555Y0059102D02*
X0542409Y0059102D01*
X0542409Y0060100D02*
X0555555Y0060100D01*
X0555555Y0061099D02*
X0542064Y0061099D01*
X0542166Y0062097D02*
X0555555Y0062097D01*
X0555555Y0063096D02*
X0542409Y0063096D01*
X0542409Y0064094D02*
X0555555Y0064094D01*
X0555555Y0065093D02*
X0542409Y0065093D01*
X0542409Y0066091D02*
X0555555Y0066091D01*
X0555555Y0067090D02*
X0542409Y0067090D01*
X0541712Y0068088D02*
X0555555Y0068088D01*
X0555555Y0069087D02*
X0544846Y0069087D01*
X0545612Y0070085D02*
X0555555Y0070085D01*
X0555555Y0071084D02*
X0545612Y0071084D01*
X0545039Y0072082D02*
X0555555Y0072082D01*
X0555555Y0073081D02*
X0544543Y0073081D01*
X0544544Y0074079D02*
X0555555Y0074079D01*
X0555555Y0075078D02*
X0544205Y0075078D01*
X0542121Y0076076D02*
X0555555Y0076076D01*
X0555555Y0077075D02*
X0542456Y0077075D01*
X0542256Y0078073D02*
X0555555Y0078073D01*
X0555555Y0079072D02*
X0541077Y0079072D01*
X0540004Y0079072D02*
X0537071Y0079072D01*
X0537071Y0080070D02*
X0555555Y0080070D01*
X0555555Y0081069D02*
X0537071Y0081069D01*
X0537071Y0082067D02*
X0555555Y0082067D01*
X0555555Y0083066D02*
X0537071Y0083066D01*
X0537304Y0084065D02*
X0541378Y0084065D01*
X0543710Y0084065D02*
X0555555Y0084065D01*
X0555555Y0085063D02*
X0544544Y0085063D01*
X0544544Y0086062D02*
X0555555Y0086062D01*
X0555555Y0087060D02*
X0544544Y0087060D01*
X0544109Y0088059D02*
X0555555Y0088059D01*
X0555555Y0089057D02*
X0541202Y0089057D01*
X0543269Y0090056D02*
X0555555Y0090056D01*
X0555555Y0091054D02*
X0544267Y0091054D01*
X0544544Y0092053D02*
X0555555Y0092053D01*
X0555555Y0093051D02*
X0544481Y0093051D01*
X0543482Y0094050D02*
X0555555Y0094050D01*
X0555555Y0095048D02*
X0462759Y0095048D01*
X0462815Y0096047D02*
X0555555Y0096047D01*
X0555555Y0097045D02*
X0494982Y0097045D01*
X0496845Y0098044D02*
X0555555Y0098044D01*
X0555555Y0099042D02*
X0513033Y0099042D01*
X0512764Y0098970D02*
X0515511Y0099706D01*
X0517973Y0101128D01*
X0519984Y0103139D01*
X0521406Y0105601D01*
X0522142Y0108348D01*
X0522142Y0111191D01*
X0521406Y0113938D01*
X0519984Y0116400D01*
X0517973Y0118411D01*
X0515511Y0119833D01*
X0512764Y0120569D01*
X0509921Y0120569D01*
X0507174Y0119833D01*
X0504712Y0118411D01*
X0502701Y0116400D01*
X0501279Y0113938D01*
X0500543Y0111191D01*
X0500543Y0108348D01*
X0501279Y0105601D01*
X0502701Y0103139D01*
X0504712Y0101128D01*
X0507174Y0099706D01*
X0509921Y0098970D01*
X0512764Y0098970D01*
X0509652Y0099042D02*
X0497844Y0099042D01*
X0498270Y0100041D02*
X0506595Y0100041D01*
X0504865Y0101039D02*
X0498626Y0101039D01*
X0498626Y0102038D02*
X0503802Y0102038D01*
X0502803Y0103036D02*
X0498626Y0103036D01*
X0498626Y0104035D02*
X0502184Y0104035D01*
X0501607Y0105033D02*
X0498626Y0105033D01*
X0498626Y0106032D02*
X0501164Y0106032D01*
X0500896Y0107030D02*
X0498626Y0107030D01*
X0498626Y0108029D02*
X0500629Y0108029D01*
X0500543Y0109027D02*
X0498626Y0109027D01*
X0498626Y0110026D02*
X0500543Y0110026D01*
X0500543Y0111024D02*
X0498626Y0111024D01*
X0498626Y0112023D02*
X0500766Y0112023D01*
X0501034Y0113021D02*
X0498626Y0113021D01*
X0498647Y0114020D02*
X0501327Y0114020D01*
X0501903Y0115018D02*
X0498712Y0115018D01*
X0498961Y0116017D02*
X0502480Y0116017D01*
X0503316Y0117015D02*
X0499229Y0117015D01*
X0499556Y0118014D02*
X0504315Y0118014D01*
X0505753Y0119012D02*
X0500133Y0119012D01*
X0500709Y0120011D02*
X0507839Y0120011D01*
X0502605Y0122008D02*
X0520080Y0122008D01*
X0521078Y0121009D02*
X0501607Y0121009D01*
X0504170Y0123006D02*
X0518515Y0123006D01*
X0516049Y0124005D02*
X0506636Y0124005D01*
X0514846Y0120011D02*
X0521976Y0120011D01*
X0522552Y0119012D02*
X0516932Y0119012D01*
X0518370Y0118014D02*
X0523129Y0118014D01*
X0523456Y0117015D02*
X0519369Y0117015D01*
X0520205Y0116017D02*
X0523724Y0116017D01*
X0523973Y0115018D02*
X0520782Y0115018D01*
X0521358Y0114020D02*
X0524039Y0114020D01*
X0524059Y0113021D02*
X0521651Y0113021D01*
X0521919Y0112023D02*
X0524059Y0112023D01*
X0524059Y0111024D02*
X0522142Y0111024D01*
X0522142Y0110026D02*
X0524059Y0110026D01*
X0524059Y0109027D02*
X0522142Y0109027D01*
X0522056Y0108029D02*
X0524368Y0108029D01*
X0524782Y0107030D02*
X0521789Y0107030D01*
X0521521Y0106032D02*
X0525726Y0106032D01*
X0527428Y0105033D02*
X0521078Y0105033D01*
X0520501Y0104035D02*
X0555555Y0104035D01*
X0555555Y0103036D02*
X0519882Y0103036D01*
X0518883Y0102038D02*
X0555555Y0102038D01*
X0555555Y0101039D02*
X0517820Y0101039D01*
X0516090Y0100041D02*
X0555555Y0100041D01*
X0541606Y0094050D02*
X0540280Y0094050D01*
X0538403Y0094050D02*
X0462346Y0094050D01*
X0461652Y0093051D02*
X0535269Y0093051D01*
X0534271Y0092053D02*
X0460783Y0092053D01*
X0461829Y0091054D02*
X0534139Y0091054D01*
X0534347Y0090056D02*
X0462419Y0090056D01*
X0462815Y0089057D02*
X0534505Y0089057D01*
X0534139Y0088059D02*
X0462815Y0088059D01*
X0462712Y0087060D02*
X0534139Y0087060D01*
X0534139Y0086062D02*
X0462298Y0086062D01*
X0461538Y0085063D02*
X0533753Y0085063D01*
X0533071Y0084065D02*
X0460944Y0084065D01*
X0461943Y0083066D02*
X0533071Y0083066D01*
X0533071Y0082067D02*
X0462466Y0082067D01*
X0462815Y0081069D02*
X0533071Y0081069D01*
X0533071Y0080070D02*
X0462815Y0080070D01*
X0462665Y0079072D02*
X0533071Y0079072D01*
X0533451Y0078073D02*
X0462251Y0078073D01*
X0461424Y0077075D02*
X0534091Y0077075D01*
X0534426Y0076076D02*
X0461058Y0076076D01*
X0462057Y0075078D02*
X0534477Y0075078D01*
X0534139Y0074079D02*
X0462513Y0074079D01*
X0462815Y0073081D02*
X0534140Y0073081D01*
X0534139Y0072082D02*
X0462815Y0072082D01*
X0462617Y0071084D02*
X0534139Y0071084D01*
X0534139Y0070085D02*
X0462204Y0070085D01*
X0461310Y0069087D02*
X0534139Y0069087D01*
X0534139Y0068088D02*
X0461173Y0068088D01*
X0462147Y0067090D02*
X0534139Y0067090D01*
X0534657Y0066091D02*
X0462561Y0066091D01*
X0462815Y0065093D02*
X0535235Y0065093D01*
X0534236Y0064094D02*
X0462815Y0064094D01*
X0462570Y0063096D02*
X0534139Y0063096D01*
X0534381Y0062097D02*
X0462157Y0062097D01*
X0461196Y0061099D02*
X0534484Y0061099D01*
X0534139Y0060100D02*
X0460961Y0060100D01*
X0461891Y0059102D02*
X0534139Y0059102D01*
X0534139Y0058103D02*
X0462383Y0058103D01*
X0462606Y0057105D02*
X0534139Y0057105D01*
X0507947Y0053111D02*
X0498045Y0053111D01*
X0498459Y0052112D02*
X0505803Y0052112D01*
X0504343Y0051114D02*
X0498626Y0051114D01*
X0498626Y0050115D02*
X0503345Y0050115D01*
X0502496Y0049117D02*
X0498626Y0049117D01*
X0498626Y0048118D02*
X0501920Y0048118D01*
X0501343Y0047120D02*
X0498626Y0047120D01*
X0498626Y0046121D02*
X0501041Y0046121D01*
X0500774Y0045123D02*
X0498626Y0045123D01*
X0498626Y0044124D02*
X0500543Y0044124D01*
X0500543Y0043126D02*
X0498626Y0043126D01*
X0498626Y0042127D02*
X0500543Y0042127D01*
X0500621Y0041129D02*
X0498626Y0041129D01*
X0498626Y0040130D02*
X0500889Y0040130D01*
X0501156Y0039131D02*
X0498626Y0039131D01*
X0498676Y0038133D02*
X0501590Y0038133D01*
X0502167Y0037134D02*
X0498816Y0037134D01*
X0499084Y0036136D02*
X0502775Y0036136D01*
X0503773Y0035137D02*
X0499351Y0035137D01*
X0499820Y0034139D02*
X0504815Y0034139D01*
X0506545Y0033140D02*
X0500397Y0033140D01*
X0501065Y0032142D02*
X0509545Y0032142D01*
X0513140Y0032142D02*
X0521620Y0032142D01*
X0522288Y0033140D02*
X0516140Y0033140D01*
X0517870Y0034139D02*
X0522865Y0034139D01*
X0523334Y0035137D02*
X0518912Y0035137D01*
X0519911Y0036136D02*
X0523602Y0036136D01*
X0523869Y0037134D02*
X0520518Y0037134D01*
X0521095Y0038133D02*
X0524009Y0038133D01*
X0524059Y0039131D02*
X0521529Y0039131D01*
X0521796Y0040130D02*
X0524059Y0040130D01*
X0524059Y0041129D02*
X0522064Y0041129D01*
X0522142Y0042127D02*
X0524059Y0042127D01*
X0524059Y0043126D02*
X0522142Y0043126D01*
X0522142Y0044124D02*
X0524179Y0044124D01*
X0524592Y0045123D02*
X0521911Y0045123D01*
X0521644Y0046121D02*
X0525269Y0046121D01*
X0526324Y0047120D02*
X0521342Y0047120D01*
X0520621Y0031143D02*
X0502064Y0031143D01*
X0503232Y0030145D02*
X0519453Y0030145D01*
X0517724Y0029146D02*
X0504961Y0029146D01*
X0454473Y0062097D02*
X0374351Y0062097D01*
X0375350Y0063096D02*
X0454060Y0063096D01*
X0453815Y0064094D02*
X0376349Y0064094D01*
X0377347Y0065093D02*
X0453815Y0065093D01*
X0454069Y0066091D02*
X0378346Y0066091D01*
X0379344Y0067090D02*
X0454483Y0067090D01*
X0455457Y0068088D02*
X0380343Y0068088D01*
X0381341Y0069087D02*
X0455320Y0069087D01*
X0454426Y0070085D02*
X0382340Y0070085D01*
X0383338Y0071084D02*
X0454013Y0071084D01*
X0453815Y0072082D02*
X0384337Y0072082D01*
X0385335Y0073081D02*
X0453815Y0073081D01*
X0454117Y0074079D02*
X0386334Y0074079D01*
X0387332Y0075078D02*
X0454573Y0075078D01*
X0455572Y0076076D02*
X0388331Y0076076D01*
X0389329Y0077075D02*
X0455206Y0077075D01*
X0398124Y0098780D02*
X0375670Y0098780D01*
X0298124Y0136905D02*
X0288124Y0126905D01*
X0298124Y0136905D02*
X0301249Y0133780D01*
X0301874Y0133780D01*
X0311874Y0143780D01*
X0311874Y0144405D01*
X0537902Y0078073D02*
X0538645Y0078073D01*
X0543476Y0090264D02*
X0543476Y0090264D01*
X0298246Y0045123D02*
X0291782Y0045123D01*
X0288216Y0045123D02*
X0269817Y0045123D01*
X0264611Y0048118D02*
X0233073Y0048118D01*
X0232233Y0047120D02*
X0263612Y0047120D01*
X0262614Y0046121D02*
X0232195Y0046121D01*
X0231782Y0045123D02*
X0261615Y0045123D01*
X0260617Y0044124D02*
X0230895Y0044124D01*
X0228749Y0046905D02*
X0233749Y0051905D01*
X0234072Y0049117D02*
X0265609Y0049117D01*
X0266822Y0042127D02*
X0277785Y0042127D01*
X0276490Y0041129D02*
X0265823Y0041129D01*
X0264825Y0040130D02*
X0275491Y0040130D01*
X0204824Y0029102D02*
X0204824Y0024218D01*
X0204011Y0024218D01*
X0204024Y0024301D01*
X0204024Y0027155D01*
X0200024Y0027155D01*
X0200024Y0028155D01*
X0204024Y0028155D01*
X0204024Y0029902D01*
X0204824Y0029102D01*
X0204780Y0029146D02*
X0204024Y0029146D01*
X0204824Y0028148D02*
X0200024Y0028148D01*
X0199024Y0028148D02*
X0194224Y0028148D01*
X0194224Y0029146D02*
X0195024Y0029146D01*
X0195024Y0030145D02*
X0194224Y0030145D01*
X0194224Y0031143D02*
X0195045Y0031143D01*
X0195275Y0032142D02*
X0193995Y0032142D01*
X0193582Y0033140D02*
X0195767Y0033140D01*
X0196663Y0034139D02*
X0192687Y0034139D01*
X0191724Y0035137D02*
X0198789Y0035137D01*
X0197790Y0036136D02*
X0191724Y0036136D01*
X0191724Y0037134D02*
X0196092Y0037134D01*
X0195139Y0038133D02*
X0191724Y0038133D01*
X0191724Y0039131D02*
X0194725Y0039131D01*
X0194640Y0040130D02*
X0191724Y0040130D01*
X0191724Y0041129D02*
X0194808Y0041129D01*
X0195293Y0042127D02*
X0191724Y0042127D01*
X0189524Y0046430D02*
X0193124Y0050030D01*
X0197499Y0050030D01*
X0195482Y0047120D02*
X0193325Y0047120D01*
X0189524Y0046430D02*
X0189524Y0027655D01*
X0189374Y0027805D01*
X0189374Y0031905D01*
X0179999Y0035655D02*
X0179999Y0028130D01*
X0179524Y0027655D01*
X0194224Y0027149D02*
X0195024Y0027149D01*
X0195024Y0026151D02*
X0194224Y0026151D01*
X0194224Y0025152D02*
X0195024Y0025152D01*
X0204024Y0025152D02*
X0204824Y0025152D01*
X0204824Y0026151D02*
X0204024Y0026151D01*
X0204024Y0027149D02*
X0204824Y0027149D01*
X0179999Y0035655D02*
X0174999Y0040655D01*
X0174999Y0050655D01*
D18*
X0198124Y0040030D02*
X0198124Y0039055D01*
X0209524Y0027655D01*
X0278124Y0069405D02*
X0125624Y0069405D01*
X0114870Y0080159D01*
X0111410Y0080159D01*
X0111410Y0088033D02*
X0111996Y0088033D01*
X0128124Y0071905D01*
X0275624Y0072530D01*
X0294374Y0091280D01*
X0294374Y0085655D02*
X0278124Y0069405D01*
X0256249Y0097530D02*
X0256249Y0143155D01*
X0256874Y0143780D01*
X0264374Y0143780D02*
X0298749Y0143780D01*
X0301874Y0140655D01*
D19*
X0259374Y0048780D02*
X0250624Y0048780D01*
X0237499Y0035655D01*
X0228749Y0035655D01*
X0209524Y0027655D02*
X0249318Y0027655D01*
X0249338Y0027675D01*
X0249338Y0038780D01*
X0259374Y0038780D01*
X0268749Y0048155D01*
X0289999Y0048155D01*
D20*
X0298749Y0048155D01*
X0299999Y0046905D01*
X0305624Y0046905D01*
X0310624Y0051905D01*
X0360624Y0051905D01*
X0389049Y0080330D01*
X0375324Y0080330D01*
X0364999Y0090655D01*
X0334374Y0090655D01*
X0333749Y0090030D01*
X0389049Y0080330D02*
X0458315Y0080330D01*
X0456243Y0058780D02*
X0416249Y0058780D01*
X0409095Y0051626D01*
X0409095Y0028424D01*
X0397499Y0043155D02*
X0398437Y0044093D01*
X0397499Y0043155D02*
X0322499Y0043155D01*
X0322499Y0047530D01*
X0322499Y0043155D02*
X0274999Y0043155D01*
X0259519Y0027675D01*
X0259338Y0027675D01*
X0456243Y0058780D02*
X0458315Y0056708D01*
D21*
X0409095Y0033435D02*
X0398437Y0044093D01*
X0379374Y0063155D01*
X0352566Y0029963D02*
X0343749Y0038780D01*
X0279374Y0038780D01*
X0269338Y0028744D01*
X0269338Y0027675D01*
X0352566Y0027713D02*
X0352566Y0029963D01*
X0409095Y0028424D02*
X0409095Y0033435D01*
D22*
X0379374Y0063155D03*
D23*
X0363124Y0063155D02*
X0356506Y0056537D01*
X0111410Y0056537D01*
X0111410Y0064411D02*
X0349380Y0064411D01*
X0365624Y0080655D01*
X0379374Y0085655D02*
X0381923Y0088204D01*
X0458315Y0088204D01*
D24*
X0379374Y0085655D03*
X0365624Y0080655D03*
X0363124Y0063155D03*
M02*
