G75*
%MOIN*%
%OFA0B0*%
%FSLAX25Y25*%
%IPPOS*%
%LPD*%
%AMOC8*
5,1,8,0,0,1.08239X$1,22.5*
%
%ADD10C,0.13398*%
%ADD11R,0.05950X0.05950*%
%ADD12C,0.05950*%
%ADD13C,0.06800*%
%ADD14C,0.06400*%
%ADD15C,0.08200*%
%ADD16C,0.04369*%
%ADD17C,0.05156*%
%ADD18C,0.06115*%
D10*
X0058587Y0042840D03*
X0058587Y0109769D03*
X0241657Y0149140D03*
X0328272Y0149140D03*
X0511343Y0109769D03*
X0511343Y0042840D03*
D11*
X0389095Y0028424D03*
D12*
X0399095Y0028424D03*
X0409095Y0028424D03*
D13*
X0320055Y0030708D02*
X0320055Y0024708D01*
X0310055Y0024708D02*
X0310055Y0030708D01*
X0300055Y0030708D02*
X0300055Y0024708D01*
X0290055Y0024708D02*
X0290055Y0030708D01*
X0269338Y0030675D02*
X0269338Y0024675D01*
X0259338Y0024675D02*
X0259338Y0030675D01*
X0249338Y0030675D02*
X0249338Y0024675D01*
X0209524Y0024655D02*
X0209524Y0030655D01*
X0199524Y0030655D02*
X0199524Y0024655D01*
X0189524Y0024655D02*
X0189524Y0030655D01*
X0179524Y0030655D02*
X0179524Y0024655D01*
X0169524Y0024655D02*
X0169524Y0030655D01*
X0159524Y0030655D02*
X0159524Y0024655D01*
D14*
X0111410Y0056537D03*
X0111410Y0064411D03*
X0111410Y0072285D03*
X0111410Y0080159D03*
X0111410Y0088033D03*
X0111410Y0095907D03*
X0458315Y0096078D03*
X0458315Y0088204D03*
X0458315Y0080330D03*
X0458315Y0072456D03*
X0458315Y0064582D03*
X0458315Y0056708D03*
D15*
X0362566Y0027713D03*
X0352566Y0027713D03*
X0342566Y0027713D03*
D16*
X0322499Y0047530D03*
X0303749Y0051280D03*
X0289999Y0048155D03*
X0259374Y0048780D03*
X0228749Y0046905D03*
X0198124Y0040030D03*
X0228749Y0035655D03*
X0197499Y0050030D03*
X0174999Y0050655D03*
X0174999Y0076280D03*
X0198124Y0077530D03*
X0241249Y0076280D03*
X0241249Y0082530D03*
X0266874Y0094405D03*
X0256249Y0097530D03*
X0273124Y0104405D03*
X0276249Y0107530D03*
X0279999Y0111280D03*
X0288124Y0115030D03*
X0298124Y0105655D03*
X0302499Y0100655D03*
X0306874Y0096905D03*
X0315624Y0093780D03*
X0333749Y0090030D03*
X0329999Y0086905D03*
X0318124Y0085655D03*
X0294374Y0085655D03*
X0294374Y0091280D03*
X0284374Y0091280D03*
X0284374Y0098155D03*
X0279374Y0098155D03*
X0329374Y0111280D03*
X0340624Y0105655D03*
X0351249Y0105030D03*
X0370624Y0105030D03*
X0377499Y0106280D03*
X0398124Y0098780D03*
X0401874Y0101905D03*
X0406249Y0103780D03*
X0354999Y0086905D03*
X0345624Y0075655D03*
X0345624Y0070655D03*
X0326249Y0070030D03*
X0314374Y0074405D03*
X0308749Y0072530D03*
X0339374Y0117530D03*
X0298124Y0136905D03*
X0301874Y0140655D03*
X0311874Y0144405D03*
X0264374Y0143780D03*
X0256874Y0143780D03*
D17*
X0379374Y0063155D03*
D18*
X0363124Y0063155D03*
X0365624Y0080655D03*
X0379374Y0085655D03*
M02*
