%
M48
M72
T01C0.01969
T02C0.02756
T03C0.03150
T04C0.03543
T05C0.04000
T06C0.12598
%
T01
X174999Y50655
X197499Y50030
X198124Y40030
X228749Y35655
X228749Y46905
X259374Y48780
X289999Y48155
X303749Y51280
X322499Y47530
X326249Y70030
X314374Y74405
X308749Y72530
X318124Y85655
X329999Y86905
X333749Y90030
X315624Y93780
X306874Y96905
X302499Y100655
X298124Y105655
X279999Y111280
X276249Y107530
X273124Y104405
X279374Y98155
X284374Y98155
X266874Y94405
X256249Y97530
X284374Y91280
X294374Y91280
X294374Y85655
X345624Y75655
X345624Y70655
X354999Y86905
X398124Y98780
X401874Y101905
X406249Y103780
X377499Y106280
X370624Y105030
X351249Y105030
X340624Y105655
X329374Y111280
X339374Y117530
X288124Y115030
X298124Y136905
X301874Y140655
X311874Y144405
X264374Y143780
X256874Y143780
X241249Y82530
X241249Y76280
X198124Y77530
X174999Y76280
T02
X379374Y63155
T03
X458315Y64582
X458315Y72456
X458315Y80330
X458315Y88204
X458315Y96078
X458315Y56708
X409095Y28424
X399095Y28424
X389095Y28424
X111410Y56537
X111410Y64411
X111410Y72285
X111410Y80159
X111410Y88033
X111410Y95907
T04
X363124Y63155
X365624Y80655
X379374Y85655
T05
X362566Y27713
X352566Y27713
X342566Y27713
X320055Y27708
X310055Y27708
X300055Y27708
X290055Y27708
X269338Y27675
X259338Y27675
X249338Y27675
X209524Y27655
X199524Y27655
X189524Y27655
X179524Y27655
X169524Y27655
X159524Y27655
T06
X58587Y42840
X58587Y109769
X241657Y149140
X328272Y149140
X511343Y109769
X511343Y42840
M30
