G75*
%MOIN*%
%OFA0B0*%
%FSLAX25Y25*%
%IPPOS*%
%LPD*%
%AMOC8*
5,1,8,0,0,1.08239X$1,22.5*
%
%ADD10C,0.00000*%
%ADD11C,0.01000*%
D10*
X0052288Y0042840D02*
X0052290Y0042998D01*
X0052296Y0043156D01*
X0052306Y0043314D01*
X0052320Y0043472D01*
X0052338Y0043629D01*
X0052359Y0043786D01*
X0052385Y0043942D01*
X0052415Y0044098D01*
X0052448Y0044253D01*
X0052486Y0044406D01*
X0052527Y0044559D01*
X0052572Y0044711D01*
X0052621Y0044862D01*
X0052674Y0045011D01*
X0052730Y0045159D01*
X0052790Y0045305D01*
X0052854Y0045450D01*
X0052922Y0045593D01*
X0052993Y0045735D01*
X0053067Y0045875D01*
X0053145Y0046012D01*
X0053227Y0046148D01*
X0053311Y0046282D01*
X0053400Y0046413D01*
X0053491Y0046542D01*
X0053586Y0046669D01*
X0053683Y0046794D01*
X0053784Y0046916D01*
X0053888Y0047035D01*
X0053995Y0047152D01*
X0054105Y0047266D01*
X0054218Y0047377D01*
X0054333Y0047486D01*
X0054451Y0047591D01*
X0054572Y0047693D01*
X0054695Y0047793D01*
X0054821Y0047889D01*
X0054949Y0047982D01*
X0055079Y0048072D01*
X0055212Y0048158D01*
X0055347Y0048242D01*
X0055483Y0048321D01*
X0055622Y0048398D01*
X0055763Y0048470D01*
X0055905Y0048540D01*
X0056049Y0048605D01*
X0056195Y0048667D01*
X0056342Y0048725D01*
X0056491Y0048780D01*
X0056641Y0048831D01*
X0056792Y0048878D01*
X0056944Y0048921D01*
X0057097Y0048960D01*
X0057252Y0048996D01*
X0057407Y0049027D01*
X0057563Y0049055D01*
X0057719Y0049079D01*
X0057876Y0049099D01*
X0058034Y0049115D01*
X0058191Y0049127D01*
X0058350Y0049135D01*
X0058508Y0049139D01*
X0058666Y0049139D01*
X0058824Y0049135D01*
X0058983Y0049127D01*
X0059140Y0049115D01*
X0059298Y0049099D01*
X0059455Y0049079D01*
X0059611Y0049055D01*
X0059767Y0049027D01*
X0059922Y0048996D01*
X0060077Y0048960D01*
X0060230Y0048921D01*
X0060382Y0048878D01*
X0060533Y0048831D01*
X0060683Y0048780D01*
X0060832Y0048725D01*
X0060979Y0048667D01*
X0061125Y0048605D01*
X0061269Y0048540D01*
X0061411Y0048470D01*
X0061552Y0048398D01*
X0061691Y0048321D01*
X0061827Y0048242D01*
X0061962Y0048158D01*
X0062095Y0048072D01*
X0062225Y0047982D01*
X0062353Y0047889D01*
X0062479Y0047793D01*
X0062602Y0047693D01*
X0062723Y0047591D01*
X0062841Y0047486D01*
X0062956Y0047377D01*
X0063069Y0047266D01*
X0063179Y0047152D01*
X0063286Y0047035D01*
X0063390Y0046916D01*
X0063491Y0046794D01*
X0063588Y0046669D01*
X0063683Y0046542D01*
X0063774Y0046413D01*
X0063863Y0046282D01*
X0063947Y0046148D01*
X0064029Y0046012D01*
X0064107Y0045875D01*
X0064181Y0045735D01*
X0064252Y0045593D01*
X0064320Y0045450D01*
X0064384Y0045305D01*
X0064444Y0045159D01*
X0064500Y0045011D01*
X0064553Y0044862D01*
X0064602Y0044711D01*
X0064647Y0044559D01*
X0064688Y0044406D01*
X0064726Y0044253D01*
X0064759Y0044098D01*
X0064789Y0043942D01*
X0064815Y0043786D01*
X0064836Y0043629D01*
X0064854Y0043472D01*
X0064868Y0043314D01*
X0064878Y0043156D01*
X0064884Y0042998D01*
X0064886Y0042840D01*
X0064884Y0042682D01*
X0064878Y0042524D01*
X0064868Y0042366D01*
X0064854Y0042208D01*
X0064836Y0042051D01*
X0064815Y0041894D01*
X0064789Y0041738D01*
X0064759Y0041582D01*
X0064726Y0041427D01*
X0064688Y0041274D01*
X0064647Y0041121D01*
X0064602Y0040969D01*
X0064553Y0040818D01*
X0064500Y0040669D01*
X0064444Y0040521D01*
X0064384Y0040375D01*
X0064320Y0040230D01*
X0064252Y0040087D01*
X0064181Y0039945D01*
X0064107Y0039805D01*
X0064029Y0039668D01*
X0063947Y0039532D01*
X0063863Y0039398D01*
X0063774Y0039267D01*
X0063683Y0039138D01*
X0063588Y0039011D01*
X0063491Y0038886D01*
X0063390Y0038764D01*
X0063286Y0038645D01*
X0063179Y0038528D01*
X0063069Y0038414D01*
X0062956Y0038303D01*
X0062841Y0038194D01*
X0062723Y0038089D01*
X0062602Y0037987D01*
X0062479Y0037887D01*
X0062353Y0037791D01*
X0062225Y0037698D01*
X0062095Y0037608D01*
X0061962Y0037522D01*
X0061827Y0037438D01*
X0061691Y0037359D01*
X0061552Y0037282D01*
X0061411Y0037210D01*
X0061269Y0037140D01*
X0061125Y0037075D01*
X0060979Y0037013D01*
X0060832Y0036955D01*
X0060683Y0036900D01*
X0060533Y0036849D01*
X0060382Y0036802D01*
X0060230Y0036759D01*
X0060077Y0036720D01*
X0059922Y0036684D01*
X0059767Y0036653D01*
X0059611Y0036625D01*
X0059455Y0036601D01*
X0059298Y0036581D01*
X0059140Y0036565D01*
X0058983Y0036553D01*
X0058824Y0036545D01*
X0058666Y0036541D01*
X0058508Y0036541D01*
X0058350Y0036545D01*
X0058191Y0036553D01*
X0058034Y0036565D01*
X0057876Y0036581D01*
X0057719Y0036601D01*
X0057563Y0036625D01*
X0057407Y0036653D01*
X0057252Y0036684D01*
X0057097Y0036720D01*
X0056944Y0036759D01*
X0056792Y0036802D01*
X0056641Y0036849D01*
X0056491Y0036900D01*
X0056342Y0036955D01*
X0056195Y0037013D01*
X0056049Y0037075D01*
X0055905Y0037140D01*
X0055763Y0037210D01*
X0055622Y0037282D01*
X0055483Y0037359D01*
X0055347Y0037438D01*
X0055212Y0037522D01*
X0055079Y0037608D01*
X0054949Y0037698D01*
X0054821Y0037791D01*
X0054695Y0037887D01*
X0054572Y0037987D01*
X0054451Y0038089D01*
X0054333Y0038194D01*
X0054218Y0038303D01*
X0054105Y0038414D01*
X0053995Y0038528D01*
X0053888Y0038645D01*
X0053784Y0038764D01*
X0053683Y0038886D01*
X0053586Y0039011D01*
X0053491Y0039138D01*
X0053400Y0039267D01*
X0053311Y0039398D01*
X0053227Y0039532D01*
X0053145Y0039668D01*
X0053067Y0039805D01*
X0052993Y0039945D01*
X0052922Y0040087D01*
X0052854Y0040230D01*
X0052790Y0040375D01*
X0052730Y0040521D01*
X0052674Y0040669D01*
X0052621Y0040818D01*
X0052572Y0040969D01*
X0052527Y0041121D01*
X0052486Y0041274D01*
X0052448Y0041427D01*
X0052415Y0041582D01*
X0052385Y0041738D01*
X0052359Y0041894D01*
X0052338Y0042051D01*
X0052320Y0042208D01*
X0052306Y0042366D01*
X0052296Y0042524D01*
X0052290Y0042682D01*
X0052288Y0042840D01*
X0052288Y0109769D02*
X0052290Y0109927D01*
X0052296Y0110085D01*
X0052306Y0110243D01*
X0052320Y0110401D01*
X0052338Y0110558D01*
X0052359Y0110715D01*
X0052385Y0110871D01*
X0052415Y0111027D01*
X0052448Y0111182D01*
X0052486Y0111335D01*
X0052527Y0111488D01*
X0052572Y0111640D01*
X0052621Y0111791D01*
X0052674Y0111940D01*
X0052730Y0112088D01*
X0052790Y0112234D01*
X0052854Y0112379D01*
X0052922Y0112522D01*
X0052993Y0112664D01*
X0053067Y0112804D01*
X0053145Y0112941D01*
X0053227Y0113077D01*
X0053311Y0113211D01*
X0053400Y0113342D01*
X0053491Y0113471D01*
X0053586Y0113598D01*
X0053683Y0113723D01*
X0053784Y0113845D01*
X0053888Y0113964D01*
X0053995Y0114081D01*
X0054105Y0114195D01*
X0054218Y0114306D01*
X0054333Y0114415D01*
X0054451Y0114520D01*
X0054572Y0114622D01*
X0054695Y0114722D01*
X0054821Y0114818D01*
X0054949Y0114911D01*
X0055079Y0115001D01*
X0055212Y0115087D01*
X0055347Y0115171D01*
X0055483Y0115250D01*
X0055622Y0115327D01*
X0055763Y0115399D01*
X0055905Y0115469D01*
X0056049Y0115534D01*
X0056195Y0115596D01*
X0056342Y0115654D01*
X0056491Y0115709D01*
X0056641Y0115760D01*
X0056792Y0115807D01*
X0056944Y0115850D01*
X0057097Y0115889D01*
X0057252Y0115925D01*
X0057407Y0115956D01*
X0057563Y0115984D01*
X0057719Y0116008D01*
X0057876Y0116028D01*
X0058034Y0116044D01*
X0058191Y0116056D01*
X0058350Y0116064D01*
X0058508Y0116068D01*
X0058666Y0116068D01*
X0058824Y0116064D01*
X0058983Y0116056D01*
X0059140Y0116044D01*
X0059298Y0116028D01*
X0059455Y0116008D01*
X0059611Y0115984D01*
X0059767Y0115956D01*
X0059922Y0115925D01*
X0060077Y0115889D01*
X0060230Y0115850D01*
X0060382Y0115807D01*
X0060533Y0115760D01*
X0060683Y0115709D01*
X0060832Y0115654D01*
X0060979Y0115596D01*
X0061125Y0115534D01*
X0061269Y0115469D01*
X0061411Y0115399D01*
X0061552Y0115327D01*
X0061691Y0115250D01*
X0061827Y0115171D01*
X0061962Y0115087D01*
X0062095Y0115001D01*
X0062225Y0114911D01*
X0062353Y0114818D01*
X0062479Y0114722D01*
X0062602Y0114622D01*
X0062723Y0114520D01*
X0062841Y0114415D01*
X0062956Y0114306D01*
X0063069Y0114195D01*
X0063179Y0114081D01*
X0063286Y0113964D01*
X0063390Y0113845D01*
X0063491Y0113723D01*
X0063588Y0113598D01*
X0063683Y0113471D01*
X0063774Y0113342D01*
X0063863Y0113211D01*
X0063947Y0113077D01*
X0064029Y0112941D01*
X0064107Y0112804D01*
X0064181Y0112664D01*
X0064252Y0112522D01*
X0064320Y0112379D01*
X0064384Y0112234D01*
X0064444Y0112088D01*
X0064500Y0111940D01*
X0064553Y0111791D01*
X0064602Y0111640D01*
X0064647Y0111488D01*
X0064688Y0111335D01*
X0064726Y0111182D01*
X0064759Y0111027D01*
X0064789Y0110871D01*
X0064815Y0110715D01*
X0064836Y0110558D01*
X0064854Y0110401D01*
X0064868Y0110243D01*
X0064878Y0110085D01*
X0064884Y0109927D01*
X0064886Y0109769D01*
X0064884Y0109611D01*
X0064878Y0109453D01*
X0064868Y0109295D01*
X0064854Y0109137D01*
X0064836Y0108980D01*
X0064815Y0108823D01*
X0064789Y0108667D01*
X0064759Y0108511D01*
X0064726Y0108356D01*
X0064688Y0108203D01*
X0064647Y0108050D01*
X0064602Y0107898D01*
X0064553Y0107747D01*
X0064500Y0107598D01*
X0064444Y0107450D01*
X0064384Y0107304D01*
X0064320Y0107159D01*
X0064252Y0107016D01*
X0064181Y0106874D01*
X0064107Y0106734D01*
X0064029Y0106597D01*
X0063947Y0106461D01*
X0063863Y0106327D01*
X0063774Y0106196D01*
X0063683Y0106067D01*
X0063588Y0105940D01*
X0063491Y0105815D01*
X0063390Y0105693D01*
X0063286Y0105574D01*
X0063179Y0105457D01*
X0063069Y0105343D01*
X0062956Y0105232D01*
X0062841Y0105123D01*
X0062723Y0105018D01*
X0062602Y0104916D01*
X0062479Y0104816D01*
X0062353Y0104720D01*
X0062225Y0104627D01*
X0062095Y0104537D01*
X0061962Y0104451D01*
X0061827Y0104367D01*
X0061691Y0104288D01*
X0061552Y0104211D01*
X0061411Y0104139D01*
X0061269Y0104069D01*
X0061125Y0104004D01*
X0060979Y0103942D01*
X0060832Y0103884D01*
X0060683Y0103829D01*
X0060533Y0103778D01*
X0060382Y0103731D01*
X0060230Y0103688D01*
X0060077Y0103649D01*
X0059922Y0103613D01*
X0059767Y0103582D01*
X0059611Y0103554D01*
X0059455Y0103530D01*
X0059298Y0103510D01*
X0059140Y0103494D01*
X0058983Y0103482D01*
X0058824Y0103474D01*
X0058666Y0103470D01*
X0058508Y0103470D01*
X0058350Y0103474D01*
X0058191Y0103482D01*
X0058034Y0103494D01*
X0057876Y0103510D01*
X0057719Y0103530D01*
X0057563Y0103554D01*
X0057407Y0103582D01*
X0057252Y0103613D01*
X0057097Y0103649D01*
X0056944Y0103688D01*
X0056792Y0103731D01*
X0056641Y0103778D01*
X0056491Y0103829D01*
X0056342Y0103884D01*
X0056195Y0103942D01*
X0056049Y0104004D01*
X0055905Y0104069D01*
X0055763Y0104139D01*
X0055622Y0104211D01*
X0055483Y0104288D01*
X0055347Y0104367D01*
X0055212Y0104451D01*
X0055079Y0104537D01*
X0054949Y0104627D01*
X0054821Y0104720D01*
X0054695Y0104816D01*
X0054572Y0104916D01*
X0054451Y0105018D01*
X0054333Y0105123D01*
X0054218Y0105232D01*
X0054105Y0105343D01*
X0053995Y0105457D01*
X0053888Y0105574D01*
X0053784Y0105693D01*
X0053683Y0105815D01*
X0053586Y0105940D01*
X0053491Y0106067D01*
X0053400Y0106196D01*
X0053311Y0106327D01*
X0053227Y0106461D01*
X0053145Y0106597D01*
X0053067Y0106734D01*
X0052993Y0106874D01*
X0052922Y0107016D01*
X0052854Y0107159D01*
X0052790Y0107304D01*
X0052730Y0107450D01*
X0052674Y0107598D01*
X0052621Y0107747D01*
X0052572Y0107898D01*
X0052527Y0108050D01*
X0052486Y0108203D01*
X0052448Y0108356D01*
X0052415Y0108511D01*
X0052385Y0108667D01*
X0052359Y0108823D01*
X0052338Y0108980D01*
X0052320Y0109137D01*
X0052306Y0109295D01*
X0052296Y0109453D01*
X0052290Y0109611D01*
X0052288Y0109769D01*
X0235358Y0149140D02*
X0235360Y0149298D01*
X0235366Y0149456D01*
X0235376Y0149614D01*
X0235390Y0149772D01*
X0235408Y0149929D01*
X0235429Y0150086D01*
X0235455Y0150242D01*
X0235485Y0150398D01*
X0235518Y0150553D01*
X0235556Y0150706D01*
X0235597Y0150859D01*
X0235642Y0151011D01*
X0235691Y0151162D01*
X0235744Y0151311D01*
X0235800Y0151459D01*
X0235860Y0151605D01*
X0235924Y0151750D01*
X0235992Y0151893D01*
X0236063Y0152035D01*
X0236137Y0152175D01*
X0236215Y0152312D01*
X0236297Y0152448D01*
X0236381Y0152582D01*
X0236470Y0152713D01*
X0236561Y0152842D01*
X0236656Y0152969D01*
X0236753Y0153094D01*
X0236854Y0153216D01*
X0236958Y0153335D01*
X0237065Y0153452D01*
X0237175Y0153566D01*
X0237288Y0153677D01*
X0237403Y0153786D01*
X0237521Y0153891D01*
X0237642Y0153993D01*
X0237765Y0154093D01*
X0237891Y0154189D01*
X0238019Y0154282D01*
X0238149Y0154372D01*
X0238282Y0154458D01*
X0238417Y0154542D01*
X0238553Y0154621D01*
X0238692Y0154698D01*
X0238833Y0154770D01*
X0238975Y0154840D01*
X0239119Y0154905D01*
X0239265Y0154967D01*
X0239412Y0155025D01*
X0239561Y0155080D01*
X0239711Y0155131D01*
X0239862Y0155178D01*
X0240014Y0155221D01*
X0240167Y0155260D01*
X0240322Y0155296D01*
X0240477Y0155327D01*
X0240633Y0155355D01*
X0240789Y0155379D01*
X0240946Y0155399D01*
X0241104Y0155415D01*
X0241261Y0155427D01*
X0241420Y0155435D01*
X0241578Y0155439D01*
X0241736Y0155439D01*
X0241894Y0155435D01*
X0242053Y0155427D01*
X0242210Y0155415D01*
X0242368Y0155399D01*
X0242525Y0155379D01*
X0242681Y0155355D01*
X0242837Y0155327D01*
X0242992Y0155296D01*
X0243147Y0155260D01*
X0243300Y0155221D01*
X0243452Y0155178D01*
X0243603Y0155131D01*
X0243753Y0155080D01*
X0243902Y0155025D01*
X0244049Y0154967D01*
X0244195Y0154905D01*
X0244339Y0154840D01*
X0244481Y0154770D01*
X0244622Y0154698D01*
X0244761Y0154621D01*
X0244897Y0154542D01*
X0245032Y0154458D01*
X0245165Y0154372D01*
X0245295Y0154282D01*
X0245423Y0154189D01*
X0245549Y0154093D01*
X0245672Y0153993D01*
X0245793Y0153891D01*
X0245911Y0153786D01*
X0246026Y0153677D01*
X0246139Y0153566D01*
X0246249Y0153452D01*
X0246356Y0153335D01*
X0246460Y0153216D01*
X0246561Y0153094D01*
X0246658Y0152969D01*
X0246753Y0152842D01*
X0246844Y0152713D01*
X0246933Y0152582D01*
X0247017Y0152448D01*
X0247099Y0152312D01*
X0247177Y0152175D01*
X0247251Y0152035D01*
X0247322Y0151893D01*
X0247390Y0151750D01*
X0247454Y0151605D01*
X0247514Y0151459D01*
X0247570Y0151311D01*
X0247623Y0151162D01*
X0247672Y0151011D01*
X0247717Y0150859D01*
X0247758Y0150706D01*
X0247796Y0150553D01*
X0247829Y0150398D01*
X0247859Y0150242D01*
X0247885Y0150086D01*
X0247906Y0149929D01*
X0247924Y0149772D01*
X0247938Y0149614D01*
X0247948Y0149456D01*
X0247954Y0149298D01*
X0247956Y0149140D01*
X0247954Y0148982D01*
X0247948Y0148824D01*
X0247938Y0148666D01*
X0247924Y0148508D01*
X0247906Y0148351D01*
X0247885Y0148194D01*
X0247859Y0148038D01*
X0247829Y0147882D01*
X0247796Y0147727D01*
X0247758Y0147574D01*
X0247717Y0147421D01*
X0247672Y0147269D01*
X0247623Y0147118D01*
X0247570Y0146969D01*
X0247514Y0146821D01*
X0247454Y0146675D01*
X0247390Y0146530D01*
X0247322Y0146387D01*
X0247251Y0146245D01*
X0247177Y0146105D01*
X0247099Y0145968D01*
X0247017Y0145832D01*
X0246933Y0145698D01*
X0246844Y0145567D01*
X0246753Y0145438D01*
X0246658Y0145311D01*
X0246561Y0145186D01*
X0246460Y0145064D01*
X0246356Y0144945D01*
X0246249Y0144828D01*
X0246139Y0144714D01*
X0246026Y0144603D01*
X0245911Y0144494D01*
X0245793Y0144389D01*
X0245672Y0144287D01*
X0245549Y0144187D01*
X0245423Y0144091D01*
X0245295Y0143998D01*
X0245165Y0143908D01*
X0245032Y0143822D01*
X0244897Y0143738D01*
X0244761Y0143659D01*
X0244622Y0143582D01*
X0244481Y0143510D01*
X0244339Y0143440D01*
X0244195Y0143375D01*
X0244049Y0143313D01*
X0243902Y0143255D01*
X0243753Y0143200D01*
X0243603Y0143149D01*
X0243452Y0143102D01*
X0243300Y0143059D01*
X0243147Y0143020D01*
X0242992Y0142984D01*
X0242837Y0142953D01*
X0242681Y0142925D01*
X0242525Y0142901D01*
X0242368Y0142881D01*
X0242210Y0142865D01*
X0242053Y0142853D01*
X0241894Y0142845D01*
X0241736Y0142841D01*
X0241578Y0142841D01*
X0241420Y0142845D01*
X0241261Y0142853D01*
X0241104Y0142865D01*
X0240946Y0142881D01*
X0240789Y0142901D01*
X0240633Y0142925D01*
X0240477Y0142953D01*
X0240322Y0142984D01*
X0240167Y0143020D01*
X0240014Y0143059D01*
X0239862Y0143102D01*
X0239711Y0143149D01*
X0239561Y0143200D01*
X0239412Y0143255D01*
X0239265Y0143313D01*
X0239119Y0143375D01*
X0238975Y0143440D01*
X0238833Y0143510D01*
X0238692Y0143582D01*
X0238553Y0143659D01*
X0238417Y0143738D01*
X0238282Y0143822D01*
X0238149Y0143908D01*
X0238019Y0143998D01*
X0237891Y0144091D01*
X0237765Y0144187D01*
X0237642Y0144287D01*
X0237521Y0144389D01*
X0237403Y0144494D01*
X0237288Y0144603D01*
X0237175Y0144714D01*
X0237065Y0144828D01*
X0236958Y0144945D01*
X0236854Y0145064D01*
X0236753Y0145186D01*
X0236656Y0145311D01*
X0236561Y0145438D01*
X0236470Y0145567D01*
X0236381Y0145698D01*
X0236297Y0145832D01*
X0236215Y0145968D01*
X0236137Y0146105D01*
X0236063Y0146245D01*
X0235992Y0146387D01*
X0235924Y0146530D01*
X0235860Y0146675D01*
X0235800Y0146821D01*
X0235744Y0146969D01*
X0235691Y0147118D01*
X0235642Y0147269D01*
X0235597Y0147421D01*
X0235556Y0147574D01*
X0235518Y0147727D01*
X0235485Y0147882D01*
X0235455Y0148038D01*
X0235429Y0148194D01*
X0235408Y0148351D01*
X0235390Y0148508D01*
X0235376Y0148666D01*
X0235366Y0148824D01*
X0235360Y0148982D01*
X0235358Y0149140D01*
X0321973Y0149140D02*
X0321975Y0149298D01*
X0321981Y0149456D01*
X0321991Y0149614D01*
X0322005Y0149772D01*
X0322023Y0149929D01*
X0322044Y0150086D01*
X0322070Y0150242D01*
X0322100Y0150398D01*
X0322133Y0150553D01*
X0322171Y0150706D01*
X0322212Y0150859D01*
X0322257Y0151011D01*
X0322306Y0151162D01*
X0322359Y0151311D01*
X0322415Y0151459D01*
X0322475Y0151605D01*
X0322539Y0151750D01*
X0322607Y0151893D01*
X0322678Y0152035D01*
X0322752Y0152175D01*
X0322830Y0152312D01*
X0322912Y0152448D01*
X0322996Y0152582D01*
X0323085Y0152713D01*
X0323176Y0152842D01*
X0323271Y0152969D01*
X0323368Y0153094D01*
X0323469Y0153216D01*
X0323573Y0153335D01*
X0323680Y0153452D01*
X0323790Y0153566D01*
X0323903Y0153677D01*
X0324018Y0153786D01*
X0324136Y0153891D01*
X0324257Y0153993D01*
X0324380Y0154093D01*
X0324506Y0154189D01*
X0324634Y0154282D01*
X0324764Y0154372D01*
X0324897Y0154458D01*
X0325032Y0154542D01*
X0325168Y0154621D01*
X0325307Y0154698D01*
X0325448Y0154770D01*
X0325590Y0154840D01*
X0325734Y0154905D01*
X0325880Y0154967D01*
X0326027Y0155025D01*
X0326176Y0155080D01*
X0326326Y0155131D01*
X0326477Y0155178D01*
X0326629Y0155221D01*
X0326782Y0155260D01*
X0326937Y0155296D01*
X0327092Y0155327D01*
X0327248Y0155355D01*
X0327404Y0155379D01*
X0327561Y0155399D01*
X0327719Y0155415D01*
X0327876Y0155427D01*
X0328035Y0155435D01*
X0328193Y0155439D01*
X0328351Y0155439D01*
X0328509Y0155435D01*
X0328668Y0155427D01*
X0328825Y0155415D01*
X0328983Y0155399D01*
X0329140Y0155379D01*
X0329296Y0155355D01*
X0329452Y0155327D01*
X0329607Y0155296D01*
X0329762Y0155260D01*
X0329915Y0155221D01*
X0330067Y0155178D01*
X0330218Y0155131D01*
X0330368Y0155080D01*
X0330517Y0155025D01*
X0330664Y0154967D01*
X0330810Y0154905D01*
X0330954Y0154840D01*
X0331096Y0154770D01*
X0331237Y0154698D01*
X0331376Y0154621D01*
X0331512Y0154542D01*
X0331647Y0154458D01*
X0331780Y0154372D01*
X0331910Y0154282D01*
X0332038Y0154189D01*
X0332164Y0154093D01*
X0332287Y0153993D01*
X0332408Y0153891D01*
X0332526Y0153786D01*
X0332641Y0153677D01*
X0332754Y0153566D01*
X0332864Y0153452D01*
X0332971Y0153335D01*
X0333075Y0153216D01*
X0333176Y0153094D01*
X0333273Y0152969D01*
X0333368Y0152842D01*
X0333459Y0152713D01*
X0333548Y0152582D01*
X0333632Y0152448D01*
X0333714Y0152312D01*
X0333792Y0152175D01*
X0333866Y0152035D01*
X0333937Y0151893D01*
X0334005Y0151750D01*
X0334069Y0151605D01*
X0334129Y0151459D01*
X0334185Y0151311D01*
X0334238Y0151162D01*
X0334287Y0151011D01*
X0334332Y0150859D01*
X0334373Y0150706D01*
X0334411Y0150553D01*
X0334444Y0150398D01*
X0334474Y0150242D01*
X0334500Y0150086D01*
X0334521Y0149929D01*
X0334539Y0149772D01*
X0334553Y0149614D01*
X0334563Y0149456D01*
X0334569Y0149298D01*
X0334571Y0149140D01*
X0334569Y0148982D01*
X0334563Y0148824D01*
X0334553Y0148666D01*
X0334539Y0148508D01*
X0334521Y0148351D01*
X0334500Y0148194D01*
X0334474Y0148038D01*
X0334444Y0147882D01*
X0334411Y0147727D01*
X0334373Y0147574D01*
X0334332Y0147421D01*
X0334287Y0147269D01*
X0334238Y0147118D01*
X0334185Y0146969D01*
X0334129Y0146821D01*
X0334069Y0146675D01*
X0334005Y0146530D01*
X0333937Y0146387D01*
X0333866Y0146245D01*
X0333792Y0146105D01*
X0333714Y0145968D01*
X0333632Y0145832D01*
X0333548Y0145698D01*
X0333459Y0145567D01*
X0333368Y0145438D01*
X0333273Y0145311D01*
X0333176Y0145186D01*
X0333075Y0145064D01*
X0332971Y0144945D01*
X0332864Y0144828D01*
X0332754Y0144714D01*
X0332641Y0144603D01*
X0332526Y0144494D01*
X0332408Y0144389D01*
X0332287Y0144287D01*
X0332164Y0144187D01*
X0332038Y0144091D01*
X0331910Y0143998D01*
X0331780Y0143908D01*
X0331647Y0143822D01*
X0331512Y0143738D01*
X0331376Y0143659D01*
X0331237Y0143582D01*
X0331096Y0143510D01*
X0330954Y0143440D01*
X0330810Y0143375D01*
X0330664Y0143313D01*
X0330517Y0143255D01*
X0330368Y0143200D01*
X0330218Y0143149D01*
X0330067Y0143102D01*
X0329915Y0143059D01*
X0329762Y0143020D01*
X0329607Y0142984D01*
X0329452Y0142953D01*
X0329296Y0142925D01*
X0329140Y0142901D01*
X0328983Y0142881D01*
X0328825Y0142865D01*
X0328668Y0142853D01*
X0328509Y0142845D01*
X0328351Y0142841D01*
X0328193Y0142841D01*
X0328035Y0142845D01*
X0327876Y0142853D01*
X0327719Y0142865D01*
X0327561Y0142881D01*
X0327404Y0142901D01*
X0327248Y0142925D01*
X0327092Y0142953D01*
X0326937Y0142984D01*
X0326782Y0143020D01*
X0326629Y0143059D01*
X0326477Y0143102D01*
X0326326Y0143149D01*
X0326176Y0143200D01*
X0326027Y0143255D01*
X0325880Y0143313D01*
X0325734Y0143375D01*
X0325590Y0143440D01*
X0325448Y0143510D01*
X0325307Y0143582D01*
X0325168Y0143659D01*
X0325032Y0143738D01*
X0324897Y0143822D01*
X0324764Y0143908D01*
X0324634Y0143998D01*
X0324506Y0144091D01*
X0324380Y0144187D01*
X0324257Y0144287D01*
X0324136Y0144389D01*
X0324018Y0144494D01*
X0323903Y0144603D01*
X0323790Y0144714D01*
X0323680Y0144828D01*
X0323573Y0144945D01*
X0323469Y0145064D01*
X0323368Y0145186D01*
X0323271Y0145311D01*
X0323176Y0145438D01*
X0323085Y0145567D01*
X0322996Y0145698D01*
X0322912Y0145832D01*
X0322830Y0145968D01*
X0322752Y0146105D01*
X0322678Y0146245D01*
X0322607Y0146387D01*
X0322539Y0146530D01*
X0322475Y0146675D01*
X0322415Y0146821D01*
X0322359Y0146969D01*
X0322306Y0147118D01*
X0322257Y0147269D01*
X0322212Y0147421D01*
X0322171Y0147574D01*
X0322133Y0147727D01*
X0322100Y0147882D01*
X0322070Y0148038D01*
X0322044Y0148194D01*
X0322023Y0148351D01*
X0322005Y0148508D01*
X0321991Y0148666D01*
X0321981Y0148824D01*
X0321975Y0148982D01*
X0321973Y0149140D01*
X0505044Y0109769D02*
X0505046Y0109927D01*
X0505052Y0110085D01*
X0505062Y0110243D01*
X0505076Y0110401D01*
X0505094Y0110558D01*
X0505115Y0110715D01*
X0505141Y0110871D01*
X0505171Y0111027D01*
X0505204Y0111182D01*
X0505242Y0111335D01*
X0505283Y0111488D01*
X0505328Y0111640D01*
X0505377Y0111791D01*
X0505430Y0111940D01*
X0505486Y0112088D01*
X0505546Y0112234D01*
X0505610Y0112379D01*
X0505678Y0112522D01*
X0505749Y0112664D01*
X0505823Y0112804D01*
X0505901Y0112941D01*
X0505983Y0113077D01*
X0506067Y0113211D01*
X0506156Y0113342D01*
X0506247Y0113471D01*
X0506342Y0113598D01*
X0506439Y0113723D01*
X0506540Y0113845D01*
X0506644Y0113964D01*
X0506751Y0114081D01*
X0506861Y0114195D01*
X0506974Y0114306D01*
X0507089Y0114415D01*
X0507207Y0114520D01*
X0507328Y0114622D01*
X0507451Y0114722D01*
X0507577Y0114818D01*
X0507705Y0114911D01*
X0507835Y0115001D01*
X0507968Y0115087D01*
X0508103Y0115171D01*
X0508239Y0115250D01*
X0508378Y0115327D01*
X0508519Y0115399D01*
X0508661Y0115469D01*
X0508805Y0115534D01*
X0508951Y0115596D01*
X0509098Y0115654D01*
X0509247Y0115709D01*
X0509397Y0115760D01*
X0509548Y0115807D01*
X0509700Y0115850D01*
X0509853Y0115889D01*
X0510008Y0115925D01*
X0510163Y0115956D01*
X0510319Y0115984D01*
X0510475Y0116008D01*
X0510632Y0116028D01*
X0510790Y0116044D01*
X0510947Y0116056D01*
X0511106Y0116064D01*
X0511264Y0116068D01*
X0511422Y0116068D01*
X0511580Y0116064D01*
X0511739Y0116056D01*
X0511896Y0116044D01*
X0512054Y0116028D01*
X0512211Y0116008D01*
X0512367Y0115984D01*
X0512523Y0115956D01*
X0512678Y0115925D01*
X0512833Y0115889D01*
X0512986Y0115850D01*
X0513138Y0115807D01*
X0513289Y0115760D01*
X0513439Y0115709D01*
X0513588Y0115654D01*
X0513735Y0115596D01*
X0513881Y0115534D01*
X0514025Y0115469D01*
X0514167Y0115399D01*
X0514308Y0115327D01*
X0514447Y0115250D01*
X0514583Y0115171D01*
X0514718Y0115087D01*
X0514851Y0115001D01*
X0514981Y0114911D01*
X0515109Y0114818D01*
X0515235Y0114722D01*
X0515358Y0114622D01*
X0515479Y0114520D01*
X0515597Y0114415D01*
X0515712Y0114306D01*
X0515825Y0114195D01*
X0515935Y0114081D01*
X0516042Y0113964D01*
X0516146Y0113845D01*
X0516247Y0113723D01*
X0516344Y0113598D01*
X0516439Y0113471D01*
X0516530Y0113342D01*
X0516619Y0113211D01*
X0516703Y0113077D01*
X0516785Y0112941D01*
X0516863Y0112804D01*
X0516937Y0112664D01*
X0517008Y0112522D01*
X0517076Y0112379D01*
X0517140Y0112234D01*
X0517200Y0112088D01*
X0517256Y0111940D01*
X0517309Y0111791D01*
X0517358Y0111640D01*
X0517403Y0111488D01*
X0517444Y0111335D01*
X0517482Y0111182D01*
X0517515Y0111027D01*
X0517545Y0110871D01*
X0517571Y0110715D01*
X0517592Y0110558D01*
X0517610Y0110401D01*
X0517624Y0110243D01*
X0517634Y0110085D01*
X0517640Y0109927D01*
X0517642Y0109769D01*
X0517640Y0109611D01*
X0517634Y0109453D01*
X0517624Y0109295D01*
X0517610Y0109137D01*
X0517592Y0108980D01*
X0517571Y0108823D01*
X0517545Y0108667D01*
X0517515Y0108511D01*
X0517482Y0108356D01*
X0517444Y0108203D01*
X0517403Y0108050D01*
X0517358Y0107898D01*
X0517309Y0107747D01*
X0517256Y0107598D01*
X0517200Y0107450D01*
X0517140Y0107304D01*
X0517076Y0107159D01*
X0517008Y0107016D01*
X0516937Y0106874D01*
X0516863Y0106734D01*
X0516785Y0106597D01*
X0516703Y0106461D01*
X0516619Y0106327D01*
X0516530Y0106196D01*
X0516439Y0106067D01*
X0516344Y0105940D01*
X0516247Y0105815D01*
X0516146Y0105693D01*
X0516042Y0105574D01*
X0515935Y0105457D01*
X0515825Y0105343D01*
X0515712Y0105232D01*
X0515597Y0105123D01*
X0515479Y0105018D01*
X0515358Y0104916D01*
X0515235Y0104816D01*
X0515109Y0104720D01*
X0514981Y0104627D01*
X0514851Y0104537D01*
X0514718Y0104451D01*
X0514583Y0104367D01*
X0514447Y0104288D01*
X0514308Y0104211D01*
X0514167Y0104139D01*
X0514025Y0104069D01*
X0513881Y0104004D01*
X0513735Y0103942D01*
X0513588Y0103884D01*
X0513439Y0103829D01*
X0513289Y0103778D01*
X0513138Y0103731D01*
X0512986Y0103688D01*
X0512833Y0103649D01*
X0512678Y0103613D01*
X0512523Y0103582D01*
X0512367Y0103554D01*
X0512211Y0103530D01*
X0512054Y0103510D01*
X0511896Y0103494D01*
X0511739Y0103482D01*
X0511580Y0103474D01*
X0511422Y0103470D01*
X0511264Y0103470D01*
X0511106Y0103474D01*
X0510947Y0103482D01*
X0510790Y0103494D01*
X0510632Y0103510D01*
X0510475Y0103530D01*
X0510319Y0103554D01*
X0510163Y0103582D01*
X0510008Y0103613D01*
X0509853Y0103649D01*
X0509700Y0103688D01*
X0509548Y0103731D01*
X0509397Y0103778D01*
X0509247Y0103829D01*
X0509098Y0103884D01*
X0508951Y0103942D01*
X0508805Y0104004D01*
X0508661Y0104069D01*
X0508519Y0104139D01*
X0508378Y0104211D01*
X0508239Y0104288D01*
X0508103Y0104367D01*
X0507968Y0104451D01*
X0507835Y0104537D01*
X0507705Y0104627D01*
X0507577Y0104720D01*
X0507451Y0104816D01*
X0507328Y0104916D01*
X0507207Y0105018D01*
X0507089Y0105123D01*
X0506974Y0105232D01*
X0506861Y0105343D01*
X0506751Y0105457D01*
X0506644Y0105574D01*
X0506540Y0105693D01*
X0506439Y0105815D01*
X0506342Y0105940D01*
X0506247Y0106067D01*
X0506156Y0106196D01*
X0506067Y0106327D01*
X0505983Y0106461D01*
X0505901Y0106597D01*
X0505823Y0106734D01*
X0505749Y0106874D01*
X0505678Y0107016D01*
X0505610Y0107159D01*
X0505546Y0107304D01*
X0505486Y0107450D01*
X0505430Y0107598D01*
X0505377Y0107747D01*
X0505328Y0107898D01*
X0505283Y0108050D01*
X0505242Y0108203D01*
X0505204Y0108356D01*
X0505171Y0108511D01*
X0505141Y0108667D01*
X0505115Y0108823D01*
X0505094Y0108980D01*
X0505076Y0109137D01*
X0505062Y0109295D01*
X0505052Y0109453D01*
X0505046Y0109611D01*
X0505044Y0109769D01*
X0505044Y0042840D02*
X0505046Y0042998D01*
X0505052Y0043156D01*
X0505062Y0043314D01*
X0505076Y0043472D01*
X0505094Y0043629D01*
X0505115Y0043786D01*
X0505141Y0043942D01*
X0505171Y0044098D01*
X0505204Y0044253D01*
X0505242Y0044406D01*
X0505283Y0044559D01*
X0505328Y0044711D01*
X0505377Y0044862D01*
X0505430Y0045011D01*
X0505486Y0045159D01*
X0505546Y0045305D01*
X0505610Y0045450D01*
X0505678Y0045593D01*
X0505749Y0045735D01*
X0505823Y0045875D01*
X0505901Y0046012D01*
X0505983Y0046148D01*
X0506067Y0046282D01*
X0506156Y0046413D01*
X0506247Y0046542D01*
X0506342Y0046669D01*
X0506439Y0046794D01*
X0506540Y0046916D01*
X0506644Y0047035D01*
X0506751Y0047152D01*
X0506861Y0047266D01*
X0506974Y0047377D01*
X0507089Y0047486D01*
X0507207Y0047591D01*
X0507328Y0047693D01*
X0507451Y0047793D01*
X0507577Y0047889D01*
X0507705Y0047982D01*
X0507835Y0048072D01*
X0507968Y0048158D01*
X0508103Y0048242D01*
X0508239Y0048321D01*
X0508378Y0048398D01*
X0508519Y0048470D01*
X0508661Y0048540D01*
X0508805Y0048605D01*
X0508951Y0048667D01*
X0509098Y0048725D01*
X0509247Y0048780D01*
X0509397Y0048831D01*
X0509548Y0048878D01*
X0509700Y0048921D01*
X0509853Y0048960D01*
X0510008Y0048996D01*
X0510163Y0049027D01*
X0510319Y0049055D01*
X0510475Y0049079D01*
X0510632Y0049099D01*
X0510790Y0049115D01*
X0510947Y0049127D01*
X0511106Y0049135D01*
X0511264Y0049139D01*
X0511422Y0049139D01*
X0511580Y0049135D01*
X0511739Y0049127D01*
X0511896Y0049115D01*
X0512054Y0049099D01*
X0512211Y0049079D01*
X0512367Y0049055D01*
X0512523Y0049027D01*
X0512678Y0048996D01*
X0512833Y0048960D01*
X0512986Y0048921D01*
X0513138Y0048878D01*
X0513289Y0048831D01*
X0513439Y0048780D01*
X0513588Y0048725D01*
X0513735Y0048667D01*
X0513881Y0048605D01*
X0514025Y0048540D01*
X0514167Y0048470D01*
X0514308Y0048398D01*
X0514447Y0048321D01*
X0514583Y0048242D01*
X0514718Y0048158D01*
X0514851Y0048072D01*
X0514981Y0047982D01*
X0515109Y0047889D01*
X0515235Y0047793D01*
X0515358Y0047693D01*
X0515479Y0047591D01*
X0515597Y0047486D01*
X0515712Y0047377D01*
X0515825Y0047266D01*
X0515935Y0047152D01*
X0516042Y0047035D01*
X0516146Y0046916D01*
X0516247Y0046794D01*
X0516344Y0046669D01*
X0516439Y0046542D01*
X0516530Y0046413D01*
X0516619Y0046282D01*
X0516703Y0046148D01*
X0516785Y0046012D01*
X0516863Y0045875D01*
X0516937Y0045735D01*
X0517008Y0045593D01*
X0517076Y0045450D01*
X0517140Y0045305D01*
X0517200Y0045159D01*
X0517256Y0045011D01*
X0517309Y0044862D01*
X0517358Y0044711D01*
X0517403Y0044559D01*
X0517444Y0044406D01*
X0517482Y0044253D01*
X0517515Y0044098D01*
X0517545Y0043942D01*
X0517571Y0043786D01*
X0517592Y0043629D01*
X0517610Y0043472D01*
X0517624Y0043314D01*
X0517634Y0043156D01*
X0517640Y0042998D01*
X0517642Y0042840D01*
X0517640Y0042682D01*
X0517634Y0042524D01*
X0517624Y0042366D01*
X0517610Y0042208D01*
X0517592Y0042051D01*
X0517571Y0041894D01*
X0517545Y0041738D01*
X0517515Y0041582D01*
X0517482Y0041427D01*
X0517444Y0041274D01*
X0517403Y0041121D01*
X0517358Y0040969D01*
X0517309Y0040818D01*
X0517256Y0040669D01*
X0517200Y0040521D01*
X0517140Y0040375D01*
X0517076Y0040230D01*
X0517008Y0040087D01*
X0516937Y0039945D01*
X0516863Y0039805D01*
X0516785Y0039668D01*
X0516703Y0039532D01*
X0516619Y0039398D01*
X0516530Y0039267D01*
X0516439Y0039138D01*
X0516344Y0039011D01*
X0516247Y0038886D01*
X0516146Y0038764D01*
X0516042Y0038645D01*
X0515935Y0038528D01*
X0515825Y0038414D01*
X0515712Y0038303D01*
X0515597Y0038194D01*
X0515479Y0038089D01*
X0515358Y0037987D01*
X0515235Y0037887D01*
X0515109Y0037791D01*
X0514981Y0037698D01*
X0514851Y0037608D01*
X0514718Y0037522D01*
X0514583Y0037438D01*
X0514447Y0037359D01*
X0514308Y0037282D01*
X0514167Y0037210D01*
X0514025Y0037140D01*
X0513881Y0037075D01*
X0513735Y0037013D01*
X0513588Y0036955D01*
X0513439Y0036900D01*
X0513289Y0036849D01*
X0513138Y0036802D01*
X0512986Y0036759D01*
X0512833Y0036720D01*
X0512678Y0036684D01*
X0512523Y0036653D01*
X0512367Y0036625D01*
X0512211Y0036601D01*
X0512054Y0036581D01*
X0511896Y0036565D01*
X0511739Y0036553D01*
X0511580Y0036545D01*
X0511422Y0036541D01*
X0511264Y0036541D01*
X0511106Y0036545D01*
X0510947Y0036553D01*
X0510790Y0036565D01*
X0510632Y0036581D01*
X0510475Y0036601D01*
X0510319Y0036625D01*
X0510163Y0036653D01*
X0510008Y0036684D01*
X0509853Y0036720D01*
X0509700Y0036759D01*
X0509548Y0036802D01*
X0509397Y0036849D01*
X0509247Y0036900D01*
X0509098Y0036955D01*
X0508951Y0037013D01*
X0508805Y0037075D01*
X0508661Y0037140D01*
X0508519Y0037210D01*
X0508378Y0037282D01*
X0508239Y0037359D01*
X0508103Y0037438D01*
X0507968Y0037522D01*
X0507835Y0037608D01*
X0507705Y0037698D01*
X0507577Y0037791D01*
X0507451Y0037887D01*
X0507328Y0037987D01*
X0507207Y0038089D01*
X0507089Y0038194D01*
X0506974Y0038303D01*
X0506861Y0038414D01*
X0506751Y0038528D01*
X0506644Y0038645D01*
X0506540Y0038764D01*
X0506439Y0038886D01*
X0506342Y0039011D01*
X0506247Y0039138D01*
X0506156Y0039267D01*
X0506067Y0039398D01*
X0505983Y0039532D01*
X0505901Y0039668D01*
X0505823Y0039805D01*
X0505749Y0039945D01*
X0505678Y0040087D01*
X0505610Y0040230D01*
X0505546Y0040375D01*
X0505486Y0040521D01*
X0505430Y0040669D01*
X0505377Y0040818D01*
X0505328Y0040969D01*
X0505283Y0041121D01*
X0505242Y0041274D01*
X0505204Y0041427D01*
X0505171Y0041582D01*
X0505141Y0041738D01*
X0505115Y0041894D01*
X0505094Y0042051D01*
X0505076Y0042208D01*
X0505062Y0042366D01*
X0505052Y0042524D01*
X0505046Y0042682D01*
X0505044Y0042840D01*
D11*
X0060555Y0023155D02*
X0056618Y0023155D01*
X0056237Y0023160D01*
X0055857Y0023173D01*
X0055477Y0023196D01*
X0055098Y0023229D01*
X0054720Y0023270D01*
X0054343Y0023320D01*
X0053967Y0023380D01*
X0053592Y0023448D01*
X0053220Y0023526D01*
X0052849Y0023613D01*
X0052481Y0023708D01*
X0052115Y0023813D01*
X0051752Y0023926D01*
X0051391Y0024048D01*
X0051034Y0024178D01*
X0050680Y0024318D01*
X0050329Y0024465D01*
X0049982Y0024622D01*
X0049639Y0024786D01*
X0049300Y0024959D01*
X0048965Y0025140D01*
X0048634Y0025329D01*
X0048309Y0025526D01*
X0047988Y0025730D01*
X0047672Y0025943D01*
X0047362Y0026163D01*
X0047056Y0026390D01*
X0046757Y0026625D01*
X0046463Y0026867D01*
X0046175Y0027115D01*
X0045893Y0027371D01*
X0045618Y0027634D01*
X0045349Y0027903D01*
X0045086Y0028178D01*
X0044830Y0028460D01*
X0044582Y0028748D01*
X0044340Y0029042D01*
X0044105Y0029341D01*
X0043878Y0029647D01*
X0043658Y0029957D01*
X0043445Y0030273D01*
X0043241Y0030594D01*
X0043044Y0030919D01*
X0042855Y0031250D01*
X0042674Y0031585D01*
X0042501Y0031924D01*
X0042337Y0032267D01*
X0042180Y0032614D01*
X0042033Y0032965D01*
X0041893Y0033319D01*
X0041763Y0033676D01*
X0041641Y0034037D01*
X0041528Y0034400D01*
X0041423Y0034766D01*
X0041328Y0035134D01*
X0041241Y0035505D01*
X0041163Y0035877D01*
X0041095Y0036252D01*
X0041035Y0036628D01*
X0040985Y0037005D01*
X0040944Y0037383D01*
X0040911Y0037762D01*
X0040888Y0038142D01*
X0040875Y0038522D01*
X0040870Y0038903D01*
X0040870Y0042840D01*
X0009374Y0042840D01*
X0009374Y0109769D01*
X0040870Y0109769D01*
X0040870Y0113706D01*
X0040875Y0114087D01*
X0040888Y0114467D01*
X0040911Y0114847D01*
X0040944Y0115226D01*
X0040985Y0115604D01*
X0041035Y0115981D01*
X0041095Y0116357D01*
X0041163Y0116732D01*
X0041241Y0117104D01*
X0041328Y0117475D01*
X0041423Y0117843D01*
X0041528Y0118209D01*
X0041641Y0118572D01*
X0041763Y0118933D01*
X0041893Y0119290D01*
X0042033Y0119644D01*
X0042180Y0119995D01*
X0042337Y0120342D01*
X0042501Y0120685D01*
X0042674Y0121024D01*
X0042855Y0121359D01*
X0043044Y0121690D01*
X0043241Y0122015D01*
X0043445Y0122336D01*
X0043658Y0122652D01*
X0043878Y0122962D01*
X0044105Y0123268D01*
X0044340Y0123567D01*
X0044582Y0123861D01*
X0044830Y0124149D01*
X0045086Y0124431D01*
X0045349Y0124706D01*
X0045618Y0124975D01*
X0045893Y0125238D01*
X0046175Y0125494D01*
X0046463Y0125742D01*
X0046757Y0125984D01*
X0047056Y0126219D01*
X0047362Y0126446D01*
X0047672Y0126666D01*
X0047988Y0126879D01*
X0048309Y0127083D01*
X0048634Y0127280D01*
X0048965Y0127469D01*
X0049300Y0127650D01*
X0049639Y0127823D01*
X0049982Y0127987D01*
X0050329Y0128144D01*
X0050680Y0128291D01*
X0051034Y0128431D01*
X0051391Y0128561D01*
X0051752Y0128683D01*
X0052115Y0128796D01*
X0052481Y0128901D01*
X0052849Y0128996D01*
X0053220Y0129083D01*
X0053592Y0129161D01*
X0053967Y0129229D01*
X0054343Y0129289D01*
X0054720Y0129339D01*
X0055098Y0129380D01*
X0055477Y0129413D01*
X0055857Y0129436D01*
X0056237Y0129449D01*
X0056618Y0129454D01*
X0056618Y0129455D02*
X0060555Y0129455D01*
X0060555Y0129454D02*
X0060936Y0129449D01*
X0061316Y0129436D01*
X0061696Y0129413D01*
X0062075Y0129380D01*
X0062453Y0129339D01*
X0062830Y0129289D01*
X0063206Y0129229D01*
X0063581Y0129161D01*
X0063953Y0129083D01*
X0064324Y0128996D01*
X0064692Y0128901D01*
X0065058Y0128796D01*
X0065421Y0128683D01*
X0065782Y0128561D01*
X0066139Y0128431D01*
X0066493Y0128291D01*
X0066844Y0128144D01*
X0067191Y0127987D01*
X0067534Y0127823D01*
X0067873Y0127650D01*
X0068208Y0127469D01*
X0068539Y0127280D01*
X0068864Y0127083D01*
X0069185Y0126879D01*
X0069501Y0126666D01*
X0069811Y0126446D01*
X0070117Y0126219D01*
X0070416Y0125984D01*
X0070710Y0125742D01*
X0070998Y0125494D01*
X0071280Y0125238D01*
X0071555Y0124975D01*
X0071824Y0124706D01*
X0072087Y0124431D01*
X0072343Y0124149D01*
X0072591Y0123861D01*
X0072833Y0123567D01*
X0073068Y0123268D01*
X0073295Y0122962D01*
X0073515Y0122652D01*
X0073728Y0122336D01*
X0073932Y0122015D01*
X0074129Y0121690D01*
X0074318Y0121359D01*
X0074499Y0121024D01*
X0074672Y0120685D01*
X0074836Y0120342D01*
X0074993Y0119995D01*
X0075140Y0119644D01*
X0075280Y0119290D01*
X0075410Y0118933D01*
X0075532Y0118572D01*
X0075645Y0118209D01*
X0075750Y0117843D01*
X0075845Y0117475D01*
X0075932Y0117104D01*
X0076010Y0116732D01*
X0076078Y0116357D01*
X0076138Y0115981D01*
X0076188Y0115604D01*
X0076229Y0115226D01*
X0076262Y0114847D01*
X0076285Y0114467D01*
X0076298Y0114087D01*
X0076303Y0113706D01*
X0076303Y0101895D01*
X0151106Y0101895D01*
X0151106Y0109769D01*
X0151108Y0109893D01*
X0151114Y0110016D01*
X0151123Y0110140D01*
X0151137Y0110262D01*
X0151154Y0110385D01*
X0151176Y0110507D01*
X0151201Y0110628D01*
X0151230Y0110748D01*
X0151262Y0110867D01*
X0151299Y0110986D01*
X0151339Y0111103D01*
X0151382Y0111218D01*
X0151430Y0111333D01*
X0151481Y0111445D01*
X0151535Y0111556D01*
X0151593Y0111666D01*
X0151654Y0111773D01*
X0151719Y0111879D01*
X0151787Y0111982D01*
X0151858Y0112083D01*
X0151932Y0112182D01*
X0152009Y0112279D01*
X0152090Y0112373D01*
X0152173Y0112464D01*
X0152259Y0112553D01*
X0152348Y0112639D01*
X0152439Y0112722D01*
X0152533Y0112803D01*
X0152630Y0112880D01*
X0152729Y0112954D01*
X0152830Y0113025D01*
X0152933Y0113093D01*
X0153039Y0113158D01*
X0153146Y0113219D01*
X0153256Y0113277D01*
X0153367Y0113331D01*
X0153479Y0113382D01*
X0153594Y0113430D01*
X0153709Y0113473D01*
X0153826Y0113513D01*
X0153945Y0113550D01*
X0154064Y0113582D01*
X0154184Y0113611D01*
X0154305Y0113636D01*
X0154427Y0113658D01*
X0154550Y0113675D01*
X0154672Y0113689D01*
X0154796Y0113698D01*
X0154919Y0113704D01*
X0155043Y0113706D01*
X0210161Y0113706D01*
X0210161Y0113707D02*
X0210542Y0113712D01*
X0210922Y0113725D01*
X0211302Y0113748D01*
X0211681Y0113781D01*
X0212059Y0113822D01*
X0212436Y0113872D01*
X0212812Y0113932D01*
X0213187Y0114000D01*
X0213559Y0114078D01*
X0213930Y0114165D01*
X0214298Y0114260D01*
X0214664Y0114365D01*
X0215027Y0114478D01*
X0215388Y0114600D01*
X0215745Y0114730D01*
X0216099Y0114870D01*
X0216450Y0115017D01*
X0216797Y0115174D01*
X0217140Y0115338D01*
X0217479Y0115511D01*
X0217814Y0115692D01*
X0218145Y0115881D01*
X0218470Y0116078D01*
X0218791Y0116282D01*
X0219107Y0116495D01*
X0219417Y0116715D01*
X0219723Y0116942D01*
X0220022Y0117177D01*
X0220316Y0117419D01*
X0220604Y0117667D01*
X0220886Y0117923D01*
X0221161Y0118186D01*
X0221430Y0118455D01*
X0221693Y0118730D01*
X0221949Y0119012D01*
X0222197Y0119300D01*
X0222439Y0119594D01*
X0222674Y0119893D01*
X0222901Y0120199D01*
X0223121Y0120509D01*
X0223334Y0120825D01*
X0223538Y0121146D01*
X0223735Y0121471D01*
X0223924Y0121802D01*
X0224105Y0122137D01*
X0224278Y0122476D01*
X0224442Y0122819D01*
X0224599Y0123166D01*
X0224746Y0123517D01*
X0224886Y0123871D01*
X0225016Y0124228D01*
X0225138Y0124589D01*
X0225251Y0124952D01*
X0225356Y0125318D01*
X0225451Y0125686D01*
X0225538Y0126057D01*
X0225616Y0126429D01*
X0225684Y0126804D01*
X0225744Y0127180D01*
X0225794Y0127557D01*
X0225835Y0127935D01*
X0225868Y0128314D01*
X0225891Y0128694D01*
X0225904Y0129074D01*
X0225909Y0129455D01*
X0225909Y0149140D01*
X0225914Y0149521D01*
X0225927Y0149901D01*
X0225950Y0150281D01*
X0225983Y0150660D01*
X0226024Y0151038D01*
X0226074Y0151415D01*
X0226134Y0151791D01*
X0226202Y0152166D01*
X0226280Y0152538D01*
X0226367Y0152909D01*
X0226462Y0153277D01*
X0226567Y0153643D01*
X0226680Y0154006D01*
X0226802Y0154367D01*
X0226932Y0154724D01*
X0227072Y0155078D01*
X0227219Y0155429D01*
X0227376Y0155776D01*
X0227540Y0156119D01*
X0227713Y0156458D01*
X0227894Y0156793D01*
X0228083Y0157124D01*
X0228280Y0157449D01*
X0228484Y0157770D01*
X0228697Y0158086D01*
X0228917Y0158396D01*
X0229144Y0158702D01*
X0229379Y0159001D01*
X0229621Y0159295D01*
X0229869Y0159583D01*
X0230125Y0159865D01*
X0230388Y0160140D01*
X0230657Y0160409D01*
X0230932Y0160672D01*
X0231214Y0160928D01*
X0231502Y0161176D01*
X0231796Y0161418D01*
X0232095Y0161653D01*
X0232401Y0161880D01*
X0232711Y0162100D01*
X0233027Y0162313D01*
X0233348Y0162517D01*
X0233673Y0162714D01*
X0234004Y0162903D01*
X0234339Y0163084D01*
X0234678Y0163257D01*
X0235021Y0163421D01*
X0235368Y0163578D01*
X0235719Y0163725D01*
X0236073Y0163865D01*
X0236430Y0163995D01*
X0236791Y0164117D01*
X0237154Y0164230D01*
X0237520Y0164335D01*
X0237888Y0164430D01*
X0238259Y0164517D01*
X0238631Y0164595D01*
X0239006Y0164663D01*
X0239382Y0164723D01*
X0239759Y0164773D01*
X0240137Y0164814D01*
X0240516Y0164847D01*
X0240896Y0164870D01*
X0241276Y0164883D01*
X0241657Y0164888D01*
X0324335Y0164888D01*
X0344020Y0149140D02*
X0344020Y0129455D01*
X0344025Y0129074D01*
X0344038Y0128694D01*
X0344061Y0128314D01*
X0344094Y0127935D01*
X0344135Y0127557D01*
X0344185Y0127180D01*
X0344245Y0126804D01*
X0344313Y0126429D01*
X0344391Y0126057D01*
X0344478Y0125686D01*
X0344573Y0125318D01*
X0344678Y0124952D01*
X0344791Y0124589D01*
X0344913Y0124228D01*
X0345043Y0123871D01*
X0345183Y0123517D01*
X0345330Y0123166D01*
X0345487Y0122819D01*
X0345651Y0122476D01*
X0345824Y0122137D01*
X0346005Y0121802D01*
X0346194Y0121471D01*
X0346391Y0121146D01*
X0346595Y0120825D01*
X0346808Y0120509D01*
X0347028Y0120199D01*
X0347255Y0119893D01*
X0347490Y0119594D01*
X0347732Y0119300D01*
X0347980Y0119012D01*
X0348236Y0118730D01*
X0348499Y0118455D01*
X0348768Y0118186D01*
X0349043Y0117923D01*
X0349325Y0117667D01*
X0349613Y0117419D01*
X0349907Y0117177D01*
X0350206Y0116942D01*
X0350512Y0116715D01*
X0350822Y0116495D01*
X0351138Y0116282D01*
X0351459Y0116078D01*
X0351784Y0115881D01*
X0352115Y0115692D01*
X0352450Y0115511D01*
X0352789Y0115338D01*
X0353132Y0115174D01*
X0353479Y0115017D01*
X0353830Y0114870D01*
X0354184Y0114730D01*
X0354541Y0114600D01*
X0354902Y0114478D01*
X0355265Y0114365D01*
X0355631Y0114260D01*
X0355999Y0114165D01*
X0356370Y0114078D01*
X0356742Y0114000D01*
X0357117Y0113932D01*
X0357493Y0113872D01*
X0357870Y0113822D01*
X0358248Y0113781D01*
X0358627Y0113748D01*
X0359007Y0113725D01*
X0359387Y0113712D01*
X0359768Y0113707D01*
X0359768Y0113706D02*
X0414886Y0113706D01*
X0415010Y0113704D01*
X0415133Y0113698D01*
X0415257Y0113689D01*
X0415379Y0113675D01*
X0415502Y0113658D01*
X0415624Y0113636D01*
X0415745Y0113611D01*
X0415865Y0113582D01*
X0415984Y0113550D01*
X0416103Y0113513D01*
X0416220Y0113473D01*
X0416335Y0113430D01*
X0416450Y0113382D01*
X0416562Y0113331D01*
X0416673Y0113277D01*
X0416783Y0113219D01*
X0416890Y0113158D01*
X0416996Y0113093D01*
X0417099Y0113025D01*
X0417200Y0112954D01*
X0417299Y0112880D01*
X0417396Y0112803D01*
X0417490Y0112722D01*
X0417581Y0112639D01*
X0417670Y0112553D01*
X0417756Y0112464D01*
X0417839Y0112373D01*
X0417920Y0112279D01*
X0417997Y0112182D01*
X0418071Y0112083D01*
X0418142Y0111982D01*
X0418210Y0111879D01*
X0418275Y0111773D01*
X0418336Y0111666D01*
X0418394Y0111556D01*
X0418448Y0111445D01*
X0418499Y0111333D01*
X0418547Y0111218D01*
X0418590Y0111103D01*
X0418630Y0110986D01*
X0418667Y0110867D01*
X0418699Y0110748D01*
X0418728Y0110628D01*
X0418753Y0110507D01*
X0418775Y0110385D01*
X0418792Y0110262D01*
X0418806Y0110140D01*
X0418815Y0110016D01*
X0418821Y0109893D01*
X0418823Y0109769D01*
X0418823Y0101895D01*
X0493626Y0101895D01*
X0493626Y0113706D01*
X0493631Y0114087D01*
X0493644Y0114467D01*
X0493667Y0114847D01*
X0493700Y0115226D01*
X0493741Y0115604D01*
X0493791Y0115981D01*
X0493851Y0116357D01*
X0493919Y0116732D01*
X0493997Y0117104D01*
X0494084Y0117475D01*
X0494179Y0117843D01*
X0494284Y0118209D01*
X0494397Y0118572D01*
X0494519Y0118933D01*
X0494649Y0119290D01*
X0494789Y0119644D01*
X0494936Y0119995D01*
X0495093Y0120342D01*
X0495257Y0120685D01*
X0495430Y0121024D01*
X0495611Y0121359D01*
X0495800Y0121690D01*
X0495997Y0122015D01*
X0496201Y0122336D01*
X0496414Y0122652D01*
X0496634Y0122962D01*
X0496861Y0123268D01*
X0497096Y0123567D01*
X0497338Y0123861D01*
X0497586Y0124149D01*
X0497842Y0124431D01*
X0498105Y0124706D01*
X0498374Y0124975D01*
X0498649Y0125238D01*
X0498931Y0125494D01*
X0499219Y0125742D01*
X0499513Y0125984D01*
X0499812Y0126219D01*
X0500118Y0126446D01*
X0500428Y0126666D01*
X0500744Y0126879D01*
X0501065Y0127083D01*
X0501390Y0127280D01*
X0501721Y0127469D01*
X0502056Y0127650D01*
X0502395Y0127823D01*
X0502738Y0127987D01*
X0503085Y0128144D01*
X0503436Y0128291D01*
X0503790Y0128431D01*
X0504147Y0128561D01*
X0504508Y0128683D01*
X0504871Y0128796D01*
X0505237Y0128901D01*
X0505605Y0128996D01*
X0505976Y0129083D01*
X0506348Y0129161D01*
X0506723Y0129229D01*
X0507099Y0129289D01*
X0507476Y0129339D01*
X0507854Y0129380D01*
X0508233Y0129413D01*
X0508613Y0129436D01*
X0508993Y0129449D01*
X0509374Y0129454D01*
X0509374Y0129455D02*
X0513311Y0129455D01*
X0513311Y0129454D02*
X0513692Y0129449D01*
X0514072Y0129436D01*
X0514452Y0129413D01*
X0514831Y0129380D01*
X0515209Y0129339D01*
X0515586Y0129289D01*
X0515962Y0129229D01*
X0516337Y0129161D01*
X0516709Y0129083D01*
X0517080Y0128996D01*
X0517448Y0128901D01*
X0517814Y0128796D01*
X0518177Y0128683D01*
X0518538Y0128561D01*
X0518895Y0128431D01*
X0519249Y0128291D01*
X0519600Y0128144D01*
X0519947Y0127987D01*
X0520290Y0127823D01*
X0520629Y0127650D01*
X0520964Y0127469D01*
X0521295Y0127280D01*
X0521620Y0127083D01*
X0521941Y0126879D01*
X0522257Y0126666D01*
X0522567Y0126446D01*
X0522873Y0126219D01*
X0523172Y0125984D01*
X0523466Y0125742D01*
X0523754Y0125494D01*
X0524036Y0125238D01*
X0524311Y0124975D01*
X0524580Y0124706D01*
X0524843Y0124431D01*
X0525099Y0124149D01*
X0525347Y0123861D01*
X0525589Y0123567D01*
X0525824Y0123268D01*
X0526051Y0122962D01*
X0526271Y0122652D01*
X0526484Y0122336D01*
X0526688Y0122015D01*
X0526885Y0121690D01*
X0527074Y0121359D01*
X0527255Y0121024D01*
X0527428Y0120685D01*
X0527592Y0120342D01*
X0527749Y0119995D01*
X0527896Y0119644D01*
X0528036Y0119290D01*
X0528166Y0118933D01*
X0528288Y0118572D01*
X0528401Y0118209D01*
X0528506Y0117843D01*
X0528601Y0117475D01*
X0528688Y0117104D01*
X0528766Y0116732D01*
X0528834Y0116357D01*
X0528894Y0115981D01*
X0528944Y0115604D01*
X0528985Y0115226D01*
X0529018Y0114847D01*
X0529041Y0114467D01*
X0529054Y0114087D01*
X0529059Y0113706D01*
X0529059Y0109769D01*
X0560555Y0109769D01*
X0560555Y0042840D01*
X0529059Y0042840D01*
X0529059Y0038903D01*
X0529054Y0038522D01*
X0529041Y0038142D01*
X0529018Y0037762D01*
X0528985Y0037383D01*
X0528944Y0037005D01*
X0528894Y0036628D01*
X0528834Y0036252D01*
X0528766Y0035877D01*
X0528688Y0035505D01*
X0528601Y0035134D01*
X0528506Y0034766D01*
X0528401Y0034400D01*
X0528288Y0034037D01*
X0528166Y0033676D01*
X0528036Y0033319D01*
X0527896Y0032965D01*
X0527749Y0032614D01*
X0527592Y0032267D01*
X0527428Y0031924D01*
X0527255Y0031585D01*
X0527074Y0031250D01*
X0526885Y0030919D01*
X0526688Y0030594D01*
X0526484Y0030273D01*
X0526271Y0029957D01*
X0526051Y0029647D01*
X0525824Y0029341D01*
X0525589Y0029042D01*
X0525347Y0028748D01*
X0525099Y0028460D01*
X0524843Y0028178D01*
X0524580Y0027903D01*
X0524311Y0027634D01*
X0524036Y0027371D01*
X0523754Y0027115D01*
X0523466Y0026867D01*
X0523172Y0026625D01*
X0522873Y0026390D01*
X0522567Y0026163D01*
X0522257Y0025943D01*
X0521941Y0025730D01*
X0521620Y0025526D01*
X0521295Y0025329D01*
X0520964Y0025140D01*
X0520629Y0024959D01*
X0520290Y0024786D01*
X0519947Y0024622D01*
X0519600Y0024465D01*
X0519249Y0024318D01*
X0518895Y0024178D01*
X0518538Y0024048D01*
X0518177Y0023926D01*
X0517814Y0023813D01*
X0517448Y0023708D01*
X0517080Y0023613D01*
X0516709Y0023526D01*
X0516337Y0023448D01*
X0515962Y0023380D01*
X0515586Y0023320D01*
X0515209Y0023270D01*
X0514831Y0023229D01*
X0514452Y0023196D01*
X0514072Y0023173D01*
X0513692Y0023160D01*
X0513311Y0023155D01*
X0509374Y0023155D01*
X0508993Y0023160D01*
X0508613Y0023173D01*
X0508233Y0023196D01*
X0507854Y0023229D01*
X0507476Y0023270D01*
X0507099Y0023320D01*
X0506723Y0023380D01*
X0506348Y0023448D01*
X0505976Y0023526D01*
X0505605Y0023613D01*
X0505237Y0023708D01*
X0504871Y0023813D01*
X0504508Y0023926D01*
X0504147Y0024048D01*
X0503790Y0024178D01*
X0503436Y0024318D01*
X0503085Y0024465D01*
X0502738Y0024622D01*
X0502395Y0024786D01*
X0502056Y0024959D01*
X0501721Y0025140D01*
X0501390Y0025329D01*
X0501065Y0025526D01*
X0500744Y0025730D01*
X0500428Y0025943D01*
X0500118Y0026163D01*
X0499812Y0026390D01*
X0499513Y0026625D01*
X0499219Y0026867D01*
X0498931Y0027115D01*
X0498649Y0027371D01*
X0498374Y0027634D01*
X0498105Y0027903D01*
X0497842Y0028178D01*
X0497586Y0028460D01*
X0497338Y0028748D01*
X0497096Y0029042D01*
X0496861Y0029341D01*
X0496634Y0029647D01*
X0496414Y0029957D01*
X0496201Y0030273D01*
X0495997Y0030594D01*
X0495800Y0030919D01*
X0495611Y0031250D01*
X0495430Y0031585D01*
X0495257Y0031924D01*
X0495093Y0032267D01*
X0494936Y0032614D01*
X0494789Y0032965D01*
X0494649Y0033319D01*
X0494519Y0033676D01*
X0494397Y0034037D01*
X0494284Y0034400D01*
X0494179Y0034766D01*
X0494084Y0035134D01*
X0493997Y0035505D01*
X0493919Y0035877D01*
X0493851Y0036252D01*
X0493791Y0036628D01*
X0493741Y0037005D01*
X0493700Y0037383D01*
X0493667Y0037762D01*
X0493644Y0038142D01*
X0493631Y0038522D01*
X0493626Y0038903D01*
X0493626Y0050714D01*
X0422760Y0050714D01*
X0422636Y0050712D01*
X0422513Y0050706D01*
X0422389Y0050697D01*
X0422267Y0050683D01*
X0422144Y0050666D01*
X0422022Y0050644D01*
X0421901Y0050619D01*
X0421781Y0050590D01*
X0421662Y0050558D01*
X0421543Y0050521D01*
X0421426Y0050481D01*
X0421311Y0050438D01*
X0421196Y0050390D01*
X0421084Y0050339D01*
X0420973Y0050285D01*
X0420863Y0050227D01*
X0420756Y0050166D01*
X0420650Y0050101D01*
X0420547Y0050033D01*
X0420446Y0049962D01*
X0420347Y0049888D01*
X0420250Y0049811D01*
X0420156Y0049730D01*
X0420065Y0049647D01*
X0419976Y0049561D01*
X0419890Y0049472D01*
X0419807Y0049381D01*
X0419726Y0049287D01*
X0419649Y0049190D01*
X0419575Y0049091D01*
X0419504Y0048990D01*
X0419436Y0048887D01*
X0419371Y0048781D01*
X0419310Y0048674D01*
X0419252Y0048564D01*
X0419198Y0048453D01*
X0419147Y0048341D01*
X0419099Y0048226D01*
X0419056Y0048111D01*
X0419016Y0047994D01*
X0418979Y0047875D01*
X0418947Y0047756D01*
X0418918Y0047636D01*
X0418893Y0047515D01*
X0418871Y0047393D01*
X0418854Y0047270D01*
X0418840Y0047148D01*
X0418831Y0047024D01*
X0418825Y0046901D01*
X0418823Y0046777D01*
X0418823Y0023155D01*
X0418821Y0023031D01*
X0418815Y0022908D01*
X0418806Y0022784D01*
X0418792Y0022662D01*
X0418775Y0022539D01*
X0418753Y0022417D01*
X0418728Y0022296D01*
X0418699Y0022176D01*
X0418667Y0022057D01*
X0418630Y0021938D01*
X0418590Y0021821D01*
X0418547Y0021706D01*
X0418499Y0021591D01*
X0418448Y0021479D01*
X0418394Y0021368D01*
X0418336Y0021258D01*
X0418275Y0021151D01*
X0418210Y0021045D01*
X0418142Y0020942D01*
X0418071Y0020841D01*
X0417997Y0020742D01*
X0417920Y0020645D01*
X0417839Y0020551D01*
X0417756Y0020460D01*
X0417670Y0020371D01*
X0417581Y0020285D01*
X0417490Y0020202D01*
X0417396Y0020121D01*
X0417299Y0020044D01*
X0417200Y0019970D01*
X0417099Y0019899D01*
X0416996Y0019831D01*
X0416890Y0019766D01*
X0416783Y0019705D01*
X0416673Y0019647D01*
X0416562Y0019593D01*
X0416450Y0019542D01*
X0416335Y0019494D01*
X0416220Y0019451D01*
X0416103Y0019411D01*
X0415984Y0019374D01*
X0415865Y0019342D01*
X0415745Y0019313D01*
X0415624Y0019288D01*
X0415502Y0019266D01*
X0415379Y0019249D01*
X0415257Y0019235D01*
X0415133Y0019226D01*
X0415010Y0019220D01*
X0414886Y0019218D01*
X0155043Y0019218D01*
X0154919Y0019220D01*
X0154796Y0019226D01*
X0154672Y0019235D01*
X0154550Y0019249D01*
X0154427Y0019266D01*
X0154305Y0019288D01*
X0154184Y0019313D01*
X0154064Y0019342D01*
X0153945Y0019374D01*
X0153826Y0019411D01*
X0153709Y0019451D01*
X0153594Y0019494D01*
X0153479Y0019542D01*
X0153367Y0019593D01*
X0153256Y0019647D01*
X0153146Y0019705D01*
X0153039Y0019766D01*
X0152933Y0019831D01*
X0152830Y0019899D01*
X0152729Y0019970D01*
X0152630Y0020044D01*
X0152533Y0020121D01*
X0152439Y0020202D01*
X0152348Y0020285D01*
X0152259Y0020371D01*
X0152173Y0020460D01*
X0152090Y0020551D01*
X0152009Y0020645D01*
X0151932Y0020742D01*
X0151858Y0020841D01*
X0151787Y0020942D01*
X0151719Y0021045D01*
X0151654Y0021151D01*
X0151593Y0021258D01*
X0151535Y0021368D01*
X0151481Y0021479D01*
X0151430Y0021591D01*
X0151382Y0021706D01*
X0151339Y0021821D01*
X0151299Y0021938D01*
X0151262Y0022057D01*
X0151230Y0022176D01*
X0151201Y0022296D01*
X0151176Y0022417D01*
X0151154Y0022539D01*
X0151137Y0022662D01*
X0151123Y0022784D01*
X0151114Y0022908D01*
X0151108Y0023031D01*
X0151106Y0023155D01*
X0151106Y0046777D01*
X0151104Y0046901D01*
X0151098Y0047024D01*
X0151089Y0047148D01*
X0151075Y0047270D01*
X0151058Y0047393D01*
X0151036Y0047515D01*
X0151011Y0047636D01*
X0150982Y0047756D01*
X0150950Y0047875D01*
X0150913Y0047994D01*
X0150873Y0048111D01*
X0150830Y0048226D01*
X0150782Y0048341D01*
X0150731Y0048453D01*
X0150677Y0048564D01*
X0150619Y0048674D01*
X0150558Y0048781D01*
X0150493Y0048887D01*
X0150425Y0048990D01*
X0150354Y0049091D01*
X0150280Y0049190D01*
X0150203Y0049287D01*
X0150122Y0049381D01*
X0150039Y0049472D01*
X0149953Y0049561D01*
X0149864Y0049647D01*
X0149773Y0049730D01*
X0149679Y0049811D01*
X0149582Y0049888D01*
X0149483Y0049962D01*
X0149382Y0050033D01*
X0149279Y0050101D01*
X0149173Y0050166D01*
X0149066Y0050227D01*
X0148956Y0050285D01*
X0148845Y0050339D01*
X0148733Y0050390D01*
X0148618Y0050438D01*
X0148503Y0050481D01*
X0148386Y0050521D01*
X0148267Y0050558D01*
X0148148Y0050590D01*
X0148028Y0050619D01*
X0147907Y0050644D01*
X0147785Y0050666D01*
X0147662Y0050683D01*
X0147540Y0050697D01*
X0147416Y0050706D01*
X0147293Y0050712D01*
X0147169Y0050714D01*
X0076303Y0050714D01*
X0076303Y0038903D01*
X0076298Y0038522D01*
X0076285Y0038142D01*
X0076262Y0037762D01*
X0076229Y0037383D01*
X0076188Y0037005D01*
X0076138Y0036628D01*
X0076078Y0036252D01*
X0076010Y0035877D01*
X0075932Y0035505D01*
X0075845Y0035134D01*
X0075750Y0034766D01*
X0075645Y0034400D01*
X0075532Y0034037D01*
X0075410Y0033676D01*
X0075280Y0033319D01*
X0075140Y0032965D01*
X0074993Y0032614D01*
X0074836Y0032267D01*
X0074672Y0031924D01*
X0074499Y0031585D01*
X0074318Y0031250D01*
X0074129Y0030919D01*
X0073932Y0030594D01*
X0073728Y0030273D01*
X0073515Y0029957D01*
X0073295Y0029647D01*
X0073068Y0029341D01*
X0072833Y0029042D01*
X0072591Y0028748D01*
X0072343Y0028460D01*
X0072087Y0028178D01*
X0071824Y0027903D01*
X0071555Y0027634D01*
X0071280Y0027371D01*
X0070998Y0027115D01*
X0070710Y0026867D01*
X0070416Y0026625D01*
X0070117Y0026390D01*
X0069811Y0026163D01*
X0069501Y0025943D01*
X0069185Y0025730D01*
X0068864Y0025526D01*
X0068539Y0025329D01*
X0068208Y0025140D01*
X0067873Y0024959D01*
X0067534Y0024786D01*
X0067191Y0024622D01*
X0066844Y0024465D01*
X0066493Y0024318D01*
X0066139Y0024178D01*
X0065782Y0024048D01*
X0065421Y0023926D01*
X0065058Y0023813D01*
X0064692Y0023708D01*
X0064324Y0023613D01*
X0063953Y0023526D01*
X0063581Y0023448D01*
X0063206Y0023380D01*
X0062830Y0023320D01*
X0062453Y0023270D01*
X0062075Y0023229D01*
X0061696Y0023196D01*
X0061316Y0023173D01*
X0060936Y0023160D01*
X0060555Y0023155D01*
X0324334Y0164888D02*
X0324763Y0164930D01*
X0325193Y0164962D01*
X0325623Y0164984D01*
X0326054Y0164995D01*
X0326484Y0164996D01*
X0326915Y0164986D01*
X0327345Y0164967D01*
X0327775Y0164936D01*
X0328204Y0164895D01*
X0328632Y0164844D01*
X0329058Y0164783D01*
X0329483Y0164711D01*
X0329906Y0164629D01*
X0330326Y0164537D01*
X0330745Y0164435D01*
X0331161Y0164322D01*
X0331574Y0164200D01*
X0331984Y0164068D01*
X0332390Y0163925D01*
X0332793Y0163773D01*
X0333193Y0163612D01*
X0333588Y0163440D01*
X0333979Y0163260D01*
X0334365Y0163070D01*
X0334747Y0162870D01*
X0335124Y0162661D01*
X0335496Y0162444D01*
X0335862Y0162217D01*
X0336223Y0161982D01*
X0336578Y0161738D01*
X0336927Y0161485D01*
X0337270Y0161224D01*
X0337606Y0160955D01*
X0337936Y0160678D01*
X0338259Y0160393D01*
X0338575Y0160100D01*
X0338884Y0159800D01*
X0339185Y0159492D01*
X0339479Y0159177D01*
X0339766Y0158855D01*
X0340044Y0158527D01*
X0340314Y0158191D01*
X0340577Y0157850D01*
X0340830Y0157502D01*
X0341076Y0157148D01*
X0341313Y0156788D01*
X0341541Y0156422D01*
X0341760Y0156051D01*
X0341970Y0155675D01*
X0342171Y0155294D01*
X0342362Y0154908D01*
X0342545Y0154518D01*
X0342717Y0154123D01*
X0342881Y0153725D01*
X0343034Y0153322D01*
X0343178Y0152916D01*
X0343312Y0152507D01*
X0343436Y0152094D01*
X0343550Y0151679D01*
X0343654Y0151261D01*
X0343747Y0150840D01*
X0343831Y0150418D01*
X0343904Y0149993D01*
X0343967Y0149567D01*
X0344020Y0149140D01*
M02*
