G75*
%MOIN*%
%OFA0B0*%
%FSLAX25Y25*%
%IPPOS*%
%LPD*%
%AMOC8*
5,1,8,0,0,1.08239X$1,22.5*
%
%ADD10R,0.01600X0.03000*%
%ADD11R,0.01100X0.05800*%
%ADD12R,0.05150X0.05150*%
%ADD13C,0.05150*%
%ADD14C,0.06000*%
%ADD15C,0.05600*%
%ADD16R,0.05118X0.04331*%
%ADD17R,0.03937X0.04331*%
%ADD18R,0.04331X0.03937*%
%ADD19R,0.04134X0.04252*%
%ADD20R,0.04252X0.04134*%
%ADD21R,0.10039X0.09843*%
%ADD22R,0.03000X0.06000*%
%ADD23R,0.03150X0.03150*%
%ADD24R,0.02067X0.01969*%
%ADD25R,0.00984X0.01969*%
%ADD26R,0.03937X0.05512*%
%ADD27R,0.01181X0.05118*%
%ADD28R,0.07087X0.08661*%
%ADD29C,0.07400*%
%ADD30C,0.01000*%
%ADD31C,0.03569*%
%ADD32C,0.01200*%
%ADD33C,0.01600*%
%ADD34C,0.02400*%
%ADD35C,0.04356*%
%ADD36C,0.04000*%
%ADD37C,0.05000*%
%ADD38C,0.05315*%
D10*
X0362977Y0069465D03*
X0365477Y0069465D03*
X0367977Y0069465D03*
X0370477Y0069465D03*
X0372977Y0069465D03*
X0375477Y0069465D03*
X0377977Y0069465D03*
X0380477Y0069465D03*
X0382977Y0069465D03*
X0385477Y0069465D03*
X0387977Y0069465D03*
X0390477Y0069465D03*
X0390477Y0099465D03*
X0387977Y0099465D03*
X0385477Y0099465D03*
X0382977Y0099465D03*
X0380477Y0099465D03*
X0377977Y0099465D03*
X0375477Y0099465D03*
X0372977Y0099465D03*
X0370477Y0099465D03*
X0367977Y0099465D03*
X0365477Y0099465D03*
X0362977Y0099465D03*
D11*
G36*
X0314804Y0102803D02*
X0315582Y0102025D01*
X0311482Y0097925D01*
X0310704Y0098703D01*
X0314804Y0102803D01*
G37*
G36*
X0313390Y0104218D02*
X0314168Y0103440D01*
X0310068Y0099340D01*
X0309290Y0100118D01*
X0313390Y0104218D01*
G37*
G36*
X0311976Y0105632D02*
X0312754Y0104854D01*
X0308654Y0100754D01*
X0307876Y0101532D01*
X0311976Y0105632D01*
G37*
G36*
X0310632Y0106975D02*
X0311410Y0106197D01*
X0307310Y0102097D01*
X0306532Y0102875D01*
X0310632Y0106975D01*
G37*
G36*
X0309218Y0108390D02*
X0309996Y0107612D01*
X0305896Y0103512D01*
X0305118Y0104290D01*
X0309218Y0108390D01*
G37*
G36*
X0307804Y0109804D02*
X0308582Y0109026D01*
X0304482Y0104926D01*
X0303704Y0105704D01*
X0307804Y0109804D01*
G37*
G36*
X0306461Y0111147D02*
X0307239Y0110369D01*
X0303139Y0106269D01*
X0302361Y0107047D01*
X0306461Y0111147D01*
G37*
G36*
X0305046Y0112562D02*
X0305824Y0111784D01*
X0301724Y0107684D01*
X0300946Y0108462D01*
X0305046Y0112562D01*
G37*
G36*
X0303632Y0113976D02*
X0304410Y0113198D01*
X0300310Y0109098D01*
X0299532Y0109876D01*
X0303632Y0113976D01*
G37*
G36*
X0302218Y0115390D02*
X0302996Y0114612D01*
X0298896Y0110512D01*
X0298118Y0111290D01*
X0302218Y0115390D01*
G37*
G36*
X0300874Y0116733D02*
X0301652Y0115955D01*
X0297552Y0111855D01*
X0296774Y0112633D01*
X0300874Y0116733D01*
G37*
G36*
X0299460Y0118148D02*
X0300238Y0117370D01*
X0296138Y0113270D01*
X0295360Y0114048D01*
X0299460Y0118148D01*
G37*
G36*
X0298046Y0119562D02*
X0298824Y0118784D01*
X0294724Y0114684D01*
X0293946Y0115462D01*
X0298046Y0119562D01*
G37*
G36*
X0296702Y0120905D02*
X0297480Y0120127D01*
X0293380Y0116027D01*
X0292602Y0116805D01*
X0296702Y0120905D01*
G37*
G36*
X0295288Y0122320D02*
X0296066Y0121542D01*
X0291966Y0117442D01*
X0291188Y0118220D01*
X0295288Y0122320D01*
G37*
G36*
X0293874Y0123734D02*
X0294652Y0122956D01*
X0290552Y0118856D01*
X0289774Y0119634D01*
X0293874Y0123734D01*
G37*
G36*
X0284328Y0119634D02*
X0283550Y0118856D01*
X0279450Y0122956D01*
X0280228Y0123734D01*
X0284328Y0119634D01*
G37*
G36*
X0282914Y0118220D02*
X0282136Y0117442D01*
X0278036Y0121542D01*
X0278814Y0122320D01*
X0282914Y0118220D01*
G37*
G36*
X0281500Y0116805D02*
X0280722Y0116027D01*
X0276622Y0120127D01*
X0277400Y0120905D01*
X0281500Y0116805D01*
G37*
G36*
X0280156Y0115462D02*
X0279378Y0114684D01*
X0275278Y0118784D01*
X0276056Y0119562D01*
X0280156Y0115462D01*
G37*
G36*
X0278742Y0114048D02*
X0277964Y0113270D01*
X0273864Y0117370D01*
X0274642Y0118148D01*
X0278742Y0114048D01*
G37*
G36*
X0277328Y0112633D02*
X0276550Y0111855D01*
X0272450Y0115955D01*
X0273228Y0116733D01*
X0277328Y0112633D01*
G37*
G36*
X0275984Y0111290D02*
X0275206Y0110512D01*
X0271106Y0114612D01*
X0271884Y0115390D01*
X0275984Y0111290D01*
G37*
G36*
X0274570Y0109876D02*
X0273792Y0109098D01*
X0269692Y0113198D01*
X0270470Y0113976D01*
X0274570Y0109876D01*
G37*
G36*
X0273156Y0108462D02*
X0272378Y0107684D01*
X0268278Y0111784D01*
X0269056Y0112562D01*
X0273156Y0108462D01*
G37*
G36*
X0271742Y0107047D02*
X0270964Y0106269D01*
X0266864Y0110369D01*
X0267642Y0111147D01*
X0271742Y0107047D01*
G37*
G36*
X0270398Y0105704D02*
X0269620Y0104926D01*
X0265520Y0109026D01*
X0266298Y0109804D01*
X0270398Y0105704D01*
G37*
G36*
X0268984Y0104290D02*
X0268206Y0103512D01*
X0264106Y0107612D01*
X0264884Y0108390D01*
X0268984Y0104290D01*
G37*
G36*
X0267570Y0102875D02*
X0266792Y0102097D01*
X0262692Y0106197D01*
X0263470Y0106975D01*
X0267570Y0102875D01*
G37*
G36*
X0266226Y0101532D02*
X0265448Y0100754D01*
X0261348Y0104854D01*
X0262126Y0105632D01*
X0266226Y0101532D01*
G37*
G36*
X0264812Y0100118D02*
X0264034Y0099340D01*
X0259934Y0103440D01*
X0260712Y0104218D01*
X0264812Y0100118D01*
G37*
G36*
X0263398Y0098703D02*
X0262620Y0097925D01*
X0258520Y0102025D01*
X0259298Y0102803D01*
X0263398Y0098703D01*
G37*
G36*
X0262620Y0092480D02*
X0263398Y0091702D01*
X0259298Y0087602D01*
X0258520Y0088380D01*
X0262620Y0092480D01*
G37*
G36*
X0264034Y0091065D02*
X0264812Y0090287D01*
X0260712Y0086187D01*
X0259934Y0086965D01*
X0264034Y0091065D01*
G37*
G36*
X0265448Y0089651D02*
X0266226Y0088873D01*
X0262126Y0084773D01*
X0261348Y0085551D01*
X0265448Y0089651D01*
G37*
G36*
X0266792Y0088308D02*
X0267570Y0087530D01*
X0263470Y0083430D01*
X0262692Y0084208D01*
X0266792Y0088308D01*
G37*
G36*
X0268206Y0086894D02*
X0268984Y0086116D01*
X0264884Y0082016D01*
X0264106Y0082794D01*
X0268206Y0086894D01*
G37*
G36*
X0269620Y0085479D02*
X0270398Y0084701D01*
X0266298Y0080601D01*
X0265520Y0081379D01*
X0269620Y0085479D01*
G37*
G36*
X0270964Y0084136D02*
X0271742Y0083358D01*
X0267642Y0079258D01*
X0266864Y0080036D01*
X0270964Y0084136D01*
G37*
G36*
X0272378Y0082722D02*
X0273156Y0081944D01*
X0269056Y0077844D01*
X0268278Y0078622D01*
X0272378Y0082722D01*
G37*
G36*
X0273792Y0081307D02*
X0274570Y0080529D01*
X0270470Y0076429D01*
X0269692Y0077207D01*
X0273792Y0081307D01*
G37*
G36*
X0275206Y0079893D02*
X0275984Y0079115D01*
X0271884Y0075015D01*
X0271106Y0075793D01*
X0275206Y0079893D01*
G37*
G36*
X0276550Y0078550D02*
X0277328Y0077772D01*
X0273228Y0073672D01*
X0272450Y0074450D01*
X0276550Y0078550D01*
G37*
G36*
X0277964Y0077135D02*
X0278742Y0076357D01*
X0274642Y0072257D01*
X0273864Y0073035D01*
X0277964Y0077135D01*
G37*
G36*
X0279378Y0075721D02*
X0280156Y0074943D01*
X0276056Y0070843D01*
X0275278Y0071621D01*
X0279378Y0075721D01*
G37*
G36*
X0280722Y0074378D02*
X0281500Y0073600D01*
X0277400Y0069500D01*
X0276622Y0070278D01*
X0280722Y0074378D01*
G37*
G36*
X0282136Y0072964D02*
X0282914Y0072186D01*
X0278814Y0068086D01*
X0278036Y0068864D01*
X0282136Y0072964D01*
G37*
G36*
X0283550Y0071549D02*
X0284328Y0070771D01*
X0280228Y0066671D01*
X0279450Y0067449D01*
X0283550Y0071549D01*
G37*
G36*
X0294652Y0067449D02*
X0293874Y0066671D01*
X0289774Y0070771D01*
X0290552Y0071549D01*
X0294652Y0067449D01*
G37*
G36*
X0296066Y0068864D02*
X0295288Y0068086D01*
X0291188Y0072186D01*
X0291966Y0072964D01*
X0296066Y0068864D01*
G37*
G36*
X0297480Y0070278D02*
X0296702Y0069500D01*
X0292602Y0073600D01*
X0293380Y0074378D01*
X0297480Y0070278D01*
G37*
G36*
X0298824Y0071621D02*
X0298046Y0070843D01*
X0293946Y0074943D01*
X0294724Y0075721D01*
X0298824Y0071621D01*
G37*
G36*
X0300238Y0073035D02*
X0299460Y0072257D01*
X0295360Y0076357D01*
X0296138Y0077135D01*
X0300238Y0073035D01*
G37*
G36*
X0301652Y0074450D02*
X0300874Y0073672D01*
X0296774Y0077772D01*
X0297552Y0078550D01*
X0301652Y0074450D01*
G37*
G36*
X0302996Y0075793D02*
X0302218Y0075015D01*
X0298118Y0079115D01*
X0298896Y0079893D01*
X0302996Y0075793D01*
G37*
G36*
X0304410Y0077207D02*
X0303632Y0076429D01*
X0299532Y0080529D01*
X0300310Y0081307D01*
X0304410Y0077207D01*
G37*
G36*
X0305824Y0078622D02*
X0305046Y0077844D01*
X0300946Y0081944D01*
X0301724Y0082722D01*
X0305824Y0078622D01*
G37*
G36*
X0307239Y0080036D02*
X0306461Y0079258D01*
X0302361Y0083358D01*
X0303139Y0084136D01*
X0307239Y0080036D01*
G37*
G36*
X0308582Y0081379D02*
X0307804Y0080601D01*
X0303704Y0084701D01*
X0304482Y0085479D01*
X0308582Y0081379D01*
G37*
G36*
X0309996Y0082794D02*
X0309218Y0082016D01*
X0305118Y0086116D01*
X0305896Y0086894D01*
X0309996Y0082794D01*
G37*
G36*
X0311410Y0084208D02*
X0310632Y0083430D01*
X0306532Y0087530D01*
X0307310Y0088308D01*
X0311410Y0084208D01*
G37*
G36*
X0312754Y0085551D02*
X0311976Y0084773D01*
X0307876Y0088873D01*
X0308654Y0089651D01*
X0312754Y0085551D01*
G37*
G36*
X0314168Y0086965D02*
X0313390Y0086187D01*
X0309290Y0090287D01*
X0310068Y0091065D01*
X0314168Y0086965D01*
G37*
G36*
X0315582Y0088380D02*
X0314804Y0087602D01*
X0310704Y0091702D01*
X0311482Y0092480D01*
X0315582Y0088380D01*
G37*
D12*
X0389095Y0028424D03*
D13*
X0399095Y0028424D03*
X0409095Y0028424D03*
D14*
X0320055Y0030708D02*
X0320055Y0024708D01*
X0310055Y0024708D02*
X0310055Y0030708D01*
X0300055Y0030708D02*
X0300055Y0024708D01*
X0290055Y0024708D02*
X0290055Y0030708D01*
X0269338Y0030675D02*
X0269338Y0024675D01*
X0259338Y0024675D02*
X0259338Y0030675D01*
X0249338Y0030675D02*
X0249338Y0024675D01*
X0209524Y0024655D02*
X0209524Y0030655D01*
X0199524Y0030655D02*
X0199524Y0024655D01*
X0189524Y0024655D02*
X0189524Y0030655D01*
X0179524Y0030655D02*
X0179524Y0024655D01*
X0169524Y0024655D02*
X0169524Y0030655D01*
X0159524Y0030655D02*
X0159524Y0024655D01*
D15*
X0111410Y0056537D03*
X0111410Y0064411D03*
X0111410Y0072285D03*
X0111410Y0080159D03*
X0111410Y0088033D03*
X0111410Y0095907D03*
X0458315Y0096078D03*
X0458315Y0088204D03*
X0458315Y0080330D03*
X0458315Y0072456D03*
X0458315Y0064582D03*
X0458315Y0056708D03*
D16*
X0333885Y0126486D03*
X0324829Y0126486D03*
X0324829Y0133573D03*
X0333885Y0133573D03*
D17*
X0332818Y0119475D03*
X0326125Y0119475D03*
X0249429Y0046659D03*
X0242736Y0046659D03*
X0212858Y0043224D03*
X0206165Y0043224D03*
D18*
X0346611Y0042764D03*
X0355008Y0042796D03*
X0364529Y0042764D03*
X0374141Y0042782D03*
X0374141Y0049475D03*
X0364529Y0049457D03*
X0355008Y0049489D03*
X0346611Y0049457D03*
X0324850Y0087991D03*
X0324850Y0094684D03*
X0317460Y0112942D03*
X0317460Y0119635D03*
X0240821Y0129331D03*
X0231886Y0129339D03*
X0231886Y0136032D03*
X0240821Y0136024D03*
D19*
X0313356Y0138844D03*
X0320245Y0138844D03*
X0213050Y0049905D03*
X0206160Y0049905D03*
D20*
X0304050Y0122115D03*
X0313670Y0126770D03*
X0318726Y0126770D03*
X0304050Y0129005D03*
X0313670Y0133659D03*
X0318726Y0133660D03*
D21*
X0312641Y0046772D03*
X0332523Y0046772D03*
D22*
X0236119Y0046714D03*
X0221119Y0046714D03*
X0221119Y0024714D03*
X0236119Y0024714D03*
D23*
X0232056Y0060365D03*
X0226151Y0060365D03*
X0212041Y0081807D03*
X0206795Y0081807D03*
X0201047Y0081807D03*
X0195299Y0081807D03*
X0189551Y0081807D03*
X0183803Y0081807D03*
X0178055Y0081807D03*
X0172307Y0081807D03*
X0166559Y0081807D03*
X0160811Y0081807D03*
X0155063Y0081807D03*
X0155063Y0087712D03*
X0160811Y0087712D03*
X0166559Y0087712D03*
X0172307Y0087712D03*
X0178055Y0087712D03*
X0183803Y0087712D03*
X0189551Y0087712D03*
X0195299Y0087712D03*
X0201047Y0087712D03*
X0206795Y0087712D03*
X0212041Y0087712D03*
D24*
X0209271Y0060680D03*
X0209271Y0057137D03*
X0216160Y0057137D03*
X0216160Y0060680D03*
X0192533Y0060680D03*
X0192533Y0057137D03*
X0185644Y0057137D03*
X0185644Y0060680D03*
X0169281Y0060680D03*
X0162391Y0060680D03*
X0162391Y0057137D03*
X0169281Y0057137D03*
D25*
X0166820Y0057137D03*
X0164851Y0057137D03*
X0164851Y0060680D03*
X0166820Y0060680D03*
X0188104Y0060680D03*
X0190073Y0060680D03*
X0190073Y0057137D03*
X0188104Y0057137D03*
X0211731Y0057137D03*
X0213700Y0057137D03*
X0213700Y0060680D03*
X0211731Y0060680D03*
D26*
X0250399Y0128281D03*
X0257880Y0128281D03*
X0254140Y0136943D03*
D27*
X0271461Y0145793D03*
X0273429Y0145793D03*
X0275398Y0145793D03*
X0277366Y0145793D03*
X0279335Y0145793D03*
X0281303Y0145793D03*
X0283272Y0145793D03*
X0285240Y0145793D03*
X0287209Y0145793D03*
X0289177Y0145793D03*
X0291146Y0145793D03*
X0293114Y0145793D03*
X0295083Y0145793D03*
X0297051Y0145793D03*
D28*
X0304531Y0158588D03*
X0263980Y0158588D03*
D29*
X0342566Y0027713D03*
X0352566Y0027713D03*
X0362566Y0027713D03*
D30*
X0052505Y0028973D02*
X0050075Y0030376D01*
X0048091Y0032360D01*
X0046688Y0034790D01*
X0045962Y0037500D01*
X0045870Y0038903D01*
X0045870Y0043835D01*
X0045109Y0045673D01*
X0043702Y0047079D01*
X0041865Y0047840D01*
X0014374Y0047840D01*
X0014374Y0104769D01*
X0041865Y0104769D01*
X0043702Y0105531D01*
X0045109Y0106937D01*
X0045870Y0108775D01*
X0045870Y0113706D01*
X0045962Y0115109D01*
X0046688Y0117820D01*
X0048091Y0120249D01*
X0050075Y0122233D01*
X0052505Y0123636D01*
X0055215Y0124363D01*
X0056618Y0124455D01*
X0060555Y0124455D01*
X0061958Y0124363D01*
X0064668Y0123636D01*
X0067098Y0122233D01*
X0069082Y0120249D01*
X0070485Y0117820D01*
X0071211Y0115109D01*
X0071303Y0113707D01*
X0071303Y0100901D01*
X0072064Y0099063D01*
X0073471Y0097657D01*
X0075309Y0096895D01*
X0107213Y0096895D01*
X0107110Y0096246D01*
X0107110Y0096195D01*
X0111122Y0096195D01*
X0111122Y0095620D01*
X0107110Y0095620D01*
X0107110Y0095569D01*
X0107215Y0094900D01*
X0107425Y0094257D01*
X0107732Y0093654D01*
X0108130Y0093106D01*
X0108608Y0092627D01*
X0109156Y0092230D01*
X0109436Y0092087D01*
X0108861Y0091848D01*
X0107595Y0090582D01*
X0106910Y0088928D01*
X0106910Y0087138D01*
X0107595Y0085484D01*
X0108861Y0084218D01*
X0109155Y0084096D01*
X0108861Y0083974D01*
X0107595Y0082708D01*
X0106910Y0081054D01*
X0106910Y0079264D01*
X0107595Y0077610D01*
X0108861Y0076344D01*
X0109155Y0076222D01*
X0108861Y0076100D01*
X0107595Y0074834D01*
X0106910Y0073180D01*
X0106910Y0071390D01*
X0107595Y0069736D01*
X0108861Y0068470D01*
X0109155Y0068348D01*
X0108861Y0068226D01*
X0107595Y0066960D01*
X0106910Y0065306D01*
X0106910Y0063516D01*
X0107595Y0061862D01*
X0108861Y0060596D01*
X0109155Y0060474D01*
X0108861Y0060352D01*
X0107595Y0059086D01*
X0106910Y0057432D01*
X0106910Y0055714D01*
X0075309Y0055714D01*
X0073471Y0054953D01*
X0072064Y0053547D01*
X0071303Y0051709D01*
X0071303Y0038903D01*
X0071211Y0037500D01*
X0070485Y0034790D01*
X0069082Y0032360D01*
X0067098Y0030376D01*
X0064668Y0028973D01*
X0061958Y0028247D01*
X0060555Y0028155D01*
X0056618Y0028155D01*
X0055215Y0028247D01*
X0052505Y0028973D01*
X0052505Y0028973D01*
X0052205Y0029146D02*
X0064968Y0029146D01*
X0066697Y0030145D02*
X0050476Y0030145D01*
X0049308Y0031143D02*
X0067865Y0031143D01*
X0068864Y0032142D02*
X0060384Y0032142D01*
X0060008Y0032041D02*
X0062755Y0032777D01*
X0065217Y0034199D01*
X0067228Y0036209D01*
X0068650Y0038672D01*
X0069386Y0041419D01*
X0069386Y0044262D01*
X0068650Y0047009D01*
X0067228Y0049471D01*
X0065217Y0051482D01*
X0062755Y0052904D01*
X0060008Y0053640D01*
X0057165Y0053640D01*
X0054418Y0052904D01*
X0051956Y0051482D01*
X0049945Y0049471D01*
X0048523Y0047009D01*
X0047787Y0044262D01*
X0047787Y0041419D01*
X0048523Y0038672D01*
X0049945Y0036209D01*
X0051956Y0034199D01*
X0054418Y0032777D01*
X0057165Y0032041D01*
X0060008Y0032041D01*
X0056789Y0032142D02*
X0048310Y0032142D01*
X0047641Y0033140D02*
X0053789Y0033140D01*
X0052059Y0034139D02*
X0047064Y0034139D01*
X0046595Y0035137D02*
X0051017Y0035137D01*
X0050019Y0036136D02*
X0046328Y0036136D01*
X0046060Y0037134D02*
X0049411Y0037134D01*
X0048835Y0038133D02*
X0045921Y0038133D01*
X0045870Y0039131D02*
X0048400Y0039131D01*
X0048133Y0040130D02*
X0045870Y0040130D01*
X0045870Y0041129D02*
X0047865Y0041129D01*
X0047787Y0042127D02*
X0045870Y0042127D01*
X0045870Y0043126D02*
X0047787Y0043126D01*
X0047787Y0044124D02*
X0045750Y0044124D01*
X0045337Y0045123D02*
X0048018Y0045123D01*
X0048286Y0046121D02*
X0044660Y0046121D01*
X0043605Y0047120D02*
X0048587Y0047120D01*
X0049164Y0048118D02*
X0014374Y0048118D01*
X0014374Y0049117D02*
X0049740Y0049117D01*
X0050589Y0050115D02*
X0014374Y0050115D01*
X0014374Y0051114D02*
X0051587Y0051114D01*
X0053047Y0052112D02*
X0014374Y0052112D01*
X0014374Y0053111D02*
X0055191Y0053111D01*
X0061982Y0053111D02*
X0071884Y0053111D01*
X0071470Y0052112D02*
X0064126Y0052112D01*
X0065586Y0051114D02*
X0071303Y0051114D01*
X0071303Y0050115D02*
X0066584Y0050115D01*
X0067433Y0049117D02*
X0071303Y0049117D01*
X0071303Y0048118D02*
X0068009Y0048118D01*
X0068586Y0047120D02*
X0071303Y0047120D01*
X0071303Y0046121D02*
X0068888Y0046121D01*
X0069155Y0045123D02*
X0071303Y0045123D01*
X0071303Y0044124D02*
X0069386Y0044124D01*
X0069386Y0043126D02*
X0071303Y0043126D01*
X0071303Y0042127D02*
X0069386Y0042127D01*
X0069308Y0041129D02*
X0071303Y0041129D01*
X0071303Y0040130D02*
X0069041Y0040130D01*
X0068773Y0039131D02*
X0071303Y0039131D01*
X0071253Y0038133D02*
X0068339Y0038133D01*
X0067762Y0037134D02*
X0071113Y0037134D01*
X0070846Y0036136D02*
X0067155Y0036136D01*
X0066156Y0035137D02*
X0070578Y0035137D01*
X0070109Y0034139D02*
X0065114Y0034139D01*
X0063384Y0033140D02*
X0069532Y0033140D01*
X0072627Y0054109D02*
X0014374Y0054109D01*
X0014374Y0055108D02*
X0073844Y0055108D01*
X0106910Y0056106D02*
X0014374Y0056106D01*
X0014374Y0057105D02*
X0106910Y0057105D01*
X0107188Y0058103D02*
X0014374Y0058103D01*
X0014374Y0059102D02*
X0107610Y0059102D01*
X0108609Y0060100D02*
X0014374Y0060100D01*
X0014374Y0061099D02*
X0108358Y0061099D01*
X0107497Y0062097D02*
X0014374Y0062097D01*
X0014374Y0063096D02*
X0107084Y0063096D01*
X0106910Y0064094D02*
X0014374Y0064094D01*
X0014374Y0065093D02*
X0106910Y0065093D01*
X0107235Y0066091D02*
X0014374Y0066091D01*
X0014374Y0067090D02*
X0107724Y0067090D01*
X0108723Y0068088D02*
X0014374Y0068088D01*
X0014374Y0069087D02*
X0108244Y0069087D01*
X0107450Y0070085D02*
X0014374Y0070085D01*
X0014374Y0071084D02*
X0107036Y0071084D01*
X0106910Y0072082D02*
X0014374Y0072082D01*
X0014374Y0073081D02*
X0106910Y0073081D01*
X0107282Y0074079D02*
X0014374Y0074079D01*
X0014374Y0075078D02*
X0107838Y0075078D01*
X0108837Y0076076D02*
X0014374Y0076076D01*
X0014374Y0077075D02*
X0108130Y0077075D01*
X0107403Y0078073D02*
X0014374Y0078073D01*
X0014374Y0079072D02*
X0106989Y0079072D01*
X0106910Y0080070D02*
X0014374Y0080070D01*
X0014374Y0081069D02*
X0106916Y0081069D01*
X0107329Y0082067D02*
X0014374Y0082067D01*
X0014374Y0083066D02*
X0107952Y0083066D01*
X0109079Y0084065D02*
X0014374Y0084065D01*
X0014374Y0085063D02*
X0108016Y0085063D01*
X0107356Y0086062D02*
X0014374Y0086062D01*
X0014374Y0087060D02*
X0106942Y0087060D01*
X0106910Y0088059D02*
X0014374Y0088059D01*
X0014374Y0089057D02*
X0106963Y0089057D01*
X0107377Y0090056D02*
X0014374Y0090056D01*
X0014374Y0091054D02*
X0108066Y0091054D01*
X0109354Y0092053D02*
X0014374Y0092053D01*
X0014374Y0093051D02*
X0108185Y0093051D01*
X0107530Y0094050D02*
X0014374Y0094050D01*
X0014374Y0095048D02*
X0107192Y0095048D01*
X0111122Y0096047D02*
X0014374Y0096047D01*
X0014374Y0097045D02*
X0074947Y0097045D01*
X0073084Y0098044D02*
X0014374Y0098044D01*
X0014374Y0099042D02*
X0056897Y0099042D01*
X0057165Y0098970D02*
X0060008Y0098970D01*
X0062755Y0099706D01*
X0065217Y0101128D01*
X0067228Y0103139D01*
X0068650Y0105601D01*
X0069386Y0108348D01*
X0069386Y0111191D01*
X0068650Y0113938D01*
X0067228Y0116400D01*
X0065217Y0118411D01*
X0062755Y0119833D01*
X0060008Y0120569D01*
X0057165Y0120569D01*
X0054418Y0119833D01*
X0051956Y0118411D01*
X0049945Y0116400D01*
X0048523Y0113938D01*
X0047787Y0111191D01*
X0047787Y0108348D01*
X0048523Y0105601D01*
X0049945Y0103139D01*
X0051956Y0101128D01*
X0054418Y0099706D01*
X0057165Y0098970D01*
X0060277Y0099042D02*
X0072085Y0099042D01*
X0071659Y0100041D02*
X0063334Y0100041D01*
X0065064Y0101039D02*
X0071303Y0101039D01*
X0071303Y0102038D02*
X0066127Y0102038D01*
X0067126Y0103036D02*
X0071303Y0103036D01*
X0071303Y0104035D02*
X0067745Y0104035D01*
X0068322Y0105033D02*
X0071303Y0105033D01*
X0071303Y0106032D02*
X0068765Y0106032D01*
X0069033Y0107030D02*
X0071303Y0107030D01*
X0071303Y0108029D02*
X0069300Y0108029D01*
X0069386Y0109027D02*
X0071303Y0109027D01*
X0071303Y0110026D02*
X0069386Y0110026D01*
X0069386Y0111024D02*
X0071303Y0111024D01*
X0071303Y0112023D02*
X0069163Y0112023D01*
X0068895Y0113021D02*
X0071303Y0113021D01*
X0071283Y0114020D02*
X0068603Y0114020D01*
X0068026Y0115018D02*
X0071217Y0115018D01*
X0070968Y0116017D02*
X0067450Y0116017D01*
X0066613Y0117015D02*
X0070700Y0117015D01*
X0070373Y0118014D02*
X0065615Y0118014D01*
X0064176Y0119012D02*
X0069796Y0119012D01*
X0069220Y0120011D02*
X0062090Y0120011D01*
X0067324Y0122008D02*
X0049850Y0122008D01*
X0048851Y0121009D02*
X0068322Y0121009D01*
X0065759Y0123006D02*
X0051414Y0123006D01*
X0053881Y0124005D02*
X0063293Y0124005D01*
X0055083Y0120011D02*
X0047953Y0120011D01*
X0047377Y0119012D02*
X0052997Y0119012D01*
X0051559Y0118014D02*
X0046800Y0118014D01*
X0046473Y0117015D02*
X0050560Y0117015D01*
X0049724Y0116017D02*
X0046205Y0116017D01*
X0045956Y0115018D02*
X0049147Y0115018D01*
X0048571Y0114020D02*
X0045891Y0114020D01*
X0045870Y0113021D02*
X0048278Y0113021D01*
X0048010Y0112023D02*
X0045870Y0112023D01*
X0045870Y0111024D02*
X0047787Y0111024D01*
X0047787Y0110026D02*
X0045870Y0110026D01*
X0045870Y0109027D02*
X0047787Y0109027D01*
X0047873Y0108029D02*
X0045561Y0108029D01*
X0045147Y0107030D02*
X0048140Y0107030D01*
X0048408Y0106032D02*
X0044203Y0106032D01*
X0042501Y0105033D02*
X0048851Y0105033D01*
X0049428Y0104035D02*
X0014374Y0104035D01*
X0014374Y0103036D02*
X0050047Y0103036D01*
X0051046Y0102038D02*
X0014374Y0102038D01*
X0014374Y0101039D02*
X0052109Y0101039D01*
X0053839Y0100041D02*
X0014374Y0100041D01*
X0111697Y0096195D02*
X0115710Y0096195D01*
X0115710Y0096246D01*
X0115607Y0096895D01*
X0152101Y0096895D01*
X0153939Y0097657D01*
X0155345Y0099063D01*
X0156106Y0100901D01*
X0156106Y0108706D01*
X0172946Y0108706D01*
X0155227Y0090987D01*
X0152784Y0090987D01*
X0151788Y0089991D01*
X0151788Y0085433D01*
X0152462Y0084760D01*
X0151788Y0084086D01*
X0151788Y0079528D01*
X0152784Y0078532D01*
X0152799Y0078532D01*
X0152799Y0076619D01*
X0154088Y0075330D01*
X0160191Y0069227D01*
X0160191Y0062902D01*
X0159657Y0062368D01*
X0159657Y0058991D01*
X0159957Y0058692D01*
X0159857Y0058318D01*
X0159857Y0057137D01*
X0162391Y0057137D01*
X0164851Y0057137D01*
X0164851Y0057137D01*
X0164828Y0057137D01*
X0162859Y0057137D01*
X0162391Y0057137D01*
X0162391Y0057137D01*
X0162391Y0057137D01*
X0162391Y0057136D02*
X0162391Y0054652D01*
X0163622Y0054652D01*
X0163892Y0054725D01*
X0164162Y0054652D01*
X0164851Y0054652D01*
X0164851Y0055683D01*
X0164851Y0055683D01*
X0164851Y0054652D01*
X0165541Y0054652D01*
X0165836Y0054731D01*
X0166130Y0054652D01*
X0166820Y0054652D01*
X0167509Y0054652D01*
X0167780Y0054725D01*
X0168050Y0054652D01*
X0169280Y0054652D01*
X0169280Y0057136D01*
X0169281Y0057136D01*
X0169281Y0057137D02*
X0169281Y0057137D01*
X0171814Y0057137D01*
X0171814Y0058318D01*
X0171714Y0058692D01*
X0172014Y0058991D01*
X0172014Y0062368D01*
X0171480Y0062902D01*
X0171480Y0077869D01*
X0172144Y0078532D01*
X0172323Y0078532D01*
X0172045Y0078254D01*
X0171515Y0076973D01*
X0171515Y0075587D01*
X0172045Y0074307D01*
X0172799Y0073553D01*
X0172799Y0053383D01*
X0172045Y0052629D01*
X0171515Y0051348D01*
X0171515Y0049962D01*
X0172045Y0048682D01*
X0173025Y0047702D01*
X0174306Y0047171D01*
X0175692Y0047171D01*
X0176973Y0047702D01*
X0177953Y0048682D01*
X0178483Y0049962D01*
X0178483Y0051348D01*
X0177953Y0052629D01*
X0177199Y0053383D01*
X0177199Y0073553D01*
X0177953Y0074307D01*
X0178483Y0075587D01*
X0178483Y0075935D01*
X0183444Y0070974D01*
X0183444Y0062902D01*
X0182910Y0062368D01*
X0182910Y0058991D01*
X0183210Y0058692D01*
X0183110Y0058318D01*
X0183110Y0057137D01*
X0185644Y0057137D01*
X0188104Y0057137D01*
X0188104Y0057137D01*
X0186112Y0057137D01*
X0185644Y0057137D01*
X0185644Y0057137D01*
X0185644Y0057137D01*
X0185644Y0057136D02*
X0185644Y0054652D01*
X0186875Y0054652D01*
X0187145Y0054725D01*
X0187415Y0054652D01*
X0188104Y0054652D01*
X0188104Y0055683D01*
X0188104Y0055683D01*
X0188104Y0054652D01*
X0188794Y0054652D01*
X0189089Y0054731D01*
X0189383Y0054652D01*
X0190073Y0054652D01*
X0190762Y0054652D01*
X0191032Y0054725D01*
X0191303Y0054652D01*
X0192533Y0054652D01*
X0192533Y0057136D01*
X0192534Y0057136D01*
X0192534Y0057137D02*
X0192534Y0057137D01*
X0195067Y0057137D01*
X0195067Y0058318D01*
X0194967Y0058692D01*
X0195267Y0058991D01*
X0195267Y0062368D01*
X0194733Y0062902D01*
X0194733Y0076611D01*
X0195170Y0075557D01*
X0195924Y0074803D01*
X0195924Y0053149D01*
X0195525Y0052984D01*
X0194545Y0052004D01*
X0194015Y0050723D01*
X0194015Y0049337D01*
X0194545Y0048057D01*
X0195525Y0047077D01*
X0196806Y0046546D01*
X0198192Y0046546D01*
X0199473Y0047077D01*
X0200453Y0048057D01*
X0200983Y0049337D01*
X0200983Y0050723D01*
X0200453Y0052004D01*
X0200324Y0052133D01*
X0200324Y0074803D01*
X0201078Y0075557D01*
X0201161Y0075757D01*
X0207071Y0069847D01*
X0207071Y0062902D01*
X0206537Y0062368D01*
X0206537Y0058991D01*
X0206837Y0058692D01*
X0206737Y0058318D01*
X0206737Y0057137D01*
X0209271Y0057137D01*
X0211731Y0057137D01*
X0211731Y0057137D01*
X0211708Y0057137D01*
X0209739Y0057137D01*
X0209271Y0057137D01*
X0209271Y0057137D01*
X0211731Y0057137D01*
X0213700Y0057137D01*
X0216160Y0057137D01*
X0216160Y0057137D01*
X0213700Y0057137D01*
X0213700Y0057137D01*
X0216160Y0057137D01*
X0216160Y0057136D02*
X0216160Y0057136D01*
X0216160Y0054652D01*
X0214929Y0054652D01*
X0214659Y0054725D01*
X0214389Y0054652D01*
X0213700Y0054652D01*
X0213700Y0055683D01*
X0213700Y0055683D01*
X0213700Y0054652D01*
X0213010Y0054652D01*
X0212716Y0054731D01*
X0212421Y0054652D01*
X0211731Y0054652D01*
X0211731Y0055683D01*
X0211731Y0055683D01*
X0211731Y0054652D01*
X0211042Y0054652D01*
X0210772Y0054725D01*
X0210502Y0054652D01*
X0209271Y0054652D01*
X0209271Y0057136D01*
X0209271Y0057136D01*
X0209271Y0054652D01*
X0208040Y0054652D01*
X0207658Y0054755D01*
X0207316Y0054952D01*
X0207037Y0055231D01*
X0206839Y0055573D01*
X0206737Y0055955D01*
X0206737Y0057137D01*
X0209271Y0057137D01*
X0209271Y0057137D01*
X0209271Y0057105D02*
X0209271Y0057105D01*
X0209271Y0056106D02*
X0209271Y0056106D01*
X0209271Y0055108D02*
X0209271Y0055108D01*
X0208931Y0053731D02*
X0203389Y0053731D01*
X0202393Y0052735D01*
X0202393Y0047075D01*
X0202935Y0046532D01*
X0202497Y0046094D01*
X0202497Y0040355D01*
X0203493Y0039359D01*
X0208838Y0039359D01*
X0209663Y0040184D01*
X0209689Y0040138D01*
X0209969Y0039859D01*
X0210311Y0039661D01*
X0210692Y0039559D01*
X0212374Y0039559D01*
X0212374Y0042740D01*
X0213343Y0042740D01*
X0213343Y0043708D01*
X0216327Y0043708D01*
X0216327Y0045587D01*
X0216225Y0045969D01*
X0216036Y0046294D01*
X0216780Y0047038D01*
X0217766Y0047446D01*
X0218119Y0047799D01*
X0218119Y0046964D01*
X0220869Y0046964D01*
X0220869Y0046464D01*
X0221369Y0046464D01*
X0221369Y0042214D01*
X0222817Y0042214D01*
X0223198Y0042317D01*
X0223540Y0042514D01*
X0223819Y0042793D01*
X0224017Y0043135D01*
X0224119Y0043517D01*
X0224119Y0046464D01*
X0221369Y0046464D01*
X0221369Y0046964D01*
X0224119Y0046964D01*
X0224119Y0049912D01*
X0224027Y0050255D01*
X0227732Y0050255D01*
X0226775Y0049859D01*
X0225795Y0048879D01*
X0225265Y0047598D01*
X0225265Y0046212D01*
X0225795Y0044932D01*
X0226775Y0043952D01*
X0228056Y0043421D01*
X0229442Y0043421D01*
X0230723Y0043952D01*
X0231286Y0044514D01*
X0232919Y0044514D01*
X0232919Y0043010D01*
X0233219Y0042710D01*
X0233219Y0028719D01*
X0232919Y0028419D01*
X0232919Y0024218D01*
X0224119Y0024218D01*
X0224119Y0024464D01*
X0221369Y0024464D01*
X0221369Y0024964D01*
X0224119Y0024964D01*
X0224119Y0027912D01*
X0224017Y0028293D01*
X0223819Y0028635D01*
X0223540Y0028915D01*
X0223198Y0029112D01*
X0222817Y0029214D01*
X0221369Y0029214D01*
X0221369Y0024964D01*
X0220869Y0024964D01*
X0220869Y0024464D01*
X0218119Y0024464D01*
X0218119Y0024218D01*
X0214224Y0024218D01*
X0214224Y0031590D01*
X0213508Y0033317D01*
X0212186Y0034640D01*
X0210459Y0035355D01*
X0208589Y0035355D01*
X0206861Y0034640D01*
X0205539Y0033317D01*
X0204824Y0031590D01*
X0204824Y0024218D01*
X0204011Y0024218D01*
X0204024Y0024301D01*
X0204024Y0027155D01*
X0200024Y0027155D01*
X0200024Y0028155D01*
X0204024Y0028155D01*
X0204024Y0031009D01*
X0203913Y0031709D01*
X0203694Y0032383D01*
X0203373Y0033014D01*
X0202956Y0033587D01*
X0202455Y0034088D01*
X0201882Y0034504D01*
X0201251Y0034825D01*
X0200578Y0035044D01*
X0200024Y0035132D01*
X0200024Y0028155D01*
X0199024Y0028155D01*
X0199024Y0035132D01*
X0198470Y0035044D01*
X0197796Y0034825D01*
X0197165Y0034504D01*
X0196592Y0034088D01*
X0196091Y0033587D01*
X0195675Y0033014D01*
X0195353Y0032383D01*
X0195135Y0031709D01*
X0195024Y0031009D01*
X0195024Y0028155D01*
X0199024Y0028155D01*
X0199024Y0027155D01*
X0195024Y0027155D01*
X0195024Y0024301D01*
X0195037Y0024218D01*
X0194224Y0024218D01*
X0194224Y0031590D01*
X0193508Y0033317D01*
X0192186Y0034640D01*
X0190459Y0035355D01*
X0188589Y0035355D01*
X0186861Y0034640D01*
X0185539Y0033317D01*
X0184824Y0031590D01*
X0184824Y0024218D01*
X0184224Y0024218D01*
X0184224Y0031590D01*
X0183508Y0033317D01*
X0182186Y0034640D01*
X0180459Y0035355D01*
X0178589Y0035355D01*
X0176861Y0034640D01*
X0175539Y0033317D01*
X0174824Y0031590D01*
X0174824Y0024218D01*
X0174224Y0024218D01*
X0174224Y0031590D01*
X0173508Y0033317D01*
X0172186Y0034640D01*
X0170459Y0035355D01*
X0168589Y0035355D01*
X0166861Y0034640D01*
X0165539Y0033317D01*
X0164824Y0031590D01*
X0164824Y0024218D01*
X0164224Y0024218D01*
X0164224Y0031590D01*
X0163508Y0033317D01*
X0162186Y0034640D01*
X0160459Y0035355D01*
X0158589Y0035355D01*
X0156861Y0034640D01*
X0156106Y0033884D01*
X0156106Y0048193D01*
X0155231Y0050885D01*
X0153567Y0053176D01*
X0151277Y0054840D01*
X0148585Y0055714D01*
X0115910Y0055714D01*
X0115910Y0057432D01*
X0115225Y0059086D01*
X0113959Y0060352D01*
X0113664Y0060474D01*
X0113959Y0060596D01*
X0115225Y0061862D01*
X0115910Y0063516D01*
X0115910Y0065306D01*
X0115225Y0066960D01*
X0113959Y0068226D01*
X0113664Y0068348D01*
X0113959Y0068470D01*
X0115225Y0069736D01*
X0115328Y0069985D01*
X0139916Y0069985D01*
X0170824Y0039078D01*
X0172171Y0037730D01*
X0195497Y0037730D01*
X0196150Y0037077D01*
X0197431Y0036546D01*
X0198817Y0036546D01*
X0200098Y0037077D01*
X0201078Y0038057D01*
X0201608Y0039337D01*
X0201608Y0040723D01*
X0201078Y0042004D01*
X0200098Y0042984D01*
X0198817Y0043515D01*
X0197431Y0043515D01*
X0196150Y0042984D01*
X0195497Y0042330D01*
X0174077Y0042330D01*
X0161755Y0054652D01*
X0162391Y0054652D01*
X0162391Y0057136D01*
X0162391Y0057136D01*
X0162391Y0057137D02*
X0159857Y0057137D01*
X0159857Y0056550D01*
X0141822Y0074585D01*
X0115328Y0074585D01*
X0115225Y0074834D01*
X0113959Y0076100D01*
X0113664Y0076222D01*
X0113959Y0076344D01*
X0115225Y0077610D01*
X0115910Y0079264D01*
X0115910Y0081054D01*
X0115225Y0082708D01*
X0113959Y0083974D01*
X0113664Y0084096D01*
X0113959Y0084218D01*
X0115225Y0085484D01*
X0115910Y0087138D01*
X0115910Y0088928D01*
X0115225Y0090582D01*
X0113959Y0091848D01*
X0113383Y0092087D01*
X0113663Y0092230D01*
X0114211Y0092627D01*
X0114689Y0093106D01*
X0115087Y0093654D01*
X0115395Y0094257D01*
X0115604Y0094900D01*
X0115710Y0095569D01*
X0115710Y0095620D01*
X0111697Y0095620D01*
X0111697Y0096195D01*
X0111697Y0096047D02*
X0160286Y0096047D01*
X0161284Y0097045D02*
X0152462Y0097045D01*
X0154326Y0098044D02*
X0162283Y0098044D01*
X0163282Y0099042D02*
X0155324Y0099042D01*
X0155750Y0100041D02*
X0164280Y0100041D01*
X0165279Y0101039D02*
X0156106Y0101039D01*
X0156106Y0102038D02*
X0166277Y0102038D01*
X0167276Y0103036D02*
X0156106Y0103036D01*
X0156106Y0104035D02*
X0168274Y0104035D01*
X0169273Y0105033D02*
X0156106Y0105033D01*
X0156106Y0106032D02*
X0170271Y0106032D01*
X0171270Y0107030D02*
X0156106Y0107030D01*
X0156106Y0108029D02*
X0172268Y0108029D01*
X0174669Y0107318D02*
X0155063Y0087712D01*
X0151788Y0088059D02*
X0115910Y0088059D01*
X0115856Y0089057D02*
X0151788Y0089057D01*
X0151852Y0090056D02*
X0115443Y0090056D01*
X0114753Y0091054D02*
X0155293Y0091054D01*
X0156292Y0092053D02*
X0113465Y0092053D01*
X0114635Y0093051D02*
X0157290Y0093051D01*
X0158289Y0094050D02*
X0115289Y0094050D01*
X0115627Y0095048D02*
X0159287Y0095048D01*
X0166559Y0087712D02*
X0182177Y0103330D01*
X0240814Y0103330D01*
X0257346Y0086798D01*
X0257716Y0086798D01*
X0260959Y0090041D01*
X0260959Y0089829D01*
X0259955Y0088824D01*
X0260888Y0089970D02*
X0260959Y0090041D01*
X0262345Y0088626D02*
X0258124Y0084405D01*
X0257193Y0084405D01*
X0240068Y0101530D01*
X0186125Y0101530D01*
X0172307Y0087712D01*
X0178055Y0087712D02*
X0190073Y0099730D01*
X0239323Y0099730D01*
X0259873Y0079180D01*
X0261271Y0079180D01*
X0266545Y0084455D01*
X0265131Y0085869D02*
X0273667Y0094405D01*
X0289999Y0094405D01*
X0293749Y0098155D01*
X0294999Y0098155D01*
X0299374Y0093780D01*
X0315624Y0093780D01*
X0318134Y0090041D02*
X0319999Y0091905D01*
X0319999Y0096280D01*
X0315624Y0100655D01*
X0333078Y0100655D01*
X0336545Y0104122D01*
X0336545Y0106577D01*
X0339999Y0110030D01*
X0342499Y0110030D01*
X0344999Y0107530D01*
X0344999Y0101905D01*
X0333749Y0090030D01*
X0330265Y0090056D02*
X0328716Y0090056D01*
X0328716Y0090663D02*
X0327891Y0091488D01*
X0327937Y0091515D01*
X0328216Y0091794D01*
X0328414Y0092136D01*
X0328516Y0092518D01*
X0328516Y0094199D01*
X0325335Y0094199D01*
X0325335Y0095168D01*
X0328516Y0095168D01*
X0328516Y0096850D01*
X0328414Y0097231D01*
X0328216Y0097573D01*
X0327937Y0097852D01*
X0327595Y0098050D01*
X0327213Y0098152D01*
X0325335Y0098152D01*
X0325335Y0095168D01*
X0324366Y0095168D01*
X0324366Y0098152D01*
X0322488Y0098152D01*
X0322106Y0098050D01*
X0321764Y0097852D01*
X0321651Y0097739D01*
X0320935Y0098455D01*
X0333990Y0098455D01*
X0338745Y0103211D01*
X0338745Y0105665D01*
X0340910Y0107830D01*
X0341588Y0107830D01*
X0342799Y0106619D01*
X0342799Y0102782D01*
X0334019Y0093515D01*
X0333056Y0093515D01*
X0331775Y0092984D01*
X0330795Y0092004D01*
X0330265Y0090723D01*
X0330265Y0089337D01*
X0330795Y0088057D01*
X0331775Y0087077D01*
X0332386Y0086824D01*
X0327824Y0082262D01*
X0327824Y0084426D01*
X0328716Y0085318D01*
X0328716Y0090663D01*
X0328325Y0091054D02*
X0330402Y0091054D01*
X0329999Y0091280D02*
X0329999Y0086905D01*
X0328716Y0087060D02*
X0331815Y0087060D01*
X0331623Y0086062D02*
X0328716Y0086062D01*
X0328461Y0085063D02*
X0330625Y0085063D01*
X0329626Y0084065D02*
X0327824Y0084065D01*
X0327824Y0083066D02*
X0328628Y0083066D01*
X0325624Y0081905D02*
X0325624Y0087217D01*
X0324850Y0087991D01*
X0325624Y0087842D01*
X0328716Y0088059D02*
X0330794Y0088059D01*
X0330381Y0089057D02*
X0328716Y0089057D01*
X0329999Y0091280D02*
X0340624Y0101905D01*
X0340624Y0105655D01*
X0329652Y0094684D01*
X0324850Y0094684D01*
X0324999Y0094535D01*
X0324999Y0091905D01*
X0324353Y0091259D01*
X0322147Y0091259D01*
X0321345Y0090457D01*
X0321249Y0090457D01*
X0321249Y0081905D01*
X0319299Y0079955D01*
X0315699Y0079955D01*
X0314353Y0081301D01*
X0314353Y0086301D01*
X0314267Y0086301D01*
X0311941Y0088626D01*
X0311729Y0088626D01*
X0313143Y0090041D02*
X0317499Y0090041D01*
X0318124Y0089416D01*
X0318124Y0085655D01*
X0315786Y0083066D02*
X0312674Y0083066D01*
X0312681Y0083073D02*
X0314454Y0084846D01*
X0314454Y0085129D01*
X0314640Y0085315D01*
X0314640Y0084962D01*
X0315170Y0083682D01*
X0316150Y0082702D01*
X0317431Y0082171D01*
X0318817Y0082171D01*
X0320098Y0082702D01*
X0321078Y0083682D01*
X0321530Y0084773D01*
X0321981Y0084322D01*
X0323424Y0084322D01*
X0323424Y0082817D01*
X0320963Y0080355D01*
X0314660Y0080355D01*
X0312312Y0082704D01*
X0312681Y0083073D01*
X0312948Y0082067D02*
X0322675Y0082067D01*
X0323424Y0083066D02*
X0320462Y0083066D01*
X0321236Y0084065D02*
X0323424Y0084065D01*
X0325624Y0081905D02*
X0321874Y0078155D01*
X0313749Y0078155D01*
X0307557Y0084347D01*
X0307557Y0084455D01*
X0306143Y0083040D02*
X0306143Y0082970D01*
X0308925Y0080188D01*
X0308925Y0076729D01*
X0310624Y0075030D01*
X0313749Y0075030D01*
X0314374Y0074405D01*
X0308749Y0072530D02*
X0307125Y0074154D01*
X0307125Y0079159D01*
X0304800Y0081485D01*
X0304800Y0081697D01*
X0303385Y0080353D02*
X0301060Y0082679D01*
X0301060Y0084594D01*
X0294374Y0091280D01*
X0284374Y0091280D02*
X0284374Y0088122D01*
X0297799Y0074696D01*
X0301956Y0078868D02*
X0297669Y0083156D01*
X0296874Y0083156D01*
X0294374Y0085655D01*
X0303385Y0080353D02*
X0303385Y0080283D01*
X0301971Y0078868D02*
X0301956Y0078868D01*
X0313947Y0081069D02*
X0321676Y0081069D01*
X0315012Y0084065D02*
X0313673Y0084065D01*
X0314454Y0085063D02*
X0314640Y0085063D01*
X0317499Y0090041D02*
X0318134Y0090041D01*
X0324366Y0091659D02*
X0324366Y0094199D01*
X0325335Y0094199D01*
X0325335Y0091659D01*
X0324366Y0091659D01*
X0324366Y0092053D02*
X0325335Y0092053D01*
X0325335Y0093051D02*
X0324366Y0093051D01*
X0324366Y0094050D02*
X0325335Y0094050D01*
X0325335Y0095048D02*
X0335472Y0095048D01*
X0334526Y0094050D02*
X0328516Y0094050D01*
X0328516Y0093051D02*
X0331937Y0093051D01*
X0330844Y0092053D02*
X0328365Y0092053D01*
X0328516Y0096047D02*
X0336418Y0096047D01*
X0337364Y0097045D02*
X0328463Y0097045D01*
X0327605Y0098044D02*
X0338310Y0098044D01*
X0339256Y0099042D02*
X0334577Y0099042D01*
X0335575Y0100041D02*
X0340202Y0100041D01*
X0341148Y0101039D02*
X0336574Y0101039D01*
X0337572Y0102038D02*
X0342094Y0102038D01*
X0342799Y0103036D02*
X0338571Y0103036D01*
X0338745Y0104035D02*
X0342799Y0104035D01*
X0342799Y0105033D02*
X0338745Y0105033D01*
X0339112Y0106032D02*
X0342799Y0106032D01*
X0342388Y0107030D02*
X0340110Y0107030D01*
X0336799Y0109910D02*
X0330993Y0104104D01*
X0314267Y0104104D01*
X0311941Y0101779D01*
X0311729Y0101779D01*
X0313143Y0100364D02*
X0313434Y0100655D01*
X0315624Y0100655D01*
X0321347Y0098044D02*
X0322095Y0098044D01*
X0324366Y0098044D02*
X0325335Y0098044D01*
X0325335Y0097045D02*
X0324366Y0097045D01*
X0324366Y0096047D02*
X0325335Y0096047D01*
X0327476Y0078803D02*
X0343124Y0094451D01*
X0347499Y0098826D01*
X0347499Y0108780D01*
X0343749Y0112530D01*
X0339374Y0112530D01*
X0336799Y0109955D01*
X0336799Y0109910D01*
X0334999Y0110655D02*
X0331494Y0107150D01*
X0315387Y0107150D01*
X0314262Y0108276D01*
X0310095Y0108276D01*
X0307769Y0105951D01*
X0307557Y0105951D01*
X0306143Y0107365D02*
X0306143Y0107435D01*
X0313994Y0115287D01*
X0313994Y0115449D01*
X0314756Y0116210D01*
X0323054Y0116210D01*
X0323124Y0116280D01*
X0323124Y0116474D01*
X0326125Y0119475D01*
X0326125Y0125191D01*
X0324829Y0126486D01*
X0324546Y0126770D01*
X0318726Y0126770D01*
X0318749Y0126747D01*
X0313670Y0126770D02*
X0311099Y0124198D01*
X0311099Y0119405D01*
X0311329Y0119635D01*
X0317460Y0119635D01*
X0311099Y0119405D02*
X0311099Y0115206D01*
X0304800Y0108906D01*
X0304800Y0108708D01*
X0303470Y0110123D02*
X0309299Y0115952D01*
X0309299Y0141079D01*
X0296673Y0153705D01*
X0274878Y0153705D01*
X0271539Y0150365D01*
X0271539Y0145871D01*
X0271461Y0145793D01*
X0273429Y0145793D02*
X0273429Y0149710D01*
X0275624Y0151905D01*
X0295927Y0151905D01*
X0307476Y0140356D01*
X0307476Y0123178D01*
X0307499Y0123155D01*
X0307499Y0117065D01*
X0301971Y0111537D01*
X0300557Y0112739D02*
X0298232Y0110414D01*
X0298232Y0105763D01*
X0298124Y0105655D01*
X0295040Y0104378D02*
X0296846Y0102571D01*
X0300583Y0102571D01*
X0302499Y0100655D01*
X0301249Y0095655D02*
X0296133Y0100771D01*
X0296101Y0100771D01*
X0294967Y0101905D01*
X0288124Y0101905D01*
X0284374Y0098155D01*
X0276078Y0102432D02*
X0275098Y0101452D01*
X0273817Y0100921D01*
X0272431Y0100921D01*
X0271150Y0101452D01*
X0270170Y0102432D01*
X0269983Y0102883D01*
X0269270Y0102170D01*
X0267927Y0100827D01*
X0266953Y0099853D01*
X0273586Y0099853D01*
X0283763Y0110030D01*
X0282799Y0110994D01*
X0282799Y0111619D01*
X0280759Y0113659D01*
X0280443Y0113343D01*
X0279028Y0111929D01*
X0277771Y0110671D01*
X0278223Y0110484D01*
X0279203Y0109504D01*
X0279733Y0108223D01*
X0279733Y0106837D01*
X0279203Y0105557D01*
X0278223Y0104577D01*
X0276942Y0104046D01*
X0276608Y0104046D01*
X0276608Y0103712D01*
X0276078Y0102432D01*
X0275770Y0102038D02*
X0275684Y0102038D01*
X0276328Y0103036D02*
X0276769Y0103036D01*
X0276608Y0104035D02*
X0277767Y0104035D01*
X0278679Y0105033D02*
X0278766Y0105033D01*
X0279400Y0106032D02*
X0279764Y0106032D01*
X0279733Y0107030D02*
X0280763Y0107030D01*
X0281761Y0108029D02*
X0279733Y0108029D01*
X0279400Y0109027D02*
X0282760Y0109027D01*
X0281874Y0108780D02*
X0281874Y0109405D01*
X0279999Y0111280D01*
X0279123Y0112023D02*
X0282395Y0112023D01*
X0282799Y0111024D02*
X0278124Y0111024D01*
X0278681Y0110026D02*
X0283758Y0110026D01*
X0284999Y0111905D02*
X0286874Y0110030D01*
X0274497Y0097653D01*
X0264024Y0097653D01*
X0263638Y0098039D01*
X0263496Y0098039D01*
X0261171Y0100364D01*
X0260959Y0100364D01*
X0262373Y0101779D02*
X0262444Y0101779D01*
X0264769Y0099453D01*
X0272547Y0099453D01*
X0281874Y0108780D01*
X0284999Y0111905D02*
X0284999Y0112530D01*
X0279063Y0118466D01*
X0279061Y0118466D01*
X0277717Y0117123D02*
X0274999Y0119841D01*
X0274999Y0121905D01*
X0285240Y0132146D01*
X0285240Y0145793D01*
X0283272Y0145793D02*
X0283272Y0133303D01*
X0272499Y0122530D01*
X0272499Y0119513D01*
X0276303Y0115709D01*
X0274889Y0114294D02*
X0269999Y0119184D01*
X0269999Y0123155D01*
X0281303Y0134459D01*
X0281303Y0145793D01*
X0279335Y0145793D02*
X0279335Y0135616D01*
X0267499Y0123780D01*
X0267499Y0118997D01*
X0273545Y0112951D01*
X0272243Y0111537D02*
X0276249Y0107530D01*
X0273042Y0107585D02*
X0273042Y0104487D01*
X0273124Y0104405D01*
X0270564Y0102038D02*
X0269138Y0102038D01*
X0268139Y0101039D02*
X0272146Y0101039D01*
X0273773Y0100041D02*
X0267141Y0100041D01*
X0263787Y0103193D02*
X0263575Y0103193D01*
X0261250Y0105518D01*
X0178617Y0105518D01*
X0160811Y0087712D01*
X0151788Y0087060D02*
X0115877Y0087060D01*
X0115464Y0086062D02*
X0151788Y0086062D01*
X0152159Y0085063D02*
X0114803Y0085063D01*
X0113741Y0084065D02*
X0151788Y0084065D01*
X0151788Y0083066D02*
X0114867Y0083066D01*
X0115490Y0082067D02*
X0151788Y0082067D01*
X0151788Y0081069D02*
X0115904Y0081069D01*
X0115910Y0080070D02*
X0151788Y0080070D01*
X0152244Y0079072D02*
X0115830Y0079072D01*
X0115416Y0078073D02*
X0152799Y0078073D01*
X0152799Y0077075D02*
X0114689Y0077075D01*
X0113982Y0076076D02*
X0153342Y0076076D01*
X0154340Y0075078D02*
X0114981Y0075078D01*
X0114575Y0069087D02*
X0140815Y0069087D01*
X0141813Y0068088D02*
X0114096Y0068088D01*
X0115095Y0067090D02*
X0142812Y0067090D01*
X0143810Y0066091D02*
X0115584Y0066091D01*
X0115910Y0065093D02*
X0144809Y0065093D01*
X0145807Y0064094D02*
X0115910Y0064094D01*
X0115735Y0063096D02*
X0146806Y0063096D01*
X0147804Y0062097D02*
X0115322Y0062097D01*
X0114461Y0061099D02*
X0148803Y0061099D01*
X0149801Y0060100D02*
X0114211Y0060100D01*
X0115209Y0059102D02*
X0150800Y0059102D01*
X0151798Y0058103D02*
X0115632Y0058103D01*
X0115910Y0057105D02*
X0152797Y0057105D01*
X0153795Y0056106D02*
X0115910Y0056106D01*
X0150452Y0055108D02*
X0154794Y0055108D01*
X0155792Y0054109D02*
X0152282Y0054109D01*
X0151277Y0054840D02*
X0151277Y0054840D01*
X0153567Y0053176D02*
X0153567Y0053176D01*
X0153567Y0053176D01*
X0153615Y0053111D02*
X0156791Y0053111D01*
X0157789Y0052112D02*
X0154340Y0052112D01*
X0155066Y0051114D02*
X0158788Y0051114D01*
X0159787Y0050115D02*
X0155482Y0050115D01*
X0155231Y0050885D02*
X0155231Y0050885D01*
X0155806Y0049117D02*
X0160785Y0049117D01*
X0161784Y0048118D02*
X0156106Y0048118D01*
X0156106Y0047120D02*
X0162782Y0047120D01*
X0163781Y0046121D02*
X0156106Y0046121D01*
X0156106Y0045123D02*
X0164779Y0045123D01*
X0165778Y0044124D02*
X0156106Y0044124D01*
X0156106Y0043126D02*
X0166776Y0043126D01*
X0167775Y0042127D02*
X0156106Y0042127D01*
X0156106Y0041129D02*
X0168773Y0041129D01*
X0169772Y0040130D02*
X0156106Y0040130D01*
X0156106Y0039131D02*
X0170770Y0039131D01*
X0171769Y0038133D02*
X0156106Y0038133D01*
X0156106Y0037134D02*
X0196092Y0037134D01*
X0200156Y0037134D02*
X0233219Y0037134D01*
X0233219Y0036136D02*
X0156106Y0036136D01*
X0156106Y0035137D02*
X0158063Y0035137D01*
X0156361Y0034139D02*
X0156106Y0034139D01*
X0160984Y0035137D02*
X0168063Y0035137D01*
X0166361Y0034139D02*
X0162687Y0034139D01*
X0163582Y0033140D02*
X0165466Y0033140D01*
X0165052Y0032142D02*
X0163995Y0032142D01*
X0164224Y0031143D02*
X0164824Y0031143D01*
X0164824Y0030145D02*
X0164224Y0030145D01*
X0164224Y0029146D02*
X0164824Y0029146D01*
X0164824Y0028148D02*
X0164224Y0028148D01*
X0164224Y0027149D02*
X0164824Y0027149D01*
X0164824Y0026151D02*
X0164224Y0026151D01*
X0164224Y0025152D02*
X0164824Y0025152D01*
X0174224Y0025152D02*
X0174824Y0025152D01*
X0174824Y0026151D02*
X0174224Y0026151D01*
X0174224Y0027149D02*
X0174824Y0027149D01*
X0174824Y0028148D02*
X0174224Y0028148D01*
X0174224Y0029146D02*
X0174824Y0029146D01*
X0174824Y0030145D02*
X0174224Y0030145D01*
X0174224Y0031143D02*
X0174824Y0031143D01*
X0175052Y0032142D02*
X0173995Y0032142D01*
X0173582Y0033140D02*
X0175466Y0033140D01*
X0176361Y0034139D02*
X0172687Y0034139D01*
X0170984Y0035137D02*
X0178063Y0035137D01*
X0180984Y0035137D02*
X0188063Y0035137D01*
X0186361Y0034139D02*
X0182687Y0034139D01*
X0183582Y0033140D02*
X0185466Y0033140D01*
X0185052Y0032142D02*
X0183995Y0032142D01*
X0184224Y0031143D02*
X0184824Y0031143D01*
X0184824Y0030145D02*
X0184224Y0030145D01*
X0184224Y0029146D02*
X0184824Y0029146D01*
X0184824Y0028148D02*
X0184224Y0028148D01*
X0184224Y0027149D02*
X0184824Y0027149D01*
X0184824Y0026151D02*
X0184224Y0026151D01*
X0184224Y0025152D02*
X0184824Y0025152D01*
X0194224Y0025152D02*
X0195024Y0025152D01*
X0195024Y0026151D02*
X0194224Y0026151D01*
X0194224Y0027149D02*
X0195024Y0027149D01*
X0194224Y0028148D02*
X0199024Y0028148D01*
X0199024Y0029146D02*
X0200024Y0029146D01*
X0200024Y0028148D02*
X0204824Y0028148D01*
X0204824Y0029146D02*
X0204024Y0029146D01*
X0204024Y0030145D02*
X0204824Y0030145D01*
X0204824Y0031143D02*
X0204003Y0031143D01*
X0203772Y0032142D02*
X0205052Y0032142D01*
X0205466Y0033140D02*
X0203280Y0033140D01*
X0202385Y0034139D02*
X0206361Y0034139D01*
X0208063Y0035137D02*
X0190984Y0035137D01*
X0192687Y0034139D02*
X0196663Y0034139D01*
X0195767Y0033140D02*
X0193582Y0033140D01*
X0193995Y0032142D02*
X0195275Y0032142D01*
X0195045Y0031143D02*
X0194224Y0031143D01*
X0194224Y0030145D02*
X0195024Y0030145D01*
X0195024Y0029146D02*
X0194224Y0029146D01*
X0199024Y0030145D02*
X0200024Y0030145D01*
X0200024Y0031143D02*
X0199024Y0031143D01*
X0199024Y0032142D02*
X0200024Y0032142D01*
X0200024Y0033140D02*
X0199024Y0033140D01*
X0199024Y0034139D02*
X0200024Y0034139D01*
X0210984Y0035137D02*
X0233219Y0035137D01*
X0233219Y0034139D02*
X0212687Y0034139D01*
X0213582Y0033140D02*
X0233219Y0033140D01*
X0233219Y0032142D02*
X0213995Y0032142D01*
X0214224Y0031143D02*
X0233219Y0031143D01*
X0233219Y0030145D02*
X0214224Y0030145D01*
X0214224Y0029146D02*
X0219168Y0029146D01*
X0219040Y0029112D02*
X0218698Y0028915D01*
X0218419Y0028635D01*
X0218221Y0028293D01*
X0218119Y0027912D01*
X0218119Y0024964D01*
X0220869Y0024964D01*
X0220869Y0029214D01*
X0219422Y0029214D01*
X0219040Y0029112D01*
X0218182Y0028148D02*
X0214224Y0028148D01*
X0214224Y0027149D02*
X0218119Y0027149D01*
X0218119Y0026151D02*
X0214224Y0026151D01*
X0214224Y0025152D02*
X0218119Y0025152D01*
X0220869Y0025152D02*
X0221369Y0025152D01*
X0221369Y0026151D02*
X0220869Y0026151D01*
X0220869Y0027149D02*
X0221369Y0027149D01*
X0221369Y0028148D02*
X0220869Y0028148D01*
X0220869Y0029146D02*
X0221369Y0029146D01*
X0223070Y0029146D02*
X0233219Y0029146D01*
X0232919Y0028148D02*
X0224056Y0028148D01*
X0224119Y0027149D02*
X0232919Y0027149D01*
X0232919Y0026151D02*
X0224119Y0026151D01*
X0224119Y0025152D02*
X0232919Y0025152D01*
X0254038Y0025152D02*
X0254838Y0025152D01*
X0254838Y0024321D02*
X0254854Y0024218D01*
X0254038Y0024218D01*
X0254038Y0031610D01*
X0253323Y0033337D01*
X0252238Y0034422D01*
X0252238Y0042931D01*
X0253097Y0043790D01*
X0253097Y0049529D01*
X0252101Y0050525D01*
X0251674Y0050525D01*
X0251674Y0052233D01*
X0250327Y0053580D01*
X0241242Y0062665D01*
X0235310Y0062665D01*
X0234335Y0063640D01*
X0229777Y0063640D01*
X0229103Y0062966D01*
X0228430Y0063640D01*
X0223872Y0063640D01*
X0223212Y0062980D01*
X0218282Y0062980D01*
X0217898Y0063364D01*
X0215900Y0063364D01*
X0215900Y0081060D01*
X0215316Y0081643D01*
X0215316Y0084086D01*
X0214642Y0084760D01*
X0215316Y0085433D01*
X0215316Y0085512D01*
X0221406Y0085512D01*
X0244713Y0062205D01*
X0269660Y0062205D01*
X0270949Y0063494D01*
X0275975Y0068520D01*
X0276695Y0067799D01*
X0276978Y0067799D01*
X0277364Y0067413D01*
X0277750Y0067027D01*
X0277750Y0066744D01*
X0279523Y0064971D01*
X0279689Y0064971D01*
X0279689Y0055354D01*
X0286515Y0048528D01*
X0286515Y0047462D01*
X0287045Y0046182D01*
X0287499Y0045728D01*
X0287499Y0034736D01*
X0287393Y0034692D01*
X0286071Y0033370D01*
X0285355Y0031643D01*
X0285355Y0024218D01*
X0274038Y0024218D01*
X0274038Y0031610D01*
X0273323Y0033337D01*
X0272001Y0034659D01*
X0270273Y0035375D01*
X0268403Y0035375D01*
X0266676Y0034659D01*
X0265354Y0033337D01*
X0264638Y0031610D01*
X0264638Y0024218D01*
X0263822Y0024218D01*
X0263838Y0024321D01*
X0263838Y0027175D01*
X0259838Y0027175D01*
X0259838Y0028175D01*
X0258838Y0028175D01*
X0258838Y0027175D01*
X0254838Y0027175D01*
X0254838Y0024321D01*
X0254838Y0026151D02*
X0254038Y0026151D01*
X0254038Y0027149D02*
X0254838Y0027149D01*
X0254838Y0028175D02*
X0258838Y0028175D01*
X0258838Y0035152D01*
X0258284Y0035064D01*
X0257611Y0034845D01*
X0256980Y0034524D01*
X0256407Y0034107D01*
X0255906Y0033607D01*
X0255489Y0033034D01*
X0255168Y0032402D01*
X0254949Y0031729D01*
X0254838Y0031029D01*
X0254838Y0028175D01*
X0254038Y0028148D02*
X0258838Y0028148D01*
X0259338Y0027675D02*
X0269999Y0038336D01*
X0269999Y0060030D01*
X0280475Y0070506D01*
X0280475Y0070525D01*
X0279273Y0071939D02*
X0281598Y0074264D01*
X0286108Y0074264D01*
X0286108Y0057672D01*
X0294999Y0048780D01*
X0294999Y0032764D01*
X0300055Y0027708D01*
X0309999Y0027764D02*
X0310055Y0027708D01*
X0309999Y0027764D02*
X0309999Y0033155D01*
X0298124Y0045030D01*
X0298124Y0050655D01*
X0292213Y0056566D01*
X0292213Y0069110D01*
X0281889Y0069110D02*
X0281889Y0056265D01*
X0289999Y0048155D01*
X0286515Y0048118D02*
X0253097Y0048118D01*
X0253097Y0047120D02*
X0286657Y0047120D01*
X0287106Y0046121D02*
X0253097Y0046121D01*
X0253097Y0045123D02*
X0287499Y0045123D01*
X0287499Y0044124D02*
X0253097Y0044124D01*
X0252433Y0043126D02*
X0287499Y0043126D01*
X0287499Y0042127D02*
X0252238Y0042127D01*
X0252238Y0041129D02*
X0287499Y0041129D01*
X0287499Y0040130D02*
X0252238Y0040130D01*
X0252238Y0039131D02*
X0287499Y0039131D01*
X0287499Y0038133D02*
X0252238Y0038133D01*
X0252238Y0037134D02*
X0287499Y0037134D01*
X0287499Y0036136D02*
X0252238Y0036136D01*
X0252238Y0035137D02*
X0258747Y0035137D01*
X0258838Y0035137D02*
X0259838Y0035137D01*
X0259838Y0035152D02*
X0259838Y0028175D01*
X0263838Y0028175D01*
X0263838Y0031029D01*
X0263727Y0031729D01*
X0263508Y0032402D01*
X0263187Y0033034D01*
X0262771Y0033607D01*
X0262270Y0034107D01*
X0261697Y0034524D01*
X0261066Y0034845D01*
X0260392Y0035064D01*
X0259838Y0035152D01*
X0259929Y0035137D02*
X0267830Y0035137D01*
X0266155Y0034139D02*
X0262226Y0034139D01*
X0263109Y0033140D02*
X0265272Y0033140D01*
X0264859Y0032142D02*
X0263593Y0032142D01*
X0263820Y0031143D02*
X0264638Y0031143D01*
X0264638Y0030145D02*
X0263838Y0030145D01*
X0263838Y0029146D02*
X0264638Y0029146D01*
X0264638Y0028148D02*
X0259838Y0028148D01*
X0259838Y0029146D02*
X0258838Y0029146D01*
X0258838Y0030145D02*
X0259838Y0030145D01*
X0259838Y0031143D02*
X0258838Y0031143D01*
X0258838Y0032142D02*
X0259838Y0032142D01*
X0259838Y0033140D02*
X0258838Y0033140D01*
X0258838Y0034139D02*
X0259838Y0034139D01*
X0256450Y0034139D02*
X0252521Y0034139D01*
X0253404Y0033140D02*
X0255567Y0033140D01*
X0255083Y0032142D02*
X0253818Y0032142D01*
X0254038Y0031143D02*
X0254856Y0031143D01*
X0254838Y0030145D02*
X0254038Y0030145D01*
X0254038Y0029146D02*
X0254838Y0029146D01*
X0263838Y0027149D02*
X0264638Y0027149D01*
X0264638Y0026151D02*
X0263838Y0026151D01*
X0263838Y0025152D02*
X0264638Y0025152D01*
X0274038Y0025152D02*
X0285355Y0025152D01*
X0285355Y0026151D02*
X0274038Y0026151D01*
X0274038Y0027149D02*
X0285355Y0027149D01*
X0285355Y0028148D02*
X0274038Y0028148D01*
X0274038Y0029146D02*
X0285355Y0029146D01*
X0285355Y0030145D02*
X0274038Y0030145D01*
X0274038Y0031143D02*
X0285355Y0031143D01*
X0285562Y0032142D02*
X0273818Y0032142D01*
X0273404Y0033140D02*
X0285976Y0033140D01*
X0286840Y0034139D02*
X0272521Y0034139D01*
X0270847Y0035137D02*
X0287499Y0035137D01*
X0305137Y0041129D02*
X0306306Y0041129D01*
X0306223Y0041272D02*
X0306421Y0040930D01*
X0306700Y0040651D01*
X0307042Y0040453D01*
X0307424Y0040351D01*
X0312141Y0040351D01*
X0312141Y0046272D01*
X0313141Y0046272D01*
X0313141Y0047272D01*
X0319161Y0047272D01*
X0319161Y0051891D01*
X0319058Y0052272D01*
X0318861Y0052614D01*
X0318582Y0052894D01*
X0318240Y0053091D01*
X0317858Y0053193D01*
X0316898Y0053193D01*
X0317824Y0054119D01*
X0324076Y0060371D01*
X0325365Y0061660D01*
X0325365Y0066625D01*
X0325556Y0066546D01*
X0326942Y0066546D01*
X0328223Y0067077D01*
X0328323Y0067177D01*
X0328323Y0053393D01*
X0326799Y0053393D01*
X0325803Y0052398D01*
X0325803Y0041147D01*
X0326799Y0040151D01*
X0328924Y0040151D01*
X0328924Y0038570D01*
X0329563Y0037026D01*
X0330745Y0035845D01*
X0334495Y0032095D01*
X0336039Y0031455D01*
X0338672Y0031455D01*
X0337988Y0030772D01*
X0337166Y0028787D01*
X0337166Y0026639D01*
X0337988Y0024654D01*
X0338424Y0024218D01*
X0324534Y0024218D01*
X0324555Y0024354D01*
X0324555Y0027208D01*
X0320555Y0027208D01*
X0320555Y0028208D01*
X0319555Y0028208D01*
X0319555Y0027208D01*
X0315555Y0027208D01*
X0315555Y0024354D01*
X0315577Y0024218D01*
X0314755Y0024218D01*
X0314755Y0031643D01*
X0314040Y0033370D01*
X0312718Y0034692D01*
X0310990Y0035408D01*
X0310858Y0035408D01*
X0300324Y0045942D01*
X0300324Y0050444D01*
X0300795Y0049307D01*
X0301775Y0048327D01*
X0303056Y0047796D01*
X0304442Y0047796D01*
X0305723Y0048327D01*
X0306121Y0048725D01*
X0306121Y0047272D01*
X0312141Y0047272D01*
X0312141Y0046272D01*
X0306121Y0046272D01*
X0306121Y0041653D01*
X0306223Y0041272D01*
X0306121Y0042127D02*
X0304139Y0042127D01*
X0303140Y0043126D02*
X0306121Y0043126D01*
X0306121Y0044124D02*
X0302142Y0044124D01*
X0301143Y0045123D02*
X0306121Y0045123D01*
X0306121Y0046121D02*
X0300324Y0046121D01*
X0300324Y0047120D02*
X0312141Y0047120D01*
X0312141Y0046121D02*
X0313141Y0046121D01*
X0313141Y0046272D02*
X0313141Y0040351D01*
X0317858Y0040351D01*
X0318240Y0040453D01*
X0318582Y0040651D01*
X0318861Y0040930D01*
X0319058Y0041272D01*
X0319161Y0041653D01*
X0319161Y0046272D01*
X0313141Y0046272D01*
X0313141Y0047120D02*
X0325803Y0047120D01*
X0325803Y0048118D02*
X0319161Y0048118D01*
X0319161Y0049117D02*
X0325803Y0049117D01*
X0325803Y0050115D02*
X0319161Y0050115D01*
X0319161Y0051114D02*
X0325803Y0051114D01*
X0325803Y0052112D02*
X0319101Y0052112D01*
X0318167Y0053111D02*
X0326516Y0053111D01*
X0328323Y0054109D02*
X0317814Y0054109D01*
X0318813Y0055108D02*
X0328323Y0055108D01*
X0328323Y0056106D02*
X0319811Y0056106D01*
X0320810Y0057105D02*
X0328323Y0057105D01*
X0328323Y0058103D02*
X0321808Y0058103D01*
X0322807Y0059102D02*
X0328323Y0059102D01*
X0328323Y0060100D02*
X0323805Y0060100D01*
X0324804Y0061099D02*
X0328323Y0061099D01*
X0328323Y0062097D02*
X0325365Y0062097D01*
X0325365Y0063096D02*
X0328323Y0063096D01*
X0328323Y0064094D02*
X0325365Y0064094D01*
X0325365Y0065093D02*
X0328323Y0065093D01*
X0328323Y0066091D02*
X0325365Y0066091D01*
X0328236Y0067090D02*
X0328323Y0067090D01*
X0336723Y0067090D02*
X0345937Y0067090D01*
X0345856Y0067171D02*
X0358324Y0054703D01*
X0359671Y0053355D01*
X0387827Y0053355D01*
X0389174Y0054703D01*
X0396753Y0062282D01*
X0454397Y0062282D01*
X0454500Y0062033D01*
X0455766Y0060767D01*
X0456342Y0060528D01*
X0456061Y0060386D01*
X0455514Y0059988D01*
X0455035Y0059509D01*
X0454637Y0058962D01*
X0454330Y0058359D01*
X0454121Y0057715D01*
X0454015Y0057046D01*
X0454015Y0056995D01*
X0458028Y0056995D01*
X0458028Y0056420D01*
X0454015Y0056420D01*
X0454015Y0056369D01*
X0454119Y0055714D01*
X0421344Y0055714D01*
X0418652Y0054840D01*
X0416362Y0053176D01*
X0416362Y0053176D01*
X0414698Y0050885D01*
X0413823Y0048193D01*
X0413823Y0024218D01*
X0400113Y0024218D01*
X0401516Y0024800D01*
X0402719Y0026002D01*
X0403370Y0027573D01*
X0403370Y0029274D01*
X0402719Y0030845D01*
X0401874Y0031690D01*
X0401874Y0038653D01*
X0401493Y0039571D01*
X0400790Y0040275D01*
X0396163Y0044902D01*
X0395244Y0045282D01*
X0378006Y0045282D01*
X0378006Y0045455D01*
X0377332Y0046129D01*
X0378006Y0046803D01*
X0378006Y0052148D01*
X0377010Y0053144D01*
X0371271Y0053144D01*
X0370275Y0052148D01*
X0370275Y0051957D01*
X0368394Y0051957D01*
X0368394Y0052130D01*
X0367399Y0053126D01*
X0361660Y0053126D01*
X0360664Y0052130D01*
X0360664Y0046784D01*
X0361489Y0045960D01*
X0361443Y0045933D01*
X0361163Y0045654D01*
X0360966Y0045312D01*
X0360864Y0044930D01*
X0360864Y0043248D01*
X0364045Y0043248D01*
X0364045Y0042280D01*
X0365013Y0042280D01*
X0365013Y0039296D01*
X0366892Y0039296D01*
X0367273Y0039398D01*
X0367615Y0039595D01*
X0367895Y0039875D01*
X0368092Y0040217D01*
X0368194Y0040598D01*
X0368194Y0042280D01*
X0365013Y0042280D01*
X0365013Y0043248D01*
X0368194Y0043248D01*
X0368194Y0044930D01*
X0368092Y0045312D01*
X0367895Y0045654D01*
X0367615Y0045933D01*
X0367569Y0045960D01*
X0368394Y0046784D01*
X0368394Y0046957D01*
X0370275Y0046957D01*
X0370275Y0046803D01*
X0370949Y0046129D01*
X0370275Y0045455D01*
X0370275Y0040110D01*
X0371271Y0039114D01*
X0377010Y0039114D01*
X0378006Y0040110D01*
X0378006Y0040282D01*
X0393711Y0040282D01*
X0396874Y0037120D01*
X0396874Y0032131D01*
X0396673Y0032048D01*
X0395471Y0030845D01*
X0394820Y0029274D01*
X0394820Y0027573D01*
X0395471Y0026002D01*
X0396673Y0024800D01*
X0398076Y0024218D01*
X0392443Y0024218D01*
X0393370Y0025145D01*
X0393370Y0031702D01*
X0392374Y0032698D01*
X0385816Y0032698D01*
X0385741Y0032623D01*
X0364821Y0032623D01*
X0363640Y0033113D01*
X0361492Y0033113D01*
X0360933Y0032881D01*
X0354487Y0039328D01*
X0354524Y0039328D01*
X0354524Y0042312D01*
X0355492Y0042312D01*
X0355492Y0039328D01*
X0357371Y0039328D01*
X0357752Y0039430D01*
X0358094Y0039627D01*
X0358374Y0039907D01*
X0358571Y0040249D01*
X0358673Y0040630D01*
X0358673Y0042312D01*
X0355492Y0042312D01*
X0355492Y0043280D01*
X0358673Y0043280D01*
X0358673Y0044962D01*
X0358571Y0045344D01*
X0358374Y0045686D01*
X0358094Y0045965D01*
X0358048Y0045991D01*
X0358873Y0046816D01*
X0358873Y0052162D01*
X0357878Y0053158D01*
X0352139Y0053158D01*
X0351143Y0052162D01*
X0351143Y0051957D01*
X0350476Y0051957D01*
X0350476Y0052130D01*
X0349480Y0053126D01*
X0343741Y0053126D01*
X0342745Y0052130D01*
X0342745Y0046784D01*
X0343419Y0046111D01*
X0342745Y0045437D01*
X0342745Y0040091D01*
X0342982Y0039855D01*
X0338614Y0039855D01*
X0338282Y0040187D01*
X0339242Y0041147D01*
X0339242Y0052398D01*
X0338247Y0053393D01*
X0336723Y0053393D01*
X0336723Y0074180D01*
X0351681Y0089138D01*
X0376694Y0089138D01*
X0375680Y0088124D01*
X0375017Y0086522D01*
X0375017Y0084789D01*
X0375238Y0084253D01*
X0374871Y0084405D01*
X0367957Y0084405D01*
X0366491Y0085013D01*
X0364757Y0085013D01*
X0363156Y0084349D01*
X0361930Y0083124D01*
X0361267Y0081522D01*
X0361267Y0079789D01*
X0361930Y0078187D01*
X0363156Y0076961D01*
X0364757Y0076298D01*
X0366491Y0076298D01*
X0368092Y0076961D01*
X0368183Y0077052D01*
X0370477Y0077052D01*
X0370477Y0069465D01*
X0370477Y0069465D01*
X0370477Y0066465D01*
X0369480Y0066465D01*
X0369227Y0066533D01*
X0368975Y0066465D01*
X0367977Y0066465D01*
X0367977Y0069465D01*
X0367977Y0069465D01*
X0367977Y0065011D01*
X0367597Y0064092D01*
X0367481Y0063977D01*
X0367481Y0062289D01*
X0366818Y0060687D01*
X0366586Y0060455D01*
X0383421Y0060455D01*
X0389231Y0066265D01*
X0386473Y0066265D01*
X0386273Y0066465D01*
X0385477Y0066465D01*
X0385477Y0069465D01*
X0385477Y0069465D01*
X0382977Y0069465D01*
X0382977Y0069465D01*
X0382977Y0067261D01*
X0382977Y0067261D01*
X0382977Y0066465D01*
X0382181Y0066465D01*
X0381981Y0066265D01*
X0371473Y0066265D01*
X0371273Y0066465D01*
X0370477Y0066465D01*
X0370477Y0067261D01*
X0370477Y0067261D01*
X0370477Y0069465D01*
X0367977Y0069465D01*
X0367977Y0069465D01*
X0367977Y0071669D01*
X0367977Y0071669D01*
X0367977Y0072465D01*
X0367181Y0072465D01*
X0366981Y0072665D01*
X0361473Y0072665D01*
X0360477Y0071669D01*
X0360477Y0066671D01*
X0359430Y0065624D01*
X0358911Y0064371D01*
X0351674Y0071608D01*
X0351674Y0075358D01*
X0350424Y0076608D01*
X0349077Y0077955D01*
X0348251Y0077955D01*
X0347598Y0078609D01*
X0346317Y0079140D01*
X0344931Y0079140D01*
X0343650Y0078609D01*
X0342670Y0077629D01*
X0342140Y0076348D01*
X0342140Y0074962D01*
X0342670Y0073682D01*
X0343197Y0073155D01*
X0342670Y0072629D01*
X0342140Y0071348D01*
X0342140Y0069962D01*
X0342670Y0068682D01*
X0343650Y0067702D01*
X0344931Y0067171D01*
X0345856Y0067171D01*
X0346935Y0066091D02*
X0336723Y0066091D01*
X0336723Y0065093D02*
X0347934Y0065093D01*
X0348932Y0064094D02*
X0336723Y0064094D01*
X0336723Y0063096D02*
X0349931Y0063096D01*
X0350929Y0062097D02*
X0336723Y0062097D01*
X0336723Y0061099D02*
X0351928Y0061099D01*
X0352926Y0060100D02*
X0336723Y0060100D01*
X0336723Y0059102D02*
X0353925Y0059102D01*
X0354923Y0058103D02*
X0336723Y0058103D01*
X0336723Y0057105D02*
X0355922Y0057105D01*
X0356920Y0056106D02*
X0336723Y0056106D01*
X0336723Y0055108D02*
X0357919Y0055108D01*
X0358917Y0054109D02*
X0336723Y0054109D01*
X0338529Y0053111D02*
X0343726Y0053111D01*
X0342745Y0052112D02*
X0339242Y0052112D01*
X0339242Y0051114D02*
X0342745Y0051114D01*
X0342745Y0050115D02*
X0339242Y0050115D01*
X0339242Y0049117D02*
X0342745Y0049117D01*
X0342745Y0048118D02*
X0339242Y0048118D01*
X0339242Y0047120D02*
X0342745Y0047120D01*
X0343409Y0046121D02*
X0339242Y0046121D01*
X0339242Y0045123D02*
X0342745Y0045123D01*
X0342745Y0044124D02*
X0339242Y0044124D01*
X0339242Y0043126D02*
X0342745Y0043126D01*
X0342745Y0042127D02*
X0339242Y0042127D01*
X0339224Y0041129D02*
X0342745Y0041129D01*
X0342745Y0040130D02*
X0338339Y0040130D01*
X0328924Y0040130D02*
X0306136Y0040130D01*
X0307134Y0039131D02*
X0328924Y0039131D01*
X0329105Y0038133D02*
X0308133Y0038133D01*
X0309131Y0037134D02*
X0329519Y0037134D01*
X0330454Y0036136D02*
X0310130Y0036136D01*
X0311643Y0035137D02*
X0319258Y0035137D01*
X0319002Y0035097D02*
X0318328Y0034878D01*
X0317697Y0034556D01*
X0317124Y0034140D01*
X0316623Y0033639D01*
X0316207Y0033066D01*
X0315885Y0032435D01*
X0315666Y0031761D01*
X0315555Y0031062D01*
X0315555Y0028208D01*
X0319555Y0028208D01*
X0319555Y0035185D01*
X0319002Y0035097D01*
X0319555Y0035137D02*
X0320555Y0035137D01*
X0320555Y0035185D02*
X0320555Y0028208D01*
X0324555Y0028208D01*
X0324555Y0031062D01*
X0324445Y0031761D01*
X0324226Y0032435D01*
X0323904Y0033066D01*
X0323488Y0033639D01*
X0322987Y0034140D01*
X0322414Y0034556D01*
X0321783Y0034878D01*
X0321109Y0035097D01*
X0320555Y0035185D01*
X0320853Y0035137D02*
X0331452Y0035137D01*
X0332451Y0034139D02*
X0322988Y0034139D01*
X0323850Y0033140D02*
X0333449Y0033140D01*
X0334448Y0032142D02*
X0324321Y0032142D01*
X0324543Y0031143D02*
X0338360Y0031143D01*
X0337728Y0030145D02*
X0324555Y0030145D01*
X0324555Y0029146D02*
X0337315Y0029146D01*
X0337166Y0028148D02*
X0320555Y0028148D01*
X0320555Y0029146D02*
X0319555Y0029146D01*
X0319555Y0028148D02*
X0314755Y0028148D01*
X0314755Y0029146D02*
X0315555Y0029146D01*
X0315555Y0030145D02*
X0314755Y0030145D01*
X0314755Y0031143D02*
X0315568Y0031143D01*
X0315790Y0032142D02*
X0314549Y0032142D01*
X0314135Y0033140D02*
X0316261Y0033140D01*
X0317123Y0034139D02*
X0313271Y0034139D01*
X0319555Y0034139D02*
X0320555Y0034139D01*
X0320555Y0033140D02*
X0319555Y0033140D01*
X0319555Y0032142D02*
X0320555Y0032142D01*
X0320555Y0031143D02*
X0319555Y0031143D01*
X0319555Y0030145D02*
X0320555Y0030145D01*
X0324555Y0027149D02*
X0337166Y0027149D01*
X0337368Y0026151D02*
X0324555Y0026151D01*
X0324555Y0025152D02*
X0337782Y0025152D01*
X0315555Y0025152D02*
X0314755Y0025152D01*
X0314755Y0026151D02*
X0315555Y0026151D01*
X0315555Y0027149D02*
X0314755Y0027149D01*
X0354683Y0039131D02*
X0371254Y0039131D01*
X0370275Y0040130D02*
X0368042Y0040130D01*
X0368194Y0041129D02*
X0370275Y0041129D01*
X0370275Y0042127D02*
X0368194Y0042127D01*
X0368194Y0044124D02*
X0370275Y0044124D01*
X0370275Y0043126D02*
X0365013Y0043126D01*
X0364045Y0043126D02*
X0355492Y0043126D01*
X0354524Y0043126D02*
X0350689Y0043126D01*
X0350476Y0043338D02*
X0350476Y0045437D01*
X0349802Y0046111D01*
X0350476Y0046784D01*
X0350476Y0046957D01*
X0351143Y0046957D01*
X0351143Y0046816D01*
X0351968Y0045991D01*
X0351922Y0045965D01*
X0351642Y0045686D01*
X0351445Y0045344D01*
X0351343Y0044962D01*
X0351343Y0043280D01*
X0354524Y0043280D01*
X0354524Y0042312D01*
X0351502Y0042312D01*
X0350476Y0043338D01*
X0350476Y0044124D02*
X0351343Y0044124D01*
X0351386Y0045123D02*
X0350476Y0045123D01*
X0349813Y0046121D02*
X0351838Y0046121D01*
X0358178Y0046121D02*
X0361327Y0046121D01*
X0360915Y0045123D02*
X0358630Y0045123D01*
X0358673Y0044124D02*
X0360864Y0044124D01*
X0360864Y0042280D02*
X0360864Y0040598D01*
X0360966Y0040217D01*
X0361163Y0039875D01*
X0361443Y0039595D01*
X0361785Y0039398D01*
X0362166Y0039296D01*
X0364045Y0039296D01*
X0364045Y0042280D01*
X0360864Y0042280D01*
X0360864Y0042127D02*
X0358673Y0042127D01*
X0358673Y0041129D02*
X0360864Y0041129D01*
X0361016Y0040130D02*
X0358503Y0040130D01*
X0355492Y0040130D02*
X0354524Y0040130D01*
X0354524Y0041129D02*
X0355492Y0041129D01*
X0355492Y0042127D02*
X0354524Y0042127D01*
X0355681Y0038133D02*
X0395861Y0038133D01*
X0396859Y0037134D02*
X0356680Y0037134D01*
X0357678Y0036136D02*
X0396874Y0036136D01*
X0396874Y0035137D02*
X0358677Y0035137D01*
X0359675Y0034139D02*
X0396874Y0034139D01*
X0396874Y0033140D02*
X0360674Y0033140D01*
X0377028Y0039131D02*
X0394862Y0039131D01*
X0393864Y0040130D02*
X0378006Y0040130D01*
X0365013Y0040130D02*
X0364045Y0040130D01*
X0364045Y0041129D02*
X0365013Y0041129D01*
X0365013Y0042127D02*
X0364045Y0042127D01*
X0368143Y0045123D02*
X0370275Y0045123D01*
X0370942Y0046121D02*
X0367731Y0046121D01*
X0360664Y0047120D02*
X0358873Y0047120D01*
X0358873Y0048118D02*
X0360664Y0048118D01*
X0360664Y0049117D02*
X0358873Y0049117D01*
X0358873Y0050115D02*
X0360664Y0050115D01*
X0360664Y0051114D02*
X0358873Y0051114D01*
X0358873Y0052112D02*
X0360664Y0052112D01*
X0361645Y0053111D02*
X0357924Y0053111D01*
X0352092Y0053111D02*
X0349495Y0053111D01*
X0350476Y0052112D02*
X0351143Y0052112D01*
X0367414Y0053111D02*
X0371238Y0053111D01*
X0370275Y0052112D02*
X0368394Y0052112D01*
X0377043Y0053111D02*
X0416315Y0053111D01*
X0415589Y0052112D02*
X0378006Y0052112D01*
X0378006Y0051114D02*
X0414864Y0051114D01*
X0414698Y0050885D02*
X0414698Y0050885D01*
X0414447Y0050115D02*
X0378006Y0050115D01*
X0378006Y0049117D02*
X0414123Y0049117D01*
X0413823Y0048118D02*
X0378006Y0048118D01*
X0378006Y0047120D02*
X0413823Y0047120D01*
X0413823Y0046121D02*
X0377340Y0046121D01*
X0395630Y0045123D02*
X0413823Y0045123D01*
X0413823Y0044124D02*
X0396941Y0044124D01*
X0397939Y0043126D02*
X0413823Y0043126D01*
X0413823Y0042127D02*
X0398938Y0042127D01*
X0399936Y0041129D02*
X0413823Y0041129D01*
X0413823Y0040130D02*
X0400935Y0040130D01*
X0401676Y0039131D02*
X0413823Y0039131D01*
X0413823Y0038133D02*
X0401874Y0038133D01*
X0401874Y0037134D02*
X0413823Y0037134D01*
X0413823Y0036136D02*
X0401874Y0036136D01*
X0401874Y0035137D02*
X0413823Y0035137D01*
X0413823Y0034139D02*
X0401874Y0034139D01*
X0401874Y0033140D02*
X0413823Y0033140D01*
X0413823Y0032142D02*
X0410772Y0032142D01*
X0410659Y0032200D02*
X0410049Y0032398D01*
X0409415Y0032498D01*
X0409382Y0032498D01*
X0409382Y0028711D01*
X0408807Y0028711D01*
X0408807Y0028136D01*
X0405020Y0028136D01*
X0405020Y0028103D01*
X0405120Y0027469D01*
X0405318Y0026859D01*
X0405610Y0026288D01*
X0405987Y0025769D01*
X0406440Y0025315D01*
X0406959Y0024938D01*
X0407531Y0024647D01*
X0408141Y0024449D01*
X0408774Y0024349D01*
X0408807Y0024349D01*
X0408807Y0028136D01*
X0409382Y0028136D01*
X0409382Y0024349D01*
X0409415Y0024349D01*
X0410049Y0024449D01*
X0410659Y0024647D01*
X0411230Y0024938D01*
X0411749Y0025315D01*
X0412203Y0025769D01*
X0412580Y0026288D01*
X0412871Y0026859D01*
X0413069Y0027469D01*
X0413170Y0028103D01*
X0413170Y0028136D01*
X0409382Y0028136D01*
X0409382Y0028711D01*
X0413170Y0028711D01*
X0413170Y0028744D01*
X0413069Y0029378D01*
X0412871Y0029988D01*
X0412580Y0030559D01*
X0412203Y0031078D01*
X0411749Y0031532D01*
X0411230Y0031909D01*
X0410659Y0032200D01*
X0409382Y0032142D02*
X0408807Y0032142D01*
X0408807Y0032498D02*
X0408774Y0032498D01*
X0408141Y0032398D01*
X0407531Y0032200D01*
X0406959Y0031909D01*
X0406440Y0031532D01*
X0405987Y0031078D01*
X0405610Y0030559D01*
X0405318Y0029988D01*
X0405120Y0029378D01*
X0405020Y0028744D01*
X0405020Y0028711D01*
X0408807Y0028711D01*
X0408807Y0032498D01*
X0408807Y0031143D02*
X0409382Y0031143D01*
X0409382Y0030145D02*
X0408807Y0030145D01*
X0408807Y0029146D02*
X0409382Y0029146D01*
X0409382Y0028148D02*
X0413823Y0028148D01*
X0413823Y0029146D02*
X0413106Y0029146D01*
X0412791Y0030145D02*
X0413823Y0030145D01*
X0413823Y0031143D02*
X0412137Y0031143D01*
X0407417Y0032142D02*
X0401874Y0032142D01*
X0402420Y0031143D02*
X0406052Y0031143D01*
X0405399Y0030145D02*
X0403009Y0030145D01*
X0403370Y0029146D02*
X0405084Y0029146D01*
X0403370Y0028148D02*
X0408807Y0028148D01*
X0408807Y0027149D02*
X0409382Y0027149D01*
X0409382Y0026151D02*
X0408807Y0026151D01*
X0408807Y0025152D02*
X0409382Y0025152D01*
X0411525Y0025152D02*
X0413823Y0025152D01*
X0413823Y0026151D02*
X0412480Y0026151D01*
X0412965Y0027149D02*
X0413823Y0027149D01*
X0406665Y0025152D02*
X0401869Y0025152D01*
X0402780Y0026151D02*
X0405709Y0026151D01*
X0405224Y0027149D02*
X0403194Y0027149D01*
X0396320Y0025152D02*
X0393370Y0025152D01*
X0393370Y0026151D02*
X0395409Y0026151D01*
X0394996Y0027149D02*
X0393370Y0027149D01*
X0393370Y0028148D02*
X0394820Y0028148D01*
X0394820Y0029146D02*
X0393370Y0029146D01*
X0393370Y0030145D02*
X0395181Y0030145D01*
X0395769Y0031143D02*
X0393370Y0031143D01*
X0392930Y0032142D02*
X0396874Y0032142D01*
X0388581Y0054109D02*
X0417647Y0054109D01*
X0419477Y0055108D02*
X0389579Y0055108D01*
X0390578Y0056106D02*
X0454057Y0056106D01*
X0454024Y0057105D02*
X0391576Y0057105D01*
X0392575Y0058103D02*
X0454247Y0058103D01*
X0454739Y0059102D02*
X0393573Y0059102D01*
X0394572Y0060100D02*
X0455669Y0060100D01*
X0455434Y0061099D02*
X0395570Y0061099D01*
X0396569Y0062097D02*
X0454473Y0062097D01*
X0460288Y0060528D02*
X0460864Y0060767D01*
X0462130Y0062033D01*
X0462815Y0063687D01*
X0462815Y0065477D01*
X0462130Y0067131D01*
X0460864Y0068397D01*
X0460569Y0068519D01*
X0460864Y0068641D01*
X0462130Y0069907D01*
X0462815Y0071561D01*
X0462815Y0073351D01*
X0462130Y0075005D01*
X0460864Y0076271D01*
X0460569Y0076393D01*
X0460864Y0076515D01*
X0462130Y0077781D01*
X0462815Y0079435D01*
X0462815Y0081225D01*
X0462130Y0082879D01*
X0460864Y0084145D01*
X0460569Y0084267D01*
X0460864Y0084389D01*
X0462130Y0085655D01*
X0462815Y0087309D01*
X0462815Y0089099D01*
X0462130Y0090753D01*
X0460864Y0092019D01*
X0460569Y0092141D01*
X0460864Y0092263D01*
X0462130Y0093529D01*
X0462815Y0095183D01*
X0462815Y0096895D01*
X0494621Y0096895D01*
X0496458Y0097657D01*
X0497865Y0099063D01*
X0498626Y0100901D01*
X0498626Y0113706D01*
X0498718Y0115109D01*
X0499444Y0117820D01*
X0500847Y0120249D01*
X0502831Y0122233D01*
X0505261Y0123636D01*
X0507971Y0124363D01*
X0509374Y0124455D01*
X0513311Y0124455D01*
X0514714Y0124363D01*
X0517424Y0123636D01*
X0519854Y0122233D01*
X0521838Y0120249D01*
X0523241Y0117820D01*
X0523967Y0115109D01*
X0524059Y0113706D01*
X0524059Y0108775D01*
X0524820Y0106937D01*
X0526227Y0105531D01*
X0528064Y0104769D01*
X0555555Y0104769D01*
X0555555Y0047840D01*
X0528064Y0047840D01*
X0526227Y0047079D01*
X0524820Y0045673D01*
X0524059Y0043835D01*
X0524059Y0038903D01*
X0523967Y0037500D01*
X0523241Y0034790D01*
X0521838Y0032360D01*
X0519854Y0030376D01*
X0517424Y0028973D01*
X0514714Y0028247D01*
X0513311Y0028155D01*
X0509374Y0028155D01*
X0507971Y0028247D01*
X0505261Y0028973D01*
X0502831Y0030376D01*
X0500847Y0032360D01*
X0499444Y0034790D01*
X0498718Y0037500D01*
X0498626Y0038903D01*
X0498626Y0051709D01*
X0497865Y0053547D01*
X0496458Y0054953D01*
X0494621Y0055714D01*
X0462511Y0055714D01*
X0462615Y0056369D01*
X0462615Y0056420D01*
X0458602Y0056420D01*
X0458602Y0056995D01*
X0462615Y0056995D01*
X0462615Y0057046D01*
X0462509Y0057715D01*
X0462300Y0058359D01*
X0461993Y0058962D01*
X0461595Y0059509D01*
X0461116Y0059988D01*
X0460569Y0060386D01*
X0460288Y0060528D01*
X0460961Y0060100D02*
X0555555Y0060100D01*
X0555555Y0059102D02*
X0461891Y0059102D01*
X0462383Y0058103D02*
X0555555Y0058103D01*
X0555555Y0057105D02*
X0462606Y0057105D01*
X0462573Y0056106D02*
X0555555Y0056106D01*
X0555555Y0055108D02*
X0496085Y0055108D01*
X0497302Y0054109D02*
X0555555Y0054109D01*
X0555555Y0053111D02*
X0514738Y0053111D01*
X0515511Y0052904D02*
X0512764Y0053640D01*
X0509921Y0053640D01*
X0507174Y0052904D01*
X0504712Y0051482D01*
X0502701Y0049471D01*
X0501279Y0047009D01*
X0500543Y0044262D01*
X0500543Y0041419D01*
X0501279Y0038672D01*
X0502701Y0036209D01*
X0504712Y0034199D01*
X0507174Y0032777D01*
X0509921Y0032041D01*
X0512764Y0032041D01*
X0515511Y0032777D01*
X0517973Y0034199D01*
X0519984Y0036209D01*
X0521406Y0038672D01*
X0522142Y0041419D01*
X0522142Y0044262D01*
X0521406Y0047009D01*
X0519984Y0049471D01*
X0517973Y0051482D01*
X0515511Y0052904D01*
X0516882Y0052112D02*
X0555555Y0052112D01*
X0555555Y0051114D02*
X0518342Y0051114D01*
X0519340Y0050115D02*
X0555555Y0050115D01*
X0555555Y0049117D02*
X0520189Y0049117D01*
X0520765Y0048118D02*
X0555555Y0048118D01*
X0526324Y0047120D02*
X0521342Y0047120D01*
X0521644Y0046121D02*
X0525269Y0046121D01*
X0524592Y0045123D02*
X0521911Y0045123D01*
X0522142Y0044124D02*
X0524179Y0044124D01*
X0524059Y0043126D02*
X0522142Y0043126D01*
X0522142Y0042127D02*
X0524059Y0042127D01*
X0524059Y0041129D02*
X0522064Y0041129D01*
X0521796Y0040130D02*
X0524059Y0040130D01*
X0524059Y0039131D02*
X0521529Y0039131D01*
X0521095Y0038133D02*
X0524009Y0038133D01*
X0523869Y0037134D02*
X0520518Y0037134D01*
X0519911Y0036136D02*
X0523602Y0036136D01*
X0523334Y0035137D02*
X0518912Y0035137D01*
X0517870Y0034139D02*
X0522865Y0034139D01*
X0522288Y0033140D02*
X0516140Y0033140D01*
X0513140Y0032142D02*
X0521620Y0032142D01*
X0520621Y0031143D02*
X0502064Y0031143D01*
X0501065Y0032142D02*
X0509545Y0032142D01*
X0506545Y0033140D02*
X0500397Y0033140D01*
X0499820Y0034139D02*
X0504815Y0034139D01*
X0503773Y0035137D02*
X0499351Y0035137D01*
X0499084Y0036136D02*
X0502775Y0036136D01*
X0502167Y0037134D02*
X0498816Y0037134D01*
X0498676Y0038133D02*
X0501590Y0038133D01*
X0501156Y0039131D02*
X0498626Y0039131D01*
X0498626Y0040130D02*
X0500889Y0040130D01*
X0500621Y0041129D02*
X0498626Y0041129D01*
X0498626Y0042127D02*
X0500543Y0042127D01*
X0500543Y0043126D02*
X0498626Y0043126D01*
X0498626Y0044124D02*
X0500543Y0044124D01*
X0500774Y0045123D02*
X0498626Y0045123D01*
X0498626Y0046121D02*
X0501041Y0046121D01*
X0501343Y0047120D02*
X0498626Y0047120D01*
X0498626Y0048118D02*
X0501920Y0048118D01*
X0502496Y0049117D02*
X0498626Y0049117D01*
X0498626Y0050115D02*
X0503345Y0050115D01*
X0504343Y0051114D02*
X0498626Y0051114D01*
X0498459Y0052112D02*
X0505803Y0052112D01*
X0507947Y0053111D02*
X0498045Y0053111D01*
X0462570Y0063096D02*
X0555555Y0063096D01*
X0555555Y0064094D02*
X0462815Y0064094D01*
X0462815Y0065093D02*
X0555555Y0065093D01*
X0555555Y0066091D02*
X0462561Y0066091D01*
X0462147Y0067090D02*
X0555555Y0067090D01*
X0555555Y0068088D02*
X0461173Y0068088D01*
X0461310Y0069087D02*
X0555555Y0069087D01*
X0555555Y0070085D02*
X0462204Y0070085D01*
X0462617Y0071084D02*
X0555555Y0071084D01*
X0555555Y0072082D02*
X0462815Y0072082D01*
X0462815Y0073081D02*
X0555555Y0073081D01*
X0555555Y0074079D02*
X0462513Y0074079D01*
X0462057Y0075078D02*
X0555555Y0075078D01*
X0555555Y0076076D02*
X0461058Y0076076D01*
X0461424Y0077075D02*
X0555555Y0077075D01*
X0555555Y0078073D02*
X0462251Y0078073D01*
X0462665Y0079072D02*
X0555555Y0079072D01*
X0555555Y0080070D02*
X0462815Y0080070D01*
X0462815Y0081069D02*
X0555555Y0081069D01*
X0555555Y0082067D02*
X0462466Y0082067D01*
X0461943Y0083066D02*
X0555555Y0083066D01*
X0555555Y0084065D02*
X0460944Y0084065D01*
X0461538Y0085063D02*
X0555555Y0085063D01*
X0555555Y0086062D02*
X0462298Y0086062D01*
X0462712Y0087060D02*
X0555555Y0087060D01*
X0555555Y0088059D02*
X0462815Y0088059D01*
X0462815Y0089057D02*
X0555555Y0089057D01*
X0555555Y0090056D02*
X0462419Y0090056D01*
X0461829Y0091054D02*
X0555555Y0091054D01*
X0555555Y0092053D02*
X0460783Y0092053D01*
X0461652Y0093051D02*
X0555555Y0093051D01*
X0555555Y0094050D02*
X0462346Y0094050D01*
X0462759Y0095048D02*
X0555555Y0095048D01*
X0555555Y0096047D02*
X0462815Y0096047D01*
X0440299Y0096895D02*
X0427009Y0083605D01*
X0388539Y0083605D01*
X0386995Y0082966D01*
X0385813Y0081784D01*
X0385174Y0080241D01*
X0385174Y0078570D01*
X0385174Y0076070D01*
X0385477Y0075338D01*
X0385477Y0069465D01*
X0385477Y0069465D01*
X0385477Y0067261D01*
X0385477Y0067261D01*
X0385477Y0066465D01*
X0384480Y0066465D01*
X0384227Y0066533D01*
X0383975Y0066465D01*
X0382977Y0066465D01*
X0382977Y0069465D01*
X0382977Y0069465D01*
X0382977Y0083096D01*
X0383068Y0083187D01*
X0383731Y0084789D01*
X0383731Y0086522D01*
X0383068Y0088124D01*
X0382054Y0089138D01*
X0388805Y0089138D01*
X0389423Y0089075D01*
X0389634Y0089138D01*
X0389855Y0089138D01*
X0390428Y0089376D01*
X0391023Y0089554D01*
X0391195Y0089693D01*
X0391398Y0089778D01*
X0391837Y0090217D01*
X0392319Y0090609D01*
X0392424Y0090803D01*
X0392580Y0090959D01*
X0392817Y0091533D01*
X0393112Y0092080D01*
X0393135Y0092299D01*
X0393219Y0092503D01*
X0393219Y0093124D01*
X0393354Y0094438D01*
X0392977Y0095696D01*
X0392977Y0100065D01*
X0393728Y0100065D01*
X0394640Y0099153D01*
X0394640Y0098087D01*
X0395170Y0096807D01*
X0396150Y0095827D01*
X0397431Y0095296D01*
X0398817Y0095296D01*
X0400098Y0095827D01*
X0401078Y0096807D01*
X0401608Y0098087D01*
X0401608Y0098421D01*
X0402567Y0098421D01*
X0403848Y0098952D01*
X0404828Y0099932D01*
X0405063Y0100500D01*
X0405556Y0100296D01*
X0406942Y0100296D01*
X0408223Y0100827D01*
X0409203Y0101807D01*
X0409733Y0103087D01*
X0409733Y0104473D01*
X0409203Y0105754D01*
X0408223Y0106734D01*
X0406942Y0107265D01*
X0405876Y0107265D01*
X0405075Y0108065D01*
X0384236Y0108065D01*
X0379699Y0103528D01*
X0379699Y0103553D01*
X0380453Y0104307D01*
X0380983Y0105587D01*
X0380983Y0106973D01*
X0380453Y0108254D01*
X0380000Y0108706D01*
X0413823Y0108706D01*
X0413823Y0100901D01*
X0414584Y0099063D01*
X0415991Y0097657D01*
X0417828Y0096895D01*
X0440299Y0096895D01*
X0439451Y0096047D02*
X0400318Y0096047D01*
X0401177Y0097045D02*
X0417467Y0097045D01*
X0415604Y0098044D02*
X0401590Y0098044D01*
X0403938Y0099042D02*
X0414605Y0099042D01*
X0414179Y0100041D02*
X0404873Y0100041D01*
X0401874Y0101905D02*
X0399714Y0104065D01*
X0385893Y0104065D01*
X0382977Y0101149D01*
X0382977Y0099465D01*
X0380477Y0099465D02*
X0380477Y0101195D01*
X0385148Y0105865D01*
X0404164Y0105865D01*
X0406249Y0103780D01*
X0409333Y0105058D02*
X0409333Y0094365D01*
X0398749Y0083780D01*
X0388124Y0083780D01*
X0385624Y0081280D01*
X0385624Y0081029D01*
X0385574Y0080979D01*
X0385574Y0069562D01*
X0385477Y0069465D01*
X0385277Y0069465D01*
X0382977Y0069465D01*
X0382977Y0069465D01*
X0382977Y0072465D01*
X0383975Y0072465D01*
X0384227Y0072398D01*
X0384480Y0072465D01*
X0385477Y0072465D01*
X0385477Y0069465D01*
X0385477Y0069465D01*
X0385477Y0069087D02*
X0385477Y0069087D01*
X0385477Y0070085D02*
X0385477Y0070085D01*
X0385477Y0071084D02*
X0385477Y0071084D01*
X0385477Y0072082D02*
X0385477Y0072082D01*
X0385477Y0073081D02*
X0382977Y0073081D01*
X0382977Y0074079D02*
X0385477Y0074079D01*
X0385477Y0075078D02*
X0382977Y0075078D01*
X0382977Y0076076D02*
X0385174Y0076076D01*
X0385174Y0077075D02*
X0382977Y0077075D01*
X0382977Y0078073D02*
X0385174Y0078073D01*
X0385174Y0079072D02*
X0382977Y0079072D01*
X0382977Y0080070D02*
X0385174Y0080070D01*
X0385517Y0081069D02*
X0382977Y0081069D01*
X0382977Y0082067D02*
X0386096Y0082067D01*
X0387237Y0083066D02*
X0382977Y0083066D01*
X0383432Y0084065D02*
X0427469Y0084065D01*
X0428467Y0085063D02*
X0383731Y0085063D01*
X0383731Y0086062D02*
X0429466Y0086062D01*
X0430464Y0087060D02*
X0383509Y0087060D01*
X0383095Y0088059D02*
X0431463Y0088059D01*
X0432461Y0089057D02*
X0382135Y0089057D01*
X0376613Y0089057D02*
X0351600Y0089057D01*
X0350601Y0088059D02*
X0375653Y0088059D01*
X0375239Y0087060D02*
X0349602Y0087060D01*
X0348604Y0086062D02*
X0375017Y0086062D01*
X0375017Y0085063D02*
X0347605Y0085063D01*
X0346607Y0084065D02*
X0362871Y0084065D01*
X0361906Y0083066D02*
X0345608Y0083066D01*
X0344610Y0082067D02*
X0361492Y0082067D01*
X0361267Y0081069D02*
X0343611Y0081069D01*
X0342613Y0080070D02*
X0361267Y0080070D01*
X0361563Y0079072D02*
X0346480Y0079072D01*
X0344768Y0079072D02*
X0341614Y0079072D01*
X0340616Y0078073D02*
X0343115Y0078073D01*
X0342441Y0077075D02*
X0339617Y0077075D01*
X0338619Y0076076D02*
X0342140Y0076076D01*
X0342140Y0075078D02*
X0337620Y0075078D01*
X0336723Y0074079D02*
X0342505Y0074079D01*
X0343122Y0073081D02*
X0336723Y0073081D01*
X0336723Y0072082D02*
X0342444Y0072082D01*
X0342140Y0071084D02*
X0336723Y0071084D01*
X0336723Y0070085D02*
X0342140Y0070085D01*
X0342502Y0069087D02*
X0336723Y0069087D01*
X0336723Y0068088D02*
X0343264Y0068088D01*
X0351674Y0072082D02*
X0360890Y0072082D01*
X0360477Y0071084D02*
X0352198Y0071084D01*
X0353197Y0070085D02*
X0360477Y0070085D01*
X0360477Y0069087D02*
X0354195Y0069087D01*
X0355194Y0068088D02*
X0360477Y0068088D01*
X0360477Y0067090D02*
X0356192Y0067090D01*
X0357191Y0066091D02*
X0359898Y0066091D01*
X0359210Y0065093D02*
X0358189Y0065093D01*
X0367597Y0064094D02*
X0387060Y0064094D01*
X0386062Y0063096D02*
X0367481Y0063096D01*
X0367402Y0062097D02*
X0385063Y0062097D01*
X0384065Y0061099D02*
X0366989Y0061099D01*
X0367977Y0065093D02*
X0388059Y0065093D01*
X0389057Y0066091D02*
X0367977Y0066091D01*
X0367977Y0067090D02*
X0367977Y0067090D01*
X0367977Y0068088D02*
X0367977Y0068088D01*
X0367977Y0069087D02*
X0367977Y0069087D01*
X0367977Y0069465D02*
X0370277Y0069465D01*
X0370477Y0069465D01*
X0370477Y0069465D01*
X0370477Y0072465D01*
X0369480Y0072465D01*
X0369227Y0072398D01*
X0368975Y0072465D01*
X0367977Y0072465D01*
X0367977Y0069465D01*
X0367977Y0069465D01*
X0367977Y0070085D02*
X0367977Y0070085D01*
X0367977Y0071084D02*
X0367977Y0071084D01*
X0367977Y0072082D02*
X0367977Y0072082D01*
X0370477Y0072082D02*
X0370477Y0072082D01*
X0370477Y0071084D02*
X0370477Y0071084D01*
X0370477Y0070085D02*
X0370477Y0070085D01*
X0370477Y0069465D02*
X0370477Y0069465D01*
X0370477Y0069087D02*
X0370477Y0069087D01*
X0370477Y0068088D02*
X0370477Y0068088D01*
X0370477Y0067090D02*
X0370477Y0067090D01*
X0382977Y0067090D02*
X0382977Y0067090D01*
X0382977Y0068088D02*
X0382977Y0068088D01*
X0382977Y0069087D02*
X0382977Y0069087D01*
X0382977Y0070085D02*
X0382977Y0070085D01*
X0382977Y0071084D02*
X0382977Y0071084D01*
X0382977Y0072082D02*
X0382977Y0072082D01*
X0385477Y0068088D02*
X0385477Y0068088D01*
X0385477Y0067090D02*
X0385477Y0067090D01*
X0370477Y0073081D02*
X0351674Y0073081D01*
X0351674Y0074079D02*
X0370477Y0074079D01*
X0370477Y0075078D02*
X0351674Y0075078D01*
X0350956Y0076076D02*
X0370477Y0076076D01*
X0363042Y0077075D02*
X0349957Y0077075D01*
X0348133Y0078073D02*
X0362043Y0078073D01*
X0354999Y0083780D02*
X0354374Y0083155D01*
X0354999Y0083780D02*
X0354999Y0086905D01*
X0344924Y0093705D02*
X0326249Y0075030D01*
X0326249Y0070030D01*
X0323165Y0074492D02*
X0323165Y0062571D01*
X0315624Y0055030D01*
X0308124Y0055030D01*
X0303749Y0051280D01*
X0300460Y0050115D02*
X0300324Y0050115D01*
X0300324Y0049117D02*
X0300985Y0049117D01*
X0300324Y0048118D02*
X0302278Y0048118D01*
X0305220Y0048118D02*
X0306121Y0048118D01*
X0312141Y0045123D02*
X0313141Y0045123D01*
X0313141Y0044124D02*
X0312141Y0044124D01*
X0312141Y0043126D02*
X0313141Y0043126D01*
X0313141Y0042127D02*
X0312141Y0042127D01*
X0312141Y0041129D02*
X0313141Y0041129D01*
X0318976Y0041129D02*
X0325821Y0041129D01*
X0325803Y0042127D02*
X0319161Y0042127D01*
X0319161Y0043126D02*
X0325803Y0043126D01*
X0325803Y0044124D02*
X0319161Y0044124D01*
X0319161Y0045123D02*
X0325803Y0045123D01*
X0325803Y0046121D02*
X0319161Y0046121D01*
X0285926Y0049117D02*
X0253097Y0049117D01*
X0252511Y0050115D02*
X0284928Y0050115D01*
X0283929Y0051114D02*
X0251674Y0051114D01*
X0251674Y0052112D02*
X0282931Y0052112D01*
X0281932Y0053111D02*
X0250796Y0053111D01*
X0249798Y0054109D02*
X0280934Y0054109D01*
X0279935Y0055108D02*
X0248799Y0055108D01*
X0247801Y0056106D02*
X0279689Y0056106D01*
X0279689Y0057105D02*
X0246802Y0057105D01*
X0245804Y0058103D02*
X0279689Y0058103D01*
X0279689Y0059102D02*
X0244805Y0059102D01*
X0243807Y0060100D02*
X0279689Y0060100D01*
X0279689Y0061099D02*
X0242808Y0061099D01*
X0241810Y0062097D02*
X0279689Y0062097D01*
X0279689Y0063096D02*
X0270551Y0063096D01*
X0271549Y0064094D02*
X0279689Y0064094D01*
X0279401Y0065093D02*
X0272548Y0065093D01*
X0273546Y0066091D02*
X0278403Y0066091D01*
X0277687Y0067090D02*
X0274545Y0067090D01*
X0275543Y0068088D02*
X0276406Y0068088D01*
X0277364Y0067413D02*
X0277750Y0067799D01*
X0277364Y0067413D01*
X0277750Y0067799D02*
X0277750Y0067799D01*
X0277750Y0067799D01*
X0279061Y0071939D02*
X0279273Y0071939D01*
X0279061Y0071939D02*
X0279061Y0071990D01*
X0277717Y0073282D02*
X0277626Y0073282D01*
X0268749Y0064405D01*
X0245624Y0064405D01*
X0222317Y0087712D01*
X0212041Y0087712D01*
X0209928Y0090587D02*
X0207053Y0087712D01*
X0206795Y0087712D01*
X0205790Y0092455D02*
X0201047Y0087712D01*
X0195299Y0087712D02*
X0201917Y0094330D01*
X0237086Y0094330D01*
X0257636Y0073780D01*
X0264374Y0073780D01*
X0270717Y0080123D01*
X0270717Y0080283D01*
X0269303Y0081697D02*
X0263186Y0075580D01*
X0258381Y0075580D01*
X0237831Y0096130D01*
X0197969Y0096130D01*
X0189551Y0087712D01*
X0183803Y0087712D02*
X0194021Y0097930D01*
X0238577Y0097930D01*
X0259127Y0077380D01*
X0262349Y0077380D01*
X0267959Y0082991D01*
X0267959Y0083040D01*
X0263787Y0087212D02*
X0266874Y0090299D01*
X0266874Y0094405D01*
X0262373Y0088626D02*
X0262345Y0088626D01*
X0253349Y0069805D02*
X0241249Y0082530D01*
X0228845Y0078073D02*
X0215900Y0078073D01*
X0215900Y0077075D02*
X0229843Y0077075D01*
X0230842Y0076076D02*
X0215900Y0076076D01*
X0215900Y0075078D02*
X0231840Y0075078D01*
X0232839Y0074079D02*
X0215900Y0074079D01*
X0215900Y0073081D02*
X0233837Y0073081D01*
X0234836Y0072082D02*
X0215900Y0072082D01*
X0215900Y0071084D02*
X0235834Y0071084D01*
X0236833Y0070085D02*
X0215900Y0070085D01*
X0215900Y0069087D02*
X0237831Y0069087D01*
X0238830Y0068088D02*
X0215900Y0068088D01*
X0215900Y0067090D02*
X0239828Y0067090D01*
X0240827Y0066091D02*
X0215900Y0066091D01*
X0215900Y0065093D02*
X0241825Y0065093D01*
X0242824Y0064094D02*
X0215900Y0064094D01*
X0218166Y0063096D02*
X0223328Y0063096D01*
X0228974Y0063096D02*
X0229233Y0063096D01*
X0234879Y0063096D02*
X0243822Y0063096D01*
X0246370Y0066205D02*
X0267812Y0066205D01*
X0276303Y0074696D01*
X0274889Y0076111D02*
X0266784Y0068005D01*
X0249524Y0068005D01*
X0241249Y0076280D01*
X0227846Y0079072D02*
X0215900Y0079072D01*
X0215900Y0080070D02*
X0226848Y0080070D01*
X0225849Y0081069D02*
X0215891Y0081069D01*
X0215316Y0082067D02*
X0224851Y0082067D01*
X0223852Y0083066D02*
X0215316Y0083066D01*
X0215316Y0084065D02*
X0222854Y0084065D01*
X0221855Y0085063D02*
X0214946Y0085063D01*
X0212041Y0081807D02*
X0213700Y0080148D01*
X0213700Y0060680D01*
X0211731Y0060680D02*
X0211731Y0072673D01*
X0206874Y0077530D01*
X0206874Y0081728D01*
X0206795Y0081807D01*
X0201874Y0080980D02*
X0201047Y0081807D01*
X0201874Y0080980D02*
X0201874Y0078155D01*
X0209271Y0070759D01*
X0209271Y0060680D01*
X0206537Y0061099D02*
X0200324Y0061099D01*
X0200324Y0062097D02*
X0206537Y0062097D01*
X0207071Y0063096D02*
X0200324Y0063096D01*
X0200324Y0064094D02*
X0207071Y0064094D01*
X0207071Y0065093D02*
X0200324Y0065093D01*
X0200324Y0066091D02*
X0207071Y0066091D01*
X0207071Y0067090D02*
X0200324Y0067090D01*
X0200324Y0068088D02*
X0207071Y0068088D01*
X0207071Y0069087D02*
X0200324Y0069087D01*
X0200324Y0070085D02*
X0206833Y0070085D01*
X0205834Y0071084D02*
X0200324Y0071084D01*
X0200324Y0072082D02*
X0204836Y0072082D01*
X0203837Y0073081D02*
X0200324Y0073081D01*
X0200324Y0074079D02*
X0202839Y0074079D01*
X0201840Y0075078D02*
X0200599Y0075078D01*
X0198124Y0077530D02*
X0198124Y0050655D01*
X0197499Y0050030D01*
X0194015Y0050115D02*
X0178483Y0050115D01*
X0178483Y0051114D02*
X0194176Y0051114D01*
X0194653Y0052112D02*
X0178167Y0052112D01*
X0177471Y0053111D02*
X0195831Y0053111D01*
X0195924Y0054109D02*
X0177199Y0054109D01*
X0177199Y0055108D02*
X0183534Y0055108D01*
X0183410Y0055231D02*
X0183689Y0054952D01*
X0184031Y0054755D01*
X0184413Y0054652D01*
X0185644Y0054652D01*
X0185644Y0057136D01*
X0185644Y0057136D01*
X0185644Y0057137D02*
X0183110Y0057137D01*
X0183110Y0055955D01*
X0183212Y0055573D01*
X0183410Y0055231D01*
X0183110Y0056106D02*
X0177199Y0056106D01*
X0177199Y0057105D02*
X0183110Y0057105D01*
X0183110Y0058103D02*
X0177199Y0058103D01*
X0177199Y0059102D02*
X0182910Y0059102D01*
X0182910Y0060100D02*
X0177199Y0060100D01*
X0177199Y0061099D02*
X0182910Y0061099D01*
X0182910Y0062097D02*
X0177199Y0062097D01*
X0177199Y0063096D02*
X0183444Y0063096D01*
X0183444Y0064094D02*
X0177199Y0064094D01*
X0177199Y0065093D02*
X0183444Y0065093D01*
X0183444Y0066091D02*
X0177199Y0066091D01*
X0177199Y0067090D02*
X0183444Y0067090D01*
X0183444Y0068088D02*
X0177199Y0068088D01*
X0177199Y0069087D02*
X0183444Y0069087D01*
X0183444Y0070085D02*
X0177199Y0070085D01*
X0177199Y0071084D02*
X0183334Y0071084D01*
X0182336Y0072082D02*
X0177199Y0072082D01*
X0177199Y0073081D02*
X0181337Y0073081D01*
X0180339Y0074079D02*
X0177726Y0074079D01*
X0178272Y0075078D02*
X0179340Y0075078D01*
X0174999Y0076280D02*
X0174999Y0050655D01*
X0172527Y0053111D02*
X0163296Y0053111D01*
X0162298Y0054109D02*
X0172799Y0054109D01*
X0172799Y0055108D02*
X0171391Y0055108D01*
X0171514Y0055231D02*
X0171235Y0054952D01*
X0170893Y0054755D01*
X0170511Y0054652D01*
X0169281Y0054652D01*
X0169281Y0057136D01*
X0169281Y0057137D02*
X0171814Y0057137D01*
X0171814Y0055955D01*
X0171712Y0055573D01*
X0171514Y0055231D01*
X0171814Y0056106D02*
X0172799Y0056106D01*
X0172799Y0057105D02*
X0171814Y0057105D01*
X0171814Y0058103D02*
X0172799Y0058103D01*
X0172799Y0059102D02*
X0172014Y0059102D01*
X0172014Y0060100D02*
X0172799Y0060100D01*
X0172799Y0061099D02*
X0172014Y0061099D01*
X0172014Y0062097D02*
X0172799Y0062097D01*
X0172799Y0063096D02*
X0171480Y0063096D01*
X0171480Y0064094D02*
X0172799Y0064094D01*
X0172799Y0065093D02*
X0171480Y0065093D01*
X0171480Y0066091D02*
X0172799Y0066091D01*
X0172799Y0067090D02*
X0171480Y0067090D01*
X0171480Y0068088D02*
X0172799Y0068088D01*
X0172799Y0069087D02*
X0171480Y0069087D01*
X0171480Y0070085D02*
X0172799Y0070085D01*
X0172799Y0071084D02*
X0171480Y0071084D01*
X0171480Y0072082D02*
X0172799Y0072082D01*
X0172799Y0073081D02*
X0171480Y0073081D01*
X0171480Y0074079D02*
X0172272Y0074079D01*
X0171726Y0075078D02*
X0171480Y0075078D01*
X0171480Y0076076D02*
X0171515Y0076076D01*
X0171480Y0077075D02*
X0171557Y0077075D01*
X0171685Y0078073D02*
X0171970Y0078073D01*
X0169281Y0078780D02*
X0172307Y0081807D01*
X0166820Y0081546D02*
X0166559Y0081807D01*
X0166820Y0081546D02*
X0166820Y0060680D01*
X0164851Y0060680D02*
X0164851Y0073928D01*
X0160624Y0078155D01*
X0160624Y0081620D01*
X0160811Y0081807D01*
X0155063Y0081807D02*
X0154999Y0081743D01*
X0154999Y0077530D01*
X0162391Y0070139D01*
X0162391Y0060680D01*
X0159657Y0061099D02*
X0155308Y0061099D01*
X0154310Y0062097D02*
X0159657Y0062097D01*
X0160191Y0063096D02*
X0153311Y0063096D01*
X0152313Y0064094D02*
X0160191Y0064094D01*
X0160191Y0065093D02*
X0151314Y0065093D01*
X0150316Y0066091D02*
X0160191Y0066091D01*
X0160191Y0067090D02*
X0149317Y0067090D01*
X0148319Y0068088D02*
X0160191Y0068088D01*
X0160191Y0069087D02*
X0147320Y0069087D01*
X0146322Y0070085D02*
X0159333Y0070085D01*
X0158334Y0071084D02*
X0145323Y0071084D01*
X0144325Y0072082D02*
X0157336Y0072082D01*
X0156337Y0073081D02*
X0143326Y0073081D01*
X0142328Y0074079D02*
X0155339Y0074079D01*
X0169281Y0078780D02*
X0169281Y0060680D01*
X0159657Y0060100D02*
X0156307Y0060100D01*
X0157305Y0059102D02*
X0159657Y0059102D01*
X0159857Y0058103D02*
X0158304Y0058103D01*
X0159302Y0057105D02*
X0159857Y0057105D01*
X0162391Y0057105D02*
X0162391Y0057105D01*
X0162391Y0056106D02*
X0162391Y0056106D01*
X0162391Y0055108D02*
X0162391Y0055108D01*
X0164851Y0055108D02*
X0164851Y0055108D01*
X0166820Y0055108D02*
X0166820Y0055108D01*
X0166820Y0054652D02*
X0166820Y0055683D01*
X0166820Y0055683D01*
X0166820Y0054652D01*
X0169280Y0055108D02*
X0169281Y0055108D01*
X0169280Y0056106D02*
X0169281Y0056106D01*
X0169280Y0057105D02*
X0169281Y0057105D01*
X0169280Y0057137D02*
X0166820Y0057137D01*
X0169280Y0057137D01*
X0169280Y0057137D01*
X0166820Y0057137D02*
X0166820Y0057137D01*
X0166820Y0057137D01*
X0164852Y0057137D01*
X0164852Y0057137D01*
X0166747Y0057137D01*
X0166820Y0057137D01*
X0164295Y0052112D02*
X0171831Y0052112D01*
X0171515Y0051114D02*
X0165293Y0051114D01*
X0166292Y0050115D02*
X0171515Y0050115D01*
X0171865Y0049117D02*
X0167290Y0049117D01*
X0168289Y0048118D02*
X0172609Y0048118D01*
X0170286Y0046121D02*
X0202524Y0046121D01*
X0202497Y0045123D02*
X0171284Y0045123D01*
X0172283Y0044124D02*
X0202497Y0044124D01*
X0202497Y0043126D02*
X0199756Y0043126D01*
X0200955Y0042127D02*
X0202497Y0042127D01*
X0202497Y0041129D02*
X0201440Y0041129D01*
X0201608Y0040130D02*
X0202722Y0040130D01*
X0201523Y0039131D02*
X0233219Y0039131D01*
X0233219Y0038133D02*
X0201109Y0038133D01*
X0209609Y0040130D02*
X0209697Y0040130D01*
X0212374Y0040130D02*
X0213343Y0040130D01*
X0213343Y0039559D02*
X0215024Y0039559D01*
X0215406Y0039661D01*
X0215748Y0039859D01*
X0216027Y0040138D01*
X0216225Y0040480D01*
X0216327Y0040861D01*
X0216327Y0042740D01*
X0213343Y0042740D01*
X0213343Y0039559D01*
X0213343Y0041129D02*
X0212374Y0041129D01*
X0212374Y0042127D02*
X0213343Y0042127D01*
X0213343Y0043126D02*
X0218227Y0043126D01*
X0218221Y0043135D02*
X0218419Y0042793D01*
X0218698Y0042514D01*
X0219040Y0042317D01*
X0219422Y0042214D01*
X0220869Y0042214D01*
X0220869Y0046464D01*
X0218119Y0046464D01*
X0218119Y0043517D01*
X0218221Y0043135D01*
X0218119Y0044124D02*
X0216327Y0044124D01*
X0216327Y0045123D02*
X0218119Y0045123D01*
X0218119Y0046121D02*
X0216136Y0046121D01*
X0216978Y0047120D02*
X0218119Y0047120D01*
X0220869Y0046121D02*
X0221369Y0046121D01*
X0221369Y0045123D02*
X0220869Y0045123D01*
X0220869Y0044124D02*
X0221369Y0044124D01*
X0221369Y0043126D02*
X0220869Y0043126D01*
X0224011Y0043126D02*
X0232919Y0043126D01*
X0232919Y0044124D02*
X0230895Y0044124D01*
X0233219Y0042127D02*
X0216327Y0042127D01*
X0216327Y0041129D02*
X0233219Y0041129D01*
X0233219Y0040130D02*
X0216019Y0040130D01*
X0224119Y0044124D02*
X0226603Y0044124D01*
X0225716Y0045123D02*
X0224119Y0045123D01*
X0224119Y0046121D02*
X0225303Y0046121D01*
X0225265Y0047120D02*
X0224119Y0047120D01*
X0224119Y0048118D02*
X0225480Y0048118D01*
X0226033Y0049117D02*
X0224119Y0049117D01*
X0224065Y0050115D02*
X0227393Y0050115D01*
X0228749Y0046905D02*
X0228940Y0046714D01*
X0236119Y0046714D01*
X0244767Y0052489D02*
X0245583Y0051673D01*
X0246024Y0050607D01*
X0246024Y0049909D01*
X0246082Y0049851D01*
X0246756Y0050525D01*
X0246877Y0050525D01*
X0239337Y0058065D01*
X0235310Y0058065D01*
X0234335Y0057090D01*
X0229777Y0057090D01*
X0229103Y0057764D01*
X0228430Y0057090D01*
X0223872Y0057090D01*
X0222876Y0058086D01*
X0222876Y0058380D01*
X0218677Y0058380D01*
X0218694Y0058318D01*
X0218694Y0057137D01*
X0216161Y0057137D01*
X0216161Y0057137D01*
X0218694Y0057137D01*
X0218694Y0056013D01*
X0218797Y0056055D01*
X0240576Y0056055D01*
X0241642Y0055614D01*
X0244767Y0052489D01*
X0245143Y0052112D02*
X0245289Y0052112D01*
X0245814Y0051114D02*
X0246288Y0051114D01*
X0246346Y0050115D02*
X0246024Y0050115D01*
X0244291Y0053111D02*
X0244145Y0053111D01*
X0243292Y0054109D02*
X0243146Y0054109D01*
X0242294Y0055108D02*
X0242148Y0055108D01*
X0241295Y0056106D02*
X0218694Y0056106D01*
X0218694Y0057105D02*
X0223857Y0057105D01*
X0222876Y0058103D02*
X0218694Y0058103D01*
X0216160Y0057136D02*
X0216160Y0054652D01*
X0216770Y0054652D01*
X0215835Y0053717D01*
X0215821Y0053731D01*
X0210279Y0053731D01*
X0209605Y0053057D01*
X0208931Y0053731D01*
X0209551Y0053111D02*
X0209659Y0053111D01*
X0211731Y0055108D02*
X0211731Y0055108D01*
X0213700Y0055108D02*
X0213700Y0055108D01*
X0216160Y0055108D02*
X0216160Y0055108D01*
X0216160Y0056106D02*
X0216160Y0056106D01*
X0216160Y0057105D02*
X0216160Y0057105D01*
X0213700Y0057137D02*
X0213627Y0057137D01*
X0211731Y0057137D01*
X0213700Y0057137D01*
X0213700Y0057137D01*
X0211731Y0057137D02*
X0211731Y0057137D01*
X0206737Y0057105D02*
X0200324Y0057105D01*
X0200324Y0058103D02*
X0206737Y0058103D01*
X0206537Y0059102D02*
X0200324Y0059102D01*
X0200324Y0060100D02*
X0206537Y0060100D01*
X0206737Y0056106D02*
X0200324Y0056106D01*
X0200324Y0055108D02*
X0207161Y0055108D01*
X0202769Y0053111D02*
X0200324Y0053111D01*
X0200324Y0054109D02*
X0216227Y0054109D01*
X0228444Y0057105D02*
X0229763Y0057105D01*
X0234350Y0057105D02*
X0240297Y0057105D01*
X0246370Y0066205D02*
X0221988Y0090587D01*
X0209928Y0090587D01*
X0205790Y0092455D02*
X0236415Y0092455D01*
X0257265Y0071605D01*
X0264999Y0071605D01*
X0272131Y0078738D01*
X0272131Y0078868D01*
X0273393Y0077454D02*
X0265745Y0069805D01*
X0253349Y0069805D01*
X0273393Y0077454D02*
X0273545Y0077454D01*
X0323165Y0074492D02*
X0327476Y0078803D01*
X0327476Y0078803D01*
X0343124Y0094451D02*
X0343124Y0094451D01*
X0344924Y0093705D02*
X0354374Y0103155D01*
X0364374Y0103155D01*
X0365477Y0102052D01*
X0365477Y0099465D01*
X0367977Y0099465D02*
X0368124Y0101487D01*
X0368124Y0102530D01*
X0365624Y0105030D01*
X0351249Y0105030D01*
X0354377Y0109337D02*
X0357642Y0108761D01*
X0357697Y0108706D01*
X0372573Y0108706D01*
X0374374Y0106905D01*
X0374374Y0103780D01*
X0372977Y0102384D01*
X0372977Y0099465D01*
X0370477Y0099465D02*
X0370624Y0101487D01*
X0370624Y0105030D01*
X0375477Y0102338D02*
X0376174Y0103035D01*
X0376174Y0103080D01*
X0377499Y0104405D01*
X0377499Y0106280D01*
X0380754Y0105033D02*
X0381204Y0105033D01*
X0380983Y0106032D02*
X0382203Y0106032D01*
X0383201Y0107030D02*
X0380960Y0107030D01*
X0380546Y0108029D02*
X0384200Y0108029D01*
X0384374Y0108155D02*
X0406249Y0108155D01*
X0406249Y0108142D01*
X0409333Y0105058D01*
X0409501Y0105033D02*
X0413823Y0105033D01*
X0413823Y0104035D02*
X0409733Y0104035D01*
X0409712Y0103036D02*
X0413823Y0103036D01*
X0413823Y0102038D02*
X0409299Y0102038D01*
X0408435Y0101039D02*
X0413823Y0101039D01*
X0413823Y0106032D02*
X0408925Y0106032D01*
X0407508Y0107030D02*
X0413823Y0107030D01*
X0413823Y0108029D02*
X0405112Y0108029D01*
X0398124Y0098780D02*
X0394639Y0102265D01*
X0386639Y0102265D01*
X0385477Y0101104D01*
X0385477Y0099465D01*
X0392977Y0099042D02*
X0394640Y0099042D01*
X0394658Y0098044D02*
X0392977Y0098044D01*
X0392977Y0097045D02*
X0395071Y0097045D01*
X0395930Y0096047D02*
X0392977Y0096047D01*
X0393171Y0095048D02*
X0438452Y0095048D01*
X0437454Y0094050D02*
X0393314Y0094050D01*
X0393219Y0093051D02*
X0436455Y0093051D01*
X0435457Y0092053D02*
X0393098Y0092053D01*
X0392619Y0091054D02*
X0434458Y0091054D01*
X0433460Y0090056D02*
X0391676Y0090056D01*
X0377977Y0099465D02*
X0377977Y0101759D01*
X0384374Y0108155D01*
X0380206Y0104035D02*
X0380181Y0104035D01*
X0375477Y0102338D02*
X0375477Y0099465D01*
X0392977Y0100041D02*
X0393752Y0100041D01*
X0354377Y0109337D02*
X0350966Y0110579D01*
X0349750Y0111280D01*
X0347822Y0112394D01*
X0346914Y0113155D01*
X0339374Y0117530D01*
X0336319Y0119475D02*
X0332818Y0119475D01*
X0334999Y0117293D01*
X0334999Y0110655D01*
X0329374Y0111280D02*
X0327712Y0112942D01*
X0317460Y0112942D01*
X0303470Y0110123D02*
X0303385Y0110123D01*
X0299213Y0114224D02*
X0295040Y0110050D01*
X0295040Y0104378D01*
X0288124Y0108780D02*
X0286874Y0110030D01*
X0288124Y0108780D02*
X0296385Y0117041D01*
X0296385Y0117123D01*
X0296385Y0117194D01*
X0299849Y0120658D01*
X0299849Y0126755D01*
X0301874Y0128780D01*
X0303826Y0128780D01*
X0304050Y0129005D01*
X0300224Y0130416D02*
X0295324Y0135317D01*
X0295324Y0141734D01*
X0295556Y0141734D01*
X0295756Y0141534D01*
X0297884Y0141534D01*
X0298390Y0141028D01*
X0298390Y0139962D01*
X0298920Y0138682D01*
X0299900Y0137702D01*
X0301181Y0137171D01*
X0302567Y0137171D01*
X0303848Y0137702D01*
X0304828Y0138682D01*
X0305183Y0139538D01*
X0305276Y0139445D01*
X0305276Y0132771D01*
X0301220Y0132771D01*
X0300224Y0131776D01*
X0300224Y0130416D01*
X0300224Y0130995D02*
X0299646Y0130995D01*
X0300442Y0131993D02*
X0298648Y0131993D01*
X0297649Y0132992D02*
X0305276Y0132992D01*
X0305276Y0133990D02*
X0296651Y0133990D01*
X0295652Y0134989D02*
X0305276Y0134989D01*
X0305276Y0135987D02*
X0295324Y0135987D01*
X0295324Y0136986D02*
X0305276Y0136986D01*
X0305276Y0137984D02*
X0304130Y0137984D01*
X0304952Y0138983D02*
X0305276Y0138983D01*
X0301874Y0140655D02*
X0297051Y0145478D01*
X0297051Y0145793D01*
X0295083Y0145793D02*
X0295083Y0139947D01*
X0298124Y0136905D01*
X0299618Y0137984D02*
X0295324Y0137984D01*
X0295324Y0138983D02*
X0298796Y0138983D01*
X0298390Y0139981D02*
X0295324Y0139981D01*
X0295324Y0140980D02*
X0298390Y0140980D01*
X0309514Y0143975D02*
X0318783Y0143975D01*
X0318208Y0144971D02*
X0319537Y0142670D01*
X0317474Y0142670D01*
X0316649Y0141845D01*
X0316623Y0141891D01*
X0316344Y0142170D01*
X0316002Y0142368D01*
X0315620Y0142470D01*
X0313856Y0142470D01*
X0313856Y0139344D01*
X0316478Y0139344D01*
X0316478Y0138344D01*
X0313856Y0138344D01*
X0313856Y0139344D01*
X0312856Y0139344D01*
X0312856Y0142470D01*
X0311091Y0142470D01*
X0311035Y0142455D01*
X0310210Y0143279D01*
X0300932Y0152558D01*
X0308779Y0152558D01*
X0309775Y0153554D01*
X0309775Y0159888D01*
X0323625Y0159888D01*
X0323898Y0159808D01*
X0324612Y0159888D01*
X0325329Y0159888D01*
X0325481Y0159951D01*
X0326323Y0159997D01*
X0326844Y0159937D01*
X0324103Y0159203D01*
X0321641Y0157781D01*
X0319630Y0155770D01*
X0318208Y0153308D01*
X0317472Y0150561D01*
X0317472Y0147718D01*
X0318208Y0144971D01*
X0318208Y0144974D02*
X0308516Y0144974D01*
X0307517Y0145972D02*
X0317940Y0145972D01*
X0317673Y0146971D02*
X0306519Y0146971D01*
X0305520Y0147969D02*
X0317472Y0147969D01*
X0317472Y0148968D02*
X0304521Y0148968D01*
X0303523Y0149966D02*
X0317472Y0149966D01*
X0317581Y0150965D02*
X0302524Y0150965D01*
X0301526Y0151963D02*
X0317848Y0151963D01*
X0318116Y0152962D02*
X0309183Y0152962D01*
X0309775Y0153960D02*
X0318585Y0153960D01*
X0319162Y0154959D02*
X0309775Y0154959D01*
X0309775Y0155957D02*
X0319817Y0155957D01*
X0320816Y0156956D02*
X0309775Y0156956D01*
X0309775Y0157954D02*
X0321941Y0157954D01*
X0323670Y0158953D02*
X0309775Y0158953D01*
X0325494Y0159951D02*
X0326719Y0159951D01*
X0293124Y0145783D02*
X0293114Y0145793D01*
X0293124Y0145783D02*
X0293124Y0134405D01*
X0298049Y0129480D01*
X0298049Y0121686D01*
X0295041Y0118679D01*
X0295041Y0118466D01*
X0293627Y0119881D02*
X0296249Y0122502D01*
X0296249Y0128155D01*
X0291146Y0133259D01*
X0291146Y0145793D01*
X0289177Y0145793D02*
X0289177Y0124331D01*
X0292213Y0121295D01*
X0289066Y0121330D02*
X0288074Y0120337D01*
X0288074Y0118929D01*
X0289847Y0117155D01*
X0289847Y0117155D01*
X0290902Y0116101D01*
X0290902Y0116100D01*
X0291617Y0115385D01*
X0288124Y0111892D01*
X0287199Y0112817D01*
X0287199Y0113442D01*
X0285910Y0114730D01*
X0283729Y0116912D01*
X0283972Y0117155D01*
X0284255Y0117155D01*
X0286029Y0118929D01*
X0286029Y0120337D01*
X0285036Y0121330D01*
X0287051Y0123345D01*
X0289066Y0121330D01*
X0288746Y0121009D02*
X0285357Y0121009D01*
X0285714Y0122008D02*
X0288389Y0122008D01*
X0287390Y0123006D02*
X0286712Y0123006D01*
X0287209Y0126614D02*
X0281889Y0121295D01*
X0280687Y0119881D02*
X0283013Y0117555D01*
X0285599Y0117555D01*
X0288124Y0115030D01*
X0286621Y0114020D02*
X0290252Y0114020D01*
X0289254Y0113021D02*
X0287199Y0113021D01*
X0287993Y0112023D02*
X0288255Y0112023D01*
X0285622Y0115018D02*
X0291251Y0115018D01*
X0290986Y0116017D02*
X0284624Y0116017D01*
X0283832Y0117015D02*
X0289987Y0117015D01*
X0288989Y0118014D02*
X0285114Y0118014D01*
X0286029Y0119012D02*
X0288074Y0119012D01*
X0288074Y0120011D02*
X0286029Y0120011D01*
X0280687Y0119881D02*
X0280475Y0119881D01*
X0264999Y0124405D02*
X0264999Y0113012D01*
X0269303Y0108708D01*
X0270717Y0109910D02*
X0273042Y0107585D01*
X0270717Y0109910D02*
X0270717Y0110123D01*
X0272131Y0111537D02*
X0272243Y0111537D01*
X0280121Y0113021D02*
X0281397Y0113021D01*
X0267959Y0107365D02*
X0262499Y0112825D01*
X0262499Y0125030D01*
X0275398Y0137929D01*
X0275398Y0145793D01*
X0277366Y0145793D02*
X0277366Y0136772D01*
X0264999Y0124405D01*
X0251874Y0120655D02*
X0240570Y0120655D01*
X0231886Y0129339D01*
X0251874Y0120655D02*
X0266545Y0105984D01*
X0266545Y0105951D01*
X0265131Y0104536D02*
X0265060Y0104536D01*
X0262278Y0107318D01*
X0174669Y0107318D01*
X0178055Y0081807D02*
X0178124Y0081738D01*
X0178124Y0079405D01*
X0185644Y0071886D01*
X0185644Y0060680D01*
X0188104Y0060680D02*
X0188104Y0077506D01*
X0183803Y0081807D01*
X0189551Y0081807D02*
X0190073Y0081285D01*
X0190073Y0060680D01*
X0192533Y0060680D02*
X0192533Y0079041D01*
X0195299Y0081807D01*
X0194955Y0076076D02*
X0194733Y0076076D01*
X0194733Y0075078D02*
X0195649Y0075078D01*
X0195924Y0074079D02*
X0194733Y0074079D01*
X0194733Y0073081D02*
X0195924Y0073081D01*
X0195924Y0072082D02*
X0194733Y0072082D01*
X0194733Y0071084D02*
X0195924Y0071084D01*
X0195924Y0070085D02*
X0194733Y0070085D01*
X0194733Y0069087D02*
X0195924Y0069087D01*
X0195924Y0068088D02*
X0194733Y0068088D01*
X0194733Y0067090D02*
X0195924Y0067090D01*
X0195924Y0066091D02*
X0194733Y0066091D01*
X0194733Y0065093D02*
X0195924Y0065093D01*
X0195924Y0064094D02*
X0194733Y0064094D01*
X0194733Y0063096D02*
X0195924Y0063096D01*
X0195924Y0062097D02*
X0195267Y0062097D01*
X0195267Y0061099D02*
X0195924Y0061099D01*
X0195924Y0060100D02*
X0195267Y0060100D01*
X0195267Y0059102D02*
X0195924Y0059102D01*
X0195924Y0058103D02*
X0195067Y0058103D01*
X0195067Y0057137D02*
X0192534Y0057137D01*
X0192534Y0057136D02*
X0192534Y0054652D01*
X0193764Y0054652D01*
X0194146Y0054755D01*
X0194488Y0054952D01*
X0194767Y0055231D01*
X0194965Y0055573D01*
X0195067Y0055955D01*
X0195067Y0057137D01*
X0195067Y0057105D02*
X0195924Y0057105D01*
X0195924Y0056106D02*
X0195067Y0056106D01*
X0194644Y0055108D02*
X0195924Y0055108D01*
X0192534Y0055108D02*
X0192533Y0055108D01*
X0192533Y0056106D02*
X0192534Y0056106D01*
X0192533Y0057105D02*
X0192534Y0057105D01*
X0192533Y0057137D02*
X0190096Y0057137D01*
X0190073Y0057137D01*
X0192533Y0057137D01*
X0192533Y0057137D01*
X0190073Y0057137D02*
X0190073Y0057137D01*
X0190073Y0057137D01*
X0188104Y0057137D01*
X0188104Y0057137D01*
X0190073Y0057137D01*
X0190073Y0055683D02*
X0190073Y0055683D01*
X0190073Y0054652D01*
X0190073Y0055683D01*
X0190073Y0055108D02*
X0190073Y0055108D01*
X0188104Y0055108D02*
X0188104Y0055108D01*
X0185644Y0055108D02*
X0185644Y0055108D01*
X0185644Y0056106D02*
X0185644Y0056106D01*
X0185644Y0057105D02*
X0185644Y0057105D01*
X0200345Y0052112D02*
X0202393Y0052112D01*
X0202393Y0051114D02*
X0200822Y0051114D01*
X0200983Y0050115D02*
X0202393Y0050115D01*
X0202393Y0049117D02*
X0200892Y0049117D01*
X0200478Y0048118D02*
X0202393Y0048118D01*
X0202393Y0047120D02*
X0199516Y0047120D01*
X0195482Y0047120D02*
X0169287Y0047120D01*
X0173281Y0043126D02*
X0196492Y0043126D01*
X0194520Y0048118D02*
X0177389Y0048118D01*
X0178133Y0049117D02*
X0194106Y0049117D01*
X0204024Y0027149D02*
X0204824Y0027149D01*
X0204824Y0026151D02*
X0204024Y0026151D01*
X0204024Y0025152D02*
X0204824Y0025152D01*
X0344924Y0093705D02*
X0344924Y0093705D01*
X0306874Y0096905D02*
X0305624Y0095655D01*
X0301249Y0095655D01*
X0274772Y0101039D02*
X0274102Y0101039D01*
X0300557Y0112739D02*
X0300557Y0112951D01*
X0299213Y0114224D02*
X0299213Y0114294D01*
X0297799Y0115709D02*
X0304050Y0121960D01*
X0304050Y0122115D01*
X0287209Y0126614D02*
X0287209Y0145793D01*
X0310513Y0142977D02*
X0319360Y0142977D01*
X0316783Y0141978D02*
X0316536Y0141978D01*
X0313856Y0141978D02*
X0312856Y0141978D01*
X0312856Y0140980D02*
X0313856Y0140980D01*
X0313856Y0139981D02*
X0312856Y0139981D01*
X0313356Y0138844D02*
X0313356Y0142924D01*
X0311874Y0144405D01*
X0313356Y0138844D02*
X0313419Y0138780D01*
X0316249Y0138780D01*
X0316874Y0138155D01*
X0316874Y0136905D01*
X0316878Y0136901D01*
X0316878Y0136179D01*
X0318726Y0134332D01*
X0318726Y0133660D01*
X0318725Y0133659D01*
X0313670Y0133659D01*
X0314170Y0133990D02*
X0318226Y0133990D01*
X0318226Y0134160D02*
X0318226Y0133160D01*
X0315100Y0133160D01*
X0315100Y0133159D01*
X0314170Y0133159D01*
X0314170Y0134159D01*
X0317296Y0134159D01*
X0317296Y0134160D01*
X0318226Y0134160D01*
X0318226Y0135018D01*
X0319226Y0135018D01*
X0319226Y0134160D01*
X0318226Y0134160D01*
X0318226Y0134989D02*
X0319226Y0134989D01*
X0314170Y0134989D02*
X0313170Y0134989D01*
X0313856Y0135218D02*
X0314170Y0135218D01*
X0314170Y0134159D01*
X0313170Y0134159D01*
X0313170Y0137226D01*
X0312856Y0137226D01*
X0312856Y0138344D01*
X0313856Y0138344D01*
X0313856Y0135218D01*
X0313856Y0135987D02*
X0313170Y0135987D01*
X0313170Y0136986D02*
X0313856Y0136986D01*
X0313856Y0137984D02*
X0312856Y0137984D01*
X0313856Y0138983D02*
X0316478Y0138983D01*
X0320245Y0138844D02*
X0320749Y0138340D01*
X0332745Y0138340D01*
X0332842Y0138437D01*
X0333885Y0137395D01*
X0333885Y0133573D01*
X0338749Y0128709D01*
X0338749Y0121905D01*
X0336319Y0119475D01*
X0333124Y0119168D02*
X0332818Y0119475D01*
X0494982Y0097045D02*
X0555555Y0097045D01*
X0555555Y0098044D02*
X0496845Y0098044D01*
X0497844Y0099042D02*
X0509652Y0099042D01*
X0509921Y0098970D02*
X0512764Y0098970D01*
X0515511Y0099706D01*
X0517973Y0101128D01*
X0519984Y0103139D01*
X0521406Y0105601D01*
X0522142Y0108348D01*
X0522142Y0111191D01*
X0521406Y0113938D01*
X0519984Y0116400D01*
X0517973Y0118411D01*
X0515511Y0119833D01*
X0512764Y0120569D01*
X0509921Y0120569D01*
X0507174Y0119833D01*
X0504712Y0118411D01*
X0502701Y0116400D01*
X0501279Y0113938D01*
X0500543Y0111191D01*
X0500543Y0108348D01*
X0501279Y0105601D01*
X0502701Y0103139D01*
X0504712Y0101128D01*
X0507174Y0099706D01*
X0509921Y0098970D01*
X0513033Y0099042D02*
X0555555Y0099042D01*
X0555555Y0100041D02*
X0516090Y0100041D01*
X0517820Y0101039D02*
X0555555Y0101039D01*
X0555555Y0102038D02*
X0518883Y0102038D01*
X0519882Y0103036D02*
X0555555Y0103036D01*
X0555555Y0104035D02*
X0520501Y0104035D01*
X0521078Y0105033D02*
X0527428Y0105033D01*
X0525726Y0106032D02*
X0521521Y0106032D01*
X0521789Y0107030D02*
X0524782Y0107030D01*
X0524368Y0108029D02*
X0522056Y0108029D01*
X0522142Y0109027D02*
X0524059Y0109027D01*
X0524059Y0110026D02*
X0522142Y0110026D01*
X0522142Y0111024D02*
X0524059Y0111024D01*
X0524059Y0112023D02*
X0521919Y0112023D01*
X0521651Y0113021D02*
X0524059Y0113021D01*
X0524039Y0114020D02*
X0521358Y0114020D01*
X0520782Y0115018D02*
X0523973Y0115018D01*
X0523724Y0116017D02*
X0520205Y0116017D01*
X0519369Y0117015D02*
X0523456Y0117015D01*
X0523129Y0118014D02*
X0518370Y0118014D01*
X0516932Y0119012D02*
X0522552Y0119012D01*
X0521976Y0120011D02*
X0514846Y0120011D01*
X0520080Y0122008D02*
X0502605Y0122008D01*
X0501607Y0121009D02*
X0521078Y0121009D01*
X0518515Y0123006D02*
X0504170Y0123006D01*
X0506636Y0124005D02*
X0516049Y0124005D01*
X0507839Y0120011D02*
X0500709Y0120011D01*
X0500133Y0119012D02*
X0505753Y0119012D01*
X0504315Y0118014D02*
X0499556Y0118014D01*
X0499229Y0117015D02*
X0503316Y0117015D01*
X0502480Y0116017D02*
X0498961Y0116017D01*
X0498712Y0115018D02*
X0501903Y0115018D01*
X0501327Y0114020D02*
X0498647Y0114020D01*
X0498626Y0113021D02*
X0501034Y0113021D01*
X0500766Y0112023D02*
X0498626Y0112023D01*
X0498626Y0111024D02*
X0500543Y0111024D01*
X0500543Y0110026D02*
X0498626Y0110026D01*
X0498626Y0109027D02*
X0500543Y0109027D01*
X0500629Y0108029D02*
X0498626Y0108029D01*
X0498626Y0107030D02*
X0500896Y0107030D01*
X0501164Y0106032D02*
X0498626Y0106032D01*
X0498626Y0105033D02*
X0501607Y0105033D01*
X0502184Y0104035D02*
X0498626Y0104035D01*
X0498626Y0103036D02*
X0502803Y0103036D01*
X0503802Y0102038D02*
X0498626Y0102038D01*
X0498626Y0101039D02*
X0504865Y0101039D01*
X0506595Y0100041D02*
X0498270Y0100041D01*
X0462157Y0062097D02*
X0555555Y0062097D01*
X0555555Y0061099D02*
X0461196Y0061099D01*
X0503232Y0030145D02*
X0519453Y0030145D01*
X0517724Y0029146D02*
X0504961Y0029146D01*
D31*
X0345624Y0070655D03*
X0345624Y0075655D03*
X0326249Y0070030D03*
X0314374Y0074405D03*
X0308749Y0072530D03*
X0318124Y0085655D03*
X0329999Y0086905D03*
X0333749Y0090030D03*
X0315624Y0093780D03*
X0306874Y0096905D03*
X0302499Y0100655D03*
X0298124Y0105655D03*
X0279999Y0111280D03*
X0276249Y0107530D03*
X0273124Y0104405D03*
X0279374Y0098155D03*
X0284374Y0098155D03*
X0266874Y0094405D03*
X0256249Y0097530D03*
X0284374Y0091280D03*
X0294374Y0091280D03*
X0294374Y0085655D03*
X0241249Y0082530D03*
X0241249Y0076280D03*
X0198124Y0077530D03*
X0174999Y0076280D03*
X0174999Y0050655D03*
X0197499Y0050030D03*
X0198124Y0040030D03*
X0228749Y0035655D03*
X0228749Y0046905D03*
X0259374Y0048780D03*
X0289999Y0048155D03*
X0303749Y0051280D03*
X0322499Y0047530D03*
X0354999Y0086905D03*
X0398124Y0098780D03*
X0401874Y0101905D03*
X0406249Y0103780D03*
X0377499Y0106280D03*
X0370624Y0105030D03*
X0351249Y0105030D03*
X0340624Y0105655D03*
X0329374Y0111280D03*
X0339374Y0117530D03*
X0288124Y0115030D03*
X0298124Y0136905D03*
X0301874Y0140655D03*
X0311874Y0144405D03*
X0264374Y0143780D03*
X0256874Y0143780D03*
D32*
X0256874Y0139677D01*
X0254140Y0136943D01*
X0257880Y0137286D02*
X0264374Y0143780D01*
X0257880Y0137286D02*
X0257880Y0128281D01*
X0240821Y0129331D02*
X0234120Y0136032D01*
X0231886Y0136032D01*
X0301874Y0140655D02*
X0301874Y0140970D01*
X0260959Y0100364D02*
X0259083Y0100364D01*
X0256249Y0097530D01*
X0345624Y0075655D02*
X0348124Y0075655D01*
X0349374Y0074405D01*
X0349374Y0070655D01*
X0361874Y0058155D01*
X0384374Y0058155D01*
X0398675Y0072456D01*
X0458315Y0072456D01*
X0458315Y0064582D02*
X0395801Y0064582D01*
X0386874Y0055655D01*
X0360624Y0055655D01*
X0345624Y0070655D01*
X0359374Y0043155D02*
X0359765Y0042764D01*
X0364529Y0042764D01*
X0249429Y0046659D02*
X0249374Y0046714D01*
X0249374Y0051280D01*
X0240289Y0060365D01*
X0232056Y0060365D01*
X0226151Y0060365D02*
X0225836Y0060680D01*
X0216160Y0060680D01*
X0209271Y0057137D02*
X0209039Y0056905D01*
X0206249Y0056905D01*
X0201308Y0051965D01*
X0201308Y0046965D01*
X0198124Y0043780D01*
X0201249Y0043780D01*
X0202797Y0042232D01*
X0202797Y0036607D01*
X0203124Y0036280D01*
X0198124Y0040030D02*
X0173124Y0040030D01*
X0140869Y0072285D01*
X0111410Y0072285D01*
X0120997Y0095907D02*
X0159999Y0056905D01*
X0162159Y0056905D01*
X0162391Y0057137D01*
X0164851Y0057137D01*
X0166820Y0057137D01*
X0169281Y0057137D01*
X0169281Y0048249D01*
X0173749Y0043780D01*
X0185624Y0043780D01*
X0185644Y0043800D01*
X0185644Y0057137D01*
X0188104Y0057137D01*
X0190073Y0057137D01*
X0192533Y0057137D01*
X0198124Y0043780D02*
X0185624Y0043780D01*
X0120997Y0095907D02*
X0111410Y0095907D01*
D33*
X0240821Y0129331D02*
X0241871Y0128281D01*
X0250399Y0128281D01*
X0253221Y0136024D02*
X0240821Y0136024D01*
X0253221Y0136024D02*
X0254140Y0136943D01*
X0362977Y0099465D02*
X0362977Y0094052D01*
X0349941Y0093338D01*
X0346874Y0083155D02*
X0354374Y0083155D01*
X0360624Y0076905D01*
X0363124Y0076905D01*
X0364374Y0075655D01*
X0366874Y0075655D01*
X0367977Y0074552D01*
X0367977Y0069465D01*
X0367977Y0065802D01*
X0371249Y0062530D01*
X0378749Y0062530D01*
X0379374Y0063155D01*
X0382977Y0066759D01*
X0382977Y0069465D01*
X0380477Y0069465D02*
X0380477Y0084552D01*
X0379374Y0085655D01*
X0377977Y0084259D01*
X0377977Y0069465D01*
X0375477Y0069465D02*
X0375477Y0080802D01*
X0374374Y0081905D01*
X0366874Y0081905D01*
X0365624Y0080655D01*
X0366727Y0079552D01*
X0372977Y0079552D01*
X0372977Y0069465D01*
X0370477Y0069465D02*
X0370477Y0067052D01*
X0371874Y0065655D01*
X0376874Y0065655D01*
X0379374Y0063155D01*
X0379999Y0062530D01*
X0383124Y0062530D01*
X0385477Y0064884D01*
X0385477Y0069465D01*
X0387977Y0069465D02*
X0387977Y0078009D01*
X0389374Y0079405D01*
X0390477Y0078302D01*
X0390477Y0069465D01*
X0365477Y0069465D02*
X0365477Y0065509D01*
X0363124Y0063155D01*
X0362977Y0063302D01*
X0362977Y0069465D01*
X0349374Y0056905D02*
X0339374Y0066905D01*
X0339374Y0075655D01*
X0346874Y0083155D01*
X0387977Y0095005D02*
X0389019Y0093338D01*
X0390477Y0095421D01*
X0390477Y0099465D01*
X0387977Y0099465D02*
X0387977Y0095005D01*
X0354374Y0056905D02*
X0349374Y0056905D01*
X0354374Y0056905D02*
X0359374Y0051905D01*
X0359374Y0043155D01*
X0355008Y0042796D02*
X0364497Y0042796D01*
X0364529Y0042764D01*
X0374141Y0042782D02*
X0394747Y0042782D01*
X0399374Y0038155D01*
X0399374Y0028703D01*
X0399095Y0028424D01*
X0362566Y0027713D02*
X0347515Y0042764D01*
X0346611Y0042764D01*
X0346611Y0049457D02*
X0354976Y0049457D01*
X0355008Y0049489D01*
X0364529Y0049457D02*
X0374123Y0049457D01*
X0374141Y0049475D01*
X0322499Y0047530D02*
X0321741Y0046772D01*
X0312641Y0046772D01*
X0289999Y0048155D02*
X0289999Y0027764D01*
X0290055Y0027708D01*
D34*
X0259374Y0027711D02*
X0259338Y0027675D01*
X0259374Y0027711D02*
X0259374Y0048780D01*
X0249429Y0046659D02*
X0249338Y0046569D01*
X0249338Y0027675D01*
X0236119Y0024714D02*
X0236119Y0046714D01*
X0242680Y0046714D01*
X0242736Y0046659D01*
X0243124Y0047048D01*
X0243124Y0050030D01*
X0239999Y0053155D01*
X0219374Y0053155D01*
X0216123Y0049905D01*
X0213050Y0049905D01*
X0206160Y0049905D02*
X0206165Y0050524D01*
X0206165Y0043224D01*
X0212499Y0042958D02*
X0212858Y0043224D01*
X0217629Y0043224D01*
X0221119Y0046714D01*
X0221119Y0024714D01*
X0221119Y0028025D01*
X0228749Y0035655D01*
X0212499Y0040655D02*
X0212499Y0042958D01*
X0212499Y0040655D02*
X0208124Y0036280D01*
X0203124Y0036280D01*
X0201249Y0036280D01*
X0199524Y0034555D01*
X0199524Y0027655D01*
D35*
X0379374Y0063155D03*
D36*
X0315624Y0043789D02*
X0312641Y0046772D01*
X0315624Y0043789D02*
X0315624Y0035655D01*
X0320055Y0031224D01*
X0320055Y0027708D01*
D37*
X0333124Y0039405D02*
X0336874Y0035655D01*
X0346874Y0035655D01*
X0352566Y0029963D01*
X0352566Y0027713D01*
X0362566Y0027713D02*
X0363277Y0028424D01*
X0389095Y0028424D01*
X0333124Y0039405D02*
X0333124Y0046171D01*
X0332523Y0046772D01*
X0332523Y0075920D01*
X0349941Y0093338D01*
X0389019Y0093338D01*
X0389090Y0094034D01*
X0389374Y0079405D02*
X0428749Y0079405D01*
X0445422Y0096078D01*
X0458315Y0096078D01*
X0389374Y0079405D02*
X0389374Y0076905D01*
D38*
X0365624Y0080655D03*
X0379374Y0085655D03*
X0363124Y0063155D03*
M02*
