G75*
%MOIN*%
%OFA0B0*%
%FSLAX25Y25*%
%IPPOS*%
%LPD*%
%AMOC8*
5,1,8,0,0,1.08239X$1,22.5*
%
%ADD10C,0.13398*%
%ADD11R,0.02400X0.03800*%
%ADD12R,0.01900X0.06600*%
%ADD13R,0.05950X0.05950*%
%ADD14C,0.05950*%
%ADD15C,0.06800*%
%ADD16C,0.06400*%
%ADD17R,0.05918X0.05131*%
%ADD18R,0.04737X0.05131*%
%ADD19R,0.05131X0.04737*%
%ADD20R,0.04934X0.05052*%
%ADD21R,0.05052X0.04934*%
%ADD22R,0.10839X0.10643*%
%ADD23R,0.03800X0.06800*%
%ADD24R,0.03950X0.03950*%
%ADD25R,0.02867X0.02769*%
%ADD26R,0.01784X0.02769*%
%ADD27R,0.04737X0.06312*%
%ADD28R,0.01575X0.05512*%
%ADD29R,0.07480X0.09252*%
%ADD30C,0.08200*%
%ADD31C,0.04369*%
%ADD32C,0.05156*%
%ADD33C,0.06115*%
D10*
X0058587Y0042840D03*
X0058587Y0109769D03*
X0241657Y0149140D03*
X0328272Y0149140D03*
X0511343Y0109769D03*
X0511343Y0042840D03*
D11*
X0390477Y0069465D03*
X0387977Y0069465D03*
X0385477Y0069465D03*
X0382977Y0069465D03*
X0380477Y0069465D03*
X0377977Y0069465D03*
X0375477Y0069465D03*
X0372977Y0069465D03*
X0370477Y0069465D03*
X0367977Y0069465D03*
X0365477Y0069465D03*
X0362977Y0069465D03*
X0362977Y0099465D03*
X0365477Y0099465D03*
X0367977Y0099465D03*
X0370477Y0099465D03*
X0372977Y0099465D03*
X0375477Y0099465D03*
X0377977Y0099465D03*
X0380477Y0099465D03*
X0382977Y0099465D03*
X0385477Y0099465D03*
X0387977Y0099465D03*
X0390477Y0099465D03*
D12*
G36*
X0314804Y0103369D02*
X0316148Y0102025D01*
X0311482Y0097359D01*
X0310138Y0098703D01*
X0314804Y0103369D01*
G37*
G36*
X0313390Y0104784D02*
X0314734Y0103440D01*
X0310068Y0098774D01*
X0308724Y0100118D01*
X0313390Y0104784D01*
G37*
G36*
X0311976Y0106198D02*
X0313320Y0104854D01*
X0308654Y0100188D01*
X0307310Y0101532D01*
X0311976Y0106198D01*
G37*
G36*
X0310632Y0107541D02*
X0311976Y0106197D01*
X0307310Y0101531D01*
X0305966Y0102875D01*
X0310632Y0107541D01*
G37*
G36*
X0309218Y0108956D02*
X0310562Y0107612D01*
X0305896Y0102946D01*
X0304552Y0104290D01*
X0309218Y0108956D01*
G37*
G36*
X0307804Y0110370D02*
X0309148Y0109026D01*
X0304482Y0104360D01*
X0303138Y0105704D01*
X0307804Y0110370D01*
G37*
G36*
X0306461Y0111713D02*
X0307805Y0110369D01*
X0303139Y0105703D01*
X0301795Y0107047D01*
X0306461Y0111713D01*
G37*
G36*
X0305046Y0113128D02*
X0306390Y0111784D01*
X0301724Y0107118D01*
X0300380Y0108462D01*
X0305046Y0113128D01*
G37*
G36*
X0303632Y0114542D02*
X0304976Y0113198D01*
X0300310Y0108532D01*
X0298966Y0109876D01*
X0303632Y0114542D01*
G37*
G36*
X0302218Y0115956D02*
X0303562Y0114612D01*
X0298896Y0109946D01*
X0297552Y0111290D01*
X0302218Y0115956D01*
G37*
G36*
X0300874Y0117299D02*
X0302218Y0115955D01*
X0297552Y0111289D01*
X0296208Y0112633D01*
X0300874Y0117299D01*
G37*
G36*
X0299460Y0118714D02*
X0300804Y0117370D01*
X0296138Y0112704D01*
X0294794Y0114048D01*
X0299460Y0118714D01*
G37*
G36*
X0298046Y0120128D02*
X0299390Y0118784D01*
X0294724Y0114118D01*
X0293380Y0115462D01*
X0298046Y0120128D01*
G37*
G36*
X0296702Y0121471D02*
X0298046Y0120127D01*
X0293380Y0115461D01*
X0292036Y0116805D01*
X0296702Y0121471D01*
G37*
G36*
X0295288Y0122886D02*
X0296632Y0121542D01*
X0291966Y0116876D01*
X0290622Y0118220D01*
X0295288Y0122886D01*
G37*
G36*
X0293874Y0124300D02*
X0295218Y0122956D01*
X0290552Y0118290D01*
X0289208Y0119634D01*
X0293874Y0124300D01*
G37*
G36*
X0284894Y0119634D02*
X0283550Y0118290D01*
X0278884Y0122956D01*
X0280228Y0124300D01*
X0284894Y0119634D01*
G37*
G36*
X0283480Y0118220D02*
X0282136Y0116876D01*
X0277470Y0121542D01*
X0278814Y0122886D01*
X0283480Y0118220D01*
G37*
G36*
X0282066Y0116805D02*
X0280722Y0115461D01*
X0276056Y0120127D01*
X0277400Y0121471D01*
X0282066Y0116805D01*
G37*
G36*
X0280722Y0115462D02*
X0279378Y0114118D01*
X0274712Y0118784D01*
X0276056Y0120128D01*
X0280722Y0115462D01*
G37*
G36*
X0279308Y0114048D02*
X0277964Y0112704D01*
X0273298Y0117370D01*
X0274642Y0118714D01*
X0279308Y0114048D01*
G37*
G36*
X0277894Y0112633D02*
X0276550Y0111289D01*
X0271884Y0115955D01*
X0273228Y0117299D01*
X0277894Y0112633D01*
G37*
G36*
X0276550Y0111290D02*
X0275206Y0109946D01*
X0270540Y0114612D01*
X0271884Y0115956D01*
X0276550Y0111290D01*
G37*
G36*
X0275136Y0109876D02*
X0273792Y0108532D01*
X0269126Y0113198D01*
X0270470Y0114542D01*
X0275136Y0109876D01*
G37*
G36*
X0273722Y0108462D02*
X0272378Y0107118D01*
X0267712Y0111784D01*
X0269056Y0113128D01*
X0273722Y0108462D01*
G37*
G36*
X0272308Y0107047D02*
X0270964Y0105703D01*
X0266298Y0110369D01*
X0267642Y0111713D01*
X0272308Y0107047D01*
G37*
G36*
X0270964Y0105704D02*
X0269620Y0104360D01*
X0264954Y0109026D01*
X0266298Y0110370D01*
X0270964Y0105704D01*
G37*
G36*
X0269550Y0104290D02*
X0268206Y0102946D01*
X0263540Y0107612D01*
X0264884Y0108956D01*
X0269550Y0104290D01*
G37*
G36*
X0268136Y0102875D02*
X0266792Y0101531D01*
X0262126Y0106197D01*
X0263470Y0107541D01*
X0268136Y0102875D01*
G37*
G36*
X0266792Y0101532D02*
X0265448Y0100188D01*
X0260782Y0104854D01*
X0262126Y0106198D01*
X0266792Y0101532D01*
G37*
G36*
X0265378Y0100118D02*
X0264034Y0098774D01*
X0259368Y0103440D01*
X0260712Y0104784D01*
X0265378Y0100118D01*
G37*
G36*
X0263964Y0098703D02*
X0262620Y0097359D01*
X0257954Y0102025D01*
X0259298Y0103369D01*
X0263964Y0098703D01*
G37*
G36*
X0262620Y0093046D02*
X0263964Y0091702D01*
X0259298Y0087036D01*
X0257954Y0088380D01*
X0262620Y0093046D01*
G37*
G36*
X0264034Y0091631D02*
X0265378Y0090287D01*
X0260712Y0085621D01*
X0259368Y0086965D01*
X0264034Y0091631D01*
G37*
G36*
X0265448Y0090217D02*
X0266792Y0088873D01*
X0262126Y0084207D01*
X0260782Y0085551D01*
X0265448Y0090217D01*
G37*
G36*
X0266792Y0088874D02*
X0268136Y0087530D01*
X0263470Y0082864D01*
X0262126Y0084208D01*
X0266792Y0088874D01*
G37*
G36*
X0268206Y0087460D02*
X0269550Y0086116D01*
X0264884Y0081450D01*
X0263540Y0082794D01*
X0268206Y0087460D01*
G37*
G36*
X0269620Y0086045D02*
X0270964Y0084701D01*
X0266298Y0080035D01*
X0264954Y0081379D01*
X0269620Y0086045D01*
G37*
G36*
X0270964Y0084702D02*
X0272308Y0083358D01*
X0267642Y0078692D01*
X0266298Y0080036D01*
X0270964Y0084702D01*
G37*
G36*
X0272378Y0083288D02*
X0273722Y0081944D01*
X0269056Y0077278D01*
X0267712Y0078622D01*
X0272378Y0083288D01*
G37*
G36*
X0273792Y0081873D02*
X0275136Y0080529D01*
X0270470Y0075863D01*
X0269126Y0077207D01*
X0273792Y0081873D01*
G37*
G36*
X0275206Y0080459D02*
X0276550Y0079115D01*
X0271884Y0074449D01*
X0270540Y0075793D01*
X0275206Y0080459D01*
G37*
G36*
X0276550Y0079116D02*
X0277894Y0077772D01*
X0273228Y0073106D01*
X0271884Y0074450D01*
X0276550Y0079116D01*
G37*
G36*
X0277964Y0077701D02*
X0279308Y0076357D01*
X0274642Y0071691D01*
X0273298Y0073035D01*
X0277964Y0077701D01*
G37*
G36*
X0279378Y0076287D02*
X0280722Y0074943D01*
X0276056Y0070277D01*
X0274712Y0071621D01*
X0279378Y0076287D01*
G37*
G36*
X0280722Y0074944D02*
X0282066Y0073600D01*
X0277400Y0068934D01*
X0276056Y0070278D01*
X0280722Y0074944D01*
G37*
G36*
X0282136Y0073530D02*
X0283480Y0072186D01*
X0278814Y0067520D01*
X0277470Y0068864D01*
X0282136Y0073530D01*
G37*
G36*
X0283550Y0072115D02*
X0284894Y0070771D01*
X0280228Y0066105D01*
X0278884Y0067449D01*
X0283550Y0072115D01*
G37*
G36*
X0295218Y0067449D02*
X0293874Y0066105D01*
X0289208Y0070771D01*
X0290552Y0072115D01*
X0295218Y0067449D01*
G37*
G36*
X0296632Y0068864D02*
X0295288Y0067520D01*
X0290622Y0072186D01*
X0291966Y0073530D01*
X0296632Y0068864D01*
G37*
G36*
X0298046Y0070278D02*
X0296702Y0068934D01*
X0292036Y0073600D01*
X0293380Y0074944D01*
X0298046Y0070278D01*
G37*
G36*
X0299390Y0071621D02*
X0298046Y0070277D01*
X0293380Y0074943D01*
X0294724Y0076287D01*
X0299390Y0071621D01*
G37*
G36*
X0300804Y0073035D02*
X0299460Y0071691D01*
X0294794Y0076357D01*
X0296138Y0077701D01*
X0300804Y0073035D01*
G37*
G36*
X0302218Y0074450D02*
X0300874Y0073106D01*
X0296208Y0077772D01*
X0297552Y0079116D01*
X0302218Y0074450D01*
G37*
G36*
X0303562Y0075793D02*
X0302218Y0074449D01*
X0297552Y0079115D01*
X0298896Y0080459D01*
X0303562Y0075793D01*
G37*
G36*
X0304976Y0077207D02*
X0303632Y0075863D01*
X0298966Y0080529D01*
X0300310Y0081873D01*
X0304976Y0077207D01*
G37*
G36*
X0306390Y0078622D02*
X0305046Y0077278D01*
X0300380Y0081944D01*
X0301724Y0083288D01*
X0306390Y0078622D01*
G37*
G36*
X0307805Y0080036D02*
X0306461Y0078692D01*
X0301795Y0083358D01*
X0303139Y0084702D01*
X0307805Y0080036D01*
G37*
G36*
X0309148Y0081379D02*
X0307804Y0080035D01*
X0303138Y0084701D01*
X0304482Y0086045D01*
X0309148Y0081379D01*
G37*
G36*
X0310562Y0082794D02*
X0309218Y0081450D01*
X0304552Y0086116D01*
X0305896Y0087460D01*
X0310562Y0082794D01*
G37*
G36*
X0311976Y0084208D02*
X0310632Y0082864D01*
X0305966Y0087530D01*
X0307310Y0088874D01*
X0311976Y0084208D01*
G37*
G36*
X0313320Y0085551D02*
X0311976Y0084207D01*
X0307310Y0088873D01*
X0308654Y0090217D01*
X0313320Y0085551D01*
G37*
G36*
X0314734Y0086965D02*
X0313390Y0085621D01*
X0308724Y0090287D01*
X0310068Y0091631D01*
X0314734Y0086965D01*
G37*
G36*
X0316148Y0088380D02*
X0314804Y0087036D01*
X0310138Y0091702D01*
X0311482Y0093046D01*
X0316148Y0088380D01*
G37*
D13*
X0389095Y0028424D03*
D14*
X0399095Y0028424D03*
X0409095Y0028424D03*
D15*
X0320055Y0030708D02*
X0320055Y0024708D01*
X0310055Y0024708D02*
X0310055Y0030708D01*
X0300055Y0030708D02*
X0300055Y0024708D01*
X0290055Y0024708D02*
X0290055Y0030708D01*
X0269338Y0030675D02*
X0269338Y0024675D01*
X0259338Y0024675D02*
X0259338Y0030675D01*
X0249338Y0030675D02*
X0249338Y0024675D01*
X0209524Y0024655D02*
X0209524Y0030655D01*
X0199524Y0030655D02*
X0199524Y0024655D01*
X0189524Y0024655D02*
X0189524Y0030655D01*
X0179524Y0030655D02*
X0179524Y0024655D01*
X0169524Y0024655D02*
X0169524Y0030655D01*
X0159524Y0030655D02*
X0159524Y0024655D01*
D16*
X0111410Y0056537D03*
X0111410Y0064411D03*
X0111410Y0072285D03*
X0111410Y0080159D03*
X0111410Y0088033D03*
X0111410Y0095907D03*
X0458315Y0096078D03*
X0458315Y0088204D03*
X0458315Y0080330D03*
X0458315Y0072456D03*
X0458315Y0064582D03*
X0458315Y0056708D03*
D17*
X0333885Y0126486D03*
X0324829Y0126486D03*
X0324829Y0133573D03*
X0333885Y0133573D03*
D18*
X0332818Y0119475D03*
X0326125Y0119475D03*
X0249429Y0046659D03*
X0242736Y0046659D03*
X0212858Y0043224D03*
X0206165Y0043224D03*
D19*
X0346611Y0042764D03*
X0355008Y0042796D03*
X0364529Y0042764D03*
X0374141Y0042782D03*
X0374141Y0049475D03*
X0364529Y0049457D03*
X0355008Y0049489D03*
X0346611Y0049457D03*
X0324850Y0087991D03*
X0324850Y0094684D03*
X0317460Y0112942D03*
X0317460Y0119635D03*
X0240821Y0129331D03*
X0231886Y0129339D03*
X0231886Y0136032D03*
X0240821Y0136024D03*
D20*
X0313356Y0138844D03*
X0320245Y0138844D03*
X0213050Y0049905D03*
X0206160Y0049905D03*
D21*
X0304050Y0122115D03*
X0313670Y0126770D03*
X0318726Y0126770D03*
X0304050Y0129005D03*
X0313670Y0133659D03*
X0318726Y0133660D03*
D22*
X0312641Y0046772D03*
X0332523Y0046772D03*
D23*
X0236119Y0046714D03*
X0221119Y0046714D03*
X0221119Y0024714D03*
X0236119Y0024714D03*
D24*
X0232056Y0060365D03*
X0226151Y0060365D03*
X0212041Y0081807D03*
X0206795Y0081807D03*
X0201047Y0081807D03*
X0195299Y0081807D03*
X0189551Y0081807D03*
X0183803Y0081807D03*
X0178055Y0081807D03*
X0172307Y0081807D03*
X0166559Y0081807D03*
X0160811Y0081807D03*
X0155063Y0081807D03*
X0155063Y0087712D03*
X0160811Y0087712D03*
X0166559Y0087712D03*
X0172307Y0087712D03*
X0178055Y0087712D03*
X0183803Y0087712D03*
X0189551Y0087712D03*
X0195299Y0087712D03*
X0201047Y0087712D03*
X0206795Y0087712D03*
X0212041Y0087712D03*
D25*
X0209271Y0060680D03*
X0209271Y0057137D03*
X0216160Y0057137D03*
X0216160Y0060680D03*
X0192533Y0060680D03*
X0192533Y0057137D03*
X0185644Y0057137D03*
X0185644Y0060680D03*
X0169281Y0060680D03*
X0162391Y0060680D03*
X0162391Y0057137D03*
X0169281Y0057137D03*
D26*
X0166820Y0057137D03*
X0164851Y0057137D03*
X0164851Y0060680D03*
X0166820Y0060680D03*
X0188104Y0060680D03*
X0190073Y0060680D03*
X0190073Y0057137D03*
X0188104Y0057137D03*
X0211731Y0057137D03*
X0213700Y0057137D03*
X0213700Y0060680D03*
X0211731Y0060680D03*
D27*
X0250399Y0128281D03*
X0257880Y0128281D03*
X0254140Y0136943D03*
D28*
X0271461Y0145793D03*
X0273429Y0145793D03*
X0275398Y0145793D03*
X0277366Y0145793D03*
X0279335Y0145793D03*
X0281303Y0145793D03*
X0283272Y0145793D03*
X0285240Y0145793D03*
X0287209Y0145793D03*
X0289177Y0145793D03*
X0291146Y0145793D03*
X0293114Y0145793D03*
X0295083Y0145793D03*
X0297051Y0145793D03*
D29*
X0304531Y0158588D03*
X0263980Y0158588D03*
D30*
X0342566Y0027713D03*
X0352566Y0027713D03*
X0362566Y0027713D03*
D31*
X0322499Y0047530D03*
X0303749Y0051280D03*
X0289999Y0048155D03*
X0259374Y0048780D03*
X0228749Y0046905D03*
X0198124Y0040030D03*
X0228749Y0035655D03*
X0197499Y0050030D03*
X0174999Y0050655D03*
X0174999Y0076280D03*
X0198124Y0077530D03*
X0241249Y0076280D03*
X0241249Y0082530D03*
X0266874Y0094405D03*
X0256249Y0097530D03*
X0273124Y0104405D03*
X0276249Y0107530D03*
X0279999Y0111280D03*
X0288124Y0115030D03*
X0298124Y0105655D03*
X0302499Y0100655D03*
X0306874Y0096905D03*
X0315624Y0093780D03*
X0333749Y0090030D03*
X0329999Y0086905D03*
X0318124Y0085655D03*
X0294374Y0085655D03*
X0294374Y0091280D03*
X0284374Y0091280D03*
X0284374Y0098155D03*
X0279374Y0098155D03*
X0329374Y0111280D03*
X0340624Y0105655D03*
X0351249Y0105030D03*
X0370624Y0105030D03*
X0377499Y0106280D03*
X0398124Y0098780D03*
X0401874Y0101905D03*
X0406249Y0103780D03*
X0354999Y0086905D03*
X0345624Y0075655D03*
X0345624Y0070655D03*
X0326249Y0070030D03*
X0314374Y0074405D03*
X0308749Y0072530D03*
X0339374Y0117530D03*
X0298124Y0136905D03*
X0301874Y0140655D03*
X0311874Y0144405D03*
X0264374Y0143780D03*
X0256874Y0143780D03*
D32*
X0379374Y0063155D03*
D33*
X0363124Y0063155D03*
X0365624Y0080655D03*
X0379374Y0085655D03*
M02*
